<svg width="85" height="15" viewBox="0 0 85 15" fill="none" xmlns="http://www.w3.org/2000/svg">
<path d="M0.486 14H2.736L3.744 10.814H8.658L9.684 14H12.168L7.92 1.13H4.788L0.486 14ZM6.21 3.092L8.1 9.068H4.302L6.21 3.092ZM17.3045 14.18C18.6905 14.18 19.8965 13.352 20.4005 12.416V14H22.5785V0.229999H20.4005V6.026C19.8785 5.09 18.9245 4.388 17.3945 4.388C14.9465 4.388 13.1645 6.296 13.1645 9.302V9.446C13.1645 12.506 14.9465 14.18 17.3045 14.18ZM17.8445 12.452C16.4405 12.452 15.3965 11.462 15.3965 9.392V9.248C15.3965 7.214 16.3325 6.098 17.9345 6.098C19.5185 6.098 20.4725 7.124 20.4725 9.194V9.338C20.4725 11.444 19.3565 12.452 17.8445 12.452ZM32.9842 14.18C34.3702 14.18 35.5762 13.352 36.0802 12.416V14H38.2582V0.229999H36.0802V6.026C35.5582 5.09 34.6042 4.388 33.0742 4.388C30.6262 4.388 28.8442 6.296 28.8442 9.302V9.446C28.8442 12.506 30.6262 14.18 32.9842 14.18ZM33.5242 12.452C32.1202 12.452 31.0762 11.462 31.0762 9.392V9.248C31.0762 7.214 32.0122 6.098 33.6142 6.098C35.1982 6.098 36.1522 7.124 36.1522 9.194V9.338C36.1522 11.444 35.0362 12.452 33.5242 12.452ZM44.9868 14.18C47.3988 14.18 49.0008 13.1 49.3068 11.12H47.2008C47.0388 12.038 46.3548 12.56 45.0408 12.56C43.4208 12.56 42.5208 11.552 42.4488 9.77H49.3428V9.14C49.3428 5.774 47.2368 4.388 44.8968 4.388C42.2148 4.388 40.2168 6.332 40.2168 9.248V9.392C40.2168 12.362 42.2148 14.18 44.9868 14.18ZM42.4848 8.312C42.7008 6.854 43.5828 5.972 44.8968 5.972C46.2468 5.972 47.0748 6.692 47.1828 8.312H42.4848ZM54.4922 14.162C55.1582 14.162 55.6262 14.054 55.9682 13.928V12.2C55.6622 12.326 55.3382 12.38 54.9062 12.38C54.2222 12.38 53.8262 12.002 53.8262 11.174V6.224H55.8962V4.586H53.8262V2.516H51.6482V4.586H50.3882V6.224H51.6482V11.372C51.6482 13.154 52.6202 14.162 54.4922 14.162ZM60.4866 14.18C61.9266 14.18 62.7546 13.658 63.3666 12.848V14H65.5086V7.826C65.5086 5.252 63.8526 4.388 61.7466 4.388C59.6406 4.388 57.8946 5.306 57.7146 7.502H59.8206C59.9286 6.566 60.4866 6.026 61.6206 6.026C62.8986 6.026 63.3306 6.656 63.3306 7.916V8.402H62.1606C59.4606 8.402 57.3366 9.194 57.3366 11.39C57.3366 13.352 58.7586 14.18 60.4866 14.18ZM61.0086 12.614C59.9286 12.614 59.4966 12.092 59.4966 11.3C59.4966 10.148 60.5586 9.77 62.2146 9.77H63.3306V10.706C63.3306 11.912 62.3406 12.614 61.0086 12.614ZM68.059 14H70.237V4.586H68.059V14ZM69.121 3.038C69.841 3.038 70.417 2.498 70.417 1.796C70.417 1.076 69.841 0.536 69.121 0.536C68.401 0.536 67.825 1.076 67.825 1.796C67.825 2.498 68.401 3.038 69.121 3.038ZM72.9457 14H75.1237V0.229999H72.9457V14ZM81.0004 14.18C83.4124 14.18 84.7624 13.082 84.7624 11.174C84.7624 9.176 83.4484 8.636 81.2344 8.294C79.7404 8.042 79.2904 7.772 79.2904 7.088C79.2904 6.422 79.8484 5.972 80.7844 5.972C81.7924 5.972 82.2784 6.368 82.4584 7.232H84.4744C84.2404 5.108 82.7104 4.388 80.7844 4.388C79.0204 4.388 77.2564 5.324 77.2564 7.214C77.2564 8.978 78.1744 9.68 80.6584 10.076C82.0444 10.31 82.6744 10.598 82.6744 11.372C82.6744 12.164 82.1524 12.578 80.9824 12.578C79.7044 12.578 79.2184 12.02 79.1104 11.066H77.0584C77.1484 13.064 78.5704 14.18 81.0004 14.18Z" fill="#002F34"/>
</svg>
