<svg width="98" height="18" viewBox="0 0 98 18" fill="none" xmlns="http://www.w3.org/2000/svg">
<path d="M2.87 12.11V3.02H4.256C7.28 3.02 8.54 4.694 8.54 7.466V7.61C8.54 10.454 7.154 12.11 4.274 12.11H2.87ZM0.476 14H4.346C8.864 14 11.042 11.336 11.042 7.592V7.43C11.042 3.686 8.864 1.13 4.382 1.13H0.476V14ZM17.2856 14.18C19.6976 14.18 21.2996 13.1 21.6056 11.12H19.4996C19.3376 12.038 18.6536 12.56 17.3396 12.56C15.7196 12.56 14.8196 11.552 14.7476 9.77H21.6416V9.14C21.6416 5.774 19.5356 4.388 17.1956 4.388C14.5136 4.388 12.5156 6.332 12.5156 9.248V9.392C12.5156 12.362 14.5136 14.18 17.2856 14.18ZM14.7836 8.312C14.9996 6.854 15.8816 5.972 17.1956 5.972C18.5456 5.972 19.3736 6.692 19.4816 8.312H14.7836ZM26.8969 14.18C29.3089 14.18 30.6589 13.082 30.6589 11.174C30.6589 9.176 29.3449 8.636 27.1309 8.294C25.6369 8.042 25.1869 7.772 25.1869 7.088C25.1869 6.422 25.7449 5.972 26.6809 5.972C27.6889 5.972 28.1749 6.368 28.3549 7.232H30.3709C30.1369 5.108 28.6069 4.388 26.6809 4.388C24.9169 4.388 23.1529 5.324 23.1529 7.214C23.1529 8.978 24.0709 9.68 26.5549 10.076C27.9409 10.31 28.5709 10.598 28.5709 11.372C28.5709 12.164 28.0489 12.578 26.8789 12.578C25.6009 12.578 25.1149 12.02 25.0069 11.066H22.9549C23.0449 13.064 24.4669 14.18 26.8969 14.18ZM36.6914 14.18C39.2474 14.18 40.8854 12.65 41.0474 10.49H39.0494C38.9234 11.822 37.9334 12.506 36.7814 12.506C35.1794 12.506 34.1714 11.426 34.1714 9.374V9.23C34.1714 7.286 35.2334 6.134 36.7274 6.134C37.8794 6.134 38.7074 6.656 38.8874 7.916H40.9934C40.7414 5.324 38.7794 4.388 36.6914 4.388C34.0634 4.388 31.9394 6.278 31.9394 9.266V9.41C31.9394 12.416 33.9914 14.18 36.6914 14.18ZM42.923 14H45.101V9.104C45.101 7.106 46.253 6.494 48.161 6.476V4.442C46.577 4.46 45.695 5.162 45.101 6.35V4.586H42.923V14ZM50.1313 14H52.3093V4.586H50.1313V14ZM51.1933 3.038C51.9133 3.038 52.4893 2.498 52.4893 1.796C52.4893 1.076 51.9133 0.536 51.1933 0.536C50.4733 0.536 49.8973 1.076 49.8973 1.796C49.8973 2.498 50.4733 3.038 51.1933 3.038ZM54.964 17.222H57.142V12.524C57.646 13.442 58.726 14.18 60.22 14.18C62.65 14.18 64.396 12.344 64.396 9.32V9.176C64.396 6.134 62.578 4.388 60.22 4.388C58.834 4.388 57.664 5.198 57.142 6.098V4.586H54.964V17.222ZM59.68 12.452C58.096 12.452 57.07 11.462 57.07 9.356V9.212C57.07 7.124 58.15 6.098 59.662 6.098C61.084 6.098 62.164 7.124 62.164 9.212V9.356C62.164 11.372 61.282 12.452 59.68 12.452ZM69.5586 14.162C70.2246 14.162 70.6926 14.054 71.0346 13.928V12.2C70.7286 12.326 70.4046 12.38 69.9726 12.38C69.2886 12.38 68.8926 12.002 68.8926 11.174V6.224H70.9626V4.586H68.8926V2.516H66.7146V4.586H65.4546V6.224H66.7146V11.372C66.7146 13.154 67.6866 14.162 69.5586 14.162ZM73.0531 14H75.2311V4.586H73.0531V14ZM74.1151 3.038C74.8351 3.038 75.4111 2.498 75.4111 1.796C75.4111 1.076 74.8351 0.536 74.1151 0.536C73.3951 0.536 72.8191 1.076 72.8191 1.796C72.8191 2.498 73.3951 3.038 74.1151 3.038ZM82.0978 12.488C80.4418 12.488 79.4878 11.282 79.4878 9.356V9.212C79.4878 7.268 80.4778 6.098 82.0978 6.098C83.7178 6.098 84.6898 7.286 84.6898 9.23V9.356C84.6898 11.282 83.7178 12.488 82.0978 12.488ZM82.0798 14.18C84.8518 14.18 86.9218 12.272 86.9218 9.338V9.194C86.9218 6.314 84.8518 4.388 82.0978 4.388C79.3258 4.388 77.2558 6.332 77.2558 9.248V9.392C77.2558 12.254 79.3078 14.18 82.0798 14.18ZM88.8898 14H91.0678V8.456C91.0678 6.962 92.0578 6.206 93.2818 6.206C94.5778 6.206 95.1538 6.854 95.1538 8.276V14H97.3318V8.078C97.3318 5.486 95.9998 4.388 94.1098 4.388C92.5618 4.388 91.5178 5.162 91.0678 6.08V4.586H88.8898V14Z" fill="#002F34"/>
</svg>
