<svg width="53" height="14" viewBox="0 0 53 14" fill="none" xmlns="http://www.w3.org/2000/svg">
<path d="M0.312 13H7.736V11.32H2.44V7.976H6.472V6.376H2.44V3.24H7.464V1.56H0.312V13ZM12.6318 13.16C13.8638 13.16 14.9358 12.424 15.3838 11.592V13H17.3198V0.759999H15.3838V5.912C14.9198 5.08 14.0718 4.456 12.7118 4.456C10.5358 4.456 8.95175 6.152 8.95175 8.824V8.952C8.95175 11.672 10.5358 13.16 12.6318 13.16ZM13.1118 11.624C11.8638 11.624 10.9358 10.744 10.9358 8.904V8.776C10.9358 6.968 11.7678 5.976 13.1918 5.976C14.5998 5.976 15.4478 6.888 15.4478 8.728V8.856C15.4478 10.728 14.4558 11.624 13.1118 11.624ZM19.6688 13H21.6048V4.632H19.6688V13ZM20.6128 3.256C21.2528 3.256 21.7648 2.776 21.7648 2.152C21.7648 1.512 21.2528 1.032 20.6128 1.032C19.9728 1.032 19.4608 1.512 19.4608 2.152C19.4608 2.776 19.9728 3.256 20.6128 3.256ZM26.8125 13.144C27.4045 13.144 27.8205 13.048 28.1245 12.936V11.4C27.8525 11.512 27.5645 11.56 27.1805 11.56C26.5725 11.56 26.2205 11.224 26.2205 10.488V6.088H28.0605V4.632H26.2205V2.792H24.2845V4.632H23.1645V6.088H24.2845V10.664C24.2845 12.248 25.1485 13.144 26.8125 13.144ZM32.9633 13H34.9633L35.8593 10.168H40.2273L41.1393 13H43.3473L39.5713 1.56H36.7873L32.9633 13ZM38.0513 3.304L39.7313 8.616H36.3553L38.0513 3.304ZM47.913 13.16C49.145 13.16 50.217 12.424 50.665 11.592V13H52.601V0.759999H50.665V5.912C50.201 5.08 49.353 4.456 47.993 4.456C45.817 4.456 44.233 6.152 44.233 8.824V8.952C44.233 11.672 45.817 13.16 47.913 13.16ZM48.393 11.624C47.145 11.624 46.217 10.744 46.217 8.904V8.776C46.217 6.968 47.049 5.976 48.473 5.976C49.881 5.976 50.729 6.888 50.729 8.728V8.856C50.729 10.728 49.737 11.624 48.393 11.624Z" fill="#002F34" fill-opacity="0.8"/>
</svg>
