<svg width="83" height="14" viewBox="0 0 83 14" fill="none" xmlns="http://www.w3.org/2000/svg">
<path d="M0.312 13H2.44V8.376H3.8L6.792 13H9.096L5.88 8.056C7.304 7.688 8.424 6.776 8.424 4.984V4.92C8.424 2.584 6.664 1.56 4.152 1.56H0.312V13ZM2.44 6.856V3.208H4.152C5.512 3.208 6.328 3.656 6.328 4.968V5.032C6.328 6.248 5.576 6.856 4.152 6.856H2.44ZM14.0039 13.16C16.1479 13.16 17.5719 12.2 17.8439 10.44H15.9719C15.8279 11.256 15.2199 11.72 14.0519 11.72C12.6119 11.72 11.8119 10.824 11.7479 9.24H17.8759V8.68C17.8759 5.688 16.0039 4.456 13.9239 4.456C11.5399 4.456 9.76388 6.184 9.76388 8.776V8.904C9.76388 11.544 11.5399 13.16 14.0039 13.16ZM11.7799 7.944C11.9719 6.648 12.7559 5.864 13.9239 5.864C15.1239 5.864 15.8599 6.504 15.9559 7.944H11.7799ZM19.6051 13H21.5411V7.992C21.5411 6.712 22.4211 6.072 23.3811 6.072C24.3251 6.072 24.8691 6.6 24.8691 7.832V13H26.8051V7.992C26.8051 6.712 27.6851 6.072 28.6451 6.072C29.6051 6.072 30.1331 6.6 30.1331 7.832V13H32.0691V7.704C32.0691 5.4 30.8211 4.456 29.2851 4.456C28.2451 4.456 27.0931 4.92 26.4531 5.96C26.0371 4.92 25.1731 4.456 24.0851 4.456C22.8531 4.456 21.9411 5.128 21.5411 5.912V4.632H19.6051V13ZM38.0366 11.656C36.5646 11.656 35.7166 10.584 35.7166 8.872V8.744C35.7166 7.016 36.5966 5.976 38.0366 5.976C39.4766 5.976 40.3406 7.032 40.3406 8.76V8.872C40.3406 10.584 39.4766 11.656 38.0366 11.656ZM38.0206 13.16C40.4846 13.16 42.3246 11.464 42.3246 8.856V8.728C42.3246 6.168 40.4846 4.456 38.0366 4.456C35.5726 4.456 33.7326 6.184 33.7326 8.776V8.904C33.7326 11.448 35.5566 13.16 38.0206 13.16ZM45.9534 13H48.2094L51.2334 4.632H49.3294L47.1694 11.016L44.9774 4.632H42.8974L45.9534 13ZM56.0351 13.16C58.1791 13.16 59.6031 12.2 59.8751 10.44H58.0031C57.8591 11.256 57.2511 11.72 56.0831 11.72C54.6431 11.72 53.8431 10.824 53.7791 9.24H59.9071V8.68C59.9071 5.688 58.0351 4.456 55.9551 4.456C53.5711 4.456 51.7951 6.184 51.7951 8.776V8.904C51.7951 11.544 53.5711 13.16 56.0351 13.16ZM53.8111 7.944C54.0031 6.648 54.7871 5.864 55.9551 5.864C57.1551 5.864 57.8911 6.504 57.9871 7.944H53.8111ZM67.6409 13.16C68.9209 13.16 69.6569 12.696 70.2009 11.976V13H72.1049V7.512C72.1049 5.224 70.6329 4.456 68.7609 4.456C66.8889 4.456 65.3369 5.272 65.1769 7.224H67.0489C67.1449 6.392 67.6409 5.912 68.6489 5.912C69.7849 5.912 70.1689 6.472 70.1689 7.592V8.024H69.1289C66.7289 8.024 64.8409 8.728 64.8409 10.68C64.8409 12.424 66.1049 13.16 67.6409 13.16ZM68.1049 11.768C67.1449 11.768 66.7609 11.304 66.7609 10.6C66.7609 9.576 67.7049 9.24 69.1769 9.24H70.1689V10.072C70.1689 11.144 69.2889 11.768 68.1049 11.768ZM77.4599 13.16C78.6919 13.16 79.7639 12.424 80.2119 11.592V13H82.1479V0.759999H80.2119V5.912C79.7479 5.08 78.8999 4.456 77.5399 4.456C75.3639 4.456 73.7799 6.152 73.7799 8.824V8.952C73.7799 11.672 75.3639 13.16 77.4599 13.16ZM77.9399 11.624C76.6919 11.624 75.7639 10.744 75.7639 8.904V8.776C75.7639 6.968 76.5959 5.976 78.0199 5.976C79.4279 5.976 80.2759 6.888 80.2759 8.728V8.856C80.2759 10.728 79.2839 11.624 77.9399 11.624Z" fill="#002F34" fill-opacity="0.8"/>
</svg>
