<svg width="217" height="28" viewBox="0 0 217 28" fill="none" xmlns="http://www.w3.org/2000/svg">
<path d="M10.3574 16.6465H4.3457V27H0.953125V1.40625H9.42578C12.3086 1.40625 14.5234 2.0625 16.0703 3.375C17.6289 4.6875 18.4082 6.59766 18.4082 9.10547C18.4082 10.6992 17.9746 12.0879 17.1074 13.2715C16.252 14.4551 15.0566 15.3398 13.5215 15.9258L19.5332 26.7891V27H15.9121L10.3574 16.6465ZM4.3457 13.8867H9.53125C11.207 13.8867 12.5371 13.4531 13.5215 12.5859C14.5176 11.7188 15.0156 10.5586 15.0156 9.10547C15.0156 7.52344 14.541 6.31055 13.5918 5.4668C12.6543 4.62305 11.2949 4.19531 9.51367 4.18359H4.3457V13.8867ZM30.5371 27.3516C27.959 27.3516 25.8613 26.5078 24.2441 24.8203C22.627 23.1211 21.8184 20.8535 21.8184 18.0176V17.4199C21.8184 15.5332 22.1758 13.8516 22.8906 12.375C23.6172 10.8867 24.625 9.72656 25.9141 8.89453C27.2148 8.05078 28.6211 7.62891 30.1328 7.62891C32.6055 7.62891 34.5273 8.44336 35.8984 10.0723C37.2695 11.7012 37.9551 14.0332 37.9551 17.0684V18.4219H25.0703C25.1172 20.2969 25.6621 21.8145 26.7051 22.9746C27.7598 24.123 29.0957 24.6973 30.7129 24.6973C31.8613 24.6973 32.834 24.4629 33.6309 23.9941C34.4277 23.5254 35.125 22.9043 35.7227 22.1309L37.709 23.6777C36.1152 26.127 33.7246 27.3516 30.5371 27.3516ZM30.1328 10.3008C28.8203 10.3008 27.7188 10.7812 26.8281 11.7422C25.9375 12.6914 25.3867 14.0273 25.1758 15.75H34.7031V15.5039C34.6094 13.8516 34.1641 12.5742 33.3672 11.6719C32.5703 10.7578 31.4922 10.3008 30.1328 10.3008ZM45.2676 27H42.0156V0H45.2676V27ZM62.2305 27C62.043 26.625 61.8906 25.957 61.7734 24.9961C60.2617 26.5664 58.457 27.3516 56.3594 27.3516C54.4844 27.3516 52.9434 26.8242 51.7363 25.7695C50.541 24.7031 49.9434 23.3555 49.9434 21.7266C49.9434 19.7461 50.6934 18.2109 52.1934 17.1211C53.7051 16.0195 55.8262 15.4688 58.5566 15.4688H61.7207V13.9746C61.7207 12.8379 61.3809 11.9355 60.7012 11.2676C60.0215 10.5879 59.0195 10.248 57.6953 10.248C56.5352 10.248 55.5625 10.541 54.7773 11.127C53.9922 11.7129 53.5996 12.4219 53.5996 13.2539H50.3301C50.3301 12.3047 50.6641 11.3906 51.332 10.5117C52.0117 9.62109 52.9258 8.91797 54.0742 8.40234C55.2344 7.88672 56.5059 7.62891 57.8887 7.62891C60.0801 7.62891 61.7969 8.17969 63.0391 9.28125C64.2812 10.3711 64.9258 11.877 64.9727 13.7988V22.5527C64.9727 24.2988 65.1953 25.6875 65.6406 26.7188V27H62.2305ZM56.834 24.5215C57.8535 24.5215 58.8203 24.2578 59.7344 23.7305C60.6484 23.2031 61.3105 22.5176 61.7207 21.6738V17.7715H59.1719C55.1875 17.7715 53.1953 18.9375 53.1953 21.2695C53.1953 22.2891 53.5352 23.0859 54.2148 23.6602C54.8945 24.2344 55.7676 24.5215 56.834 24.5215ZM74.4824 3.375V7.98047H78.0332V10.4941H74.4824V22.2891C74.4824 23.0508 74.6406 23.625 74.957 24.0117C75.2734 24.3867 75.8125 24.5742 76.5742 24.5742C76.9492 24.5742 77.4648 24.5039 78.1211 24.3633V27C77.2656 27.2344 76.4336 27.3516 75.625 27.3516C74.1719 27.3516 73.0762 26.9121 72.3379 26.0332C71.5996 25.1543 71.2305 23.9062 71.2305 22.2891V10.4941H67.7676V7.98047H71.2305V3.375H74.4824ZM89.7402 27.3516C87.1621 27.3516 85.0645 26.5078 83.4473 24.8203C81.8301 23.1211 81.0215 20.8535 81.0215 18.0176V17.4199C81.0215 15.5332 81.3789 13.8516 82.0938 12.375C82.8203 10.8867 83.8281 9.72656 85.1172 8.89453C86.418 8.05078 87.8242 7.62891 89.3359 7.62891C91.8086 7.62891 93.7305 8.44336 95.1016 10.0723C96.4727 11.7012 97.1582 14.0332 97.1582 17.0684V18.4219H84.2734C84.3203 20.2969 84.8652 21.8145 85.9082 22.9746C86.9629 24.123 88.2988 24.6973 89.916 24.6973C91.0645 24.6973 92.0371 24.4629 92.834 23.9941C93.6309 23.5254 94.3281 22.9043 94.9258 22.1309L96.9121 23.6777C95.3184 26.127 92.9277 27.3516 89.7402 27.3516ZM89.3359 10.3008C88.0234 10.3008 86.9219 10.7812 86.0312 11.7422C85.1406 12.6914 84.5898 14.0273 84.3789 15.75H93.9062V15.5039C93.8125 13.8516 93.3672 12.5742 92.5703 11.6719C91.7734 10.7578 90.6953 10.3008 89.3359 10.3008ZM100.146 17.332C100.146 14.4141 100.838 12.0703 102.221 10.3008C103.604 8.51953 105.414 7.62891 107.652 7.62891C109.879 7.62891 111.643 8.39062 112.943 9.91406V0H116.195V27H113.207L113.049 24.9609C111.748 26.5547 109.938 27.3516 107.617 27.3516C105.414 27.3516 103.615 26.4492 102.221 24.6445C100.838 22.8398 100.146 20.4844 100.146 17.5781V17.332ZM103.398 17.7012C103.398 19.8574 103.844 21.5449 104.734 22.7637C105.625 23.9824 106.855 24.5918 108.426 24.5918C110.488 24.5918 111.994 23.666 112.943 21.8145V13.0781C111.971 11.2852 110.477 10.3887 108.461 10.3887C106.867 10.3887 105.625 11.0039 104.734 12.2344C103.844 13.4648 103.398 15.2871 103.398 17.7012ZM134.318 27H130.943V1.40625H134.318V27ZM144.408 3.375V7.98047H147.959V10.4941H144.408V22.2891C144.408 23.0508 144.566 23.625 144.883 24.0117C145.199 24.3867 145.738 24.5742 146.5 24.5742C146.875 24.5742 147.391 24.5039 148.047 24.3633V27C147.191 27.2344 146.359 27.3516 145.551 27.3516C144.098 27.3516 143.002 26.9121 142.264 26.0332C141.525 25.1543 141.156 23.9062 141.156 22.2891V10.4941H137.693V7.98047H141.156V3.375H144.408ZM159.666 27.3516C157.088 27.3516 154.99 26.5078 153.373 24.8203C151.756 23.1211 150.947 20.8535 150.947 18.0176V17.4199C150.947 15.5332 151.305 13.8516 152.02 12.375C152.746 10.8867 153.754 9.72656 155.043 8.89453C156.344 8.05078 157.75 7.62891 159.262 7.62891C161.734 7.62891 163.656 8.44336 165.027 10.0723C166.398 11.7012 167.084 14.0332 167.084 17.0684V18.4219H154.199C154.246 20.2969 154.791 21.8145 155.834 22.9746C156.889 24.123 158.225 24.6973 159.842 24.6973C160.99 24.6973 161.963 24.4629 162.76 23.9941C163.557 23.5254 164.254 22.9043 164.852 22.1309L166.838 23.6777C165.244 26.127 162.854 27.3516 159.666 27.3516ZM159.262 10.3008C157.949 10.3008 156.848 10.7812 155.957 11.7422C155.066 12.6914 154.516 14.0273 154.305 15.75H163.832V15.5039C163.738 13.8516 163.293 12.5742 162.496 11.6719C161.699 10.7578 160.621 10.3008 159.262 10.3008ZM173.922 7.98047L174.01 10.0898C175.404 8.44922 177.285 7.62891 179.652 7.62891C182.312 7.62891 184.123 8.64844 185.084 10.6875C185.717 9.77344 186.537 9.03516 187.545 8.47266C188.564 7.91016 189.766 7.62891 191.148 7.62891C195.32 7.62891 197.441 9.83789 197.512 14.2559V27H194.26V14.4492C194.26 13.0898 193.949 12.0762 193.328 11.4082C192.707 10.7285 191.664 10.3887 190.199 10.3887C188.992 10.3887 187.99 10.752 187.193 11.4785C186.396 12.1934 185.934 13.1602 185.805 14.3789V27H182.535V14.5371C182.535 11.7715 181.182 10.3887 178.475 10.3887C176.342 10.3887 174.883 11.2969 174.098 13.1133V27H170.846V7.98047H173.922ZM213.508 21.9551C213.508 21.0762 213.174 20.3965 212.506 19.916C211.85 19.4238 210.695 19.002 209.043 18.6504C207.402 18.2988 206.096 17.877 205.123 17.3848C204.162 16.8926 203.447 16.3066 202.979 15.627C202.521 14.9473 202.293 14.1387 202.293 13.2012C202.293 11.6426 202.949 10.3242 204.262 9.24609C205.586 8.16797 207.273 7.62891 209.324 7.62891C211.48 7.62891 213.227 8.18555 214.562 9.29883C215.91 10.4121 216.584 11.8359 216.584 13.5703H213.314C213.314 12.6797 212.934 11.9121 212.172 11.2676C211.422 10.623 210.473 10.3008 209.324 10.3008C208.141 10.3008 207.215 10.5586 206.547 11.0742C205.879 11.5898 205.545 12.2637 205.545 13.0957C205.545 13.8809 205.855 14.4727 206.477 14.8711C207.098 15.2695 208.217 15.6504 209.834 16.0137C211.463 16.377 212.781 16.8105 213.789 17.3145C214.797 17.8184 215.541 18.4277 216.021 19.1426C216.514 19.8457 216.76 20.707 216.76 21.7266C216.76 23.4258 216.08 24.791 214.721 25.8223C213.361 26.8418 211.598 27.3516 209.43 27.3516C207.906 27.3516 206.559 27.082 205.387 26.543C204.215 26.0039 203.295 25.2539 202.627 24.293C201.971 23.3203 201.643 22.2715 201.643 21.1465H204.895C204.953 22.2363 205.387 23.1035 206.195 23.748C207.016 24.3809 208.094 24.6973 209.43 24.6973C210.66 24.6973 211.645 24.4512 212.383 23.959C213.133 23.4551 213.508 22.7871 213.508 21.9551Z" fill="#002F34"/>
</svg>
