<svg width="1440" height="62" viewBox="0 0 1440 62" fill="none" xmlns="http://www.w3.org/2000/svg">
<rect width="1440" height="62" fill="#33595D"/>
<path d="M62.56 34.448C60.48 34.448 58.96 32.832 58.96 30.336V30.208C58.96 27.744 60.288 26.096 62.528 26.096C64.768 26.096 66.08 27.84 66.08 30.192V30.32C66.08 32.8 64.72 34.448 62.56 34.448ZM62.528 36.16C66 36.16 68.288 33.648 68.288 30.304V30.176C68.288 26.816 65.936 24.4 62.528 24.4C59.136 24.4 56.736 26.88 56.736 30.224V30.352C56.736 33.648 59.024 36.16 62.528 36.16ZM73.0312 36.144C73.6233 36.144 74.0393 36.048 74.3433 35.936V34.4C74.0713 34.512 73.7833 34.56 73.3993 34.56C72.7913 34.56 72.4393 34.224 72.4393 33.488V29.088H74.2793V27.632H72.4393V25.792H70.5033V27.632H69.3833V29.088H70.5033V33.664C70.5033 35.248 71.3673 36.144 73.0312 36.144ZM76.0895 36H78.0255V31.072C78.0255 29.744 78.9055 29.072 79.9935 29.072C81.1455 29.072 81.6575 29.648 81.6575 30.912V36H83.5935V30.736C83.5935 28.432 82.4095 27.456 80.7295 27.456C79.3535 27.456 78.4255 28.144 78.0255 28.96V23.76H76.0895V36ZM89.5039 36.16C91.6479 36.16 93.0719 35.2 93.3439 33.44H91.4719C91.3279 34.256 90.7199 34.72 89.5519 34.72C88.1119 34.72 87.3119 33.824 87.2479 32.24H93.3759V31.68C93.3759 28.688 91.5039 27.456 89.4239 27.456C87.0399 27.456 85.2639 29.184 85.2639 31.776V31.904C85.2639 34.544 87.0399 36.16 89.5039 36.16ZM87.2799 30.944C87.4719 29.648 88.2559 28.864 89.4239 28.864C90.6239 28.864 91.3599 29.504 91.4559 30.944H87.2799ZM95.1051 36H97.0411V31.648C97.0411 29.872 98.0651 29.328 99.7611 29.312V27.504C98.3531 27.52 97.5691 28.144 97.0411 29.2V27.632H95.1051V36ZM108.941 36.16C111.213 36.16 112.669 34.8 112.813 32.88H111.037C110.925 34.064 110.045 34.672 109.021 34.672C107.597 34.672 106.701 33.712 106.701 31.888V31.76C106.701 30.032 107.645 29.008 108.973 29.008C109.997 29.008 110.733 29.472 110.893 30.592H112.765C112.541 28.288 110.797 27.456 108.941 27.456C106.605 27.456 104.717 29.136 104.717 31.792V31.92C104.717 34.592 106.541 36.16 108.941 36.16ZM118.224 34.656C116.752 34.656 115.904 33.584 115.904 31.872V31.744C115.904 30.016 116.784 28.976 118.224 28.976C119.664 28.976 120.528 30.032 120.528 31.76V31.872C120.528 33.584 119.664 34.656 118.224 34.656ZM118.208 36.16C120.672 36.16 122.512 34.464 122.512 31.856V31.728C122.512 29.168 120.672 27.456 118.224 27.456C115.76 27.456 113.92 29.184 113.92 31.776V31.904C113.92 34.448 115.744 36.16 118.208 36.16ZM127.061 36.16C128.421 36.16 129.301 35.504 129.717 34.688V36H131.653V27.632H129.717V32.608C129.717 33.936 128.805 34.608 127.765 34.608C126.645 34.608 126.117 34.032 126.117 32.768V27.632H124.181V32.992C124.181 35.216 125.413 36.16 127.061 36.16ZM133.949 36H135.885V31.072C135.885 29.744 136.765 29.072 137.853 29.072C139.005 29.072 139.517 29.648 139.517 30.912V36H141.453V30.736C141.453 28.432 140.269 27.456 138.589 27.456C137.213 27.456 136.285 28.144 135.885 28.96V27.632H133.949V36ZM146.531 36.144C147.123 36.144 147.539 36.048 147.843 35.936V34.4C147.571 34.512 147.283 34.56 146.899 34.56C146.291 34.56 145.939 34.224 145.939 33.488V29.088H147.779V27.632H145.939V25.792H144.003V27.632H142.883V29.088H144.003V33.664C144.003 35.248 144.867 36.144 146.531 36.144ZM149.59 36H151.526V31.648C151.526 29.872 152.549 29.328 154.246 29.312V27.504C152.838 27.52 152.054 28.144 151.526 29.2V27.632H149.59V36ZM155.997 36H157.933V27.632H155.997V36ZM156.941 26.256C157.581 26.256 158.093 25.776 158.093 25.152C158.093 24.512 157.581 24.032 156.941 24.032C156.301 24.032 155.789 24.512 155.789 25.152C155.789 25.776 156.301 26.256 156.941 26.256ZM163.973 36.16C166.117 36.16 167.541 35.2 167.813 33.44H165.941C165.797 34.256 165.189 34.72 164.021 34.72C162.581 34.72 161.781 33.824 161.717 32.24H167.845V31.68C167.845 28.688 165.973 27.456 163.893 27.456C161.509 27.456 159.733 29.184 159.733 31.776V31.904C159.733 34.544 161.509 36.16 163.973 36.16ZM161.749 30.944C161.941 29.648 162.725 28.864 163.893 28.864C165.093 28.864 165.829 29.504 165.925 30.944H161.749ZM172.516 36.16C174.66 36.16 175.86 35.184 175.86 33.488C175.86 31.712 174.692 31.232 172.724 30.928C171.396 30.704 170.996 30.464 170.996 29.856C170.996 29.264 171.492 28.864 172.324 28.864C173.22 28.864 173.652 29.216 173.812 29.984H175.604C175.396 28.096 174.036 27.456 172.324 27.456C170.756 27.456 169.188 28.288 169.188 29.968C169.188 31.536 170.004 32.16 172.212 32.512C173.444 32.72 174.004 32.976 174.004 33.664C174.004 34.368 173.54 34.736 172.5 34.736C171.364 34.736 170.932 34.24 170.836 33.392H169.012C169.092 35.168 170.356 36.16 172.516 36.16Z" fill="white"/>
<path d="M1055.31 36H1057.44V31.312H1061.34V29.664H1057.44V26.256H1062.4V24.56H1055.31V36ZM1063.78 36H1065.71V31.648C1065.71 29.872 1066.74 29.328 1068.43 29.312V27.504C1067.03 27.52 1066.24 28.144 1065.71 29.2V27.632H1063.78V36ZM1073.66 36.16C1075.8 36.16 1077.23 35.2 1077.5 33.44H1075.63C1075.48 34.256 1074.88 34.72 1073.71 34.72C1072.27 34.72 1071.47 33.824 1071.4 32.24H1077.53V31.68C1077.53 28.688 1075.66 27.456 1073.58 27.456C1071.2 27.456 1069.42 29.184 1069.42 31.776V31.904C1069.42 34.544 1071.2 36.16 1073.66 36.16ZM1071.44 30.944C1071.63 29.648 1072.41 28.864 1073.58 28.864C1074.78 28.864 1075.52 29.504 1075.61 30.944H1071.44ZM1082.94 36.16C1085.09 36.16 1086.51 35.2 1086.78 33.44H1084.91C1084.77 34.256 1084.16 34.72 1082.99 34.72C1081.55 34.72 1080.75 33.824 1080.69 32.24H1086.81V31.68C1086.81 28.688 1084.94 27.456 1082.86 27.456C1080.48 27.456 1078.7 29.184 1078.7 31.776V31.904C1078.7 34.544 1080.48 36.16 1082.94 36.16ZM1080.72 30.944C1080.91 29.648 1081.69 28.864 1082.86 28.864C1084.06 28.864 1084.8 29.504 1084.89 30.944H1080.72ZM1097.52 36.16C1100.24 36.16 1102.2 34.768 1102.53 32.016H1100.45C1100.23 33.632 1099.11 34.432 1097.52 34.432C1095.41 34.432 1094.18 32.912 1094.18 30.336V30.208C1094.18 27.648 1095.49 26.08 1097.51 26.08C1099.16 26.08 1100 26.864 1100.24 28.384H1102.4C1102.15 25.696 1100.12 24.384 1097.49 24.384C1094.31 24.384 1091.94 26.784 1091.94 30.224V30.352C1091.94 33.872 1093.94 36.16 1097.52 36.16ZM1104.26 36H1106.2V23.76H1104.26V36ZM1110.75 36.16C1112.03 36.16 1112.77 35.696 1113.31 34.976V36H1115.21V30.512C1115.21 28.224 1113.74 27.456 1111.87 27.456C1110 27.456 1108.45 28.272 1108.29 30.224H1110.16C1110.25 29.392 1110.75 28.912 1111.76 28.912C1112.89 28.912 1113.28 29.472 1113.28 30.592V31.024H1112.24C1109.84 31.024 1107.95 31.728 1107.95 33.68C1107.95 35.424 1109.21 36.16 1110.75 36.16ZM1111.21 34.768C1110.25 34.768 1109.87 34.304 1109.87 33.6C1109.87 32.576 1110.81 32.24 1112.29 32.24H1113.28V33.072C1113.28 34.144 1112.4 34.768 1111.21 34.768ZM1120.3 36.16C1122.44 36.16 1123.64 35.184 1123.64 33.488C1123.64 31.712 1122.47 31.232 1120.51 30.928C1119.18 30.704 1118.78 30.464 1118.78 29.856C1118.78 29.264 1119.27 28.864 1120.11 28.864C1121 28.864 1121.43 29.216 1121.59 29.984H1123.39C1123.18 28.096 1121.82 27.456 1120.11 27.456C1118.54 27.456 1116.97 28.288 1116.97 29.968C1116.97 31.536 1117.79 32.16 1119.99 32.512C1121.23 32.72 1121.79 32.976 1121.79 33.664C1121.79 34.368 1121.32 34.736 1120.28 34.736C1119.15 34.736 1118.71 34.24 1118.62 33.392H1116.79C1116.87 35.168 1118.14 36.16 1120.3 36.16ZM1128.2 36.16C1130.35 36.16 1131.55 35.184 1131.55 33.488C1131.55 31.712 1130.38 31.232 1128.41 30.928C1127.08 30.704 1126.68 30.464 1126.68 29.856C1126.68 29.264 1127.18 28.864 1128.01 28.864C1128.91 28.864 1129.34 29.216 1129.5 29.984H1131.29C1131.08 28.096 1129.72 27.456 1128.01 27.456C1126.44 27.456 1124.88 28.288 1124.88 29.968C1124.88 31.536 1125.69 32.16 1127.9 32.512C1129.13 32.72 1129.69 32.976 1129.69 33.664C1129.69 34.368 1129.23 34.736 1128.19 34.736C1127.05 34.736 1126.62 34.24 1126.52 33.392H1124.7C1124.78 35.168 1126.04 36.16 1128.2 36.16ZM1133.29 36H1135.23V27.632H1133.29V36ZM1134.24 26.256C1134.88 26.256 1135.39 25.776 1135.39 25.152C1135.39 24.512 1134.88 24.032 1134.24 24.032C1133.6 24.032 1133.09 24.512 1133.09 25.152C1133.09 25.776 1133.6 26.256 1134.24 26.256ZM1137.93 36H1139.86V29.088H1141.77V27.632H1139.86V26.432C1139.86 25.712 1140.18 25.2 1140.95 25.2C1141.3 25.2 1141.54 25.232 1141.77 25.328V23.824C1141.46 23.728 1141.19 23.68 1140.71 23.68C1138.93 23.68 1137.93 24.672 1137.93 26.512V27.632H1136.79V29.088H1137.93V36ZM1143.22 36H1145.15V27.632H1143.22V36ZM1144.16 26.256C1144.8 26.256 1145.31 25.776 1145.31 25.152C1145.31 24.512 1144.8 24.032 1144.16 24.032C1143.52 24.032 1143.01 24.512 1143.01 25.152C1143.01 25.776 1143.52 26.256 1144.16 26.256ZM1151.19 36.16C1153.34 36.16 1154.76 35.2 1155.03 33.44H1153.16C1153.02 34.256 1152.41 34.72 1151.24 34.72C1149.8 34.72 1149 33.824 1148.94 32.24H1155.06V31.68C1155.06 28.688 1153.19 27.456 1151.11 27.456C1148.73 27.456 1146.95 29.184 1146.95 31.776V31.904C1146.95 34.544 1148.73 36.16 1151.19 36.16ZM1148.97 30.944C1149.16 29.648 1149.94 28.864 1151.11 28.864C1152.31 28.864 1153.05 29.504 1153.14 30.944H1148.97ZM1159.93 36.16C1161.16 36.16 1162.23 35.424 1162.68 34.592V36H1164.62V23.76H1162.68V28.912C1162.22 28.08 1161.37 27.456 1160.01 27.456C1157.83 27.456 1156.25 29.152 1156.25 31.824V31.952C1156.25 34.672 1157.83 36.16 1159.93 36.16ZM1160.41 34.624C1159.16 34.624 1158.23 33.744 1158.23 31.904V31.776C1158.23 29.968 1159.06 28.976 1160.49 28.976C1161.9 28.976 1162.74 29.888 1162.74 31.728V31.856C1162.74 33.728 1161.75 34.624 1160.41 34.624ZM1169.78 36.16C1171.93 36.16 1173.13 35.184 1173.13 33.488C1173.13 31.712 1171.96 31.232 1169.99 30.928C1168.66 30.704 1168.26 30.464 1168.26 29.856C1168.26 29.264 1168.76 28.864 1169.59 28.864C1170.49 28.864 1170.92 29.216 1171.08 29.984H1172.87C1172.66 28.096 1171.3 27.456 1169.59 27.456C1168.02 27.456 1166.45 28.288 1166.45 29.968C1166.45 31.536 1167.27 32.16 1169.48 32.512C1170.71 32.72 1171.27 32.976 1171.27 33.664C1171.27 34.368 1170.81 34.736 1169.77 34.736C1168.63 34.736 1168.2 34.24 1168.1 33.392H1166.28C1166.36 35.168 1167.62 36.16 1169.78 36.16ZM1178.68 36H1180.62V27.632H1178.68V36ZM1179.63 26.256C1180.27 26.256 1180.78 25.776 1180.78 25.152C1180.78 24.512 1180.27 24.032 1179.63 24.032C1178.99 24.032 1178.48 24.512 1178.48 25.152C1178.48 25.776 1178.99 26.256 1179.63 26.256ZM1182.98 36H1184.92V31.072C1184.92 29.744 1185.8 29.072 1186.88 29.072C1188.04 29.072 1188.55 29.648 1188.55 30.912V36H1190.48V30.736C1190.48 28.432 1189.3 27.456 1187.62 27.456C1186.24 27.456 1185.32 28.144 1184.92 28.96V27.632H1182.98V36ZM1196.75 36H1198.9V24.56H1196.75V36ZM1201.43 36H1203.37V31.072C1203.37 29.744 1204.25 29.072 1205.34 29.072C1206.49 29.072 1207 29.648 1207 30.912V36H1208.94V30.736C1208.94 28.432 1207.75 27.456 1206.07 27.456C1204.7 27.456 1203.77 28.144 1203.37 28.96V27.632H1201.43V36ZM1214.3 36.16C1215.54 36.16 1216.61 35.424 1217.06 34.592V36H1218.99V23.76H1217.06V28.912C1216.59 28.08 1215.74 27.456 1214.38 27.456C1212.21 27.456 1210.62 29.152 1210.62 31.824V31.952C1210.62 34.672 1212.21 36.16 1214.3 36.16ZM1214.78 34.624C1213.54 34.624 1212.61 33.744 1212.61 31.904V31.776C1212.61 29.968 1213.44 28.976 1214.86 28.976C1216.27 28.976 1217.12 29.888 1217.12 31.728V31.856C1217.12 33.728 1216.13 34.624 1214.78 34.624ZM1221.34 36H1223.28V27.632H1221.34V36ZM1222.28 26.256C1222.92 26.256 1223.44 25.776 1223.44 25.152C1223.44 24.512 1222.92 24.032 1222.28 24.032C1221.64 24.032 1221.13 24.512 1221.13 25.152C1221.13 25.776 1221.64 26.256 1222.28 26.256ZM1227.83 36.16C1229.11 36.16 1229.84 35.696 1230.39 34.976V36H1232.29V30.512C1232.29 28.224 1230.82 27.456 1228.95 27.456C1227.08 27.456 1225.52 28.272 1225.36 30.224H1227.24C1227.33 29.392 1227.83 28.912 1228.84 28.912C1229.97 28.912 1230.36 29.472 1230.36 30.592V31.024H1229.32C1226.92 31.024 1225.03 31.728 1225.03 33.68C1225.03 35.424 1226.29 36.16 1227.83 36.16ZM1228.29 34.768C1227.33 34.768 1226.95 34.304 1226.95 33.6C1226.95 32.576 1227.89 32.24 1229.36 32.24H1230.36V33.072C1230.36 34.144 1229.48 34.768 1228.29 34.768Z" fill="white"/>
<path d="M210.44 36H211.832V31.344H213.688C215.864 31.344 217.688 30.4 217.688 27.968V27.904C217.688 25.52 215.88 24.56 213.688 24.56H210.44V36ZM211.832 30.24V25.68H213.784C215.336 25.68 216.296 26.288 216.296 27.904V27.968C216.296 29.44 215.416 30.24 213.784 30.24H211.832ZM221.659 36.144C222.891 36.144 223.643 35.728 224.267 34.944V36H225.595V30.48C225.595 28.144 224.139 27.488 222.539 27.488C220.923 27.488 219.403 28.192 219.227 30.096H220.555C220.683 29.072 221.323 28.592 222.475 28.592C223.755 28.592 224.267 29.152 224.267 30.48V31.088H223.067C220.923 31.088 218.875 31.744 218.875 33.68C218.875 35.392 220.107 36.144 221.659 36.144ZM221.787 35.088C220.619 35.088 220.203 34.544 220.203 33.68C220.203 32.448 221.435 32.032 223.115 32.032H224.267V33.072C224.267 34.368 223.195 35.088 221.787 35.088ZM228.203 36H229.531V31.664L233.243 36H234.859L230.971 31.52L234.555 27.632H233.003L229.531 31.488V23.632H228.203V36ZM236.485 36H237.813V27.632H236.485V36ZM237.125 25.888C237.605 25.888 238.005 25.488 238.005 25.008C238.005 24.528 237.605 24.128 237.125 24.128C236.645 24.128 236.245 24.528 236.245 25.008C236.245 25.488 236.645 25.888 237.125 25.888ZM243.124 36.144C245.156 36.144 246.196 35.12 246.196 33.6C246.196 31.824 244.98 31.44 243.252 31.12C241.716 30.848 241.299 30.544 241.299 29.792C241.299 29.072 241.924 28.592 242.884 28.592C243.94 28.592 244.452 28.992 244.644 29.904H245.924C245.7 28.096 244.404 27.488 242.9 27.488C241.588 27.488 240.068 28.288 240.068 29.84C240.068 31.296 240.804 31.904 242.98 32.304C244.276 32.544 244.932 32.832 244.932 33.712C244.932 34.608 244.372 35.04 243.108 35.04C241.764 35.04 241.236 34.416 241.14 33.424H239.844C239.924 35.136 241.124 36.144 243.124 36.144ZM250.763 36.112C251.307 36.112 251.627 36.032 251.899 35.936V34.816C251.611 34.928 251.291 34.992 250.875 34.992C250.203 34.992 249.835 34.592 249.835 33.776V28.752H251.787V27.632H249.835V25.728H248.507V27.632H247.307V28.752H248.507V33.904C248.507 35.216 249.243 36.112 250.763 36.112ZM256.081 36.144C257.313 36.144 258.065 35.728 258.689 34.944V36H260.017V30.48C260.017 28.144 258.561 27.488 256.961 27.488C255.345 27.488 253.825 28.192 253.649 30.096H254.977C255.105 29.072 255.745 28.592 256.897 28.592C258.177 28.592 258.689 29.152 258.689 30.48V31.088H257.489C255.345 31.088 253.297 31.744 253.297 33.68C253.297 35.392 254.529 36.144 256.081 36.144ZM256.209 35.088C255.041 35.088 254.625 34.544 254.625 33.68C254.625 32.448 255.857 32.032 257.537 32.032H258.689V33.072C258.689 34.368 257.617 35.088 256.209 35.088ZM262.625 36H263.953V30.928C263.953 29.424 265.057 28.64 266.289 28.64C267.633 28.64 268.257 29.296 268.257 30.768V36H269.585V30.864C269.585 28.432 268.369 27.488 266.641 27.488C265.265 27.488 264.337 28.176 263.953 28.96V27.632H262.625V36ZM271.804 32.224H275.228V30.976H271.804V32.224ZM285.558 36.144C287.83 36.144 289.51 34.688 289.51 32.768C289.51 30.608 288.166 29.84 285.622 29.44C283.286 29.088 282.87 28.512 282.87 27.392C282.87 26.32 283.686 25.536 285.254 25.536C286.838 25.536 287.67 26.128 287.942 27.568H289.19C288.966 25.536 287.542 24.416 285.254 24.416C283.094 24.416 281.574 25.76 281.574 27.52C281.574 29.552 282.998 30.304 285.398 30.672C287.574 31.024 288.166 31.568 288.166 32.864C288.166 34.16 287.03 35.024 285.558 35.024C283.254 35.024 282.71 33.872 282.534 32.512H281.19C281.398 34.464 282.502 36.144 285.558 36.144ZM295.285 35.04C293.589 35.04 292.549 33.792 292.549 31.888V31.76C292.549 29.84 293.605 28.592 295.285 28.592C296.949 28.592 298.021 29.84 298.021 31.776V31.888C298.021 33.776 296.965 35.04 295.285 35.04ZM295.269 36.144C297.653 36.144 299.397 34.4 299.397 31.872V31.744C299.397 29.232 297.653 27.488 295.285 27.488C292.917 27.488 291.173 29.248 291.173 31.76V31.888C291.173 34.336 292.885 36.144 295.269 36.144ZM304.285 36.144C305.629 36.144 306.557 35.456 306.941 34.672V36H308.269V27.632H306.941V32.704C306.941 34.208 305.821 34.992 304.637 34.992C303.325 34.992 302.701 34.336 302.701 32.864V27.632H301.373V32.928C301.373 35.232 302.621 36.144 304.285 36.144ZM313.497 36.112C314.041 36.112 314.361 36.032 314.633 35.936V34.816C314.345 34.928 314.025 34.992 313.609 34.992C312.937 34.992 312.569 34.592 312.569 33.776V28.752H314.521V27.632H312.569V25.728H311.241V27.632H310.041V28.752H311.241V33.904C311.241 35.216 311.977 36.112 313.497 36.112ZM316.641 36H317.969V30.928C317.969 29.424 319.073 28.64 320.305 28.64C321.649 28.64 322.273 29.296 322.273 30.768V36H323.601V30.864C323.601 28.432 322.385 27.488 320.657 27.488C319.281 27.488 318.353 28.176 317.969 28.96V23.632H316.641V36ZM329.67 36H330.982L332.086 32.704H336.806L337.926 36H339.302L335.43 24.56H333.606L329.67 36ZM334.454 25.712L336.438 31.6H332.47L334.454 25.712ZM341.507 36H342.835V28.752H344.883V27.632H342.835V26.128C342.835 25.28 343.187 24.688 344.051 24.688C344.419 24.688 344.755 24.768 344.995 24.864V23.744C344.659 23.632 344.435 23.584 344.003 23.584C342.339 23.584 341.507 24.576 341.507 26.272V27.632H340.307V28.752H341.507V36ZM346.75 36H348.078V31.408C348.078 29.344 349.15 28.816 350.83 28.736V27.488C349.326 27.536 348.606 28.192 348.078 29.136V27.632H346.75V36ZM352.798 36H354.126V27.632H352.798V36ZM353.438 25.888C353.918 25.888 354.318 25.488 354.318 25.008C354.318 24.528 353.918 24.128 353.438 24.128C352.958 24.128 352.558 24.528 352.558 25.008C352.558 25.488 352.958 25.888 353.438 25.888ZM360.316 36.144C362.332 36.144 363.788 34.8 363.964 32.992H362.732C362.588 34.352 361.516 35.04 360.332 35.04C358.716 35.04 357.596 33.952 357.596 31.904V31.776C357.596 29.808 358.764 28.592 360.284 28.592C361.436 28.592 362.396 29.088 362.604 30.416H363.916C363.66 28.288 362.028 27.488 360.284 27.488C358.044 27.488 356.22 29.216 356.22 31.776V31.904C356.22 34.496 357.98 36.144 360.316 36.144ZM368.065 36.144C369.297 36.144 370.049 35.728 370.673 34.944V36H372.001V30.48C372.001 28.144 370.545 27.488 368.945 27.488C367.329 27.488 365.809 28.192 365.633 30.096H366.961C367.089 29.072 367.729 28.592 368.881 28.592C370.161 28.592 370.673 29.152 370.673 30.48V31.088H369.473C367.329 31.088 365.281 31.744 365.281 33.68C365.281 35.392 366.513 36.144 368.065 36.144ZM368.193 35.088C367.025 35.088 366.609 34.544 366.609 33.68C366.609 32.448 367.841 32.032 369.521 32.032H370.673V33.072C370.673 34.368 369.601 35.088 368.193 35.088ZM374.226 32.224H377.65V30.976H374.226V32.224ZM384.364 36H385.756V24.56H384.364V36ZM388.625 36H389.953V30.928C389.953 29.424 391.057 28.64 392.289 28.64C393.633 28.64 394.257 29.296 394.257 30.768V36H395.585V30.864C395.585 28.432 394.369 27.488 392.641 27.488C391.265 27.488 390.337 28.176 389.953 28.96V27.632H388.625V36ZM401.34 36.144C402.556 36.144 403.724 35.376 404.204 34.56V36H405.532V23.632H404.204V28.976C403.724 28.16 402.86 27.488 401.468 27.488C399.164 27.488 397.564 29.296 397.564 31.856V31.984C397.564 34.592 399.148 36.144 401.34 36.144ZM401.484 35.04C400.076 35.04 398.94 34.032 398.94 31.92V31.792C398.94 29.76 399.932 28.592 401.596 28.592C403.228 28.592 404.252 29.6 404.252 31.744V31.872C404.252 34.016 403.036 35.04 401.484 35.04ZM411.707 35.04C410.011 35.04 408.971 33.792 408.971 31.888V31.76C408.971 29.84 410.027 28.592 411.707 28.592C413.371 28.592 414.443 29.84 414.443 31.776V31.888C414.443 33.776 413.387 35.04 411.707 35.04ZM411.691 36.144C414.075 36.144 415.819 34.4 415.819 31.872V31.744C415.819 29.232 414.075 27.488 411.707 27.488C409.339 27.488 407.595 29.248 407.595 31.76V31.888C407.595 34.336 409.307 36.144 411.691 36.144ZM417.875 36H419.203V30.928C419.203 29.424 420.307 28.64 421.539 28.64C422.883 28.64 423.507 29.296 423.507 30.768V36H424.835V30.864C424.835 28.432 423.619 27.488 421.891 27.488C420.515 27.488 419.587 28.176 419.203 28.96V27.632H417.875V36ZM430.862 36.144C432.75 36.144 434.142 35.264 434.43 33.584H433.102C432.926 34.56 432.174 35.04 430.878 35.04C429.166 35.04 428.254 33.984 428.19 32.08H434.494V31.648C434.494 28.656 432.67 27.488 430.734 27.488C428.43 27.488 426.814 29.248 426.814 31.776V31.904C426.814 34.48 428.494 36.144 430.862 36.144ZM428.238 31.008C428.462 29.52 429.374 28.592 430.734 28.592C432.11 28.592 433.006 29.28 433.134 31.008H428.238ZM439.202 36.144C441.234 36.144 442.274 35.12 442.274 33.6C442.274 31.824 441.058 31.44 439.33 31.12C437.794 30.848 437.378 30.544 437.378 29.792C437.378 29.072 438.002 28.592 438.962 28.592C440.018 28.592 440.53 28.992 440.722 29.904H442.002C441.778 28.096 440.482 27.488 438.978 27.488C437.666 27.488 436.146 28.288 436.146 29.84C436.146 31.296 436.882 31.904 439.058 32.304C440.354 32.544 441.01 32.832 441.01 33.712C441.01 34.608 440.45 35.04 439.186 35.04C437.842 35.04 437.314 34.416 437.218 33.424H435.922C436.002 35.136 437.202 36.144 439.202 36.144ZM444.329 36H445.657V27.632H444.329V36ZM444.969 25.888C445.449 25.888 445.849 25.488 445.849 25.008C445.849 24.528 445.449 24.128 444.969 24.128C444.489 24.128 444.089 24.528 444.089 25.008C444.089 25.488 444.489 25.888 444.969 25.888ZM450.471 36.144C451.703 36.144 452.455 35.728 453.079 34.944V36H454.407V30.48C454.407 28.144 452.951 27.488 451.351 27.488C449.735 27.488 448.215 28.192 448.039 30.096H449.367C449.495 29.072 450.135 28.592 451.287 28.592C452.567 28.592 453.079 29.152 453.079 30.48V31.088H451.879C449.735 31.088 447.687 31.744 447.687 33.68C447.687 35.392 448.919 36.144 450.471 36.144ZM450.599 35.088C449.431 35.088 449.015 34.544 449.015 33.68C449.015 32.448 450.247 32.032 451.927 32.032H453.079V33.072C453.079 34.368 452.007 35.088 450.599 35.088Z" fill="white"/>
<path d="M1266.3 36H1273.97V34.864H1268.45L1271.6 31.792C1273.01 30.416 1273.9 29.04 1273.9 27.632C1273.9 25.664 1272.56 24.416 1270.45 24.416C1268.27 24.416 1266.91 25.84 1266.74 28.08H1268.03C1268.26 26.288 1269.12 25.536 1270.45 25.536C1271.74 25.536 1272.5 26.304 1272.5 27.584C1272.5 28.752 1271.89 29.792 1270.85 30.896L1266.3 35.68V36ZM1280.29 34.992C1278.38 34.992 1277.17 33.488 1277.17 30.592V29.952C1277.17 27.136 1278.32 25.536 1280.25 25.536C1282.19 25.536 1283.31 27.264 1283.31 29.92V30.56C1283.31 33.456 1282.29 34.992 1280.29 34.992ZM1280.29 36.144C1283.1 36.144 1284.72 33.904 1284.72 30.576V29.936C1284.72 26.672 1283.07 24.416 1280.25 24.416C1277.45 24.416 1275.74 26.592 1275.74 29.968V30.608C1275.74 33.936 1277.55 36.144 1280.29 36.144ZM1291.18 34.992C1289.27 34.992 1288.06 33.488 1288.06 30.592V29.952C1288.06 27.136 1289.21 25.536 1291.14 25.536C1293.08 25.536 1294.2 27.264 1294.2 29.92V30.56C1294.2 33.456 1293.18 34.992 1291.18 34.992ZM1291.18 36.144C1293.99 36.144 1295.61 33.904 1295.61 30.576V29.936C1295.61 26.672 1293.96 24.416 1291.14 24.416C1288.34 24.416 1286.63 26.592 1286.63 29.968V30.608C1286.63 33.936 1288.44 36.144 1291.18 36.144ZM1301.63 36.144C1304.05 36.144 1305.59 34.608 1305.59 32.32C1305.59 30.224 1304.11 28.576 1301.84 28.576C1300.51 28.576 1299.44 29.2 1298.9 30.128C1298.96 27.104 1300.18 25.552 1301.91 25.552C1303.19 25.552 1303.76 26.128 1304.02 27.184H1305.35C1305.04 25.344 1303.78 24.416 1302 24.416C1299.38 24.416 1297.52 26.56 1297.52 30.672V30.944C1297.52 33.808 1298.51 36.144 1301.63 36.144ZM1301.63 35.056C1300.1 35.056 1298.99 34.064 1298.99 32.192C1298.99 30.704 1300.08 29.664 1301.62 29.664C1303.17 29.664 1304.16 30.736 1304.16 32.384C1304.16 34 1303.14 35.056 1301.63 35.056ZM1307.43 31.392H1311.33V30.144H1307.43V31.392ZM1312.6 36H1320.26V34.864H1314.74L1317.9 31.792C1319.3 30.416 1320.2 29.04 1320.2 27.632C1320.2 25.664 1318.86 24.416 1316.74 24.416C1314.57 24.416 1313.21 25.84 1313.03 28.08H1314.33C1314.55 26.288 1315.42 25.536 1316.74 25.536C1318.04 25.536 1318.79 26.304 1318.79 27.584C1318.79 28.752 1318.18 29.792 1317.14 30.896L1312.6 35.68V36ZM1326.58 34.992C1324.68 34.992 1323.46 33.488 1323.46 30.592V29.952C1323.46 27.136 1324.61 25.536 1326.55 25.536C1328.49 25.536 1329.61 27.264 1329.61 29.92V30.56C1329.61 33.456 1328.58 34.992 1326.58 34.992ZM1326.58 36.144C1329.4 36.144 1331.01 33.904 1331.01 30.576V29.936C1331.01 26.672 1329.37 24.416 1326.55 24.416C1323.75 24.416 1322.04 26.592 1322.04 29.968V30.608C1322.04 33.936 1323.85 36.144 1326.58 36.144ZM1332.27 36H1339.94V34.864H1334.42L1337.57 31.792C1338.98 30.416 1339.87 29.04 1339.87 27.632C1339.87 25.664 1338.53 24.416 1336.42 24.416C1334.24 24.416 1332.88 25.84 1332.7 28.08H1334C1334.22 26.288 1335.09 25.536 1336.42 25.536C1337.71 25.536 1338.46 26.304 1338.46 27.584C1338.46 28.752 1337.86 29.792 1336.82 30.896L1332.27 35.68V36ZM1343.92 36H1345.31V24.56H1344.01L1341.36 26.48V27.776L1343.92 25.936V36ZM1358 34.992C1355.61 34.992 1353.77 33.104 1353.77 30.336V30.208C1353.77 27.488 1355.31 25.536 1357.97 25.536C1360.61 25.536 1362.11 27.616 1362.11 30.176V30.304C1362.11 33.072 1360.54 34.992 1358 34.992ZM1358 36.144C1361.33 36.144 1363.55 33.552 1363.55 30.32V30.192C1363.55 26.976 1361.33 24.416 1357.97 24.416C1354.61 24.416 1352.33 26.976 1352.33 30.224V30.352C1352.33 33.552 1354.62 36.144 1358 36.144ZM1365.86 36H1372.49V34.864H1367.25V24.56H1365.86V36ZM1373.7 36H1375.1L1378.15 31.184L1381.21 36H1382.78L1379.05 30.128L1382.6 24.56H1381.18L1378.34 29.056L1375.5 24.56H1373.96L1377.48 30.128L1373.7 36Z" fill="white"/>
</svg>
