<svg width="1440" height="185" viewBox="0 0 1440 185" fill="none" xmlns="http://www.w3.org/2000/svg">
<rect width="1440" height="185" fill="#EBEEEF"/>
<path d="M397.6 54H399.744V44.24H402.928V42.56H394.416V44.24H397.6V54ZM404.64 54H406.768V49.376H408.128L411.12 54H413.424L410.208 49.056C411.632 48.688 412.752 47.776 412.752 45.984V45.92C412.752 43.584 410.992 42.56 408.48 42.56H404.64V54ZM406.768 47.856V44.208H408.48C409.84 44.208 410.656 44.656 410.656 45.968V46.032C410.656 47.248 409.904 47.856 408.48 47.856H406.768ZM415.125 54H422.549V52.32H417.253V48.976H421.285V47.376H417.253V44.24H422.277V42.56H415.125V54ZM424.468 54H426.404V45.232L431.556 54H433.764V42.56H431.828V50.832L427.012 42.56H424.468V54ZM438.518 52.32V44.24H439.75C442.438 44.24 443.558 45.728 443.558 48.192V48.32C443.558 50.848 442.326 52.32 439.766 52.32H438.518ZM436.39 54H439.83C443.846 54 445.782 51.632 445.782 48.304V48.16C445.782 44.832 443.846 42.56 439.862 42.56H436.39V54ZM447.876 54H450.02V42.56H447.876V54ZM452.718 54H454.654V45.232L459.806 54H462.014V42.56H460.078V50.832L455.262 42.56H452.718V54ZM469.776 54.16C473.008 54.16 474.992 52.24 474.992 49.072V48.016H470.016V49.616H472.896C472.832 51.2 471.952 52.496 469.808 52.496C467.408 52.496 466.272 50.816 466.272 48.368V48.24C466.272 45.728 467.568 44.064 469.808 44.064C471.296 44.064 472.32 44.72 472.576 46.24H474.704C474.4 43.504 472.224 42.384 469.776 42.384C466.432 42.384 464.064 44.816 464.064 48.224V48.352C464.064 51.728 466.112 54.16 469.776 54.16ZM480.859 54H487.867V52.304H482.987V42.56H480.859V54ZM494.513 52.448C492.433 52.448 490.913 50.832 490.913 48.336V48.208C490.913 45.744 492.241 44.096 494.481 44.096C496.721 44.096 498.033 45.84 498.033 48.192V48.32C498.033 50.8 496.673 52.448 494.513 52.448ZM494.481 54.16C497.953 54.16 500.241 51.648 500.241 48.304V48.176C500.241 44.816 497.889 42.4 494.481 42.4C491.089 42.4 488.689 44.88 488.689 48.224V48.352C488.689 51.648 490.977 54.16 494.481 54.16ZM507.304 54.16C510.024 54.16 511.976 52.768 512.312 50.016H510.232C510.008 51.632 508.888 52.432 507.304 52.432C505.192 52.432 503.96 50.912 503.96 48.336V48.208C503.96 45.648 505.272 44.08 507.288 44.08C508.936 44.08 509.784 44.864 510.024 46.384H512.184C511.928 43.696 509.896 42.384 507.272 42.384C504.088 42.384 501.72 44.784 501.72 48.224V48.352C501.72 51.872 503.72 54.16 507.304 54.16ZM513.041 54H515.041L515.937 51.168H520.305L521.217 54H523.425L519.649 42.56H516.865L513.041 54ZM518.129 44.304L519.809 49.616H516.433L518.129 44.304ZM526.334 54H528.478V44.24H531.662V42.56H523.15V44.24H526.334V54ZM533.439 54H535.583V42.56H533.439V54ZM543.529 52.448C541.449 52.448 539.929 50.832 539.929 48.336V48.208C539.929 45.744 541.257 44.096 543.497 44.096C545.737 44.096 547.049 45.84 547.049 48.192V48.32C547.049 50.8 545.689 52.448 543.529 52.448ZM543.497 54.16C546.969 54.16 549.257 51.648 549.257 48.304V48.176C549.257 44.816 546.905 42.4 543.497 42.4C540.105 42.4 537.705 44.88 537.705 48.224V48.352C537.705 51.648 539.993 54.16 543.497 54.16ZM551.312 54H553.248V45.232L558.4 54H560.608V42.56H558.672V50.832L553.856 42.56H551.312V54ZM567.122 54.16C569.65 54.16 571.33 52.608 571.33 50.624C571.33 48.336 569.938 47.568 567.25 47.2C565.266 46.912 564.882 46.448 564.882 45.52C564.882 44.64 565.554 44.016 566.85 44.016C568.162 44.016 568.85 44.528 569.058 45.728H571.01C570.786 43.536 569.314 42.416 566.85 42.416C564.466 42.416 562.866 43.824 562.866 45.696C562.866 47.84 564.162 48.672 566.898 49.04C568.754 49.344 569.282 49.744 569.282 50.8C569.282 51.856 568.386 52.56 567.122 52.56C565.186 52.56 564.722 51.6 564.578 50.448H562.53C562.69 52.608 564.002 54.16 567.122 54.16Z" fill="#002F34"/>
<path d="M170.312 54H172.44V49.648H174.04C176.488 49.648 178.232 48.576 178.232 46.16V46.096C178.232 43.696 176.552 42.56 173.992 42.56H170.312V54ZM172.44 48.112V44.208H173.992C175.352 44.208 176.152 44.736 176.152 46.096V46.16C176.152 47.424 175.4 48.112 173.992 48.112H172.44ZM185.388 52.448C183.308 52.448 181.788 50.832 181.788 48.336V48.208C181.788 45.744 183.116 44.096 185.356 44.096C187.596 44.096 188.908 45.84 188.908 48.192V48.32C188.908 50.8 187.548 52.448 185.388 52.448ZM185.356 54.16C188.828 54.16 191.116 51.648 191.116 48.304V48.176C191.116 44.816 188.764 42.4 185.356 42.4C181.964 42.4 179.564 44.88 179.564 48.224V48.352C179.564 51.648 181.852 54.16 185.356 54.16ZM193.171 54H195.299V49.648H196.899C199.347 49.648 201.091 48.576 201.091 46.16V46.096C201.091 43.696 199.411 42.56 196.851 42.56H193.171V54ZM195.299 48.112V44.208H196.851C198.211 44.208 199.011 44.736 199.011 46.096V46.16C199.011 47.424 198.259 48.112 196.851 48.112H195.299ZM207.321 54.16C210.345 54.16 211.961 52.512 211.961 49.52V42.56H209.817V49.344C209.817 51.712 208.985 52.448 207.337 52.448C205.641 52.448 204.969 51.584 204.969 49.488V42.56H202.825V49.648C202.825 52.592 204.457 54.16 207.321 54.16ZM214.484 54H221.492V52.304H216.612V42.56H214.484V54ZM222.495 54H224.495L225.391 51.168H229.759L230.671 54H232.879L229.103 42.56H226.319L222.495 54ZM227.583 44.304L229.263 49.616H225.887L227.583 44.304ZM234.625 54H236.753V49.376H238.113L241.105 54H243.409L240.193 49.056C241.617 48.688 242.737 47.776 242.737 45.984V45.92C242.737 43.584 240.977 42.56 238.465 42.56H234.625V54ZM236.753 47.856V44.208H238.465C239.825 44.208 240.641 44.656 240.641 45.968V46.032C240.641 47.248 239.889 47.856 238.465 47.856H236.753ZM248.921 54H255.929V52.304H251.049V42.56H248.921V54ZM262.576 52.448C260.496 52.448 258.976 50.832 258.976 48.336V48.208C258.976 45.744 260.304 44.096 262.544 44.096C264.784 44.096 266.096 45.84 266.096 48.192V48.32C266.096 50.8 264.736 52.448 262.576 52.448ZM262.544 54.16C266.016 54.16 268.304 51.648 268.304 48.304V48.176C268.304 44.816 265.952 42.4 262.544 42.4C259.152 42.4 256.752 44.88 256.752 48.224V48.352C256.752 51.648 259.04 54.16 262.544 54.16ZM275.367 54.16C278.087 54.16 280.039 52.768 280.375 50.016H278.295C278.071 51.632 276.951 52.432 275.367 52.432C273.255 52.432 272.023 50.912 272.023 48.336V48.208C272.023 45.648 273.335 44.08 275.351 44.08C276.999 44.08 277.847 44.864 278.087 46.384H280.247C279.991 43.696 277.959 42.384 275.335 42.384C272.151 42.384 269.783 44.784 269.783 48.224V48.352C269.783 51.872 271.783 54.16 275.367 54.16ZM281.104 54H283.104L284 51.168H288.368L289.28 54H291.488L287.712 42.56H284.928L281.104 54ZM286.192 44.304L287.872 49.616H284.496L286.192 44.304ZM294.397 54H296.541V44.24H299.725V42.56H291.213V44.24H294.397V54ZM301.501 54H303.645V42.56H301.501V54ZM311.591 52.448C309.511 52.448 307.991 50.832 307.991 48.336V48.208C307.991 45.744 309.319 44.096 311.559 44.096C313.799 44.096 315.111 45.84 315.111 48.192V48.32C315.111 50.8 313.751 52.448 311.591 52.448ZM311.559 54.16C315.031 54.16 317.319 51.648 317.319 48.304V48.176C317.319 44.816 314.967 42.4 311.559 42.4C308.167 42.4 305.767 44.88 305.767 48.224V48.352C305.767 51.648 308.055 54.16 311.559 54.16ZM319.375 54H321.311V45.232L326.463 54H328.671V42.56H326.735V50.832L321.919 42.56H319.375V54ZM335.184 54.16C337.712 54.16 339.392 52.608 339.392 50.624C339.392 48.336 338 47.568 335.312 47.2C333.328 46.912 332.944 46.448 332.944 45.52C332.944 44.64 333.616 44.016 334.912 44.016C336.224 44.016 336.912 44.528 337.12 45.728H339.072C338.848 43.536 337.376 42.416 334.912 42.416C332.528 42.416 330.928 43.824 330.928 45.696C330.928 47.84 332.224 48.672 334.96 49.04C336.816 49.344 337.344 49.744 337.344 50.8C337.344 51.856 336.448 52.56 335.184 52.56C333.248 52.56 332.784 51.6 332.64 50.448H330.592C330.752 52.608 332.064 54.16 335.184 54.16Z" fill="#002F34"/>
<path d="M619.432 54H621.432L622.328 51.168H626.696L627.608 54H629.816L626.04 42.56H623.256L619.432 54ZM624.52 44.304L626.2 49.616H622.824L624.52 44.304ZM631.562 54H635.962C638.474 54 639.882 52.928 639.882 50.8V50.736C639.882 49.216 639.146 48.368 637.594 48.032C638.89 47.632 639.402 46.736 639.402 45.6V45.536C639.402 43.456 638.01 42.56 635.658 42.56H631.562V54ZM633.642 52.48V48.816H635.562C637.13 48.816 637.786 49.408 637.786 50.592V50.656C637.786 51.84 637.13 52.48 635.706 52.48H633.642ZM633.642 47.376V44.08H635.37C636.73 44.08 637.354 44.544 637.354 45.632V45.696C637.354 46.864 636.81 47.376 635.402 47.376H633.642ZM647.123 52.448C645.043 52.448 643.523 50.832 643.523 48.336V48.208C643.523 45.744 644.851 44.096 647.091 44.096C649.331 44.096 650.643 45.84 650.643 48.192V48.32C650.643 50.8 649.283 52.448 647.123 52.448ZM647.091 54.16C650.562 54.16 652.851 51.648 652.851 48.304V48.176C652.851 44.816 650.499 42.4 647.091 42.4C643.699 42.4 641.299 44.88 641.299 48.224V48.352C641.299 51.648 643.587 54.16 647.091 54.16ZM659.306 54.16C662.33 54.16 663.946 52.512 663.946 49.52V42.56H661.802V49.344C661.802 51.712 660.97 52.448 659.322 52.448C657.626 52.448 656.954 51.584 656.954 49.488V42.56H654.81V49.648C654.81 52.592 656.442 54.16 659.306 54.16ZM668.756 54H670.9V44.24H674.084V42.56H665.572V44.24H668.756V54ZM684.009 54.16C687.033 54.16 688.649 52.512 688.649 49.52V42.56H686.505V49.344C686.505 51.712 685.673 52.448 684.025 52.448C682.329 52.448 681.657 51.584 681.657 49.488V42.56H679.513V49.648C679.513 52.592 681.145 54.16 684.009 54.16ZM695.059 54.16C697.587 54.16 699.267 52.608 699.267 50.624C699.267 48.336 697.875 47.568 695.187 47.2C693.203 46.912 692.819 46.448 692.819 45.52C692.819 44.64 693.491 44.016 694.787 44.016C696.099 44.016 696.787 44.528 696.995 45.728H698.947C698.723 43.536 697.251 42.416 694.787 42.416C692.403 42.416 690.803 43.824 690.803 45.696C690.803 47.84 692.099 48.672 694.835 49.04C696.691 49.344 697.219 49.744 697.219 50.8C697.219 51.856 696.323 52.56 695.059 52.56C693.123 52.56 692.659 51.6 692.515 50.448H690.467C690.627 52.608 691.939 54.16 695.059 54.16Z" fill="#002F34"/>
<path d="M851.56 52.448C849.48 52.448 847.96 50.832 847.96 48.336V48.208C847.96 45.744 849.288 44.096 851.528 44.096C853.768 44.096 855.08 45.84 855.08 48.192V48.32C855.08 50.8 853.72 52.448 851.56 52.448ZM851.528 54.16C855 54.16 857.288 51.648 857.288 48.304V48.176C857.288 44.816 854.936 42.4 851.528 42.4C848.136 42.4 845.736 44.88 845.736 48.224V48.352C845.736 51.648 848.024 54.16 851.528 54.16ZM859.343 54H866.351V52.304H861.471V42.56H859.343V54ZM867.42 54H869.596L872.284 49.536L874.972 54H877.404L873.74 48.08L877.116 42.56H874.924L872.508 46.624L870.076 42.56H867.676L871.1 48.128L867.42 54Z" fill="#002F34"/>
<path d="M1071.31 54H1073.44V49.312H1077.34V47.664H1073.44V44.256H1078.4V42.56H1071.31V54ZM1085.34 52.448C1083.26 52.448 1081.74 50.832 1081.74 48.336V48.208C1081.74 45.744 1083.07 44.096 1085.31 44.096C1087.55 44.096 1088.86 45.84 1088.86 48.192V48.32C1088.86 50.8 1087.5 52.448 1085.34 52.448ZM1085.31 54.16C1088.78 54.16 1091.07 51.648 1091.07 48.304V48.176C1091.07 44.816 1088.72 42.4 1085.31 42.4C1081.92 42.4 1079.52 44.88 1079.52 48.224V48.352C1079.52 51.648 1081.81 54.16 1085.31 54.16ZM1093.12 54H1100.13V52.304H1095.25V42.56H1093.12V54ZM1101.94 54H1108.95V52.304H1104.07V42.56H1101.94V54ZM1115.59 52.448C1113.51 52.448 1111.99 50.832 1111.99 48.336V48.208C1111.99 45.744 1113.32 44.096 1115.56 44.096C1117.8 44.096 1119.11 45.84 1119.11 48.192V48.32C1119.11 50.8 1117.75 52.448 1115.59 52.448ZM1115.56 54.16C1119.03 54.16 1121.32 51.648 1121.32 48.304V48.176C1121.32 44.816 1118.97 42.4 1115.56 42.4C1112.17 42.4 1109.77 44.88 1109.77 48.224V48.352C1109.77 51.648 1112.06 54.16 1115.56 54.16ZM1124.92 54H1126.95L1129.27 45.664L1131.53 54H1133.66L1136.52 42.56H1134.54L1132.49 51.008L1130.22 42.56H1128.46L1126.23 50.96L1124.25 42.56H1122.07L1124.92 54ZM1146.46 54.16C1149.49 54.16 1151.1 52.512 1151.1 49.52V42.56H1148.96V49.344C1148.96 51.712 1148.13 52.448 1146.48 52.448C1144.78 52.448 1144.11 51.584 1144.11 49.488V42.56H1141.97V49.648C1141.97 52.592 1143.6 54.16 1146.46 54.16ZM1157.51 54.16C1160.04 54.16 1161.72 52.608 1161.72 50.624C1161.72 48.336 1160.33 47.568 1157.64 47.2C1155.66 46.912 1155.27 46.448 1155.27 45.52C1155.27 44.64 1155.94 44.016 1157.24 44.016C1158.55 44.016 1159.24 44.528 1159.45 45.728H1161.4C1161.18 43.536 1159.7 42.416 1157.24 42.416C1154.86 42.416 1153.26 43.824 1153.26 45.696C1153.26 47.84 1154.55 48.672 1157.29 49.04C1159.14 49.344 1159.67 49.744 1159.67 50.8C1159.67 51.856 1158.78 52.56 1157.51 52.56C1155.58 52.56 1155.11 51.6 1154.97 50.448H1152.92C1153.08 52.608 1154.39 54.16 1157.51 54.16Z" fill="#002F34"/>
<path d="M170.26 94H171.478V89.114L175.944 94H177.414L172.738 88.848L177.19 83.976H175.832L171.478 88.806V83.99H170.26V94ZM181.431 93.16C179.947 93.16 179.037 92.068 179.037 90.402V90.29C179.037 88.61 179.961 87.518 181.431 87.518C182.887 87.518 183.825 88.61 183.825 90.304V90.402C183.825 92.054 182.901 93.16 181.431 93.16ZM181.417 94.126C183.503 94.126 185.029 92.6 185.029 90.388V90.276C185.029 88.078 183.503 86.552 181.431 86.552C179.359 86.552 177.833 88.092 177.833 90.29V90.402C177.833 92.544 179.331 94.126 181.417 94.126ZM186.856 94H188.032V83.178H186.856V94ZM190.41 94H191.572V90.206L194.82 94H196.234L192.832 90.08L195.968 86.678H194.61L191.572 90.052V83.178H190.41V94ZM199.395 94.126C200.473 94.126 201.131 93.762 201.677 93.076V94H202.839V89.17C202.839 87.126 201.565 86.552 200.165 86.552C198.751 86.552 197.421 87.168 197.267 88.834H198.429C198.541 87.938 199.101 87.518 200.109 87.518C201.229 87.518 201.677 88.008 201.677 89.17V89.702H200.627C198.751 89.702 196.959 90.276 196.959 91.97C196.959 93.468 198.037 94.126 199.395 94.126ZM199.507 93.202C198.485 93.202 198.121 92.726 198.121 91.97C198.121 90.892 199.199 90.528 200.669 90.528H201.677V91.438C201.677 92.572 200.739 93.202 199.507 93.202ZM207.347 94.098C207.823 94.098 208.103 94.028 208.341 93.944V92.964C208.089 93.062 207.809 93.118 207.445 93.118C206.857 93.118 206.535 92.768 206.535 92.054V87.658H208.243V86.678H206.535V85.012H205.373V86.678H204.323V87.658H205.373V92.166C205.373 93.314 206.017 94.098 207.347 94.098ZM212 94.126C213.078 94.126 213.736 93.762 214.282 93.076V94H215.444V89.17C215.444 87.126 214.17 86.552 212.77 86.552C211.356 86.552 210.026 87.168 209.872 88.834H211.034C211.146 87.938 211.706 87.518 212.714 87.518C213.834 87.518 214.282 88.008 214.282 89.17V89.702H213.232C211.356 89.702 209.564 90.276 209.564 91.97C209.564 93.468 210.642 94.126 212 94.126ZM212.112 93.202C211.09 93.202 210.726 92.726 210.726 91.97C210.726 90.892 211.804 90.528 213.274 90.528H214.282V91.438C214.282 92.572 213.344 93.202 212.112 93.202Z" fill="#7F9799"/>
<path d="M395.26 94H398.69C400.692 94 401.98 93.09 401.98 91.2V91.144C401.98 89.842 401.434 89.1 399.978 88.75C401.126 88.358 401.49 87.546 401.49 86.636V86.58C401.49 84.606 400.132 83.99 398.27 83.99H395.26V94ZM396.45 93.048V89.31H398.494C400.104 89.31 400.79 89.898 400.79 91.13V91.186C400.79 92.404 400.118 93.048 398.662 93.048H396.45ZM396.45 88.358V84.942H398.242C399.642 84.942 400.3 85.404 400.3 86.538V86.594C400.3 87.826 399.74 88.358 398.27 88.358H396.45ZM403.885 94H405.047V89.562C405.047 88.246 406.013 87.56 407.091 87.56C408.267 87.56 408.813 88.134 408.813 89.422V94H409.975V89.506C409.975 87.378 408.911 86.552 407.399 86.552C406.195 86.552 405.383 87.154 405.047 87.84V83.178H403.885V94ZM414.73 94.126C415.906 94.126 416.718 93.524 417.054 92.838V94H418.216V86.678H417.054V91.116C417.054 92.432 416.074 93.118 415.038 93.118C413.89 93.118 413.344 92.544 413.344 91.256V86.678H412.182V91.312C412.182 93.328 413.274 94.126 414.73 94.126ZM422.399 94H423.883L426.515 86.678H425.311L423.169 92.824L420.999 86.678H419.739L422.399 94ZM429.809 94.126C430.887 94.126 431.545 93.762 432.091 93.076V94H433.253V89.17C433.253 87.126 431.979 86.552 430.579 86.552C429.165 86.552 427.835 87.168 427.681 88.834H428.843C428.955 87.938 429.515 87.518 430.523 87.518C431.643 87.518 432.091 88.008 432.091 89.17V89.702H431.041C429.165 89.702 427.373 90.276 427.373 91.97C427.373 93.468 428.451 94.126 429.809 94.126ZM429.921 93.202C428.899 93.202 428.535 92.726 428.535 91.97C428.535 90.892 429.613 90.528 431.083 90.528H432.091V91.438C432.091 92.572 431.153 93.202 429.921 93.202ZM435.535 94H436.697V89.562C436.697 88.246 437.663 87.56 438.741 87.56C439.917 87.56 440.463 88.134 440.463 89.422V94H441.625V89.506C441.625 87.378 440.561 86.552 439.049 86.552C437.845 86.552 437.033 87.154 436.697 87.84V86.678H435.535V94ZM446.899 94.126C448.551 94.126 449.769 93.356 450.021 91.886H448.859C448.705 92.74 448.047 93.16 446.913 93.16C445.415 93.16 444.617 92.236 444.561 90.57H450.077V90.192C450.077 87.574 448.481 86.552 446.787 86.552C444.771 86.552 443.357 88.092 443.357 90.304V90.416C443.357 92.67 444.827 94.126 446.899 94.126ZM444.603 89.632C444.799 88.33 445.597 87.518 446.787 87.518C447.991 87.518 448.775 88.12 448.887 89.632H444.603ZM454.196 94.126C455.974 94.126 456.884 93.23 456.884 91.9C456.884 90.346 455.82 90.01 454.308 89.73C452.964 89.492 452.6 89.226 452.6 88.568C452.6 87.938 453.146 87.518 453.986 87.518C454.91 87.518 455.358 87.868 455.526 88.666H456.646C456.45 87.084 455.316 86.552 454 86.552C452.852 86.552 451.522 87.252 451.522 88.61C451.522 89.884 452.166 90.416 454.07 90.766C455.204 90.976 455.778 91.228 455.778 91.998C455.778 92.782 455.288 93.16 454.182 93.16C453.006 93.16 452.544 92.614 452.46 91.746H451.326C451.396 93.244 452.446 94.126 454.196 94.126ZM458.655 94H459.817V89.562C459.817 88.246 460.783 87.56 461.861 87.56C463.037 87.56 463.583 88.134 463.583 89.422V94H464.745V89.506C464.745 87.378 463.681 86.552 462.169 86.552C460.965 86.552 460.153 87.154 459.817 87.84V83.178H458.655V94ZM468.355 94H469.629L471.337 88.512L472.863 94H474.151L476.433 86.678H475.243L473.521 92.572L471.855 86.678H470.847L469.069 92.572L467.361 86.678H466.101L468.355 94ZM479.698 94.126C480.776 94.126 481.434 93.762 481.98 93.076V94H483.142V89.17C483.142 87.126 481.868 86.552 480.468 86.552C479.054 86.552 477.724 87.168 477.57 88.834H478.732C478.844 87.938 479.404 87.518 480.412 87.518C481.532 87.518 481.98 88.008 481.98 89.17V89.702H480.93C479.054 89.702 477.262 90.276 477.262 91.97C477.262 93.468 478.34 94.126 479.698 94.126ZM479.81 93.202C478.788 93.202 478.424 92.726 478.424 91.97C478.424 90.892 479.502 90.528 480.972 90.528H481.98V91.438C481.98 92.572 481.042 93.202 479.81 93.202ZM485.424 94H486.586V89.982C486.586 88.176 487.524 87.714 488.994 87.644V86.552C487.678 86.594 487.048 87.168 486.586 87.994V86.678H485.424V94Z" fill="#7F9799"/>
<path d="M619.504 94H620.652L621.618 91.116H625.748L626.728 94H627.932L624.544 83.99H622.948L619.504 94ZM623.69 84.998L625.426 90.15H621.954L623.69 84.998ZM633.25 94.126C635.266 94.126 636.582 92.586 636.582 90.346V90.234C636.582 87.952 635.168 86.552 633.25 86.552C632.186 86.552 631.192 87.196 630.772 87.91V83.178H629.61V94H630.772V92.796C631.192 93.524 632.06 94.126 633.25 94.126ZM633.138 93.16C631.71 93.16 630.73 92.278 630.73 90.402V90.29C630.73 88.414 631.766 87.518 633.124 87.518C634.356 87.518 635.378 88.442 635.378 90.29V90.402C635.378 92.18 634.594 93.16 633.138 93.16ZM641.439 93.16C639.955 93.16 639.045 92.068 639.045 90.402V90.29C639.045 88.61 639.969 87.518 641.439 87.518C642.895 87.518 643.833 88.61 643.833 90.304V90.402C643.833 92.054 642.909 93.16 641.439 93.16ZM641.425 94.126C643.511 94.126 645.037 92.6 645.037 90.388V90.276C645.037 88.078 643.511 86.552 641.439 86.552C639.367 86.552 637.841 88.092 637.841 90.29V90.402C637.841 92.544 639.339 94.126 641.425 94.126ZM649.314 94.126C650.49 94.126 651.302 93.524 651.638 92.838V94H652.8V86.678H651.638V91.116C651.638 92.432 650.658 93.118 649.622 93.118C648.474 93.118 647.928 92.544 647.928 91.256V86.678H646.766V91.312C646.766 93.328 647.858 94.126 649.314 94.126ZM657.375 94.098C657.851 94.098 658.131 94.028 658.369 93.944V92.964C658.117 93.062 657.837 93.118 657.473 93.118C656.885 93.118 656.563 92.768 656.563 92.054V87.658H658.271V86.678H656.563V85.012H655.401V86.678H654.351V87.658H655.401V92.166C655.401 93.314 656.045 94.098 657.375 94.098ZM668.38 93.118C666.294 93.118 664.684 91.466 664.684 89.044V88.932C664.684 86.552 666.028 84.844 668.352 84.844C670.662 84.844 671.978 86.664 671.978 88.904V89.016C671.978 91.438 670.606 93.118 668.38 93.118ZM668.38 94.126C671.292 94.126 673.238 91.858 673.238 89.03V88.918C673.238 86.104 671.292 83.864 668.352 83.864C665.412 83.864 663.424 86.104 663.424 88.946V89.058C663.424 91.858 665.426 94.126 668.38 94.126ZM675.262 94H681.058V93.006H676.48V83.99H675.262V94ZM682.124 94H683.342L686.016 89.786L688.69 94H690.062L686.8 88.862L689.908 83.99H688.662L686.184 87.924L683.692 83.99H682.348L685.428 88.862L682.124 94ZM700.014 94.126C702.576 94.126 704.354 92.586 704.354 89.688V88.946H700.238V89.954H703.164C703.122 91.732 702.184 93.146 700.014 93.146C697.662 93.146 696.43 91.522 696.43 89.044V88.932C696.43 86.482 697.746 84.802 700.042 84.802C701.498 84.802 702.59 85.418 702.87 87.014H704.088C703.78 84.76 702.002 83.836 700.014 83.836C697.144 83.836 695.17 86.02 695.17 88.946V89.058C695.17 91.984 696.934 94.126 700.014 94.126ZM706.309 94H707.471V89.982C707.471 88.176 708.409 87.714 709.879 87.644V86.552C708.563 86.594 707.933 87.168 707.471 87.994V86.678H706.309V94ZM714.419 93.16C712.935 93.16 712.025 92.068 712.025 90.402V90.29C712.025 88.61 712.949 87.518 714.419 87.518C715.875 87.518 716.813 88.61 716.813 90.304V90.402C716.813 92.054 715.889 93.16 714.419 93.16ZM714.405 94.126C716.491 94.126 718.017 92.6 718.017 90.388V90.276C718.017 88.078 716.491 86.552 714.419 86.552C712.347 86.552 710.821 88.092 710.821 90.29V90.402C710.821 92.544 712.319 94.126 714.405 94.126ZM722.295 94.126C723.471 94.126 724.283 93.524 724.619 92.838V94H725.781V86.678H724.619V91.116C724.619 92.432 723.639 93.118 722.603 93.118C721.455 93.118 720.909 92.544 720.909 91.256V86.678H719.747V91.312C719.747 93.328 720.839 94.126 722.295 94.126ZM728.129 96.548H729.291V92.796C729.711 93.524 730.565 94.126 731.769 94.126C733.785 94.126 735.101 92.586 735.101 90.346V90.234C735.101 87.952 733.687 86.552 731.769 86.552C730.705 86.552 729.711 87.196 729.291 87.91V86.678H728.129V96.548ZM731.657 93.16C730.229 93.16 729.249 92.278 729.249 90.402V90.29C729.249 88.414 730.285 87.518 731.643 87.518C732.875 87.518 733.897 88.442 733.897 90.29V90.402C733.897 92.18 733.113 93.16 731.657 93.16Z" fill="#7F9799"/>
<path d="M846.26 94H847.478V89.548H852.742V94H853.96V83.99H852.742V88.526H847.478V83.99H846.26V94ZM859.399 94.126C861.051 94.126 862.269 93.356 862.521 91.886H861.359C861.205 92.74 860.547 93.16 859.413 93.16C857.915 93.16 857.117 92.236 857.061 90.57H862.577V90.192C862.577 87.574 860.981 86.552 859.287 86.552C857.271 86.552 855.857 88.092 855.857 90.304V90.416C855.857 92.67 857.327 94.126 859.399 94.126ZM857.103 89.632C857.299 88.33 858.097 87.518 859.287 87.518C860.491 87.518 861.275 88.12 861.387 89.632H857.103ZM864.388 94H865.564V83.178H864.388V94ZM867.942 96.548H869.104V92.796C869.524 93.524 870.378 94.126 871.582 94.126C873.598 94.126 874.914 92.586 874.914 90.346V90.234C874.914 87.952 873.5 86.552 871.582 86.552C870.518 86.552 869.524 87.196 869.104 87.91V86.678H867.942V96.548ZM871.47 93.16C870.042 93.16 869.062 92.278 869.062 90.402V90.29C869.062 88.414 870.098 87.518 871.456 87.518C872.688 87.518 873.71 88.442 873.71 90.29V90.402C873.71 92.18 872.926 93.16 871.47 93.16Z" fill="#7F9799"/>
<path d="M170.26 122H171.38V113.572L174.81 122H175.188L178.506 113.572V122H179.724V111.99H178.044L175.048 119.788L171.954 111.99H170.26V122ZM184.644 122.126C185.82 122.126 186.632 121.524 186.968 120.838V122H188.13V114.678H186.968V119.116C186.968 120.432 185.988 121.118 184.952 121.118C183.804 121.118 183.258 120.544 183.258 119.256V114.678H182.096V119.312C182.096 121.328 183.188 122.126 184.644 122.126ZM190.479 122H191.641V117.52C191.641 116.204 192.621 115.56 193.573 115.56C194.581 115.56 195.127 116.092 195.127 117.38V122H196.289V117.52C196.289 116.204 197.269 115.56 198.221 115.56C199.229 115.56 199.775 116.092 199.775 117.38V122H200.937V117.464C200.937 115.336 199.789 114.552 198.473 114.552C197.563 114.552 196.471 114.972 195.967 115.924C195.589 114.944 194.763 114.552 193.825 114.552C192.775 114.552 191.977 115.112 191.641 115.798V114.678H190.479V122ZM206.861 122.126C208.877 122.126 210.193 120.586 210.193 118.346V118.234C210.193 115.952 208.779 114.552 206.861 114.552C205.797 114.552 204.803 115.196 204.383 115.91V111.178H203.221V122H204.383V120.796C204.803 121.524 205.671 122.126 206.861 122.126ZM206.749 121.16C205.321 121.16 204.341 120.278 204.341 118.402V118.29C204.341 116.414 205.377 115.518 206.735 115.518C207.967 115.518 208.989 116.442 208.989 118.29V118.402C208.989 120.18 208.205 121.16 206.749 121.16ZM213.832 122.126C214.91 122.126 215.568 121.762 216.114 121.076V122H217.276V117.17C217.276 115.126 216.002 114.552 214.602 114.552C213.188 114.552 211.858 115.168 211.704 116.834H212.866C212.978 115.938 213.538 115.518 214.546 115.518C215.666 115.518 216.114 116.008 216.114 117.17V117.702H215.064C213.188 117.702 211.396 118.276 211.396 119.97C211.396 121.468 212.474 122.126 213.832 122.126ZM213.944 121.202C212.922 121.202 212.558 120.726 212.558 119.97C212.558 118.892 213.636 118.528 215.106 118.528H216.114V119.438C216.114 120.572 215.176 121.202 213.944 121.202ZM219.587 122H220.749V114.678H219.587V122ZM220.147 113.152C220.567 113.152 220.917 112.802 220.917 112.382C220.917 111.962 220.567 111.612 220.147 111.612C219.727 111.612 219.377 111.962 219.377 112.382C219.377 112.802 219.727 113.152 220.147 113.152Z" fill="#7F9799"/>
<path d="M395.26 122H396.478V117.548H401.742V122H402.96V111.99H401.742V116.526H396.478V111.99H395.26V122ZM406.061 124.548H407.237L411.283 114.678H410.093L408.063 119.928L405.823 114.678H404.577L407.447 121.244L406.061 124.548ZM415.434 122.126C416.498 122.126 417.52 121.454 417.94 120.74V122H419.102V111.178H417.94V115.854C417.52 115.14 416.764 114.552 415.546 114.552C413.53 114.552 412.13 116.134 412.13 118.374V118.486C412.13 120.768 413.516 122.126 415.434 122.126ZM415.56 121.16C414.328 121.16 413.334 120.278 413.334 118.43V118.318C413.334 116.54 414.202 115.518 415.658 115.518C417.086 115.518 417.982 116.4 417.982 118.276V118.388C417.982 120.264 416.918 121.16 415.56 121.16ZM424.449 122.126C426.101 122.126 427.319 121.356 427.571 119.886H426.409C426.255 120.74 425.597 121.16 424.463 121.16C422.965 121.16 422.167 120.236 422.111 118.57H427.627V118.192C427.627 115.574 426.031 114.552 424.337 114.552C422.321 114.552 420.907 116.092 420.907 118.304V118.416C420.907 120.67 422.377 122.126 424.449 122.126ZM422.153 117.632C422.349 116.33 423.147 115.518 424.337 115.518C425.541 115.518 426.325 116.12 426.437 117.632H422.153ZM429.41 122H430.572V117.982C430.572 116.176 431.51 115.714 432.98 115.644V114.552C431.664 114.594 431.034 115.168 430.572 115.994V114.678H429.41V122ZM436.44 122.126C437.518 122.126 438.176 121.762 438.722 121.076V122H439.884V117.17C439.884 115.126 438.61 114.552 437.21 114.552C435.796 114.552 434.466 115.168 434.312 116.834H435.474C435.586 115.938 436.146 115.518 437.154 115.518C438.274 115.518 438.722 116.008 438.722 117.17V117.702H437.672C435.796 117.702 434.004 118.276 434.004 119.97C434.004 121.468 435.082 122.126 436.44 122.126ZM436.552 121.202C435.53 121.202 435.166 120.726 435.166 119.97C435.166 118.892 436.244 118.528 437.714 118.528H438.722V119.438C438.722 120.572 437.784 121.202 436.552 121.202ZM445.806 122.126C447.822 122.126 449.138 120.586 449.138 118.346V118.234C449.138 115.952 447.724 114.552 445.806 114.552C444.742 114.552 443.748 115.196 443.328 115.91V111.178H442.166V122H443.328V120.796C443.748 121.524 444.616 122.126 445.806 122.126ZM445.694 121.16C444.266 121.16 443.286 120.278 443.286 118.402V118.29C443.286 116.414 444.322 115.518 445.68 115.518C446.912 115.518 447.934 116.442 447.934 118.29V118.402C447.934 120.18 447.15 121.16 445.694 121.16ZM452.778 122.126C453.856 122.126 454.514 121.762 455.06 121.076V122H456.222V117.17C456.222 115.126 454.948 114.552 453.548 114.552C452.134 114.552 450.804 115.168 450.65 116.834H451.812C451.924 115.938 452.484 115.518 453.492 115.518C454.612 115.518 455.06 116.008 455.06 117.17V117.702H454.01C452.134 117.702 450.342 118.276 450.342 119.97C450.342 121.468 451.42 122.126 452.778 122.126ZM452.89 121.202C451.868 121.202 451.504 120.726 451.504 119.97C451.504 118.892 452.582 118.528 454.052 118.528H455.06V119.438C455.06 120.572 454.122 121.202 452.89 121.202ZM461.262 122.126C462.326 122.126 463.348 121.454 463.768 120.74V122H464.93V111.178H463.768V115.854C463.348 115.14 462.592 114.552 461.374 114.552C459.358 114.552 457.958 116.134 457.958 118.374V118.486C457.958 120.768 459.344 122.126 461.262 122.126ZM461.388 121.16C460.156 121.16 459.162 120.278 459.162 118.43V118.318C459.162 116.54 460.03 115.518 461.486 115.518C462.914 115.518 463.81 116.4 463.81 118.276V118.388C463.81 120.264 462.746 121.16 461.388 121.16Z" fill="#7F9799"/>
<path d="M624.446 122.126C626.686 122.126 628.282 120.992 628.632 118.682H627.498C627.246 120.306 626.112 121.132 624.474 121.132C622.318 121.132 621.03 119.592 621.03 117.044V116.932C621.03 114.412 622.416 112.802 624.488 112.802C626.196 112.802 627.078 113.586 627.33 115.112H628.534C628.324 112.942 626.56 111.836 624.474 111.836C621.758 111.836 619.77 113.978 619.77 116.946V117.058C619.77 120.138 621.548 122.126 624.446 122.126ZM632.373 122.126C633.451 122.126 634.109 121.762 634.655 121.076V122H635.817V117.17C635.817 115.126 634.543 114.552 633.143 114.552C631.729 114.552 630.399 115.168 630.245 116.834H631.407C631.519 115.938 632.079 115.518 633.087 115.518C634.207 115.518 634.655 116.008 634.655 117.17V117.702H633.605C631.729 117.702 629.937 118.276 629.937 119.97C629.937 121.468 631.015 122.126 632.373 122.126ZM632.485 121.202C631.463 121.202 631.099 120.726 631.099 119.97C631.099 118.892 632.177 118.528 633.647 118.528H634.655V119.438C634.655 120.572 633.717 121.202 632.485 121.202ZM638.1 122H639.262V117.982C639.262 116.176 640.2 115.714 641.67 115.644V114.552C640.354 114.594 639.724 115.168 639.262 115.994V114.678H638.1V122ZM646.154 122.126C647.806 122.126 649.024 121.356 649.276 119.886H648.114C647.96 120.74 647.302 121.16 646.168 121.16C644.67 121.16 643.872 120.236 643.816 118.57H649.332V118.192C649.332 115.574 647.736 114.552 646.042 114.552C644.026 114.552 642.612 116.092 642.612 118.304V118.416C642.612 120.67 644.082 122.126 646.154 122.126ZM643.858 117.632C644.054 116.33 644.852 115.518 646.042 115.518C647.246 115.518 648.03 116.12 648.142 117.632H643.858ZM654.111 122.126C655.763 122.126 656.981 121.356 657.233 119.886H656.071C655.917 120.74 655.259 121.16 654.125 121.16C652.627 121.16 651.829 120.236 651.773 118.57H657.289V118.192C657.289 115.574 655.693 114.552 653.999 114.552C651.983 114.552 650.569 116.092 650.569 118.304V118.416C650.569 120.67 652.039 122.126 654.111 122.126ZM651.815 117.632C652.011 116.33 652.809 115.518 653.999 115.518C655.203 115.518 655.987 116.12 656.099 117.632H651.815ZM659.072 122H660.234V117.982C660.234 116.176 661.172 115.714 662.642 115.644V114.552C661.326 114.594 660.696 115.168 660.234 115.994V114.678H659.072V122ZM666.536 122.126C668.314 122.126 669.224 121.23 669.224 119.9C669.224 118.346 668.16 118.01 666.648 117.73C665.304 117.492 664.94 117.226 664.94 116.568C664.94 115.938 665.486 115.518 666.326 115.518C667.25 115.518 667.698 115.868 667.866 116.666H668.986C668.79 115.084 667.656 114.552 666.34 114.552C665.192 114.552 663.862 115.252 663.862 116.61C663.862 117.884 664.506 118.416 666.41 118.766C667.544 118.976 668.118 119.228 668.118 119.998C668.118 120.782 667.628 121.16 666.522 121.16C665.346 121.16 664.884 120.614 664.8 119.746H663.666C663.736 121.244 664.786 122.126 666.536 122.126Z" fill="#7F9799"/>
<path d="M849.494 122.126C851.482 122.126 852.952 120.852 852.952 119.172C852.952 117.282 851.776 116.61 849.55 116.26C847.506 115.952 847.142 115.448 847.142 114.468C847.142 113.53 847.856 112.844 849.228 112.844C850.614 112.844 851.342 113.362 851.58 114.622H852.672C852.476 112.844 851.23 111.864 849.228 111.864C847.338 111.864 846.008 113.04 846.008 114.58C846.008 116.358 847.254 117.016 849.354 117.338C851.258 117.646 851.776 118.122 851.776 119.256C851.776 120.39 850.782 121.146 849.494 121.146C847.478 121.146 847.002 120.138 846.848 118.948H845.672C845.854 120.656 846.82 122.126 849.494 122.126ZM854.981 122H856.143V114.678H854.981V122ZM855.541 113.152C855.961 113.152 856.311 112.802 856.311 112.382C856.311 111.962 855.961 111.612 855.541 111.612C855.121 111.612 854.771 111.962 854.771 112.382C854.771 112.802 855.121 113.152 855.541 113.152ZM860.748 122.098C861.224 122.098 861.504 122.028 861.742 121.944V120.964C861.49 121.062 861.21 121.118 860.846 121.118C860.258 121.118 859.936 120.768 859.936 120.054V115.658H861.644V114.678H859.936V113.012H858.774V114.678H857.724V115.658H858.774V120.166C858.774 121.314 859.418 122.098 860.748 122.098ZM866.494 122.126C868.146 122.126 869.364 121.356 869.616 119.886H868.454C868.3 120.74 867.642 121.16 866.508 121.16C865.01 121.16 864.212 120.236 864.156 118.57H869.672V118.192C869.672 115.574 868.076 114.552 866.382 114.552C864.366 114.552 862.952 116.092 862.952 118.304V118.416C862.952 120.67 864.422 122.126 866.494 122.126ZM864.198 117.632C864.394 116.33 865.192 115.518 866.382 115.518C867.586 115.518 868.37 116.12 868.482 117.632H864.198ZM871.455 122H872.617V117.52C872.617 116.204 873.597 115.56 874.549 115.56C875.557 115.56 876.103 116.092 876.103 117.38V122H877.265V117.52C877.265 116.204 878.245 115.56 879.197 115.56C880.205 115.56 880.751 116.092 880.751 117.38V122H881.913V117.464C881.913 115.336 880.765 114.552 879.449 114.552C878.539 114.552 877.447 114.972 876.943 115.924C876.565 114.944 875.739 114.552 874.801 114.552C873.751 114.552 872.953 115.112 872.617 115.798V114.678H871.455V122ZM886.031 122.126C887.109 122.126 887.767 121.762 888.313 121.076V122H889.475V117.17C889.475 115.126 888.201 114.552 886.801 114.552C885.387 114.552 884.057 115.168 883.903 116.834H885.065C885.177 115.938 885.737 115.518 886.745 115.518C887.865 115.518 888.313 116.008 888.313 117.17V117.702H887.263C885.387 117.702 883.595 118.276 883.595 119.97C883.595 121.468 884.673 122.126 886.031 122.126ZM886.143 121.202C885.121 121.202 884.757 120.726 884.757 119.97C884.757 118.892 885.835 118.528 887.305 118.528H888.313V119.438C888.313 120.572 887.375 121.202 886.143 121.202ZM891.758 124.548H892.92V120.796C893.34 121.524 894.194 122.126 895.398 122.126C897.414 122.126 898.73 120.586 898.73 118.346V118.234C898.73 115.952 897.316 114.552 895.398 114.552C894.334 114.552 893.34 115.196 892.92 115.91V114.678H891.758V124.548ZM895.286 121.16C893.858 121.16 892.878 120.278 892.878 118.402V118.29C892.878 116.414 893.914 115.518 895.272 115.518C896.504 115.518 897.526 116.442 897.526 118.29V118.402C897.526 120.18 896.742 121.16 895.286 121.16Z" fill="#7F9799"/>
<path d="M174.446 150.126C176.686 150.126 178.282 148.992 178.632 146.682H177.498C177.246 148.306 176.112 149.132 174.474 149.132C172.318 149.132 171.03 147.592 171.03 145.044V144.932C171.03 142.412 172.416 140.802 174.488 140.802C176.196 140.802 177.078 141.586 177.33 143.112H178.534C178.324 140.942 176.56 139.836 174.474 139.836C171.758 139.836 169.77 141.978 169.77 144.946V145.058C169.77 148.138 171.548 150.126 174.446 150.126ZM180.403 150H181.565V145.562C181.565 144.246 182.531 143.56 183.609 143.56C184.785 143.56 185.331 144.134 185.331 145.422V150H186.493V145.506C186.493 143.378 185.429 142.552 183.917 142.552C182.713 142.552 181.901 143.154 181.565 143.84V139.178H180.403V150ZM191.766 150.126C193.418 150.126 194.636 149.356 194.888 147.886H193.726C193.572 148.74 192.914 149.16 191.78 149.16C190.282 149.16 189.484 148.236 189.428 146.57H194.944V146.192C194.944 143.574 193.348 142.552 191.654 142.552C189.638 142.552 188.224 144.092 188.224 146.304V146.416C188.224 148.67 189.694 150.126 191.766 150.126ZM189.47 145.632C189.666 144.33 190.464 143.518 191.654 143.518C192.858 143.518 193.642 144.12 193.754 145.632H189.47ZM196.727 150H197.889V145.562C197.889 144.246 198.855 143.56 199.933 143.56C201.109 143.56 201.655 144.134 201.655 145.422V150H202.817V145.506C202.817 143.378 201.753 142.552 200.241 142.552C199.037 142.552 198.225 143.154 197.889 143.84V142.678H196.727V150ZM205.094 150H206.256V145.562C206.256 144.246 207.222 143.56 208.3 143.56C209.476 143.56 210.022 144.134 210.022 145.422V150H211.184V145.506C211.184 143.378 210.12 142.552 208.608 142.552C207.404 142.552 206.592 143.154 206.256 143.84V142.678H205.094V150ZM215.295 150.126C216.373 150.126 217.031 149.762 217.577 149.076V150H218.739V145.17C218.739 143.126 217.465 142.552 216.065 142.552C214.651 142.552 213.321 143.168 213.167 144.834H214.329C214.441 143.938 215.001 143.518 216.009 143.518C217.129 143.518 217.577 144.008 217.577 145.17V145.702H216.527C214.651 145.702 212.859 146.276 212.859 147.97C212.859 149.468 213.937 150.126 215.295 150.126ZM215.407 149.202C214.385 149.202 214.021 148.726 214.021 147.97C214.021 146.892 215.099 146.528 216.569 146.528H217.577V147.438C217.577 148.572 216.639 149.202 215.407 149.202ZM221.05 150H222.212V142.678H221.05V150ZM221.61 141.152C222.03 141.152 222.38 140.802 222.38 140.382C222.38 139.962 222.03 139.612 221.61 139.612C221.19 139.612 220.84 139.962 220.84 140.382C220.84 140.802 221.19 141.152 221.61 141.152Z" fill="#7F9799"/>
<path d="M399.446 150.126C401.686 150.126 403.282 148.992 403.632 146.682H402.498C402.246 148.306 401.112 149.132 399.474 149.132C397.318 149.132 396.03 147.592 396.03 145.044V144.932C396.03 142.412 397.416 140.802 399.488 140.802C401.196 140.802 402.078 141.586 402.33 143.112H403.534C403.324 140.942 401.56 139.836 399.474 139.836C396.758 139.836 394.77 141.978 394.77 144.946V145.058C394.77 148.138 396.548 150.126 399.446 150.126ZM405.403 150H406.565V145.562C406.565 144.246 407.531 143.56 408.609 143.56C409.785 143.56 410.331 144.134 410.331 145.422V150H411.493V145.506C411.493 143.378 410.429 142.552 408.917 142.552C407.713 142.552 406.901 143.154 406.565 143.84V139.178H405.403V150ZM415.604 150.126C416.682 150.126 417.34 149.762 417.886 149.076V150H419.048V145.17C419.048 143.126 417.774 142.552 416.374 142.552C414.96 142.552 413.63 143.168 413.476 144.834H414.638C414.75 143.938 415.31 143.518 416.318 143.518C417.438 143.518 417.886 144.008 417.886 145.17V145.702H416.836C414.96 145.702 413.168 146.276 413.168 147.97C413.168 149.468 414.246 150.126 415.604 150.126ZM415.716 149.202C414.694 149.202 414.33 148.726 414.33 147.97C414.33 146.892 415.408 146.528 416.878 146.528H417.886V147.438C417.886 148.572 416.948 149.202 415.716 149.202ZM421.33 150H422.492V145.562C422.492 144.246 423.458 143.56 424.536 143.56C425.712 143.56 426.258 144.134 426.258 145.422V150H427.42V145.506C427.42 143.378 426.356 142.552 424.844 142.552C423.64 142.552 422.828 143.154 422.492 143.84V142.678H421.33V150ZM432.455 150.126C433.519 150.126 434.541 149.454 434.961 148.74V150H436.123V139.178H434.961V143.854C434.541 143.14 433.785 142.552 432.567 142.552C430.551 142.552 429.151 144.134 429.151 146.374V146.486C429.151 148.768 430.537 150.126 432.455 150.126ZM432.581 149.16C431.349 149.16 430.355 148.278 430.355 146.43V146.318C430.355 144.54 431.223 143.518 432.679 143.518C434.107 143.518 435.003 144.4 435.003 146.276V146.388C435.003 148.264 433.939 149.16 432.581 149.16ZM438.503 150H439.665V142.678H438.503V150ZM439.063 141.152C439.483 141.152 439.833 140.802 439.833 140.382C439.833 139.962 439.483 139.612 439.063 139.612C438.643 139.612 438.293 139.962 438.293 140.382C438.293 140.802 438.643 141.152 439.063 141.152ZM444.969 152.674C447.013 152.674 448.455 151.638 448.469 149.51V142.678H447.307V143.854C446.887 143.14 446.131 142.552 444.913 142.552C442.897 142.552 441.497 144.204 441.497 146.192V146.29C441.497 148.306 442.911 149.762 444.829 149.762C445.893 149.762 446.887 149.09 447.307 148.376V149.44C447.307 151.008 446.397 151.694 444.955 151.694C443.709 151.694 443.009 151.26 442.841 150.42H441.651C441.847 151.652 442.799 152.674 444.969 152.674ZM444.955 148.796C443.723 148.796 442.701 147.844 442.701 146.248V146.136C442.701 144.596 443.569 143.518 445.025 143.518C446.453 143.518 447.349 144.47 447.349 146.108V146.206C447.349 147.844 446.313 148.796 444.955 148.796ZM452.655 150.126C453.733 150.126 454.391 149.762 454.937 149.076V150H456.099V145.17C456.099 143.126 454.825 142.552 453.425 142.552C452.011 142.552 450.681 143.168 450.527 144.834H451.689C451.801 143.938 452.361 143.518 453.369 143.518C454.489 143.518 454.937 144.008 454.937 145.17V145.702H453.887C452.011 145.702 450.219 146.276 450.219 147.97C450.219 149.468 451.297 150.126 452.655 150.126ZM452.767 149.202C451.745 149.202 451.381 148.726 451.381 147.97C451.381 146.892 452.459 146.528 453.929 146.528H454.937V147.438C454.937 148.572 453.999 149.202 452.767 149.202ZM458.381 150H459.543V145.982C459.543 144.176 460.481 143.714 461.951 143.644V142.552C460.635 142.594 460.005 143.168 459.543 143.994V142.678H458.381V150ZM463.645 150H464.807V145.562C464.807 144.246 465.773 143.56 466.851 143.56C468.027 143.56 468.573 144.134 468.573 145.422V150H469.735V145.506C469.735 143.378 468.671 142.552 467.159 142.552C465.955 142.552 465.143 143.154 464.807 143.84V139.178H463.645V150Z" fill="#7F9799"/>
<path d="M624.446 150.126C626.686 150.126 628.282 148.992 628.632 146.682H627.498C627.246 148.306 626.112 149.132 624.474 149.132C622.318 149.132 621.03 147.592 621.03 145.044V144.932C621.03 142.412 622.416 140.802 624.488 140.802C626.196 140.802 627.078 141.586 627.33 143.112H628.534C628.324 140.942 626.56 139.836 624.474 139.836C621.758 139.836 619.77 141.978 619.77 144.946V145.058C619.77 148.138 621.548 150.126 624.446 150.126ZM633.455 149.16C631.971 149.16 631.061 148.068 631.061 146.402V146.29C631.061 144.61 631.985 143.518 633.455 143.518C634.911 143.518 635.849 144.61 635.849 146.304V146.402C635.849 148.054 634.925 149.16 633.455 149.16ZM633.441 150.126C635.527 150.126 637.053 148.6 637.053 146.388V146.276C637.053 144.078 635.527 142.552 633.455 142.552C631.383 142.552 629.857 144.092 629.857 146.29V146.402C629.857 148.544 631.355 150.126 633.441 150.126ZM638.852 150H640.014V145.562C640.014 144.246 640.98 143.56 642.058 143.56C643.234 143.56 643.78 144.134 643.78 145.422V150H644.942V145.506C644.942 143.378 643.878 142.552 642.366 142.552C641.162 142.552 640.35 143.154 640.014 143.84V142.678H638.852V150ZM649.445 150.098C649.921 150.098 650.201 150.028 650.439 149.944V148.964C650.187 149.062 649.907 149.118 649.543 149.118C648.955 149.118 648.633 148.768 648.633 148.054V143.658H650.341V142.678H648.633V141.012H647.471V142.678H646.421V143.658H647.471V148.166C647.471 149.314 648.115 150.098 649.445 150.098ZM654.098 150.126C655.176 150.126 655.834 149.762 656.38 149.076V150H657.542V145.17C657.542 143.126 656.268 142.552 654.868 142.552C653.454 142.552 652.124 143.168 651.97 144.834H653.132C653.244 143.938 653.804 143.518 654.812 143.518C655.932 143.518 656.38 144.008 656.38 145.17V145.702H655.33C653.454 145.702 651.662 146.276 651.662 147.97C651.662 149.468 652.74 150.126 654.098 150.126ZM654.21 149.202C653.188 149.202 652.824 148.726 652.824 147.97C652.824 146.892 653.902 146.528 655.372 146.528H656.38V147.438C656.38 148.572 655.442 149.202 654.21 149.202ZM662.862 150.126C664.626 150.126 665.9 148.95 666.054 147.368H664.976C664.85 148.558 663.912 149.16 662.876 149.16C661.462 149.16 660.482 148.208 660.482 146.416V146.304C660.482 144.582 661.504 143.518 662.834 143.518C663.842 143.518 664.682 143.952 664.864 145.114H666.012C665.788 143.252 664.36 142.552 662.834 142.552C660.874 142.552 659.278 144.064 659.278 146.304V146.416C659.278 148.684 660.818 150.126 662.862 150.126ZM670.035 150.098C670.511 150.098 670.791 150.028 671.029 149.944V148.964C670.777 149.062 670.497 149.118 670.133 149.118C669.545 149.118 669.223 148.768 669.223 148.054V143.658H670.931V142.678H669.223V141.012H668.061V142.678H667.011V143.658H668.061V148.166C668.061 149.314 668.705 150.098 670.035 150.098ZM680.088 150.126C682.664 150.126 683.882 148.628 683.882 146.192V139.99H682.664V146.024C682.664 148.474 681.712 149.118 680.116 149.118C678.45 149.118 677.708 148.306 677.708 146.206V139.99H676.49V146.346C676.49 148.782 677.792 150.126 680.088 150.126ZM688.438 150.126C690.216 150.126 691.126 149.23 691.126 147.9C691.126 146.346 690.062 146.01 688.55 145.73C687.206 145.492 686.842 145.226 686.842 144.568C686.842 143.938 687.388 143.518 688.228 143.518C689.152 143.518 689.6 143.868 689.768 144.666H690.888C690.692 143.084 689.558 142.552 688.242 142.552C687.094 142.552 685.764 143.252 685.764 144.61C685.764 145.884 686.408 146.416 688.312 146.766C689.446 146.976 690.02 147.228 690.02 147.998C690.02 148.782 689.53 149.16 688.424 149.16C687.248 149.16 686.786 148.614 686.702 147.746H685.568C685.638 149.244 686.688 150.126 688.438 150.126Z" fill="#7F9799"/>
<path d="M846.26 150H852.056V149.006H847.478V139.99H846.26V150ZM856.527 150.126C858.179 150.126 859.397 149.356 859.649 147.886H858.487C858.333 148.74 857.675 149.16 856.541 149.16C855.043 149.16 854.245 148.236 854.189 146.57H859.705V146.192C859.705 143.574 858.109 142.552 856.415 142.552C854.399 142.552 852.985 144.092 852.985 146.304V146.416C852.985 148.67 854.455 150.126 856.527 150.126ZM854.231 145.632C854.427 144.33 855.225 143.518 856.415 143.518C857.619 143.518 858.403 144.12 858.515 145.632H854.231ZM864.415 152.674C866.459 152.674 867.901 151.638 867.915 149.51V142.678H866.753V143.854C866.333 143.14 865.577 142.552 864.359 142.552C862.343 142.552 860.943 144.204 860.943 146.192V146.29C860.943 148.306 862.357 149.762 864.275 149.762C865.339 149.762 866.333 149.09 866.753 148.376V149.44C866.753 151.008 865.843 151.694 864.401 151.694C863.155 151.694 862.455 151.26 862.287 150.42H861.097C861.293 151.652 862.245 152.674 864.415 152.674ZM864.401 148.796C863.169 148.796 862.147 147.844 862.147 146.248V146.136C862.147 144.596 863.015 143.518 864.471 143.518C865.899 143.518 866.795 144.47 866.795 146.108V146.206C866.795 147.844 865.759 148.796 864.401 148.796ZM872.1 150.126C873.178 150.126 873.836 149.762 874.382 149.076V150H875.544V145.17C875.544 143.126 874.27 142.552 872.87 142.552C871.456 142.552 870.126 143.168 869.972 144.834H871.134C871.246 143.938 871.806 143.518 872.814 143.518C873.934 143.518 874.382 144.008 874.382 145.17V145.702H873.332C871.456 145.702 869.664 146.276 869.664 147.97C869.664 149.468 870.742 150.126 872.1 150.126ZM872.212 149.202C871.19 149.202 870.826 148.726 870.826 147.97C870.826 146.892 871.904 146.528 873.374 146.528H874.382V147.438C874.382 148.572 873.444 149.202 872.212 149.202ZM877.854 150H879.03V139.178H877.854V150ZM892.954 144.834H891.876L890.658 147.144L888.558 144.582C889.832 144.036 890.7 143.21 890.7 141.992C890.7 140.788 889.748 139.934 888.516 139.934C887.256 139.934 886.066 140.718 886.066 142.23C886.066 142.902 886.36 143.588 886.948 144.344C885.66 144.974 884.652 145.772 884.652 147.354C884.652 149.006 885.982 150.098 887.816 150.098C889.076 150.098 889.958 149.524 890.588 148.796L891.582 150H892.996L891.316 147.956L892.954 144.834ZM887.858 149.146C886.598 149.146 885.828 148.446 885.828 147.242C885.828 146.066 886.514 145.492 887.494 145.016L889.986 148.054C889.384 148.782 888.656 149.146 887.858 149.146ZM887.186 142.244C887.186 141.264 887.774 140.844 888.474 140.844C889.146 140.844 889.608 141.32 889.608 141.964C889.608 142.93 889.174 143.434 888.053 143.938C887.508 143.252 887.186 142.748 887.186 142.244ZM898.5 150H899.718V145.926H901.342C903.246 145.926 904.842 145.1 904.842 142.972V142.916C904.842 140.83 903.26 139.99 901.342 139.99H898.5V150ZM899.718 144.96V140.97H901.426C902.784 140.97 903.624 141.502 903.624 142.916V142.972C903.624 144.26 902.854 144.96 901.426 144.96H899.718ZM906.551 150H907.713V145.982C907.713 144.176 908.651 143.714 910.121 143.644V142.552C908.805 142.594 908.175 143.168 907.713 143.994V142.678H906.551V150ZM911.843 150H913.005V142.678H911.843V150ZM912.403 141.152C912.823 141.152 913.173 140.802 913.173 140.382C913.173 139.962 912.823 139.612 912.403 139.612C911.983 139.612 911.633 139.962 911.633 140.382C911.633 140.802 911.983 141.152 912.403 141.152ZM917.217 150H918.701L921.333 142.678H920.129L917.987 148.824L915.817 142.678H914.557L917.217 150ZM924.627 150.126C925.705 150.126 926.363 149.762 926.909 149.076V150H928.071V145.17C928.071 143.126 926.797 142.552 925.397 142.552C923.983 142.552 922.653 143.168 922.499 144.834H923.661C923.773 143.938 924.333 143.518 925.341 143.518C926.461 143.518 926.909 144.008 926.909 145.17V145.702H925.859C923.983 145.702 922.191 146.276 922.191 147.97C922.191 149.468 923.269 150.126 924.627 150.126ZM924.739 149.202C923.717 149.202 923.353 148.726 923.353 147.97C923.353 146.892 924.431 146.528 925.901 146.528H926.909V147.438C926.909 148.572 925.971 149.202 924.739 149.202ZM933.392 150.126C935.156 150.126 936.43 148.95 936.584 147.368H935.506C935.38 148.558 934.442 149.16 933.406 149.16C931.992 149.16 931.012 148.208 931.012 146.416V146.304C931.012 144.582 932.034 143.518 933.364 143.518C934.372 143.518 935.212 143.952 935.394 145.114H936.542C936.318 143.252 934.89 142.552 933.364 142.552C931.404 142.552 929.808 144.064 929.808 146.304V146.416C929.808 148.684 931.348 150.126 933.392 150.126ZM938.928 152.548H940.104L944.15 142.678H942.96L940.93 147.928L938.69 142.678H937.444L940.314 149.244L938.928 152.548ZM949.539 150H950.757V139.99H949.539V150ZM953.268 150H954.43V145.562C954.43 144.246 955.396 143.56 956.474 143.56C957.65 143.56 958.196 144.134 958.196 145.422V150H959.358V145.506C959.358 143.378 958.294 142.552 956.782 142.552C955.578 142.552 954.766 143.154 954.43 143.84V142.678H953.268V150ZM961.887 150H963.049V143.658H964.841V142.678H963.049V141.362C963.049 140.62 963.357 140.102 964.113 140.102C964.435 140.102 964.729 140.172 964.939 140.256V139.276C964.645 139.178 964.449 139.136 964.071 139.136C962.615 139.136 961.887 140.004 961.887 141.488V142.678H960.837V143.658H961.887V150ZM969.171 149.16C967.687 149.16 966.777 148.068 966.777 146.402V146.29C966.777 144.61 967.701 143.518 969.171 143.518C970.627 143.518 971.565 144.61 971.565 146.304V146.402C971.565 148.054 970.641 149.16 969.171 149.16ZM969.157 150.126C971.243 150.126 972.769 148.6 972.769 146.388V146.276C972.769 144.078 971.243 142.552 969.171 142.552C967.099 142.552 965.573 144.092 965.573 146.29V146.402C965.573 148.544 967.071 150.126 969.157 150.126ZM974.569 150H975.731V145.982C975.731 144.176 976.669 143.714 978.139 143.644V142.552C976.823 142.594 976.193 143.168 975.731 143.994V142.678H974.569V150ZM979.832 150H980.994V145.52C980.994 144.204 981.974 143.56 982.926 143.56C983.934 143.56 984.48 144.092 984.48 145.38V150H985.642V145.52C985.642 144.204 986.622 143.56 987.574 143.56C988.582 143.56 989.128 144.092 989.128 145.38V150H990.29V145.464C990.29 143.336 989.142 142.552 987.826 142.552C986.916 142.552 985.824 142.972 985.32 143.924C984.942 142.944 984.116 142.552 983.178 142.552C982.128 142.552 981.33 143.112 980.994 143.798V142.678H979.832V150ZM994.408 150.126C995.486 150.126 996.144 149.762 996.69 149.076V150H997.852V145.17C997.852 143.126 996.578 142.552 995.178 142.552C993.764 142.552 992.434 143.168 992.28 144.834H993.442C993.554 143.938 994.114 143.518 995.122 143.518C996.242 143.518 996.69 144.008 996.69 145.17V145.702H995.64C993.764 145.702 991.972 146.276 991.972 147.97C991.972 149.468 993.05 150.126 994.408 150.126ZM994.52 149.202C993.498 149.202 993.134 148.726 993.134 147.97C993.134 146.892 994.212 146.528 995.682 146.528H996.69V147.438C996.69 148.572 995.752 149.202 994.52 149.202ZM1002.36 150.098C1002.84 150.098 1003.12 150.028 1003.35 149.944V148.964C1003.1 149.062 1002.82 149.118 1002.46 149.118C1001.87 149.118 1001.55 148.768 1001.55 148.054V143.658H1003.26V142.678H1001.55V141.012H1000.39V142.678H999.337V143.658H1000.39V148.166C1000.39 149.314 1001.03 150.098 1002.36 150.098ZM1005.14 150H1006.3V142.678H1005.14V150ZM1005.7 141.152C1006.12 141.152 1006.47 140.802 1006.47 140.382C1006.47 139.962 1006.12 139.612 1005.7 139.612C1005.28 139.612 1004.93 139.962 1004.93 140.382C1004.93 140.802 1005.28 141.152 1005.7 141.152ZM1011.73 149.16C1010.25 149.16 1009.34 148.068 1009.34 146.402V146.29C1009.34 144.61 1010.26 143.518 1011.73 143.518C1013.19 143.518 1014.13 144.61 1014.13 146.304V146.402C1014.13 148.054 1013.2 149.16 1011.73 149.16ZM1011.72 150.126C1013.8 150.126 1015.33 148.6 1015.33 146.388V146.276C1015.33 144.078 1013.8 142.552 1011.73 142.552C1009.66 142.552 1008.13 144.092 1008.13 146.29V146.402C1008.13 148.544 1009.63 150.126 1011.72 150.126ZM1017.13 150H1018.29V145.562C1018.29 144.246 1019.26 143.56 1020.34 143.56C1021.51 143.56 1022.06 144.134 1022.06 145.422V150H1023.22V145.506C1023.22 143.378 1022.16 142.552 1020.64 142.552C1019.44 142.552 1018.63 143.154 1018.29 143.84V142.678H1017.13V150Z" fill="#7F9799"/>
<path d="M1193 94C1193 89.0312 1188.97 85 1184 85C1179.03 85 1175 89.0312 1175 94C1175 98.9688 1179.03 103 1184 103C1188.97 103 1193 98.9688 1193 94Z" stroke="black" stroke-width="1.5" stroke-miterlimit="10"/>
<path d="M1182.14 97.6775L1187.5 94.4366C1187.58 94.391 1187.64 94.327 1187.68 94.2507C1187.73 94.1743 1187.75 94.0882 1187.75 94.0007C1187.75 93.9131 1187.73 93.827 1187.68 93.7507C1187.64 93.6743 1187.58 93.6103 1187.5 93.5647L1182.14 90.3238C1182.06 90.2777 1181.98 90.2529 1181.89 90.252C1181.8 90.251 1181.71 90.2739 1181.63 90.3183C1181.55 90.3628 1181.49 90.4271 1181.44 90.5047C1181.4 90.5824 1181.37 90.6706 1181.38 90.7602V97.2411C1181.37 97.3308 1181.4 97.4189 1181.44 97.4966C1181.49 97.5742 1181.55 97.6386 1181.63 97.683C1181.71 97.7274 1181.8 97.7503 1181.89 97.7494C1181.98 97.7484 1182.06 97.7236 1182.14 97.6775Z" fill="black"/>
<path d="M1161.25 87.1328C1160.41 87.4995 1159.51 87.7412 1158.6 87.85C1159.56 87.2877 1160.28 86.3943 1160.63 85.3375C1159.72 85.8684 1158.73 86.2409 1157.7 86.4391C1157.26 85.9832 1156.74 85.6206 1156.16 85.3732C1155.58 85.1258 1154.96 84.9988 1154.33 85C1151.78 85 1149.71 87.0344 1149.71 89.5422C1149.71 89.891 1149.75 90.2388 1149.83 90.5781C1148 90.4924 1146.21 90.0258 1144.57 89.2081C1142.93 88.3904 1141.48 87.2398 1140.32 85.8297C1139.91 86.5207 1139.69 87.3091 1139.69 88.1125C1139.69 89.6875 1140.51 91.0797 1141.75 91.8953C1141.01 91.8779 1140.29 91.6833 1139.65 91.3281V91.3844C1139.65 93.5875 1141.24 95.4203 1143.35 95.8375C1142.96 95.9432 1142.55 95.9968 1142.14 95.9969C1141.85 95.9974 1141.56 95.9691 1141.27 95.9125C1141.86 97.7172 1143.56 99.0297 1145.59 99.0672C1143.94 100.333 1141.93 101.018 1139.85 101.013C1139.48 101.012 1139.12 100.99 1138.75 100.947C1140.86 102.294 1143.31 103.007 1145.82 103C1154.32 103 1158.96 96.0766 1158.96 90.0719C1158.96 89.875 1158.96 89.6781 1158.95 89.4859C1159.85 88.8447 1160.63 88.0479 1161.25 87.1328Z" fill="black"/>
<path d="M1120.37 85.2498C1121.53 85.2533 1122.65 85.7154 1123.46 86.5352C1124.28 87.3549 1124.75 88.4658 1124.75 89.6252V98.3748C1124.75 99.5342 1124.28 100.645 1123.46 101.465C1122.65 102.285 1121.53 102.747 1120.37 102.75H1111.63C1110.47 102.747 1109.35 102.285 1108.54 101.465C1107.72 100.645 1107.25 99.5342 1107.25 98.3748V89.6252C1107.25 88.4658 1107.72 87.3549 1108.54 86.5352C1109.35 85.7154 1110.47 85.2533 1111.63 85.2498H1120.37ZM1120.37 83.5H1111.63C1108.26 83.5 1105.5 86.2562 1105.5 89.6252V98.3748C1105.5 101.744 1108.26 104.5 1111.63 104.5H1120.37C1123.74 104.5 1126.5 101.744 1126.5 98.3748V89.6252C1126.5 86.2562 1123.74 83.5 1120.37 83.5Z" fill="black"/>
<path d="M1121.69 89.625C1121.43 89.625 1121.17 89.548 1120.96 89.4038C1120.74 89.2596 1120.57 89.0546 1120.47 88.8148C1120.38 88.5749 1120.35 88.311 1120.4 88.0564C1120.45 87.8018 1120.58 87.568 1120.76 87.3844C1120.94 87.2009 1121.18 87.0759 1121.43 87.0252C1121.69 86.9746 1121.95 87.0006 1122.19 87.0999C1122.43 87.1992 1122.63 87.3675 1122.78 87.5833C1122.92 87.7992 1123 88.0529 1123 88.3125C1123 88.485 1122.97 88.6558 1122.9 88.8152C1122.84 88.9746 1122.74 89.1195 1122.62 89.2414C1122.49 89.3634 1122.35 89.46 1122.19 89.5258C1122.03 89.5917 1121.86 89.6254 1121.69 89.625Z" fill="black"/>
<path d="M1116 90.4998C1116.69 90.4998 1117.37 90.7051 1117.94 91.0897C1118.52 91.4743 1118.97 92.021 1119.23 92.6605C1119.5 93.3001 1119.57 94.0039 1119.43 94.6828C1119.3 95.3618 1118.96 95.9855 1118.47 96.475C1117.99 96.9645 1117.36 97.2978 1116.68 97.4329C1116 97.568 1115.3 97.4986 1114.66 97.2337C1114.02 96.9688 1113.47 96.5202 1113.09 95.9446C1112.71 95.369 1112.5 94.6923 1112.5 94C1112.5 93.072 1112.87 92.1823 1113.53 91.5261C1114.18 90.8699 1115.07 90.5008 1116 90.4998ZM1116 88.75C1114.96 88.75 1113.95 89.0579 1113.08 89.6348C1112.22 90.2117 1111.55 91.0316 1111.15 91.9909C1110.75 92.9502 1110.65 94.0058 1110.85 95.0242C1111.05 96.0426 1111.55 96.9781 1112.29 97.7123C1113.02 98.4465 1113.96 98.9466 1114.98 99.1491C1115.99 99.3517 1117.05 99.2477 1118.01 98.8504C1118.97 98.453 1119.79 97.7801 1120.37 96.9167C1120.94 96.0534 1121.25 95.0384 1121.25 94C1121.25 92.6076 1120.7 91.2723 1119.71 90.2877C1118.73 89.3031 1117.39 88.75 1116 88.75Z" fill="black"/>
<path fill-rule="evenodd" clip-rule="evenodd" d="M1092.5 94.0625C1092.5 88.2641 1087.8 83.5625 1082 83.5625C1076.2 83.5625 1071.5 88.2641 1071.5 94.0625C1071.5 99.3031 1075.34 103.647 1080.36 104.435V97.0986H1077.69V94.0625H1080.36V91.7492C1080.36 89.1181 1081.93 87.6636 1084.33 87.6636C1085.47 87.6636 1086.68 87.8689 1086.68 87.8689V90.4531H1085.35C1084.05 90.4531 1083.64 91.2622 1083.64 92.0937V94.0625H1086.55L1086.09 97.0986H1083.64V104.436C1088.66 103.648 1092.5 99.3045 1092.5 94.0625Z" fill="black"/>
</svg>
