<svg width="20" height="20" viewBox="0 0 20 20" fill="none" xmlns="http://www.w3.org/2000/svg">
<path d="M15.7228 3.50181C16.1686 3.23583 16.6743 3.74151 16.4083 4.18737L14.6155 7.1927C14.1365 7.99553 14.5006 9.03612 15.3757 9.36519L18.6512 10.597C19.1371 10.7798 19.057 11.4904 18.5426 11.5604L15.0751 12.0325C14.1488 12.1586 13.5623 13.0921 13.8506 13.9814L14.9297 17.3103C15.0898 17.8042 14.4843 18.1846 14.1088 17.8261L11.5778 15.4095C10.9017 14.7639 9.80614 14.8873 9.29062 15.6672L7.3608 18.5864C7.07451 19.0195 6.39949 18.7833 6.44569 18.2662L6.75705 14.7806C6.84022 13.8495 6.06067 13.0699 5.12954 13.1531L1.64392 13.4645C1.12682 13.5107 0.890623 12.8356 1.32371 12.5494L4.243 10.6195C5.02285 10.104 5.14629 9.00849 4.50071 8.33236L2.08403 5.80133C1.72551 5.42584 2.10599 4.82031 2.59985 4.98041L5.92879 6.05959C6.81806 6.34787 7.75154 5.76133 7.87765 4.83504L8.34971 1.36753C8.41975 0.853113 9.1304 0.773041 9.31314 1.25898L10.545 4.5345C10.874 5.40951 11.9146 5.77363 12.7175 5.29469L15.7228 3.50181Z" stroke="#23E5DB"/>
</svg>
