<svg width="457" height="16" viewBox="0 0 457 16" fill="none" xmlns="http://www.w3.org/2000/svg">
<path d="M4.192 13H5.584V8.024L9.2 1.56H7.808L4.928 6.872L1.936 1.56H0.368L4.192 8.008V13ZM13.2695 12.04C11.5735 12.04 10.5335 10.792 10.5335 8.888V8.76C10.5335 6.84 11.5895 5.592 13.2695 5.592C14.9335 5.592 16.0055 6.84 16.0055 8.776V8.888C16.0055 10.776 14.9495 12.04 13.2695 12.04ZM13.2535 13.144C15.6375 13.144 17.3815 11.4 17.3815 8.872V8.744C17.3815 6.232 15.6375 4.488 13.2695 4.488C10.9015 4.488 9.1575 6.248 9.1575 8.76V8.888C9.1575 11.336 10.8695 13.144 13.2535 13.144ZM22.2698 13.144C23.6138 13.144 24.5418 12.456 24.9258 11.672V13H26.2538V4.632H24.9258V9.704C24.9258 11.208 23.8058 11.992 22.6218 11.992C21.3098 11.992 20.6858 11.336 20.6858 9.864V4.632H19.3578V9.928C19.3578 12.232 20.6058 13.144 22.2698 13.144ZM33.1721 13H34.5001V7.928C34.5001 6.424 35.6041 5.64 36.8361 5.64C38.1801 5.64 38.8041 6.296 38.8041 7.768V13H40.1321V7.864C40.1321 5.432 38.9161 4.488 37.1881 4.488C35.8121 4.488 34.8841 5.176 34.5001 5.96V0.631999H33.1721V13ZM44.8306 13.144C46.0626 13.144 46.8146 12.728 47.4386 11.944V13H48.7666V7.48C48.7666 5.144 47.3106 4.488 45.7106 4.488C44.0946 4.488 42.5746 5.192 42.3986 7.096H43.7266C43.8546 6.072 44.4946 5.592 45.6466 5.592C46.9266 5.592 47.4386 6.152 47.4386 7.48V8.088H46.2386C44.0946 8.088 42.0466 8.744 42.0466 10.68C42.0466 12.392 43.2786 13.144 44.8306 13.144ZM44.9586 12.088C43.7906 12.088 43.3746 11.544 43.3746 10.68C43.3746 9.448 44.6066 9.032 46.2866 9.032H47.4386V10.072C47.4386 11.368 46.3666 12.088 44.9586 12.088ZM53.2369 13H54.9329L57.9409 4.632H56.5649L54.1169 11.656L51.6369 4.632H50.1969L53.2369 13ZM62.8774 13.144C64.7654 13.144 66.1574 12.264 66.4454 10.584H65.1174C64.9414 11.56 64.1894 12.04 62.8934 12.04C61.1814 12.04 60.2694 10.984 60.2054 9.08H66.5094V8.648C66.5094 5.656 64.6854 4.488 62.7494 4.488C60.4454 4.488 58.8294 6.248 58.8294 8.776V8.904C58.8294 11.48 60.5094 13.144 62.8774 13.144ZM60.2534 8.008C60.4774 6.52 61.3894 5.592 62.7494 5.592C64.1254 5.592 65.0214 6.28 65.1494 8.008H60.2534ZM74.8775 13.144C76.1095 13.144 76.8615 12.728 77.4855 11.944V13H78.8135V7.48C78.8135 5.144 77.3575 4.488 75.7575 4.488C74.1415 4.488 72.6215 5.192 72.4455 7.096H73.7735C73.9015 6.072 74.5415 5.592 75.6935 5.592C76.9735 5.592 77.4855 6.152 77.4855 7.48V8.088H76.2855C74.1415 8.088 72.0935 8.744 72.0935 10.68C72.0935 12.392 73.3255 13.144 74.8775 13.144ZM75.0055 12.088C73.8375 12.088 73.4215 11.544 73.4215 10.68C73.4215 9.448 74.6535 9.032 76.3335 9.032H77.4855V10.072C77.4855 11.368 76.4135 12.088 75.0055 12.088ZM81.4541 13H82.7981V0.631999H81.4541V13ZM85.5159 13H86.8439V8.408C86.8439 6.344 87.9159 5.816 89.5959 5.736V4.488C88.0919 4.536 87.3719 5.192 86.8439 6.136V4.632H85.5159V13ZM94.7211 13.144C96.6091 13.144 98.0011 12.264 98.2891 10.584H96.9611C96.7851 11.56 96.0331 12.04 94.7371 12.04C93.0251 12.04 92.1131 10.984 92.0491 9.08H98.3531V8.648C98.3531 5.656 96.5291 4.488 94.5931 4.488C92.2891 4.488 90.6731 6.248 90.6731 8.776V8.904C90.6731 11.48 92.3531 13.144 94.7211 13.144ZM92.0971 8.008C92.3211 6.52 93.2331 5.592 94.5931 5.592C95.9691 5.592 96.8651 6.28 96.9931 8.008H92.0971ZM102.565 13.144C103.797 13.144 104.549 12.728 105.173 11.944V13H106.501V7.48C106.501 5.144 105.045 4.488 103.445 4.488C101.829 4.488 100.309 5.192 100.133 7.096H101.461C101.589 6.072 102.229 5.592 103.381 5.592C104.661 5.592 105.173 6.152 105.173 7.48V8.088H103.973C101.829 8.088 99.781 8.744 99.781 10.68C99.781 12.392 101.013 13.144 102.565 13.144ZM102.693 12.088C101.525 12.088 101.109 11.544 101.109 10.68C101.109 9.448 102.341 9.032 104.021 9.032H105.173V10.072C105.173 11.368 104.101 12.088 102.693 12.088ZM112.262 13.144C113.478 13.144 114.646 12.376 115.126 11.56V13H116.454V0.631999H115.126V5.976C114.646 5.16 113.782 4.488 112.39 4.488C110.086 4.488 108.486 6.296 108.486 8.856V8.984C108.486 11.592 110.07 13.144 112.262 13.144ZM112.406 12.04C110.998 12.04 109.862 11.032 109.862 8.92V8.792C109.862 6.76 110.854 5.592 112.518 5.592C114.15 5.592 115.174 6.6 115.174 8.744V8.872C115.174 11.016 113.958 12.04 112.406 12.04ZM119.893 15.912H121.237L125.861 4.632H124.501L122.181 10.632L119.621 4.632H118.197L121.477 12.136L119.893 15.912ZM131.844 15.912H133.172V11.624C133.652 12.456 134.628 13.144 136.004 13.144C138.308 13.144 139.812 11.384 139.812 8.824V8.696C139.812 6.088 138.196 4.488 136.004 4.488C134.788 4.488 133.652 5.224 133.172 6.04V4.632H131.844V15.912ZM135.876 12.04C134.244 12.04 133.124 11.032 133.124 8.888V8.76C133.124 6.616 134.308 5.592 135.86 5.592C137.268 5.592 138.436 6.648 138.436 8.76V8.888C138.436 10.92 137.54 12.04 135.876 12.04ZM145.363 12.04C143.667 12.04 142.627 10.792 142.627 8.888V8.76C142.627 6.84 143.683 5.592 145.363 5.592C147.027 5.592 148.099 6.84 148.099 8.776V8.888C148.099 10.776 147.043 12.04 145.363 12.04ZM145.347 13.144C147.731 13.144 149.475 11.4 149.475 8.872V8.744C149.475 6.232 147.731 4.488 145.363 4.488C142.995 4.488 141.251 6.248 141.251 8.76V8.888C141.251 11.336 142.963 13.144 145.347 13.144ZM154.124 13.144C156.156 13.144 157.196 12.12 157.196 10.6C157.196 8.824 155.98 8.44 154.252 8.12C152.716 7.848 152.299 7.544 152.299 6.792C152.299 6.072 152.924 5.592 153.884 5.592C154.94 5.592 155.452 5.992 155.644 6.904H156.924C156.7 5.096 155.404 4.488 153.9 4.488C152.588 4.488 151.068 5.288 151.068 6.84C151.068 8.296 151.804 8.904 153.98 9.304C155.276 9.544 155.932 9.832 155.932 10.712C155.932 11.608 155.372 12.04 154.108 12.04C152.764 12.04 152.236 11.416 152.14 10.424H150.844C150.924 12.136 152.124 13.144 154.124 13.144ZM161.763 13.112C162.307 13.112 162.627 13.032 162.899 12.936V11.816C162.611 11.928 162.291 11.992 161.875 11.992C161.203 11.992 160.835 11.592 160.835 10.776V5.752H162.787V4.632H160.835V2.728H159.507V4.632H158.307V5.752H159.507V10.904C159.507 12.216 160.243 13.112 161.763 13.112ZM168.331 13.144C170.219 13.144 171.611 12.264 171.899 10.584H170.571C170.395 11.56 169.643 12.04 168.347 12.04C166.635 12.04 165.723 10.984 165.659 9.08H171.963V8.648C171.963 5.656 170.139 4.488 168.203 4.488C165.899 4.488 164.283 6.248 164.283 8.776V8.904C164.283 11.48 165.963 13.144 168.331 13.144ZM165.707 8.008C165.931 6.52 166.843 5.592 168.203 5.592C169.579 5.592 170.475 6.28 170.603 8.008H165.707ZM177.152 13.144C178.368 13.144 179.536 12.376 180.016 11.56V13H181.344V0.631999H180.016V5.976C179.536 5.16 178.672 4.488 177.28 4.488C174.976 4.488 173.376 6.296 173.376 8.856V8.984C173.376 11.592 174.96 13.144 177.152 13.144ZM177.296 12.04C175.888 12.04 174.752 11.032 174.752 8.92V8.792C174.752 6.76 175.744 5.592 177.408 5.592C179.04 5.592 180.064 6.6 180.064 8.744V8.872C180.064 11.016 178.848 12.04 177.296 12.04ZM190.01 13H191.402V1.56H190.106L187.45 3.48V4.776L190.01 2.936V13ZM199.179 13H200.507V5.752H202.555V4.632H200.507V3.128C200.507 2.28 200.859 1.688 201.723 1.688C202.091 1.688 202.427 1.768 202.667 1.864V0.743999C202.331 0.631999 202.107 0.584 201.675 0.584C200.011 0.584 199.179 1.576 199.179 3.272V4.632H197.979V5.752H199.179V13ZM204.422 13H205.75V8.408C205.75 6.344 206.822 5.816 208.502 5.736V4.488C206.998 4.536 206.278 5.192 205.75 6.136V4.632H204.422V13ZM213.627 13.144C215.515 13.144 216.907 12.264 217.195 10.584H215.867C215.691 11.56 214.939 12.04 213.643 12.04C211.931 12.04 211.019 10.984 210.955 9.08H217.259V8.648C217.259 5.656 215.435 4.488 213.499 4.488C211.195 4.488 209.579 6.248 209.579 8.776V8.904C209.579 11.48 211.259 13.144 213.627 13.144ZM211.003 8.008C211.227 6.52 212.139 5.592 213.499 5.592C214.875 5.592 215.771 6.28 215.899 8.008H211.003ZM222.721 13.144C224.609 13.144 226.001 12.264 226.289 10.584H224.961C224.785 11.56 224.033 12.04 222.737 12.04C221.025 12.04 220.113 10.984 220.049 9.08H226.353V8.648C226.353 5.656 224.529 4.488 222.593 4.488C220.289 4.488 218.673 6.248 218.673 8.776V8.904C218.673 11.48 220.353 13.144 222.721 13.144ZM220.097 8.008C220.321 6.52 221.233 5.592 222.593 5.592C223.969 5.592 224.865 6.28 224.993 8.008H220.097ZM234.721 13.144C235.953 13.144 236.705 12.728 237.329 11.944V13H238.657V7.48C238.657 5.144 237.201 4.488 235.601 4.488C233.985 4.488 232.465 5.192 232.289 7.096H233.617C233.745 6.072 234.385 5.592 235.537 5.592C236.817 5.592 237.329 6.152 237.329 7.48V8.088H236.129C233.985 8.088 231.937 8.744 231.937 10.68C231.937 12.392 233.169 13.144 234.721 13.144ZM234.849 12.088C233.681 12.088 233.265 11.544 233.265 10.68C233.265 9.448 234.497 9.032 236.177 9.032H237.329V10.072C237.329 11.368 236.257 12.088 234.849 12.088ZM244.418 13.144C245.634 13.144 246.802 12.376 247.282 11.56V13H248.61V0.631999H247.282V5.976C246.802 5.16 245.938 4.488 244.546 4.488C242.242 4.488 240.642 6.296 240.642 8.856V8.984C240.642 11.592 242.226 13.144 244.418 13.144ZM244.562 12.04C243.154 12.04 242.018 11.032 242.018 8.92V8.792C242.018 6.76 243.01 5.592 244.674 5.592C246.306 5.592 247.33 6.6 247.33 8.744V8.872C247.33 11.016 246.114 12.04 244.562 12.04ZM255.564 13H256.892V4.632H255.564V13ZM256.204 2.888C256.684 2.888 257.084 2.488 257.084 2.008C257.084 1.528 256.684 1.128 256.204 1.128C255.724 1.128 255.324 1.528 255.324 2.008C255.324 2.488 255.724 2.888 256.204 2.888ZM259.61 13H260.938V7.928C260.938 6.424 262.042 5.64 263.274 5.64C264.618 5.64 265.242 6.296 265.242 7.768V13H266.57V7.864C266.57 5.432 265.354 4.488 263.626 4.488C262.25 4.488 261.322 5.176 260.938 5.96V4.632H259.61V13ZM273.439 13H274.783V0.631999H273.439V13ZM279.596 13.144C280.828 13.144 281.58 12.728 282.204 11.944V13H283.532V7.48C283.532 5.144 282.076 4.488 280.476 4.488C278.86 4.488 277.34 5.192 277.164 7.096H278.492C278.62 6.072 279.26 5.592 280.412 5.592C281.692 5.592 282.204 6.152 282.204 7.48V8.088H281.004C278.86 8.088 276.812 8.744 276.812 10.68C276.812 12.392 278.044 13.144 279.596 13.144ZM279.724 12.088C278.556 12.088 278.14 11.544 278.14 10.68C278.14 9.448 279.372 9.032 281.052 9.032H282.204V10.072C282.204 11.368 281.132 12.088 279.724 12.088ZM288.733 13.144C290.765 13.144 291.805 12.12 291.805 10.6C291.805 8.824 290.589 8.44 288.861 8.12C287.325 7.848 286.909 7.544 286.909 6.792C286.909 6.072 287.533 5.592 288.493 5.592C289.549 5.592 290.061 5.992 290.253 6.904H291.533C291.309 5.096 290.013 4.488 288.509 4.488C287.197 4.488 285.677 5.288 285.677 6.84C285.677 8.296 286.413 8.904 288.589 9.304C289.885 9.544 290.541 9.832 290.541 10.712C290.541 11.608 289.981 12.04 288.717 12.04C287.373 12.04 286.845 11.416 286.749 10.424H285.453C285.533 12.136 286.733 13.144 288.733 13.144ZM296.372 13.112C296.916 13.112 297.236 13.032 297.508 12.936V11.816C297.22 11.928 296.9 11.992 296.484 11.992C295.812 11.992 295.444 11.592 295.444 10.776V5.752H297.396V4.632H295.444V2.728H294.116V4.632H292.916V5.752H294.116V10.904C294.116 12.216 294.852 13.112 296.372 13.112ZM307.046 13.144C309.414 13.144 311.11 11.896 311.11 9.816C311.11 8.232 310.246 7.288 308.902 6.936C309.942 6.504 310.71 5.736 310.71 4.44C310.71 2.856 309.446 1.416 307.27 1.416C305.094 1.416 303.606 2.904 303.526 4.712H304.742C304.886 3.416 305.846 2.552 307.27 2.552C308.662 2.552 309.35 3.384 309.35 4.472C309.35 5.72 308.694 6.424 307.206 6.424H306.406V7.592H307.27C308.886 7.592 309.686 8.344 309.686 9.816C309.686 11.16 308.87 12.024 307.078 12.024C305.27 12.024 304.454 10.984 304.326 9.624H303.046C303.126 11.624 304.614 13.144 307.046 13.144ZM317.567 11.992C315.663 11.992 314.447 10.488 314.447 7.592V6.952C314.447 4.136 315.599 2.536 317.535 2.536C319.471 2.536 320.591 4.264 320.591 6.92V7.56C320.591 10.456 319.567 11.992 317.567 11.992ZM317.567 13.144C320.383 13.144 321.999 10.904 321.999 7.576V6.936C321.999 3.672 320.351 1.416 317.535 1.416C314.735 1.416 313.023 3.592 313.023 6.968V7.608C313.023 10.936 314.831 13.144 317.567 13.144ZM331.684 13.144C332.9 13.144 334.068 12.376 334.548 11.56V13H335.876V0.631999H334.548V5.976C334.068 5.16 333.204 4.488 331.812 4.488C329.508 4.488 327.908 6.296 327.908 8.856V8.984C327.908 11.592 329.492 13.144 331.684 13.144ZM331.828 12.04C330.42 12.04 329.284 11.032 329.284 8.92V8.792C329.284 6.76 330.276 5.592 331.94 5.592C333.572 5.592 334.596 6.6 334.596 8.744V8.872C334.596 11.016 333.38 12.04 331.828 12.04ZM340.659 13.144C341.891 13.144 342.643 12.728 343.267 11.944V13H344.595V7.48C344.595 5.144 343.139 4.488 341.539 4.488C339.923 4.488 338.403 5.192 338.227 7.096H339.555C339.683 6.072 340.323 5.592 341.475 5.592C342.755 5.592 343.267 6.152 343.267 7.48V8.088H342.067C339.923 8.088 337.875 8.744 337.875 10.68C337.875 12.392 339.107 13.144 340.659 13.144ZM340.787 12.088C339.619 12.088 339.203 11.544 339.203 10.68C339.203 9.448 340.435 9.032 342.115 9.032H343.267V10.072C343.267 11.368 342.195 12.088 340.787 12.088ZM347.721 15.912H349.065L353.689 4.632H352.329L350.009 10.632L347.449 4.632H346.025L349.305 12.136L347.721 15.912ZM358.03 13.144C360.062 13.144 361.102 12.12 361.102 10.6C361.102 8.824 359.886 8.44 358.158 8.12C356.622 7.848 356.206 7.544 356.206 6.792C356.206 6.072 356.83 5.592 357.79 5.592C358.846 5.592 359.358 5.992 359.55 6.904H360.83C360.606 5.096 359.31 4.488 357.806 4.488C356.494 4.488 354.974 5.288 354.974 6.84C354.974 8.296 355.71 8.904 357.886 9.304C359.182 9.544 359.838 9.832 359.838 10.712C359.838 11.608 359.278 12.04 358.014 12.04C356.67 12.04 356.142 11.416 356.046 10.424H354.75C354.83 12.136 356.03 13.144 358.03 13.144ZM367.648 13H368.976V5.752H371.024V4.632H368.976V3.128C368.976 2.28 369.328 1.688 370.192 1.688C370.56 1.688 370.896 1.768 371.136 1.864V0.743999C370.8 0.631999 370.576 0.584 370.144 0.584C368.48 0.584 367.648 1.576 367.648 3.272V4.632H366.448V5.752H367.648V13ZM375.973 12.04C374.277 12.04 373.237 10.792 373.237 8.888V8.76C373.237 6.84 374.293 5.592 375.973 5.592C377.637 5.592 378.709 6.84 378.709 8.776V8.888C378.709 10.776 377.653 12.04 375.973 12.04ZM375.957 13.144C378.341 13.144 380.085 11.4 380.085 8.872V8.744C380.085 6.232 378.341 4.488 375.973 4.488C373.605 4.488 371.861 6.248 371.861 8.76V8.888C371.861 11.336 373.573 13.144 375.957 13.144ZM382.141 13H383.469V8.408C383.469 6.344 384.541 5.816 386.221 5.736V4.488C384.717 4.536 383.997 5.192 383.469 6.136V4.632H382.141V13ZM397.271 13.144C399.831 13.144 401.655 11.848 402.055 9.208H400.759C400.471 11.064 399.175 12.008 397.303 12.008C394.839 12.008 393.367 10.248 393.367 7.336V7.208C393.367 4.328 394.951 2.488 397.319 2.488C399.271 2.488 400.279 3.384 400.567 5.128H401.943C401.703 2.648 399.687 1.384 397.303 1.384C394.199 1.384 391.927 3.832 391.927 7.224V7.352C391.927 10.872 393.959 13.144 397.271 13.144ZM406.331 13.144C407.563 13.144 408.315 12.728 408.939 11.944V13H410.267V7.48C410.267 5.144 408.811 4.488 407.211 4.488C405.595 4.488 404.075 5.192 403.899 7.096H405.227C405.355 6.072 405.995 5.592 407.147 5.592C408.427 5.592 408.939 6.152 408.939 7.48V8.088H407.739C405.595 8.088 403.547 8.744 403.547 10.68C403.547 12.392 404.779 13.144 406.331 13.144ZM406.459 12.088C405.291 12.088 404.875 11.544 404.875 10.68C404.875 9.448 406.107 9.032 407.787 9.032H408.939V10.072C408.939 11.368 407.867 12.088 406.459 12.088ZM412.875 13H414.203V7.88C414.203 6.376 415.323 5.64 416.411 5.64C417.563 5.64 418.187 6.248 418.187 7.72V13H419.515V7.88C419.515 6.376 420.635 5.64 421.723 5.64C422.875 5.64 423.499 6.248 423.499 7.72V13H424.827V7.816C424.827 5.384 423.515 4.488 422.011 4.488C420.971 4.488 419.723 4.968 419.147 6.056C418.715 4.936 417.771 4.488 416.699 4.488C415.499 4.488 414.587 5.128 414.203 5.912V4.632H412.875V13ZM430.862 13.144C432.75 13.144 434.142 12.264 434.43 10.584H433.102C432.926 11.56 432.174 12.04 430.878 12.04C429.166 12.04 428.254 10.984 428.19 9.08H434.494V8.648C434.494 5.656 432.67 4.488 430.734 4.488C428.43 4.488 426.814 6.248 426.814 8.776V8.904C426.814 11.48 428.494 13.144 430.862 13.144ZM428.238 8.008C428.462 6.52 429.374 5.592 430.734 5.592C432.11 5.592 433.006 6.28 433.134 8.008H428.238ZM436.532 13H437.86V8.408C437.86 6.344 438.932 5.816 440.612 5.736V4.488C439.108 4.536 438.388 5.192 437.86 6.136V4.632H436.532V13ZM444.565 13.144C445.797 13.144 446.549 12.728 447.173 11.944V13H448.501V7.48C448.501 5.144 447.045 4.488 445.445 4.488C443.829 4.488 442.309 5.192 442.133 7.096H443.461C443.589 6.072 444.229 5.592 445.381 5.592C446.661 5.592 447.173 6.152 447.173 7.48V8.088H445.973C443.829 8.088 441.781 8.744 441.781 10.68C441.781 12.392 443.013 13.144 444.565 13.144ZM444.693 12.088C443.525 12.088 443.109 11.544 443.109 10.68C443.109 9.448 444.341 9.032 446.021 9.032H447.173V10.072C447.173 11.368 446.101 12.088 444.693 12.088ZM453.702 13.144C455.734 13.144 456.774 12.12 456.774 10.6C456.774 8.824 455.558 8.44 453.83 8.12C452.294 7.848 451.878 7.544 451.878 6.792C451.878 6.072 452.502 5.592 453.462 5.592C454.518 5.592 455.03 5.992 455.222 6.904H456.502C456.278 5.096 454.982 4.488 453.478 4.488C452.166 4.488 450.646 5.288 450.646 6.84C450.646 8.296 451.382 8.904 453.558 9.304C454.854 9.544 455.51 9.832 455.51 10.712C455.51 11.608 454.95 12.04 453.686 12.04C452.342 12.04 451.814 11.416 451.718 10.424H450.422C450.502 12.136 451.702 13.144 453.702 13.144Z" fill="#002F34"/>
</svg>
