<svg width="272" height="16" viewBox="0 0 272 16" fill="none" xmlns="http://www.w3.org/2000/svg">
<path d="M3.264 13H5.296L7.616 4.664L9.872 13H12L14.864 1.56H12.88L10.832 10.008L8.56 1.56H6.8L4.576 9.96L2.592 1.56H0.416L3.264 13ZM18.0628 13.16C19.3428 13.16 20.0788 12.696 20.6228 11.976V13H22.5268V7.512C22.5268 5.224 21.0548 4.456 19.1828 4.456C17.3108 4.456 15.7588 5.272 15.5988 7.224H17.4708C17.5668 6.392 18.0628 5.912 19.0708 5.912C20.2068 5.912 20.5908 6.472 20.5908 7.592V8.024H19.5508C17.1508 8.024 15.2628 8.728 15.2628 10.68C15.2628 12.424 16.5268 13.16 18.0628 13.16ZM18.5268 11.768C17.5668 11.768 17.1828 11.304 17.1828 10.6C17.1828 9.576 18.1268 9.24 19.5988 9.24H20.5908V10.072C20.5908 11.144 19.7108 11.768 18.5268 11.768ZM24.7938 13H26.7298V4.632H24.7938V13ZM25.7378 3.256C26.3778 3.256 26.8898 2.776 26.8898 2.152C26.8898 1.512 26.3778 1.032 25.7378 1.032C25.0978 1.032 24.5858 1.512 24.5858 2.152C24.5858 2.776 25.0978 3.256 25.7378 3.256ZM31.9375 13.144C32.5295 13.144 32.9455 13.048 33.2495 12.936V11.4C32.9775 11.512 32.6895 11.56 32.3055 11.56C31.6975 11.56 31.3455 11.224 31.3455 10.488V6.088H33.1855V4.632H31.3455V2.792H29.4095V4.632H28.2895V6.088H29.4095V10.664C29.4095 12.248 30.2735 13.144 31.9375 13.144ZM39.1443 13H41.0803V6.088H42.9843V4.632H41.0803V3.432C41.0803 2.712 41.4003 2.2 42.1843 2.2C42.5363 2.2 42.8403 2.264 43.0643 2.344V0.839999C42.7123 0.728 42.4243 0.679999 41.9603 0.679999C40.1683 0.679999 39.1443 1.672 39.1443 3.512V4.632H38.0083V6.088H39.1443V13ZM48.0366 11.656C46.5646 11.656 45.7166 10.584 45.7166 8.872V8.744C45.7166 7.016 46.5966 5.976 48.0366 5.976C49.4766 5.976 50.3406 7.032 50.3406 8.76V8.872C50.3406 10.584 49.4766 11.656 48.0366 11.656ZM48.0206 13.16C50.4846 13.16 52.3246 11.464 52.3246 8.856V8.728C52.3246 6.168 50.4846 4.456 48.0366 4.456C45.5726 4.456 43.7326 6.184 43.7326 8.776V8.904C43.7326 11.448 45.5566 13.16 48.0206 13.16ZM54.0739 13H56.0099V8.648C56.0099 6.872 57.0339 6.328 58.7299 6.312V4.504C57.3219 4.52 56.5379 5.144 56.0099 6.2V4.632H54.0739V13ZM64.2458 13H66.1818V8.072C66.1818 6.744 67.0618 6.072 68.1498 6.072C69.3018 6.072 69.8138 6.648 69.8138 7.912V13H71.7498V7.736C71.7498 5.432 70.5658 4.456 68.8858 4.456C67.5098 4.456 66.5818 5.144 66.1818 5.96V4.632H64.2458V13ZM77.6601 13.16C79.8041 13.16 81.2281 12.2 81.5001 10.44H79.6281C79.4841 11.256 78.8761 11.72 77.7081 11.72C76.2681 11.72 75.4681 10.824 75.4041 9.24H81.5321V8.68C81.5321 5.688 79.6601 4.456 77.5801 4.456C75.1961 4.456 73.4201 6.184 73.4201 8.776V8.904C73.4201 11.544 75.1961 13.16 77.6601 13.16ZM75.4361 7.944C75.6281 6.648 76.4121 5.864 77.5801 5.864C78.7801 5.864 79.5161 6.504 79.6121 7.944H75.4361ZM82.1329 13H84.1489L86.1489 9.976L88.1009 13H90.3569L87.3649 8.568L90.0689 4.632H88.0369L86.3089 7.336L84.5649 4.632H82.3249L85.0449 8.712L82.1329 13ZM94.6094 13.144C95.2014 13.144 95.6174 13.048 95.9214 12.936V11.4C95.6494 11.512 95.3614 11.56 94.9774 11.56C94.3694 11.56 94.0174 11.224 94.0174 10.488V6.088H95.8574V4.632H94.0174V2.792H92.0814V4.632H90.9614V6.088H92.0814V10.664C92.0814 12.248 92.9454 13.144 94.6094 13.144ZM100.568 13H108.84V11.352H103.976L106.52 8.872C107.88 7.56 108.76 6.264 108.76 4.776C108.76 2.76 107.352 1.4 104.984 1.4C102.568 1.4 101.064 2.84 100.92 5.336H102.872C103.064 3.72 103.784 3.064 104.92 3.064C106.024 3.064 106.632 3.736 106.632 4.808C106.632 5.896 105.976 6.904 104.888 8.056L100.568 12.616V13ZM114.41 13.144C117.354 13.144 119.018 11.048 119.018 7.288V6.696C119.018 3.4 117.546 1.384 114.554 1.384C111.946 1.384 110.314 2.968 110.314 5.304C110.314 7.56 111.898 9.016 114.106 9.016C115.466 9.016 116.394 8.44 116.922 7.576C116.89 10.184 116.01 11.496 114.378 11.496C113.146 11.496 112.618 10.92 112.41 10.024H110.41C110.682 11.992 112.074 13.144 114.41 13.144ZM114.554 7.528C113.242 7.528 112.41 6.616 112.41 5.24C112.41 3.88 113.258 2.968 114.538 2.968C115.85 2.968 116.762 3.864 116.762 5.4C116.762 6.664 115.85 7.528 114.554 7.528ZM127.944 13.16C129.176 13.16 130.248 12.424 130.696 11.592V13H132.632V0.759999H130.696V5.912C130.232 5.08 129.384 4.456 128.024 4.456C125.848 4.456 124.264 6.152 124.264 8.824V8.952C124.264 11.672 125.848 13.16 127.944 13.16ZM128.424 11.624C127.176 11.624 126.248 10.744 126.248 8.904V8.776C126.248 6.968 127.08 5.976 128.504 5.976C129.912 5.976 130.76 6.888 130.76 8.728V8.856C130.76 10.728 129.768 11.624 128.424 11.624ZM137.125 13.16C138.405 13.16 139.141 12.696 139.685 11.976V13H141.589V7.512C141.589 5.224 140.117 4.456 138.245 4.456C136.373 4.456 134.821 5.272 134.661 7.224H136.533C136.629 6.392 137.125 5.912 138.133 5.912C139.269 5.912 139.653 6.472 139.653 7.592V8.024H138.613C136.213 8.024 134.325 8.728 134.325 10.68C134.325 12.424 135.589 13.16 137.125 13.16ZM137.589 11.768C136.629 11.768 136.245 11.304 136.245 10.6C136.245 9.576 137.189 9.24 138.661 9.24H139.653V10.072C139.653 11.144 138.773 11.768 137.589 11.768ZM144.502 15.864H146.406L150.966 4.632H149.078L147.03 10.024L144.806 4.632H142.71L146.022 12.152L144.502 15.864ZM155.282 13.16C157.426 13.16 158.626 12.184 158.626 10.488C158.626 8.712 157.458 8.232 155.49 7.928C154.162 7.704 153.762 7.464 153.762 6.856C153.762 6.264 154.258 5.864 155.09 5.864C155.986 5.864 156.418 6.216 156.578 6.984H158.37C158.162 5.096 156.802 4.456 155.09 4.456C153.522 4.456 151.954 5.288 151.954 6.968C151.954 8.536 152.77 9.16 154.978 9.512C156.21 9.72 156.77 9.976 156.77 10.664C156.77 11.368 156.306 11.736 155.266 11.736C154.13 11.736 153.698 11.24 153.602 10.392H151.778C151.858 12.168 153.122 13.16 155.282 13.16ZM166.984 13.144C167.576 13.144 167.992 13.048 168.296 12.936V11.4C168.024 11.512 167.736 11.56 167.352 11.56C166.744 11.56 166.392 11.224 166.392 10.488V6.088H168.232V4.632H166.392V2.792H164.456V4.632H163.336V6.088H164.456V10.664C164.456 12.248 165.32 13.144 166.984 13.144ZM173.787 11.656C172.315 11.656 171.467 10.584 171.467 8.872V8.744C171.467 7.016 172.347 5.976 173.787 5.976C175.227 5.976 176.091 7.032 176.091 8.76V8.872C176.091 10.584 175.227 11.656 173.787 11.656ZM173.771 13.16C176.235 13.16 178.075 11.464 178.075 8.856V8.728C178.075 6.168 176.235 4.456 173.787 4.456C171.323 4.456 169.483 6.184 169.483 8.776V8.904C169.483 11.448 171.307 13.16 173.771 13.16ZM183.636 15.864H185.572V11.688C186.02 12.504 186.98 13.16 188.308 13.16C190.468 13.16 192.02 11.528 192.02 8.84V8.712C192.02 6.008 190.404 4.456 188.308 4.456C187.076 4.456 186.036 5.176 185.572 5.976V4.632H183.636V15.864ZM187.828 11.624C186.42 11.624 185.508 10.744 185.508 8.872V8.744C185.508 6.888 186.468 5.976 187.812 5.976C189.076 5.976 190.036 6.888 190.036 8.744V8.872C190.036 10.664 189.252 11.624 187.828 11.624ZM197.505 11.656C196.033 11.656 195.185 10.584 195.185 8.872V8.744C195.185 7.016 196.065 5.976 197.505 5.976C198.945 5.976 199.809 7.032 199.809 8.76V8.872C199.809 10.584 198.945 11.656 197.505 11.656ZM197.489 13.16C199.953 13.16 201.793 11.464 201.793 8.856V8.728C201.793 6.168 199.953 4.456 197.505 4.456C195.041 4.456 193.201 6.184 193.201 8.776V8.904C193.201 11.448 195.025 13.16 197.489 13.16ZM206.407 13.16C208.551 13.16 209.751 12.184 209.751 10.488C209.751 8.712 208.583 8.232 206.615 7.928C205.287 7.704 204.887 7.464 204.887 6.856C204.887 6.264 205.383 5.864 206.215 5.864C207.111 5.864 207.543 6.216 207.703 6.984H209.495C209.287 5.096 207.927 4.456 206.215 4.456C204.647 4.456 203.079 5.288 203.079 6.968C203.079 8.536 203.895 9.16 206.103 9.512C207.335 9.72 207.895 9.976 207.895 10.664C207.895 11.368 207.431 11.736 206.391 11.736C205.255 11.736 204.823 11.24 204.727 10.392H202.903C202.983 12.168 204.247 13.16 206.407 13.16ZM214.297 13.144C214.889 13.144 215.305 13.048 215.609 12.936V11.4C215.337 11.512 215.049 11.56 214.665 11.56C214.057 11.56 213.705 11.224 213.705 10.488V6.088H215.545V4.632H213.705V2.792H211.769V4.632H210.649V6.088H211.769V10.664C211.769 12.248 212.633 13.144 214.297 13.144ZM224.016 13.144C224.608 13.144 225.024 13.048 225.328 12.936V11.4C225.056 11.512 224.768 11.56 224.384 11.56C223.776 11.56 223.424 11.224 223.424 10.488V6.088H225.264V4.632H223.424V2.792H221.488V4.632H220.368V6.088H221.488V10.664C221.488 12.248 222.352 13.144 224.016 13.144ZM227.074 13H229.01V8.072C229.01 6.744 229.89 6.072 230.978 6.072C232.13 6.072 232.642 6.648 232.642 7.912V13H234.578V7.736C234.578 5.432 233.394 4.456 231.714 4.456C230.338 4.456 229.41 5.144 229.01 5.96V0.759999H227.074V13ZM236.856 13H238.792V4.632H236.856V13ZM237.8 3.256C238.44 3.256 238.952 2.776 238.952 2.152C238.952 1.512 238.44 1.032 237.8 1.032C237.16 1.032 236.648 1.512 236.648 2.152C236.648 2.776 237.16 3.256 237.8 3.256ZM244.016 13.16C246.16 13.16 247.36 12.184 247.36 10.488C247.36 8.712 246.192 8.232 244.224 7.928C242.896 7.704 242.496 7.464 242.496 6.856C242.496 6.264 242.992 5.864 243.824 5.864C244.72 5.864 245.152 6.216 245.312 6.984H247.104C246.896 5.096 245.536 4.456 243.824 4.456C242.256 4.456 240.688 5.288 240.688 6.968C240.688 8.536 241.504 9.16 243.712 9.512C244.944 9.72 245.504 9.976 245.504 10.664C245.504 11.368 245.04 11.736 244 11.736C242.864 11.736 242.432 11.24 242.336 10.392H240.512C240.592 12.168 241.856 13.16 244.016 13.16ZM252.151 13H254.151L255.047 10.168H259.415L260.327 13H262.535L258.759 1.56H255.975L252.151 13ZM257.239 3.304L258.919 8.616H255.543L257.239 3.304ZM267.101 13.16C268.333 13.16 269.405 12.424 269.853 11.592V13H271.789V0.759999H269.853V5.912C269.389 5.08 268.541 4.456 267.181 4.456C265.005 4.456 263.421 6.152 263.421 8.824V8.952C263.421 11.672 265.005 13.16 267.101 13.16ZM267.581 11.624C266.333 11.624 265.405 10.744 265.405 8.904V8.776C265.405 6.968 266.237 5.976 267.661 5.976C269.069 5.976 269.917 6.888 269.917 8.728V8.856C269.917 10.728 268.925 11.624 267.581 11.624Z" fill="#002F34"/>
</svg>
