<svg width="376" height="18" viewBox="0 0 376 18" fill="none" xmlns="http://www.w3.org/2000/svg">
<path d="M5.778 14.162C8.334 14.162 10.224 12.524 10.224 10.364C10.224 7.934 8.712 7.07 5.85 6.62C3.222 6.224 2.754 5.576 2.754 4.316C2.754 3.11 3.672 2.228 5.436 2.228C7.218 2.228 8.154 2.894 8.46 4.514H9.864C9.612 2.228 8.01 0.967999 5.436 0.967999C3.006 0.967999 1.296 2.48 1.296 4.46C1.296 6.746 2.898 7.592 5.598 8.006C8.046 8.402 8.712 9.014 8.712 10.472C8.712 11.93 7.434 12.902 5.778 12.902C3.186 12.902 2.574 11.606 2.376 10.076H0.864C1.098 12.272 2.34 14.162 5.778 14.162ZM16.6492 14.162C18.7732 14.162 20.3392 13.172 20.6632 11.282H19.1692C18.9712 12.38 18.1252 12.92 16.6672 12.92C14.7412 12.92 13.7152 11.732 13.6432 9.59H20.7352V9.104C20.7352 5.738 18.6832 4.424 16.5052 4.424C13.9132 4.424 12.0952 6.404 12.0952 9.248V9.392C12.0952 12.29 13.9852 14.162 16.6492 14.162ZM13.6972 8.384C13.9492 6.71 14.9752 5.666 16.5052 5.666C18.0532 5.666 19.0612 6.44 19.2052 8.384H13.6972ZM26.9336 14.162C29.2016 14.162 30.8396 12.65 31.0376 10.616H29.6516C29.4896 12.146 28.2836 12.92 26.9516 12.92C25.1336 12.92 23.8736 11.696 23.8736 9.392V9.248C23.8736 7.034 25.1876 5.666 26.8976 5.666C28.1936 5.666 29.2736 6.224 29.5076 7.718H30.9836C30.6956 5.324 28.8596 4.424 26.8976 4.424C24.3776 4.424 22.3256 6.368 22.3256 9.248V9.392C22.3256 12.308 24.3056 14.162 26.9336 14.162ZM36.4793 14.162C37.9913 14.162 39.0353 13.388 39.4673 12.506V14H40.9613V4.586H39.4673V10.292C39.4673 11.984 38.2073 12.866 36.8753 12.866C35.3993 12.866 34.6973 12.128 34.6973 10.472V4.586H33.2033V10.544C33.2033 13.136 34.6073 14.162 36.4793 14.162ZM43.9808 14H45.4748V8.834C45.4748 6.512 46.6808 5.918 48.5708 5.828V4.424C46.8788 4.478 46.0688 5.216 45.4748 6.278V4.586H43.9808V14ZM54.3367 14.162C56.4607 14.162 58.0267 13.172 58.3507 11.282H56.8567C56.6587 12.38 55.8127 12.92 54.3547 12.92C52.4287 12.92 51.4027 11.732 51.3307 9.59H58.4227V9.104C58.4227 5.738 56.3707 4.424 54.1927 4.424C51.6007 4.424 49.7827 6.404 49.7827 9.248V9.392C49.7827 12.29 51.6727 14.162 54.3367 14.162ZM51.3847 8.384C51.6367 6.71 52.6627 5.666 54.1927 5.666C55.7407 5.666 56.7487 6.44 56.8927 8.384H51.3847ZM60.7511 14H62.2631V0.0859989H60.7511V14ZM66.1666 17.276H67.6786L72.8806 4.586H71.3506L68.7406 11.336L65.8606 4.586H64.2586L67.9486 13.028L66.1666 17.276ZM82.5276 14.162C84.8136 14.162 85.9836 13.01 85.9836 11.3C85.9836 9.302 84.6156 8.87 82.6716 8.51C80.9436 8.204 80.4756 7.862 80.4756 7.016C80.4756 6.206 81.1776 5.666 82.2576 5.666C83.4456 5.666 84.0216 6.116 84.2376 7.142H85.6776C85.4256 5.108 83.9676 4.424 82.2756 4.424C80.7996 4.424 79.0896 5.324 79.0896 7.07C79.0896 8.708 79.9176 9.392 82.3656 9.842C83.8236 10.112 84.5616 10.436 84.5616 11.426C84.5616 12.434 83.9316 12.92 82.5096 12.92C80.9976 12.92 80.4036 12.218 80.2956 11.102H78.8376C78.9276 13.028 80.2776 14.162 82.5276 14.162ZM91.122 14.126C91.734 14.126 92.094 14.036 92.4 13.928V12.668C92.076 12.794 91.716 12.866 91.248 12.866C90.492 12.866 90.078 12.416 90.078 11.498V5.846H92.274V4.586H90.078V2.444H88.584V4.586H87.234V5.846H88.584V11.642C88.584 13.118 89.412 14.126 91.122 14.126ZM98.5825 12.92C96.6745 12.92 95.5045 11.516 95.5045 9.374V9.23C95.5045 7.07 96.6925 5.666 98.5825 5.666C100.454 5.666 101.66 7.07 101.66 9.248V9.374C101.66 11.498 100.472 12.92 98.5825 12.92ZM98.5645 14.162C101.246 14.162 103.208 12.2 103.208 9.356V9.212C103.208 6.386 101.246 4.424 98.5825 4.424C95.9185 4.424 93.9565 6.404 93.9565 9.23V9.374C93.9565 12.128 95.8825 14.162 98.5645 14.162ZM105.522 14H107.016V8.834C107.016 6.512 108.222 5.918 110.112 5.828V4.424C108.42 4.478 107.61 5.216 107.016 6.278V4.586H105.522V14ZM115.878 14.162C118.002 14.162 119.568 13.172 119.892 11.282H118.398C118.2 12.38 117.354 12.92 115.896 12.92C113.97 12.92 112.944 11.732 112.872 9.59H119.964V9.104C119.964 5.738 117.912 4.424 115.734 4.424C113.142 4.424 111.324 6.404 111.324 9.248V9.392C111.324 12.29 113.214 14.162 115.878 14.162ZM112.926 8.384C113.178 6.71 114.204 5.666 115.734 5.666C117.282 5.666 118.29 6.44 118.434 8.384H112.926ZM130.926 14.162C133.194 14.162 134.832 12.65 135.03 10.616H133.644C133.482 12.146 132.276 12.92 130.944 12.92C129.126 12.92 127.866 11.696 127.866 9.392V9.248C127.866 7.034 129.18 5.666 130.89 5.666C132.186 5.666 133.266 6.224 133.5 7.718H134.976C134.688 5.324 132.852 4.424 130.89 4.424C128.37 4.424 126.318 6.368 126.318 9.248V9.392C126.318 12.308 128.298 14.162 130.926 14.162ZM139.643 14.162C141.029 14.162 141.875 13.694 142.577 12.812V14H144.071V7.79C144.071 5.162 142.433 4.424 140.633 4.424C138.815 4.424 137.105 5.216 136.907 7.358H138.401C138.545 6.206 139.265 5.666 140.561 5.666C142.001 5.666 142.577 6.296 142.577 7.79V8.474H141.227C138.815 8.474 136.511 9.212 136.511 11.39C136.511 13.316 137.897 14.162 139.643 14.162ZM139.787 12.974C138.473 12.974 138.005 12.362 138.005 11.39C138.005 10.004 139.391 9.536 141.281 9.536H142.577V10.706C142.577 12.164 141.371 12.974 139.787 12.974ZM147.006 14H148.5V8.834C148.5 6.512 149.706 5.918 151.596 5.828V4.424C149.904 4.478 149.094 5.216 148.5 6.278V4.586H147.006V14ZM157.056 14.162C158.424 14.162 159.738 13.298 160.278 12.38V14H161.772V0.0859989H160.278V6.098C159.738 5.18 158.766 4.424 157.2 4.424C154.608 4.424 152.808 6.458 152.808 9.338V9.482C152.808 12.416 154.59 14.162 157.056 14.162ZM157.218 12.92C155.634 12.92 154.356 11.786 154.356 9.41V9.266C154.356 6.98 155.472 5.666 157.344 5.666C159.18 5.666 160.332 6.8 160.332 9.212V9.356C160.332 11.768 158.964 12.92 157.218 12.92ZM173.105 14.162C174.473 14.162 175.787 13.298 176.327 12.38V14H177.821V0.0859989H176.327V6.098C175.787 5.18 174.815 4.424 173.249 4.424C170.657 4.424 168.857 6.458 168.857 9.338V9.482C168.857 12.416 170.639 14.162 173.105 14.162ZM173.267 12.92C171.683 12.92 170.405 11.786 170.405 9.41V9.266C170.405 6.98 171.521 5.666 173.393 5.666C175.229 5.666 176.381 6.8 176.381 9.212V9.356C176.381 11.768 175.013 12.92 173.267 12.92ZM184.696 14.162C186.82 14.162 188.386 13.172 188.71 11.282H187.216C187.018 12.38 186.172 12.92 184.714 12.92C182.788 12.92 181.762 11.732 181.69 9.59H188.782V9.104C188.782 5.738 186.73 4.424 184.552 4.424C181.96 4.424 180.142 6.404 180.142 9.248V9.392C180.142 12.29 182.032 14.162 184.696 14.162ZM181.744 8.384C181.996 6.71 183.022 5.666 184.552 5.666C186.1 5.666 187.108 6.44 187.252 8.384H181.744ZM193.937 14.126C194.549 14.126 194.909 14.036 195.215 13.928V12.668C194.891 12.794 194.531 12.866 194.062 12.866C193.307 12.866 192.893 12.416 192.893 11.498V5.846H195.089V4.586H192.893V2.444H191.399V4.586H190.049V5.846H191.399V11.642C191.399 13.118 192.227 14.126 193.937 14.126ZM199.919 14.162C201.305 14.162 202.151 13.694 202.853 12.812V14H204.347V7.79C204.347 5.162 202.709 4.424 200.909 4.424C199.091 4.424 197.381 5.216 197.183 7.358H198.677C198.821 6.206 199.541 5.666 200.837 5.666C202.277 5.666 202.853 6.296 202.853 7.79V8.474H201.503C199.091 8.474 196.787 9.212 196.787 11.39C196.787 13.316 198.173 14.162 199.919 14.162ZM200.063 12.974C198.749 12.974 198.281 12.362 198.281 11.39C198.281 10.004 199.667 9.536 201.557 9.536H202.853V10.706C202.853 12.164 201.647 12.974 200.063 12.974ZM207.318 14H208.812V4.586H207.318V14ZM208.038 2.624C208.578 2.624 209.028 2.174 209.028 1.634C209.028 1.094 208.578 0.643999 208.038 0.643999C207.498 0.643999 207.048 1.094 207.048 1.634C207.048 2.174 207.498 2.624 208.038 2.624ZM211.905 14H213.417V0.0859989H211.905V14ZM219.391 14.162C221.677 14.162 222.847 13.01 222.847 11.3C222.847 9.302 221.479 8.87 219.535 8.51C217.807 8.204 217.339 7.862 217.339 7.016C217.339 6.206 218.041 5.666 219.121 5.666C220.309 5.666 220.885 6.116 221.101 7.142H222.541C222.289 5.108 220.831 4.424 219.139 4.424C217.663 4.424 215.953 5.324 215.953 7.07C215.953 8.708 216.781 9.392 219.229 9.842C220.687 10.112 221.425 10.436 221.425 11.426C221.425 12.434 220.795 12.92 219.373 12.92C217.861 12.92 217.267 12.218 217.159 11.102H215.701C215.791 13.028 217.141 14.162 219.391 14.162ZM230.211 14H231.705V5.846H234.009V4.586H231.705V2.894C231.705 1.94 232.101 1.274 233.073 1.274C233.487 1.274 233.865 1.364 234.135 1.472V0.211999C233.757 0.0859989 233.505 0.0319996 233.019 0.0319996C231.147 0.0319996 230.211 1.148 230.211 3.056V4.586H228.861V5.846H230.211V14ZM239.577 12.92C237.669 12.92 236.499 11.516 236.499 9.374V9.23C236.499 7.07 237.687 5.666 239.577 5.666C241.449 5.666 242.655 7.07 242.655 9.248V9.374C242.655 11.498 241.467 12.92 239.577 12.92ZM239.559 14.162C242.241 14.162 244.203 12.2 244.203 9.356V9.212C244.203 6.386 242.241 4.424 239.577 4.424C236.913 4.424 234.951 6.404 234.951 9.23V9.374C234.951 12.128 236.877 14.162 239.559 14.162ZM246.516 14H248.01V8.834C248.01 6.512 249.216 5.918 251.106 5.828V4.424C249.414 4.478 248.604 5.216 248.01 6.278V4.586H246.516V14ZM258.047 14H259.541V8.294C259.541 6.602 260.783 5.72 262.169 5.72C263.681 5.72 264.383 6.458 264.383 8.114V14H265.877V8.222C265.877 5.486 264.509 4.424 262.565 4.424C261.017 4.424 259.973 5.198 259.541 6.08V4.586H258.047V14ZM272.657 14.162C274.781 14.162 276.347 13.172 276.671 11.282H275.177C274.979 12.38 274.133 12.92 272.675 12.92C270.749 12.92 269.723 11.732 269.651 9.59H276.743V9.104C276.743 5.738 274.691 4.424 272.513 4.424C269.921 4.424 268.103 6.404 268.103 9.248V9.392C268.103 12.29 269.993 14.162 272.657 14.162ZM269.705 8.384C269.957 6.71 270.983 5.666 272.513 5.666C274.061 5.666 275.069 6.44 275.213 8.384H269.705ZM277.764 14H279.366L281.958 10.202L284.496 14H286.26L282.822 9.05L285.936 4.586H284.316L282.03 8.006L279.726 4.586H277.98L281.13 9.158L277.764 14ZM291.144 14.126C291.756 14.126 292.116 14.036 292.422 13.928V12.668C292.098 12.794 291.738 12.866 291.27 12.866C290.514 12.866 290.1 12.416 290.1 11.498V5.846H292.296V4.586H290.1V2.444H288.606V4.586H287.256V5.846H288.606V11.642C288.606 13.118 289.434 14.126 291.144 14.126ZM299.444 17.276H300.938V12.452C301.478 13.388 302.576 14.162 304.124 14.162C306.716 14.162 308.408 12.182 308.408 9.302V9.158C308.408 6.224 306.59 4.424 304.124 4.424C302.756 4.424 301.478 5.252 300.938 6.17V4.586H299.444V17.276ZM303.98 12.92C302.144 12.92 300.884 11.786 300.884 9.374V9.23C300.884 6.818 302.216 5.666 303.962 5.666C305.546 5.666 306.86 6.854 306.86 9.23V9.374C306.86 11.66 305.852 12.92 303.98 12.92ZM313.915 14.162C315.427 14.162 316.471 13.388 316.903 12.506V14H318.397V4.586H316.903V10.292C316.903 11.984 315.643 12.866 314.311 12.866C312.835 12.866 312.133 12.128 312.133 10.472V4.586H310.639V10.544C310.639 13.136 312.043 14.162 313.915 14.162ZM321.416 14H322.91V8.834C322.91 6.512 324.116 5.918 326.006 5.828V4.424C324.314 4.478 323.504 5.216 322.91 6.278V4.586H321.416V14ZM331.826 14.162C334.094 14.162 335.732 12.65 335.93 10.616H334.544C334.382 12.146 333.176 12.92 331.844 12.92C330.026 12.92 328.766 11.696 328.766 9.392V9.248C328.766 7.034 330.08 5.666 331.79 5.666C333.086 5.666 334.166 6.224 334.4 7.718H335.876C335.588 5.324 333.752 4.424 331.79 4.424C329.27 4.424 327.218 6.368 327.218 9.248V9.392C327.218 12.308 329.198 14.162 331.826 14.162ZM338.186 14H339.68V8.294C339.68 6.602 340.922 5.72 342.308 5.72C343.82 5.72 344.522 6.458 344.522 8.114V14H346.016V8.222C346.016 5.486 344.648 4.424 342.704 4.424C341.156 4.424 340.112 5.198 339.68 6.08V0.0859989H338.186V14ZM351.302 14.162C352.688 14.162 353.534 13.694 354.236 12.812V14H355.73V7.79C355.73 5.162 354.092 4.424 352.292 4.424C350.474 4.424 348.764 5.216 348.566 7.358H350.06C350.204 6.206 350.924 5.666 352.22 5.666C353.66 5.666 354.236 6.296 354.236 7.79V8.474H352.886C350.474 8.474 348.17 9.212 348.17 11.39C348.17 13.316 349.556 14.162 351.302 14.162ZM351.446 12.974C350.132 12.974 349.664 12.362 349.664 11.39C349.664 10.004 351.05 9.536 352.94 9.536H354.236V10.706C354.236 12.164 353.03 12.974 351.446 12.974ZM361.58 14.162C363.866 14.162 365.036 13.01 365.036 11.3C365.036 9.302 363.668 8.87 361.724 8.51C359.996 8.204 359.528 7.862 359.528 7.016C359.528 6.206 360.23 5.666 361.31 5.666C362.498 5.666 363.074 6.116 363.29 7.142H364.73C364.478 5.108 363.02 4.424 361.328 4.424C359.852 4.424 358.142 5.324 358.142 7.07C358.142 8.708 358.97 9.392 361.418 9.842C362.876 10.112 363.614 10.436 363.614 11.426C363.614 12.434 362.984 12.92 361.562 12.92C360.05 12.92 359.456 12.218 359.348 11.102H357.89C357.98 13.028 359.33 14.162 361.58 14.162ZM371.165 14.162C373.289 14.162 374.855 13.172 375.179 11.282H373.685C373.487 12.38 372.641 12.92 371.183 12.92C369.257 12.92 368.231 11.732 368.159 9.59H375.251V9.104C375.251 5.738 373.199 4.424 371.021 4.424C368.429 4.424 366.611 6.404 366.611 9.248V9.392C366.611 12.29 368.501 14.162 371.165 14.162ZM368.213 8.384C368.465 6.71 369.491 5.666 371.021 5.666C372.569 5.666 373.577 6.44 373.721 8.384H368.213Z" fill="#002F34"/>
</svg>
