<svg width="121" height="18" viewBox="0 0 121 18" fill="none" xmlns="http://www.w3.org/2000/svg">
<path d="M7.11 14.18C10.17 14.18 12.366 12.614 12.744 9.518H10.404C10.152 11.336 8.892 12.236 7.11 12.236C4.734 12.236 3.348 10.526 3.348 7.628V7.484C3.348 4.604 4.824 2.84 7.092 2.84C8.946 2.84 9.9 3.722 10.17 5.432H12.6C12.312 2.408 10.026 0.932 7.074 0.932C3.492 0.932 0.828 3.632 0.828 7.502V7.646C0.828 11.606 3.078 14.18 7.11 14.18ZM17.1917 14.18C18.6317 14.18 19.4597 13.658 20.0717 12.848V14H22.2137V7.826C22.2137 5.252 20.5577 4.388 18.4517 4.388C16.3457 4.388 14.5997 5.306 14.4197 7.502H16.5257C16.6337 6.566 17.1917 6.026 18.3257 6.026C19.6037 6.026 20.0357 6.656 20.0357 7.916V8.402H18.8657C16.1657 8.402 14.0417 9.194 14.0417 11.39C14.0417 13.352 15.4637 14.18 17.1917 14.18ZM17.7137 12.614C16.6337 12.614 16.2017 12.092 16.2017 11.3C16.2017 10.148 17.2637 9.77 18.9197 9.77H20.0357V10.706C20.0357 11.912 19.0457 12.614 17.7137 12.614ZM24.7101 14H26.8881V9.104C26.8881 7.106 28.0401 6.494 29.9481 6.476V4.442C28.3641 4.46 27.4821 5.162 26.8881 6.35V4.586H24.7101V14ZM35.2166 14.18C36.6026 14.18 37.8086 13.352 38.3126 12.416V14H40.4906V0.229999H38.3126V6.026C37.7906 5.09 36.8366 4.388 35.3066 4.388C32.8586 4.388 31.0766 6.296 31.0766 9.302V9.446C31.0766 12.506 32.8586 14.18 35.2166 14.18ZM35.7566 12.452C34.3526 12.452 33.3086 11.462 33.3086 9.392V9.248C33.3086 7.214 34.2446 6.098 35.8466 6.098C37.4306 6.098 38.3846 7.124 38.3846 9.194V9.338C38.3846 11.444 37.2686 12.452 35.7566 12.452ZM47.5483 14H49.9423V9.104H51.7423C54.4963 9.104 56.4583 7.898 56.4583 5.18V5.108C56.4583 2.408 54.5683 1.13 51.6883 1.13H47.5483V14ZM49.9423 7.376V2.984H51.6883C53.2183 2.984 54.1183 3.578 54.1183 5.108V5.18C54.1183 6.602 53.2723 7.376 51.6883 7.376H49.9423ZM60.6272 14.18C62.0672 14.18 62.8952 13.658 63.5072 12.848V14H65.6492V7.826C65.6492 5.252 63.9932 4.388 61.8872 4.388C59.7812 4.388 58.0352 5.306 57.8552 7.502H59.9612C60.0692 6.566 60.6272 6.026 61.7612 6.026C63.0392 6.026 63.4712 6.656 63.4712 7.916V8.402H62.3012C59.6012 8.402 57.4772 9.194 57.4772 11.39C57.4772 13.352 58.8992 14.18 60.6272 14.18ZM61.1492 12.614C60.0692 12.614 59.6372 12.092 59.6372 11.3C59.6372 10.148 60.6992 9.77 62.3552 9.77H63.4712V10.706C63.4712 11.912 62.4812 12.614 61.1492 12.614ZM68.9259 17.222H71.0679L76.1979 4.586H74.0739L71.7699 10.652L69.2679 4.586H66.9099L70.6359 13.046L68.9259 17.222ZM77.8312 14H80.0092V8.366C80.0092 6.926 80.9992 6.206 82.0792 6.206C83.1412 6.206 83.7532 6.8 83.7532 8.186V14H85.9312V8.366C85.9312 6.926 86.9212 6.206 88.0012 6.206C89.0812 6.206 89.6752 6.8 89.6752 8.186V14H91.8532V8.042C91.8532 5.45 90.4492 4.388 88.7212 4.388C87.5512 4.388 86.2552 4.91 85.5352 6.08C85.0672 4.91 84.0952 4.388 82.8712 4.388C81.4852 4.388 80.4592 5.144 80.0092 6.026V4.586H77.8312V14ZM98.4946 14.18C100.907 14.18 102.509 13.1 102.815 11.12H100.709C100.547 12.038 99.8626 12.56 98.5486 12.56C96.9286 12.56 96.0286 11.552 95.9566 9.77H102.851V9.14C102.851 5.774 100.745 4.388 98.4046 4.388C95.7226 4.388 93.7246 6.332 93.7246 9.248V9.392C93.7246 12.362 95.7226 14.18 98.4946 14.18ZM95.9926 8.312C96.2086 6.854 97.0906 5.972 98.4046 5.972C99.7546 5.972 100.583 6.692 100.691 8.312H95.9926ZM104.796 14H106.974V8.456C106.974 6.962 107.964 6.206 109.188 6.206C110.484 6.206 111.06 6.854 111.06 8.276V14H113.238V8.078C113.238 5.486 111.906 4.388 110.016 4.388C108.468 4.388 107.424 5.162 106.974 6.08V4.586H104.796V14ZM118.951 14.162C119.617 14.162 120.085 14.054 120.427 13.928V12.2C120.121 12.326 119.797 12.38 119.365 12.38C118.681 12.38 118.285 12.002 118.285 11.174V6.224H120.355V4.586H118.285V2.516H116.107V4.586H114.847V6.224H116.107V11.372C116.107 13.154 117.079 14.162 118.951 14.162Z" fill="#002F34"/>
</svg>
