<svg width="114" height="15" viewBox="0 0 114 15" fill="none" xmlns="http://www.w3.org/2000/svg">
<path d="M7.002 14.162C9.882 14.162 11.934 12.704 12.384 9.734H10.926C10.602 11.822 9.144 12.884 7.038 12.884C4.266 12.884 2.61 10.904 2.61 7.628V7.484C2.61 4.244 4.392 2.174 7.056 2.174C9.252 2.174 10.386 3.182 10.71 5.144H12.258C11.988 2.354 9.72 0.932 7.038 0.932C3.546 0.932 0.99 3.686 0.99 7.502V7.646C0.99 11.606 3.276 14.162 7.002 14.162ZM17.1942 14.162C18.5802 14.162 19.4262 13.694 20.1282 12.812V14H21.6222V7.79C21.6222 5.162 19.9842 4.424 18.1842 4.424C16.3662 4.424 14.6562 5.216 14.4582 7.358H15.9522C16.0962 6.206 16.8162 5.666 18.1122 5.666C19.5522 5.666 20.1282 6.296 20.1282 7.79V8.474H18.7782C16.3662 8.474 14.0622 9.212 14.0622 11.39C14.0622 13.316 15.4482 14.162 17.1942 14.162ZM17.3382 12.974C16.0242 12.974 15.5562 12.362 15.5562 11.39C15.5562 10.004 16.9422 9.536 18.8322 9.536H20.1282V10.706C20.1282 12.164 18.9222 12.974 17.3382 12.974ZM24.5569 14H26.0509V8.834C26.0509 6.512 27.2569 5.918 29.1469 5.828V4.424C27.4549 4.478 26.6449 5.216 26.0509 6.278V4.586H24.5569V14ZM34.6068 14.162C35.9748 14.162 37.2888 13.298 37.8288 12.38V14H39.3228V0.0859989H37.8288V6.098C37.2888 5.18 36.3168 4.424 34.7508 4.424C32.1588 4.424 30.3588 6.458 30.3588 9.338V9.482C30.3588 12.416 32.1408 14.162 34.6068 14.162ZM34.7688 12.92C33.1848 12.92 31.9068 11.786 31.9068 9.41V9.266C31.9068 6.98 33.0228 5.666 34.8948 5.666C36.7308 5.666 37.8828 6.8 37.8828 9.212V9.356C37.8828 11.768 36.5148 12.92 34.7688 12.92ZM47.2177 14H48.7117V2.966L55.2097 14H57.0097V1.13H55.5157V11.768L49.2517 1.13H47.2177V14ZM63.321 14.162C64.833 14.162 65.877 13.388 66.309 12.506V14H67.803V4.586H66.309V10.292C66.309 11.984 65.049 12.866 63.717 12.866C62.241 12.866 61.539 12.128 61.539 10.472V4.586H60.045V10.544C60.045 13.136 61.449 14.162 63.321 14.162ZM70.8225 14H72.3165V8.24C72.3165 6.548 73.5765 5.72 74.8005 5.72C76.0965 5.72 76.7985 6.404 76.7985 8.06V14H78.2925V8.24C78.2925 6.548 79.5525 5.72 80.7765 5.72C82.0725 5.72 82.7745 6.404 82.7745 8.06V14H84.2685V8.168C84.2685 5.432 82.7925 4.424 81.1005 4.424C79.9305 4.424 78.5265 4.964 77.8785 6.188C77.3925 4.928 76.3305 4.424 75.1245 4.424C73.7745 4.424 72.7485 5.144 72.3165 6.026V4.586H70.8225V14ZM91.8854 14.162C94.4774 14.162 96.1694 12.182 96.1694 9.302V9.158C96.1694 6.224 94.3514 4.424 91.8854 4.424C90.5174 4.424 89.2394 5.252 88.6994 6.17V0.0859989H87.2054V14H88.6994V12.452C89.2394 13.388 90.3554 14.162 91.8854 14.162ZM91.7414 12.92C89.9054 12.92 88.6454 11.786 88.6454 9.374V9.23C88.6454 6.818 89.9774 5.666 91.7234 5.666C93.3074 5.666 94.6214 6.854 94.6214 9.23V9.374C94.6214 11.66 93.6134 12.92 91.7414 12.92ZM102.343 14.162C104.467 14.162 106.033 13.172 106.357 11.282H104.863C104.665 12.38 103.819 12.92 102.361 12.92C100.435 12.92 99.4085 11.732 99.3365 9.59H106.429V9.104C106.429 5.738 104.377 4.424 102.199 4.424C99.6065 4.424 97.7885 6.404 97.7885 9.248V9.392C97.7885 12.29 99.6785 14.162 102.343 14.162ZM99.3905 8.384C99.6425 6.71 100.669 5.666 102.199 5.666C103.747 5.666 104.755 6.44 104.899 8.384H99.3905ZM108.721 14H110.215V8.834C110.215 6.512 111.421 5.918 113.311 5.828V4.424C111.619 4.478 110.809 5.216 110.215 6.278V4.586H108.721V14Z" fill="#002F34"/>
</svg>
