<svg width="364" height="56" viewBox="0 0 364 56" fill="none" xmlns="http://www.w3.org/2000/svg">
<rect width="364" height="56" rx="4" fill="white"/>
<rect width="364" height="56" rx="4" fill="#007F7C" fill-opacity="0.1"/>
<path d="M119.627 34.198C122.795 34.198 125.081 32.56 125.405 29.374H122.543C122.309 31.03 121.193 31.84 119.591 31.84C117.467 31.84 116.243 30.292 116.243 27.628V27.484C116.243 24.82 117.539 23.236 119.573 23.236C121.193 23.236 122.057 24.064 122.273 25.612H125.261C124.955 22.444 122.651 20.932 119.555 20.932C115.901 20.932 113.165 23.596 113.165 27.502V27.646C113.165 31.606 115.415 34.198 119.627 34.198ZM131.454 32.218C129.978 32.218 129.15 31.138 129.15 29.338V29.194C129.15 27.394 130.014 26.35 131.454 26.35C132.912 26.35 133.758 27.43 133.758 29.23V29.356C133.758 31.138 132.912 32.218 131.454 32.218ZM131.436 34.198C134.262 34.198 136.404 32.308 136.404 29.338V29.194C136.404 26.26 134.28 24.37 131.454 24.37C128.628 24.37 126.486 26.296 126.486 29.248V29.392C126.486 32.326 128.628 34.198 131.436 34.198ZM138.154 34H140.764V28.564C140.764 27.178 141.61 26.494 142.726 26.494C143.878 26.494 144.382 27.106 144.382 28.384V34H146.992V28.006C146.992 25.486 145.678 24.37 143.824 24.37C142.258 24.37 141.232 25.144 140.764 26.08V24.586H138.154V34ZM152.666 34.18C153.368 34.18 153.89 34.054 154.25 33.928V31.912C153.944 32.038 153.656 32.092 153.26 32.092C152.594 32.092 152.216 31.732 152.216 30.976V26.44H154.196V24.586H152.216V22.552H149.624V24.586H148.418V26.44H149.624V31.21C149.624 33.172 150.686 34.18 152.666 34.18ZM156.085 34H158.677V24.586H156.085V34ZM157.363 23.308C158.209 23.308 158.857 22.696 158.857 21.886C158.857 21.076 158.209 20.464 157.363 20.464C156.535 20.464 155.887 21.076 155.887 21.886C155.887 22.696 156.535 23.308 157.363 23.308ZM161.076 34H163.686V28.564C163.686 27.178 164.532 26.494 165.648 26.494C166.8 26.494 167.304 27.106 167.304 28.384V34H169.914V28.006C169.914 25.486 168.6 24.37 166.746 24.37C165.18 24.37 164.154 25.144 163.686 26.08V24.586H161.076V34ZM175.282 34.198C176.83 34.198 177.784 33.478 178.27 32.524V34H180.862V24.586H178.27V30.112C178.27 31.498 177.406 32.182 176.308 32.182C175.192 32.182 174.67 31.57 174.67 30.292V24.586H172.078V30.652C172.078 33.118 173.446 34.198 175.282 34.198ZM187.51 34.198C190.084 34.198 191.704 33.064 192.01 31.03H189.544C189.382 31.822 188.788 32.344 187.582 32.344C186.16 32.344 185.314 31.444 185.242 29.878H192.028V29.158C192.028 25.792 189.868 24.37 187.438 24.37C184.702 24.37 182.596 26.296 182.596 29.266V29.41C182.596 32.416 184.666 34.198 187.51 34.198ZM185.278 28.276C185.476 26.944 186.268 26.17 187.438 26.17C188.68 26.17 189.4 26.854 189.49 28.276H185.278ZM201.164 34.18C201.866 34.18 202.388 34.054 202.748 33.928V31.912C202.442 32.038 202.154 32.092 201.758 32.092C201.092 32.092 200.714 31.732 200.714 30.976V26.44H202.694V24.586H200.714V22.552H198.122V24.586H196.916V26.44H198.122V31.21C198.122 33.172 199.184 34.18 201.164 34.18ZM208.903 32.218C207.427 32.218 206.599 31.138 206.599 29.338V29.194C206.599 27.394 207.463 26.35 208.903 26.35C210.361 26.35 211.207 27.43 211.207 29.23V29.356C211.207 31.138 210.361 32.218 208.903 32.218ZM208.885 34.198C211.711 34.198 213.853 32.308 213.853 29.338V29.194C213.853 26.26 211.729 24.37 208.903 24.37C206.077 24.37 203.935 26.296 203.935 29.248V29.392C203.935 32.326 206.077 34.198 208.885 34.198ZM219.827 34H222.725V29.32H224.363C227.297 29.32 229.187 28.024 229.187 25.306V25.234C229.187 22.516 227.405 21.13 224.273 21.13H219.827V34ZM222.725 27.286V23.344H224.201C225.587 23.344 226.379 23.884 226.379 25.252V25.324C226.379 26.602 225.623 27.286 224.201 27.286H222.725ZM233.135 34.198C234.611 34.198 235.439 33.622 235.979 32.866V34H238.517V27.862C238.517 25.306 236.879 24.37 234.575 24.37C232.271 24.37 230.507 25.36 230.345 27.592H232.811C232.919 26.782 233.387 26.26 234.413 26.26C235.601 26.26 235.943 26.872 235.943 27.988V28.366H234.881C232.001 28.366 229.985 29.194 229.985 31.39C229.985 33.37 231.425 34.198 233.135 34.198ZM233.909 32.38C232.955 32.38 232.541 31.93 232.541 31.246C232.541 30.238 233.423 29.914 234.935 29.914H235.943V30.706C235.943 31.75 235.061 32.38 233.909 32.38ZM241.682 37.204H244.202L249.296 24.586H246.794L244.688 30.238L242.402 24.586H239.594L243.338 33.046L241.682 37.204Z" fill="#002F34" fill-opacity="0.6"/>
<rect x="1" y="1" width="362" height="54" rx="3" stroke="#007F7C" stroke-opacity="0.2" stroke-width="2"/>
</svg>
