<svg width="364" height="56" viewBox="0 0 364 56" fill="none" xmlns="http://www.w3.org/2000/svg">
<rect x="1" y="1" width="362" height="54" rx="3" fill="white"/>
<rect x="1" y="1" width="362" height="54" rx="3" fill="#002F34"/>
<path d="M149.613 34.198C152.781 34.198 155.067 32.56 155.391 29.374H152.529C152.295 31.03 151.179 31.84 149.577 31.84C147.453 31.84 146.229 30.292 146.229 27.628V27.484C146.229 24.82 147.525 23.236 149.559 23.236C151.179 23.236 152.043 24.064 152.259 25.612H155.247C154.941 22.444 152.637 20.932 149.541 20.932C145.887 20.932 143.151 23.596 143.151 27.502V27.646C143.151 31.606 145.401 34.198 149.613 34.198ZM161.44 32.218C159.964 32.218 159.136 31.138 159.136 29.338V29.194C159.136 27.394 160 26.35 161.44 26.35C162.898 26.35 163.744 27.43 163.744 29.23V29.356C163.744 31.138 162.898 32.218 161.44 32.218ZM161.422 34.198C164.248 34.198 166.39 32.308 166.39 29.338V29.194C166.39 26.26 164.266 24.37 161.44 24.37C158.614 24.37 156.472 26.296 156.472 29.248V29.392C156.472 32.326 158.614 34.198 161.422 34.198ZM168.139 34H170.749V28.564C170.749 27.178 171.595 26.494 172.711 26.494C173.863 26.494 174.367 27.106 174.367 28.384V34H176.977V28.006C176.977 25.486 175.663 24.37 173.809 24.37C172.243 24.37 171.217 25.144 170.749 26.08V24.586H168.139V34ZM182.652 34.18C183.354 34.18 183.876 34.054 184.236 33.928V31.912C183.93 32.038 183.642 32.092 183.246 32.092C182.58 32.092 182.202 31.732 182.202 30.976V26.44H184.182V24.586H182.202V22.552H179.61V24.586H178.404V26.44H179.61V31.21C179.61 33.172 180.672 34.18 182.652 34.18ZM186.071 34H188.663V24.586H186.071V34ZM187.349 23.308C188.195 23.308 188.843 22.696 188.843 21.886C188.843 21.076 188.195 20.464 187.349 20.464C186.521 20.464 185.873 21.076 185.873 21.886C185.873 22.696 186.521 23.308 187.349 23.308ZM191.061 34H193.671V28.564C193.671 27.178 194.517 26.494 195.633 26.494C196.785 26.494 197.289 27.106 197.289 28.384V34H199.899V28.006C199.899 25.486 198.585 24.37 196.731 24.37C195.165 24.37 194.139 25.144 193.671 26.08V24.586H191.061V34ZM205.267 34.198C206.815 34.198 207.769 33.478 208.255 32.524V34H210.847V24.586H208.255V30.112C208.255 31.498 207.391 32.182 206.293 32.182C205.177 32.182 204.655 31.57 204.655 30.292V24.586H202.063V30.652C202.063 33.118 203.431 34.198 205.267 34.198ZM217.495 34.198C220.069 34.198 221.689 33.064 221.995 31.03H219.529C219.367 31.822 218.773 32.344 217.567 32.344C216.145 32.344 215.299 31.444 215.227 29.878H222.013V29.158C222.013 25.792 219.853 24.37 217.423 24.37C214.687 24.37 212.581 26.296 212.581 29.266V29.41C212.581 32.416 214.651 34.198 217.495 34.198ZM215.263 28.276C215.461 26.944 216.253 26.17 217.423 26.17C218.665 26.17 219.385 26.854 219.475 28.276H215.263Z" fill="white"/>
<rect x="1" y="1" width="362" height="54" rx="3" stroke="#002F34" stroke-width="2"/>
</svg>
