<svg width="364" height="56" viewBox="0 0 364 56" fill="none" xmlns="http://www.w3.org/2000/svg">
<rect x="1" y="1" width="362" height="54" rx="3" fill="white"/>
<rect x="1" y="1" width="362" height="54" rx="3" fill="#002F34"/>
<path d="M120.627 34.198C123.795 34.198 126.081 32.56 126.405 29.374H123.543C123.309 31.03 122.193 31.84 120.591 31.84C118.467 31.84 117.243 30.292 117.243 27.628V27.484C117.243 24.82 118.539 23.236 120.573 23.236C122.193 23.236 123.057 24.064 123.273 25.612H126.261C125.955 22.444 123.651 20.932 120.555 20.932C116.901 20.932 114.165 23.596 114.165 27.502V27.646C114.165 31.606 116.415 34.198 120.627 34.198ZM132.454 32.218C130.978 32.218 130.15 31.138 130.15 29.338V29.194C130.15 27.394 131.014 26.35 132.454 26.35C133.912 26.35 134.758 27.43 134.758 29.23V29.356C134.758 31.138 133.912 32.218 132.454 32.218ZM132.436 34.198C135.262 34.198 137.404 32.308 137.404 29.338V29.194C137.404 26.26 135.28 24.37 132.454 24.37C129.628 24.37 127.486 26.296 127.486 29.248V29.392C127.486 32.326 129.628 34.198 132.436 34.198ZM139.154 34H141.764V28.564C141.764 27.178 142.61 26.494 143.726 26.494C144.878 26.494 145.382 27.106 145.382 28.384V34H147.992V28.006C147.992 25.486 146.678 24.37 144.824 24.37C143.258 24.37 142.232 25.144 141.764 26.08V24.586H139.154V34ZM153.666 34.18C154.368 34.18 154.89 34.054 155.25 33.928V31.912C154.944 32.038 154.656 32.092 154.26 32.092C153.594 32.092 153.216 31.732 153.216 30.976V26.44H155.196V24.586H153.216V22.552H150.624V24.586H149.418V26.44H150.624V31.21C150.624 33.172 151.686 34.18 153.666 34.18ZM157.085 34H159.677V24.586H157.085V34ZM158.363 23.308C159.209 23.308 159.857 22.696 159.857 21.886C159.857 21.076 159.209 20.464 158.363 20.464C157.535 20.464 156.887 21.076 156.887 21.886C156.887 22.696 157.535 23.308 158.363 23.308ZM162.076 34H164.686V28.564C164.686 27.178 165.532 26.494 166.648 26.494C167.8 26.494 168.304 27.106 168.304 28.384V34H170.914V28.006C170.914 25.486 169.6 24.37 167.746 24.37C166.18 24.37 165.154 25.144 164.686 26.08V24.586H162.076V34ZM176.282 34.198C177.83 34.198 178.784 33.478 179.27 32.524V34H181.862V24.586H179.27V30.112C179.27 31.498 178.406 32.182 177.308 32.182C176.192 32.182 175.67 31.57 175.67 30.292V24.586H173.078V30.652C173.078 33.118 174.446 34.198 176.282 34.198ZM188.51 34.198C191.084 34.198 192.704 33.064 193.01 31.03H190.544C190.382 31.822 189.788 32.344 188.582 32.344C187.16 32.344 186.314 31.444 186.242 29.878H193.028V29.158C193.028 25.792 190.868 24.37 188.438 24.37C185.702 24.37 183.596 26.296 183.596 29.266V29.41C183.596 32.416 185.666 34.198 188.51 34.198ZM186.278 28.276C186.476 26.944 187.268 26.17 188.438 26.17C189.68 26.17 190.4 26.854 190.49 28.276H186.278ZM202.164 34.18C202.866 34.18 203.388 34.054 203.748 33.928V31.912C203.442 32.038 203.154 32.092 202.758 32.092C202.092 32.092 201.714 31.732 201.714 30.976V26.44H203.694V24.586H201.714V22.552H199.122V24.586H197.916V26.44H199.122V31.21C199.122 33.172 200.184 34.18 202.164 34.18ZM209.903 32.218C208.427 32.218 207.599 31.138 207.599 29.338V29.194C207.599 27.394 208.463 26.35 209.903 26.35C211.361 26.35 212.207 27.43 212.207 29.23V29.356C212.207 31.138 211.361 32.218 209.903 32.218ZM209.885 34.198C212.711 34.198 214.853 32.308 214.853 29.338V29.194C214.853 26.26 212.729 24.37 209.903 24.37C207.077 24.37 204.935 26.296 204.935 29.248V29.392C204.935 32.326 207.077 34.198 209.885 34.198ZM220.827 34H223.725V29.32H225.363C228.297 29.32 230.187 28.024 230.187 25.306V25.234C230.187 22.516 228.405 21.13 225.273 21.13H220.827V34ZM223.725 27.286V23.344H225.201C226.587 23.344 227.379 23.884 227.379 25.252V25.324C227.379 26.602 226.623 27.286 225.201 27.286H223.725ZM234.135 34.198C235.611 34.198 236.439 33.622 236.979 32.866V34H239.517V27.862C239.517 25.306 237.879 24.37 235.575 24.37C233.271 24.37 231.507 25.36 231.345 27.592H233.811C233.919 26.782 234.387 26.26 235.413 26.26C236.601 26.26 236.943 26.872 236.943 27.988V28.366H235.881C233.001 28.366 230.985 29.194 230.985 31.39C230.985 33.37 232.425 34.198 234.135 34.198ZM234.909 32.38C233.955 32.38 233.541 31.93 233.541 31.246C233.541 30.238 234.423 29.914 235.935 29.914H236.943V30.706C236.943 31.75 236.061 32.38 234.909 32.38ZM242.682 37.204H245.202L250.296 24.586H247.794L245.688 30.238L243.402 24.586H240.594L244.338 33.046L242.682 37.204Z" fill="white"/>
<rect x="1" y="1" width="362" height="54" rx="3" stroke="#002F34" stroke-width="2"/>
</svg>
