<svg width="364" height="56" viewBox="0 0 364 56" fill="none" xmlns="http://www.w3.org/2000/svg">
<rect width="364" height="56" rx="4" fill="white"/>
<rect width="364" height="56" rx="4" fill="#007F7C" fill-opacity="0.1"/>
<path d="M148.613 34.198C151.781 34.198 154.067 32.56 154.391 29.374H151.529C151.295 31.03 150.179 31.84 148.577 31.84C146.453 31.84 145.229 30.292 145.229 27.628V27.484C145.229 24.82 146.525 23.236 148.559 23.236C150.179 23.236 151.043 24.064 151.259 25.612H154.247C153.941 22.444 151.637 20.932 148.541 20.932C144.887 20.932 142.151 23.596 142.151 27.502V27.646C142.151 31.606 144.401 34.198 148.613 34.198ZM160.44 32.218C158.964 32.218 158.136 31.138 158.136 29.338V29.194C158.136 27.394 159 26.35 160.44 26.35C161.898 26.35 162.744 27.43 162.744 29.23V29.356C162.744 31.138 161.898 32.218 160.44 32.218ZM160.422 34.198C163.248 34.198 165.39 32.308 165.39 29.338V29.194C165.39 26.26 163.266 24.37 160.44 24.37C157.614 24.37 155.472 26.296 155.472 29.248V29.392C155.472 32.326 157.614 34.198 160.422 34.198ZM167.139 34H169.749V28.564C169.749 27.178 170.595 26.494 171.711 26.494C172.863 26.494 173.367 27.106 173.367 28.384V34H175.977V28.006C175.977 25.486 174.663 24.37 172.809 24.37C171.243 24.37 170.217 25.144 169.749 26.08V24.586H167.139V34ZM181.652 34.18C182.354 34.18 182.876 34.054 183.236 33.928V31.912C182.93 32.038 182.642 32.092 182.246 32.092C181.58 32.092 181.202 31.732 181.202 30.976V26.44H183.182V24.586H181.202V22.552H178.61V24.586H177.404V26.44H178.61V31.21C178.61 33.172 179.672 34.18 181.652 34.18ZM185.071 34H187.663V24.586H185.071V34ZM186.349 23.308C187.195 23.308 187.843 22.696 187.843 21.886C187.843 21.076 187.195 20.464 186.349 20.464C185.521 20.464 184.873 21.076 184.873 21.886C184.873 22.696 185.521 23.308 186.349 23.308ZM190.061 34H192.671V28.564C192.671 27.178 193.517 26.494 194.633 26.494C195.785 26.494 196.289 27.106 196.289 28.384V34H198.899V28.006C198.899 25.486 197.585 24.37 195.731 24.37C194.165 24.37 193.139 25.144 192.671 26.08V24.586H190.061V34ZM204.267 34.198C205.815 34.198 206.769 33.478 207.255 32.524V34H209.847V24.586H207.255V30.112C207.255 31.498 206.391 32.182 205.293 32.182C204.177 32.182 203.655 31.57 203.655 30.292V24.586H201.063V30.652C201.063 33.118 202.431 34.198 204.267 34.198ZM216.495 34.198C219.069 34.198 220.689 33.064 220.995 31.03H218.529C218.367 31.822 217.773 32.344 216.567 32.344C215.145 32.344 214.299 31.444 214.227 29.878H221.013V29.158C221.013 25.792 218.853 24.37 216.423 24.37C213.687 24.37 211.581 26.296 211.581 29.266V29.41C211.581 32.416 213.651 34.198 216.495 34.198ZM214.263 28.276C214.461 26.944 215.253 26.17 216.423 26.17C217.665 26.17 218.385 26.854 218.475 28.276H214.263Z" fill="#002F34" fill-opacity="0.6"/>
<rect x="1" y="1" width="362" height="54" rx="3" stroke="#007F7C" stroke-opacity="0.2" stroke-width="2"/>
</svg>
