<svg width="36" height="15" viewBox="0 0 36 15" fill="none" xmlns="http://www.w3.org/2000/svg">
<path d="M7.002 14.162C9.882 14.162 11.934 12.704 12.384 9.734H10.926C10.602 11.822 9.144 12.884 7.038 12.884C4.266 12.884 2.61 10.904 2.61 7.628V7.484C2.61 4.244 4.392 2.174 7.056 2.174C9.252 2.174 10.386 3.182 10.71 5.144H12.258C11.988 2.354 9.72 0.932 7.038 0.932C3.546 0.932 0.99 3.686 0.99 7.502V7.646C0.99 11.606 3.276 14.162 7.002 14.162ZM17.8867 14H19.7587L24.2047 1.13H22.7287L18.8947 12.488L15.0607 1.13H13.5127L17.8867 14ZM29.664 14H31.536L35.982 1.13H34.506L30.672 12.488L26.838 1.13H25.29L29.664 14Z" fill="#002F34"/>
</svg>
