<svg width="232" height="17" viewBox="0 0 232 17" fill="none" xmlns="http://www.w3.org/2000/svg">
<path d="M2.824 10.984V3.576H3.848C6.264 3.576 7.272 4.84 7.272 7.192V7.32C7.272 9.688 6.184 10.984 3.88 10.984H2.824ZM0.232 13H3.96C7.976 13 9.976 10.712 9.976 7.288V7.16C9.976 3.736 7.992 1.56 3.976 1.56H0.232V13ZM11.6974 13H14.0014V4.632H11.6974V13ZM12.8334 3.496C13.5854 3.496 14.1614 2.952 14.1614 2.232C14.1614 1.512 13.5854 0.967999 12.8334 0.967999C12.0974 0.967999 11.5214 1.512 11.5214 2.232C11.5214 2.952 12.0974 3.496 12.8334 3.496ZM19.1734 13.176C21.3814 13.176 22.6934 12.232 22.6934 10.424C22.6934 8.632 21.5414 8.104 19.4454 7.8C18.2294 7.624 17.8294 7.416 17.8294 6.888C17.8294 6.376 18.2614 6.024 19.0134 6.024C19.8134 6.024 20.1974 6.344 20.3254 7.032H22.4534C22.2454 5.112 20.8534 4.44 18.9974 4.44C17.2854 4.44 15.6854 5.304 15.6854 7.048C15.6854 8.68 16.5494 9.32 18.7734 9.656C19.9734 9.832 20.4694 10.072 20.4694 10.648C20.4694 11.224 20.0534 11.56 19.1574 11.56C18.1494 11.56 17.7814 11.128 17.6854 10.376H15.5254C15.6054 12.184 16.9174 13.176 19.1734 13.176ZM27.9566 13.176C30.3886 13.176 31.8286 11.8 31.9566 9.816H29.8606C29.7486 10.888 28.9966 11.432 28.0686 11.432C26.7726 11.432 26.0206 10.568 26.0206 8.888V8.76C26.0206 7.16 26.8206 6.264 28.0206 6.264C28.9646 6.264 29.5566 6.712 29.7166 7.688H31.9086C31.7006 5.288 29.9086 4.44 27.9726 4.44C25.5886 4.44 23.6526 6.088 23.6526 8.792V8.92C23.6526 11.656 25.5086 13.176 27.9566 13.176ZM37.3186 11.416C36.0066 11.416 35.2706 10.456 35.2706 8.856V8.728C35.2706 7.128 36.0386 6.2 37.3186 6.2C38.6146 6.2 39.3666 7.16 39.3666 8.76V8.872C39.3666 10.456 38.6146 11.416 37.3186 11.416ZM37.3026 13.176C39.8146 13.176 41.7186 11.496 41.7186 8.856V8.728C41.7186 6.12 39.8306 4.44 37.3186 4.44C34.8066 4.44 32.9026 6.152 32.9026 8.776V8.904C32.9026 11.512 34.8066 13.176 37.3026 13.176ZM46.058 13.176C47.434 13.176 48.282 12.536 48.714 11.688V13H51.018V4.632H48.714V9.544C48.714 10.776 47.946 11.384 46.97 11.384C45.978 11.384 45.514 10.84 45.514 9.704V4.632H43.21V10.024C43.21 12.216 44.426 13.176 46.058 13.176ZM53.0709 13H55.3909V8.168C55.3909 6.936 56.1429 6.328 57.1349 6.328C58.1589 6.328 58.6069 6.872 58.6069 8.008V13H60.9269V7.672C60.9269 5.432 59.7589 4.44 58.1109 4.44C56.7189 4.44 55.8069 5.128 55.3909 5.96V4.632H53.0709V13ZM65.9706 13.16C66.5946 13.16 67.0586 13.048 67.3786 12.936V11.144C67.1066 11.256 66.8506 11.304 66.4986 11.304C65.9066 11.304 65.5706 10.984 65.5706 10.312V6.28H67.3306V4.632H65.5706V2.824H63.2666V4.632H62.1946V6.28H63.2666V10.52C63.2666 12.264 64.2106 13.16 65.9706 13.16ZM76.3968 11.416C75.0848 11.416 74.3488 10.456 74.3488 8.856V8.728C74.3488 7.128 75.1168 6.2 76.3968 6.2C77.6928 6.2 78.4448 7.16 78.4448 8.76V8.872C78.4448 10.456 77.6928 11.416 76.3968 11.416ZM76.3808 13.176C78.8928 13.176 80.7968 11.496 80.7968 8.856V8.728C80.7968 6.12 78.9088 4.44 76.3968 4.44C73.8848 4.44 71.9808 6.152 71.9808 8.776V8.904C71.9808 11.512 73.8848 13.176 76.3808 13.176ZM82.3521 13H84.6721V8.168C84.6721 6.936 85.4241 6.328 86.4161 6.328C87.4401 6.328 87.8881 6.872 87.8881 8.008V13H90.2081V7.672C90.2081 5.432 89.0401 4.44 87.3921 4.44C86.0001 4.44 85.0881 5.128 84.6721 5.96V4.632H82.3521V13ZM95.9508 13H100.655C103.295 13 104.671 11.896 104.671 9.8V9.736C104.671 8.2 103.871 7.352 102.383 7.048C103.663 6.68 104.239 5.8 104.239 4.6V4.536C104.239 2.584 102.943 1.56 100.447 1.56H95.9508V13ZM98.4788 11.208V7.928H100.127C101.535 7.928 102.111 8.472 102.111 9.528V9.592C102.111 10.632 101.535 11.208 100.255 11.208H98.4788ZM98.4788 6.264V3.336H100.015C101.231 3.336 101.775 3.768 101.775 4.728V4.792C101.775 5.816 101.279 6.264 100.031 6.264H98.4788ZM109.074 13.176C110.45 13.176 111.298 12.536 111.73 11.688V13H114.034V4.632H111.73V9.544C111.73 10.776 110.962 11.384 109.986 11.384C108.994 11.384 108.53 10.84 108.53 9.704V4.632H106.226V10.024C106.226 12.216 107.442 13.176 109.074 13.176ZM119.127 13.176C121.335 13.176 122.647 12.232 122.647 10.424C122.647 8.632 121.495 8.104 119.399 7.8C118.183 7.624 117.783 7.416 117.783 6.888C117.783 6.376 118.215 6.024 118.967 6.024C119.766 6.024 120.151 6.344 120.279 7.032H122.407C122.199 5.112 120.807 4.44 118.951 4.44C117.239 4.44 115.639 5.304 115.639 7.048C115.639 8.68 116.503 9.32 118.727 9.656C119.927 9.832 120.423 10.072 120.423 10.648C120.423 11.224 120.007 11.56 119.111 11.56C118.103 11.56 117.735 11.128 117.639 10.376H115.479C115.559 12.184 116.871 13.176 119.127 13.176ZM124.182 13H126.486V4.632H124.182V13ZM125.318 3.496C126.07 3.496 126.646 2.952 126.646 2.232C126.646 1.512 126.07 0.967999 125.318 0.967999C124.582 0.967999 124.006 1.512 124.006 2.232C124.006 2.952 124.582 3.496 125.318 3.496ZM128.618 13H130.938V8.168C130.938 6.936 131.69 6.328 132.682 6.328C133.706 6.328 134.154 6.872 134.154 8.008V13H136.474V7.672C136.474 5.432 135.306 4.44 133.658 4.44C132.266 4.44 131.354 5.128 130.938 5.96V4.632H128.618V13ZM142.318 13.176C144.606 13.176 146.046 12.168 146.318 10.36H144.126C143.982 11.064 143.454 11.528 142.382 11.528C141.118 11.528 140.366 10.728 140.302 9.336H146.334V8.696C146.334 5.704 144.414 4.44 142.254 4.44C139.822 4.44 137.95 6.152 137.95 8.792V8.92C137.95 11.592 139.789 13.176 142.318 13.176ZM140.334 7.912C140.51 6.728 141.214 6.04 142.254 6.04C143.358 6.04 143.998 6.648 144.078 7.912H140.334ZM150.97 13.176C153.178 13.176 154.49 12.232 154.49 10.424C154.49 8.632 153.338 8.104 151.242 7.8C150.026 7.624 149.626 7.416 149.626 6.888C149.626 6.376 150.058 6.024 150.81 6.024C151.61 6.024 151.994 6.344 152.122 7.032H154.25C154.042 5.112 152.65 4.44 150.794 4.44C149.082 4.44 147.482 5.304 147.482 7.048C147.482 8.68 148.346 9.32 150.57 9.656C151.77 9.832 152.266 10.072 152.266 10.648C152.266 11.224 151.85 11.56 150.954 11.56C149.946 11.56 149.578 11.128 149.482 10.376H147.322C147.402 12.184 148.714 13.176 150.97 13.176ZM159.002 13.176C161.21 13.176 162.522 12.232 162.522 10.424C162.522 8.632 161.37 8.104 159.274 7.8C158.058 7.624 157.658 7.416 157.658 6.888C157.658 6.376 158.09 6.024 158.842 6.024C159.641 6.024 160.026 6.344 160.154 7.032H162.282C162.074 5.112 160.682 4.44 158.826 4.44C157.114 4.44 155.514 5.304 155.514 7.048C155.514 8.68 156.378 9.32 158.602 9.656C159.802 9.832 160.298 10.072 160.298 10.648C160.298 11.224 159.882 11.56 158.986 11.56C157.978 11.56 157.61 11.128 157.514 10.376H155.354C155.434 12.184 156.746 13.176 159.002 13.176ZM167.748 13H170.324V8.84H171.78C174.388 8.84 176.068 7.688 176.068 5.272V5.208C176.068 2.792 174.484 1.56 171.7 1.56H167.748V13ZM170.324 7.032V3.528H171.636C172.868 3.528 173.572 4.008 173.572 5.224V5.288C173.572 6.424 172.9 7.032 171.636 7.032H170.324ZM179.577 13.176C180.889 13.176 181.625 12.664 182.105 11.992V13H184.361V7.544C184.361 5.272 182.905 4.44 180.857 4.44C178.809 4.44 177.241 5.32 177.097 7.304H179.289C179.385 6.584 179.801 6.12 180.713 6.12C181.769 6.12 182.073 6.664 182.073 7.656V7.992H181.129C178.569 7.992 176.777 8.728 176.777 10.68C176.777 12.44 178.057 13.176 179.577 13.176ZM180.265 11.56C179.417 11.56 179.049 11.16 179.049 10.552C179.049 9.656 179.833 9.368 181.177 9.368H182.073V10.072C182.073 11 181.289 11.56 180.265 11.56ZM190.144 13.176C192.576 13.176 194.016 11.8 194.144 9.816H192.048C191.936 10.888 191.184 11.432 190.256 11.432C188.96 11.432 188.208 10.568 188.208 8.888V8.76C188.208 7.16 189.008 6.264 190.208 6.264C191.152 6.264 191.744 6.712 191.904 7.688H194.096C193.888 5.288 192.096 4.44 190.16 4.44C187.776 4.44 185.84 6.088 185.84 8.792V8.92C185.84 11.656 187.696 13.176 190.144 13.176ZM195.602 13H197.922V9.048L200.69 13H203.314L200.034 8.44L203.074 4.632H200.61L197.922 8.168V0.839999H195.602V13ZM206.577 13.176C207.889 13.176 208.625 12.664 209.105 11.992V13H211.361V7.544C211.361 5.272 209.905 4.44 207.857 4.44C205.809 4.44 204.241 5.32 204.097 7.304H206.289C206.385 6.584 206.801 6.12 207.713 6.12C208.769 6.12 209.073 6.664 209.073 7.656V7.992H208.129C205.569 7.992 203.777 8.728 203.777 10.68C203.777 12.44 205.057 13.176 206.577 13.176ZM207.265 11.56C206.417 11.56 206.049 11.16 206.049 10.552C206.049 9.656 206.833 9.368 208.177 9.368H209.073V10.072C209.073 11 208.289 11.56 207.265 11.56ZM217.064 16.088C219.816 16.088 221.464 14.824 221.48 12.344V4.632H219.176V5.88C218.696 5.032 217.88 4.44 216.52 4.44C214.44 4.44 212.84 6.12 212.84 8.52V8.632C212.84 11.112 214.456 12.632 216.488 12.632C217.72 12.632 218.712 11.896 219.176 11.08V12.344C219.176 13.656 218.472 14.392 217.064 14.392C215.88 14.392 215.352 13.912 215.208 13.176H212.904C213.128 14.904 214.36 16.088 217.064 16.088ZM217.176 10.888C216.024 10.888 215.208 10.024 215.208 8.632V8.504C215.208 7.128 215.928 6.2 217.224 6.2C218.488 6.2 219.24 7.064 219.24 8.488V8.6C219.24 10.024 218.392 10.888 217.176 10.888ZM227.38 13.176C229.668 13.176 231.108 12.168 231.38 10.36H229.188C229.044 11.064 228.516 11.528 227.444 11.528C226.18 11.528 225.428 10.728 225.364 9.336H231.396V8.696C231.396 5.704 229.476 4.44 227.316 4.44C224.884 4.44 223.012 6.152 223.012 8.792V8.92C223.012 11.592 224.852 13.176 227.38 13.176ZM225.396 7.912C225.572 6.728 226.276 6.04 227.316 6.04C228.42 6.04 229.06 6.648 229.14 7.912H225.396Z" fill="white"/>
</svg>
