<svg width="127" height="18" viewBox="0 0 127 18" fill="none" xmlns="http://www.w3.org/2000/svg">
<path d="M0.62 14H8.45V12.722H2.186V8.06H6.974V6.782H2.186V2.408H8.126V1.13H0.62V14ZM9.7872 14H11.3892L13.9812 10.202L16.5192 14H18.2832L14.8452 9.05L17.9592 4.586H16.3392L14.0532 8.006L11.7492 4.586H10.0032L13.1532 9.158L9.7872 14ZM20.305 17.276H21.799V12.452C22.339 13.388 23.437 14.162 24.985 14.162C27.577 14.162 29.269 12.182 29.269 9.302V9.158C29.269 6.224 27.451 4.424 24.985 4.424C23.617 4.424 22.339 5.252 21.799 6.17V4.586H20.305V17.276ZM24.841 12.92C23.005 12.92 21.745 11.786 21.745 9.374V9.23C21.745 6.818 23.077 5.666 24.823 5.666C26.407 5.666 27.721 6.854 27.721 9.23V9.374C27.721 11.66 26.713 12.92 24.841 12.92ZM31.6261 14H33.1201V4.586H31.6261V14ZM32.3461 2.624C32.8861 2.624 33.3361 2.174 33.3361 1.634C33.3361 1.094 32.8861 0.643999 32.3461 0.643999C31.8061 0.643999 31.3561 1.094 31.3561 1.634C31.3561 2.174 31.8061 2.624 32.3461 2.624ZM36.178 14H37.672V8.834C37.672 6.512 38.878 5.918 40.768 5.828V4.424C39.076 4.478 38.266 5.216 37.672 6.278V4.586H36.178V14ZM45.2157 14.162C46.6017 14.162 47.4477 13.694 48.1497 12.812V14H49.6437V7.79C49.6437 5.162 48.0057 4.424 46.2057 4.424C44.3877 4.424 42.6777 5.216 42.4797 7.358H43.9737C44.1177 6.206 44.8377 5.666 46.1337 5.666C47.5737 5.666 48.1497 6.296 48.1497 7.79V8.474H46.7997C44.3877 8.474 42.0837 9.212 42.0837 11.39C42.0837 13.316 43.4697 14.162 45.2157 14.162ZM45.3597 12.974C44.0457 12.974 43.5777 12.362 43.5777 11.39C43.5777 10.004 44.9637 9.536 46.8537 9.536H48.1497V10.706C48.1497 12.164 46.9437 12.974 45.3597 12.974ZM55.4404 14.126C56.0524 14.126 56.4124 14.036 56.7184 13.928V12.668C56.3944 12.794 56.0344 12.866 55.5664 12.866C54.8104 12.866 54.3964 12.416 54.3964 11.498V5.846H56.5924V4.586H54.3964V2.444H52.9024V4.586H51.5524V5.846H52.9024V11.642C52.9024 13.118 53.7304 14.126 55.4404 14.126ZM59.0128 14H60.5068V4.586H59.0128V14ZM59.7328 2.624C60.2728 2.624 60.7228 2.174 60.7228 1.634C60.7228 1.094 60.2728 0.643999 59.7328 0.643999C59.1928 0.643999 58.7428 1.094 58.7428 1.634C58.7428 2.174 59.1928 2.624 59.7328 2.624ZM67.4887 12.92C65.5807 12.92 64.4107 11.516 64.4107 9.374V9.23C64.4107 7.07 65.5987 5.666 67.4887 5.666C69.3607 5.666 70.5667 7.07 70.5667 9.248V9.374C70.5667 11.498 69.3787 12.92 67.4887 12.92ZM67.4707 14.162C70.1527 14.162 72.1147 12.2 72.1147 9.356V9.212C72.1147 6.386 70.1527 4.424 67.4887 4.424C64.8247 4.424 62.8627 6.404 62.8627 9.23V9.374C62.8627 12.128 64.7887 14.162 67.4707 14.162ZM74.428 14H75.922V8.294C75.922 6.602 77.164 5.72 78.55 5.72C80.062 5.72 80.764 6.458 80.764 8.114V14H82.258V8.222C82.258 5.486 80.89 4.424 78.946 4.424C77.398 4.424 76.354 5.198 75.922 6.08V4.586H74.428V14ZM91.6235 12.722V2.39H93.3695C96.9155 2.39 98.3555 4.478 98.3555 7.448V7.592C98.3555 10.742 96.6995 12.722 93.3875 12.722H91.6235ZM90.0575 14H93.4235C97.9235 14 99.9755 11.174 99.9755 7.61V7.448C99.9755 3.866 97.8875 1.13 93.4595 1.13H90.0575V14ZM104.841 14.162C106.227 14.162 107.073 13.694 107.775 12.812V14H109.269V7.79C109.269 5.162 107.631 4.424 105.831 4.424C104.013 4.424 102.303 5.216 102.105 7.358H103.599C103.743 6.206 104.463 5.666 105.759 5.666C107.199 5.666 107.775 6.296 107.775 7.79V8.474H106.425C104.013 8.474 101.709 9.212 101.709 11.39C101.709 13.316 103.095 14.162 104.841 14.162ZM104.985 12.974C103.671 12.974 103.203 12.362 103.203 11.39C103.203 10.004 104.589 9.536 106.479 9.536H107.775V10.706C107.775 12.164 106.569 12.974 104.985 12.974ZM115.065 14.126C115.677 14.126 116.037 14.036 116.343 13.928V12.668C116.019 12.794 115.659 12.866 115.191 12.866C114.435 12.866 114.021 12.416 114.021 11.498V5.846H116.217V4.586H114.021V2.444H112.527V4.586H111.177V5.846H112.527V11.642C112.527 13.118 113.355 14.126 115.065 14.126ZM122.454 14.162C124.578 14.162 126.144 13.172 126.468 11.282H124.974C124.776 12.38 123.93 12.92 122.472 12.92C120.546 12.92 119.52 11.732 119.448 9.59H126.54V9.104C126.54 5.738 124.488 4.424 122.31 4.424C119.718 4.424 117.9 6.404 117.9 9.248V9.392C117.9 12.29 119.79 14.162 122.454 14.162ZM119.502 8.384C119.754 6.71 120.78 5.666 122.31 5.666C123.858 5.666 124.866 6.44 125.01 8.384H119.502Z" fill="#002F34"/>
</svg>
