<svg width="119" height="15" viewBox="0 0 119 15" fill="none" xmlns="http://www.w3.org/2000/svg">
<path d="M0.62 14H2.114V2.966L8.612 14H10.412V1.13H8.918V11.768L2.654 1.13H0.62V14ZM15.8954 14.162C17.2814 14.162 18.1274 13.694 18.8294 12.812V14H20.3234V7.79C20.3234 5.162 18.6854 4.424 16.8854 4.424C15.0674 4.424 13.3574 5.216 13.1594 7.358H14.6534C14.7974 6.206 15.5174 5.666 16.8134 5.666C18.2534 5.666 18.8294 6.296 18.8294 7.79V8.474H17.4794C15.0674 8.474 12.7634 9.212 12.7634 11.39C12.7634 13.316 14.1494 14.162 15.8954 14.162ZM16.0394 12.974C14.7254 12.974 14.2574 12.362 14.2574 11.39C14.2574 10.004 15.6434 9.536 17.5334 9.536H18.8294V10.706C18.8294 12.164 17.6234 12.974 16.0394 12.974ZM23.2581 14H24.7521V8.24C24.7521 6.548 26.0121 5.72 27.2361 5.72C28.5321 5.72 29.2341 6.404 29.2341 8.06V14H30.7281V8.24C30.7281 6.548 31.9881 5.72 33.2121 5.72C34.5081 5.72 35.2101 6.404 35.2101 8.06V14H36.7041V8.168C36.7041 5.432 35.2281 4.424 33.5361 4.424C32.3661 4.424 30.9621 4.964 30.3141 6.188C29.8281 4.928 28.7661 4.424 27.5601 4.424C26.2101 4.424 25.1841 5.144 24.7521 6.026V4.586H23.2581V14ZM43.4929 14.162C45.6169 14.162 47.1829 13.172 47.5069 11.282H46.0129C45.8149 12.38 44.9689 12.92 43.5109 12.92C41.5849 12.92 40.5589 11.732 40.4869 9.59H47.5789V9.104C47.5789 5.738 45.5269 4.424 43.3489 4.424C40.7569 4.424 38.9389 6.404 38.9389 9.248V9.392C38.9389 12.29 40.8289 14.162 43.4929 14.162ZM40.5409 8.384C40.7929 6.71 41.8189 5.666 43.3489 5.666C44.8969 5.666 45.9049 6.44 46.0489 8.384H40.5409ZM58.559 12.92C56.651 12.92 55.481 11.516 55.481 9.374V9.23C55.481 7.07 56.669 5.666 58.559 5.666C60.431 5.666 61.637 7.07 61.637 9.248V9.374C61.637 11.498 60.449 12.92 58.559 12.92ZM58.541 14.162C61.223 14.162 63.185 12.2 63.185 9.356V9.212C63.185 6.386 61.223 4.424 58.559 4.424C55.895 4.424 53.933 6.404 53.933 9.23V9.374C53.933 12.128 55.859 14.162 58.541 14.162ZM65.4983 14H66.9923V8.294C66.9923 6.602 68.2343 5.72 69.6203 5.72C71.1323 5.72 71.8343 6.458 71.8343 8.114V14H73.3283V8.222C73.3283 5.486 71.9603 4.424 70.0163 4.424C68.4683 4.424 67.4243 5.198 66.9923 6.08V4.586H65.4983V14ZM86.5098 14.162C89.3898 14.162 91.4418 12.704 91.8918 9.734H90.4338C90.1098 11.822 88.6518 12.884 86.5458 12.884C83.7738 12.884 82.1178 10.904 82.1178 7.628V7.484C82.1178 4.244 83.8998 2.174 86.5638 2.174C88.7598 2.174 89.8938 3.182 90.2178 5.144H91.7658C91.4958 2.354 89.2278 0.932 86.5458 0.932C83.0538 0.932 80.4978 3.686 80.4978 7.502V7.646C80.4978 11.606 82.7838 14.162 86.5098 14.162ZM96.702 14.162C98.088 14.162 98.934 13.694 99.636 12.812V14H101.13V7.79C101.13 5.162 99.492 4.424 97.692 4.424C95.874 4.424 94.164 5.216 93.966 7.358H95.46C95.604 6.206 96.324 5.666 97.62 5.666C99.06 5.666 99.636 6.296 99.636 7.79V8.474H98.286C95.874 8.474 93.57 9.212 93.57 11.39C93.57 13.316 94.956 14.162 96.702 14.162ZM96.846 12.974C95.532 12.974 95.064 12.362 95.064 11.39C95.064 10.004 96.45 9.536 98.34 9.536H99.636V10.706C99.636 12.164 98.43 12.974 96.846 12.974ZM104.065 14H105.559V8.834C105.559 6.512 106.765 5.918 108.655 5.828V4.424C106.963 4.478 106.153 5.216 105.559 6.278V4.586H104.065V14ZM114.115 14.162C115.483 14.162 116.797 13.298 117.337 12.38V14H118.831V0.0859989H117.337V6.098C116.797 5.18 115.825 4.424 114.259 4.424C111.667 4.424 109.867 6.458 109.867 9.338V9.482C109.867 12.416 111.649 14.162 114.115 14.162ZM114.277 12.92C112.693 12.92 111.415 11.786 111.415 9.41V9.266C111.415 6.98 112.531 5.666 114.403 5.666C116.239 5.666 117.391 6.8 117.391 9.212V9.356C117.391 11.768 116.023 12.92 114.277 12.92Z" fill="#002F34"/>
</svg>
