<svg width="176" height="24" viewBox="0 0 176 24" fill="none" xmlns="http://www.w3.org/2000/svg">
<path d="M8.48 19.24C12.56 19.24 15.488 17.152 15.992 13.024H12.872C12.536 15.448 10.856 16.648 8.48 16.648C5.312 16.648 3.464 14.368 3.464 10.504V10.312C3.464 6.472 5.432 4.12 8.456 4.12C10.928 4.12 12.2 5.296 12.56 7.576H15.8C15.416 3.544 12.368 1.576 8.432 1.576C3.656 1.576 0.104 5.176 0.104 10.336V10.528C0.104 15.808 3.104 19.24 8.48 19.24ZM23.3623 19.24C25.2823 19.24 26.3863 18.544 27.2023 17.464V19H30.0583V10.768C30.0583 7.336 27.8503 6.184 25.0423 6.184C22.2343 6.184 19.9063 7.408 19.6663 10.336H22.4743C22.6183 9.088 23.3623 8.368 24.8743 8.368C26.5783 8.368 27.1543 9.208 27.1543 10.888V11.536H25.5943C21.9943 11.536 19.1623 12.592 19.1623 15.52C19.1623 18.136 21.0583 19.24 23.3623 19.24ZM24.0583 17.152C22.6183 17.152 22.0423 16.456 22.0423 15.4C22.0423 13.864 23.4583 13.36 25.6663 13.36H27.1543V14.608C27.1543 16.216 25.8343 17.152 24.0583 17.152ZM34.8268 19H37.7308V12.472C37.7308 9.808 39.2668 8.992 41.8108 8.968V6.256C39.6988 6.28 38.5228 7.216 37.7308 8.8V6.448H34.8268V19ZM50.2754 19.24C52.1234 19.24 53.7314 18.136 54.4034 16.888V19H57.3074V0.639999H54.4034V8.368C53.7074 7.12 52.4354 6.184 50.3954 6.184C47.1314 6.184 44.7554 8.728 44.7554 12.736V12.928C44.7554 17.008 47.1314 19.24 50.2754 19.24ZM50.9954 16.936C49.1234 16.936 47.7314 15.616 47.7314 12.856V12.664C47.7314 9.952 48.9794 8.464 51.1154 8.464C53.2274 8.464 54.4994 9.832 54.4994 12.592V12.784C54.4994 15.592 53.0114 16.936 50.9954 16.936ZM69.5977 19H72.7897V12.472H75.1897C78.8617 12.472 81.4777 10.864 81.4777 7.24V7.144C81.4777 3.544 78.9577 1.84 75.1177 1.84H69.5977V19ZM72.7897 10.168V4.312H75.1177C77.1577 4.312 78.3577 5.104 78.3577 7.144V7.24C78.3577 9.136 77.2297 10.168 75.1177 10.168H72.7897ZM88.4763 19.24C90.3963 19.24 91.5003 18.544 92.3163 17.464V19H95.1723V10.768C95.1723 7.336 92.9643 6.184 90.1563 6.184C87.3483 6.184 85.0203 7.408 84.7803 10.336H87.5883C87.7323 9.088 88.4763 8.368 89.9883 8.368C91.6923 8.368 92.2683 9.208 92.2683 10.888V11.536H90.7083C87.1083 11.536 84.2763 12.592 84.2763 15.52C84.2763 18.136 86.1723 19.24 88.4763 19.24ZM89.1723 17.152C87.7323 17.152 87.1563 16.456 87.1563 15.4C87.1563 13.864 88.5723 13.36 90.7803 13.36H92.2683V14.608C92.2683 16.216 90.9483 17.152 89.1723 17.152ZM100.981 23.296H103.837L110.677 6.448H107.845L104.773 14.536L101.437 6.448H98.2933L103.261 17.728L100.981 23.296ZM114.295 19H117.199V11.488C117.199 9.568 118.519 8.608 119.959 8.608C121.375 8.608 122.191 9.4 122.191 11.248V19H125.095V11.488C125.095 9.568 126.415 8.608 127.855 8.608C129.295 8.608 130.087 9.4 130.087 11.248V19H132.991V11.056C132.991 7.6 131.119 6.184 128.815 6.184C127.255 6.184 125.527 6.88 124.567 8.44C123.943 6.88 122.647 6.184 121.015 6.184C119.167 6.184 117.799 7.192 117.199 8.368V6.448H114.295V19ZM143.286 19.24C146.502 19.24 148.638 17.8 149.046 15.16H146.238C146.022 16.384 145.11 17.08 143.358 17.08C141.198 17.08 139.998 15.736 139.902 13.36H149.094V12.52C149.094 8.032 146.286 6.184 143.166 6.184C139.59 6.184 136.926 8.776 136.926 12.664V12.856C136.926 16.816 139.59 19.24 143.286 19.24ZM139.95 11.416C140.238 9.472 141.414 8.296 143.166 8.296C144.966 8.296 146.07 9.256 146.214 11.416H139.95ZM153.128 19H156.032V11.608C156.032 9.616 157.352 8.608 158.984 8.608C160.712 8.608 161.48 9.472 161.48 11.368V19H164.384V11.104C164.384 7.648 162.608 6.184 160.088 6.184C158.024 6.184 156.632 7.216 156.032 8.44V6.448H153.128V19ZM173.442 19.216C174.33 19.216 174.954 19.072 175.41 18.904V16.6C175.002 16.768 174.57 16.84 173.994 16.84C173.082 16.84 172.554 16.336 172.554 15.232V8.632H175.314V6.448H172.554V3.688H169.65V6.448H167.97V8.632H169.65V15.496C169.65 17.872 170.946 19.216 173.442 19.216Z" fill="#002F34"/>
</svg>
