<svg width="225" height="24" viewBox="0 0 225 24" fill="none" xmlns="http://www.w3.org/2000/svg">
<path d="M0.968 19H4.16V12.472H6.56C10.232 12.472 12.848 10.864 12.848 7.24V7.144C12.848 3.544 10.328 1.84 6.488 1.84H0.968V19ZM4.16 10.168V4.312H6.488C8.528 4.312 9.728 5.104 9.728 7.144V7.24C9.728 9.136 8.6 10.168 6.488 10.168H4.16ZM19.8466 19.24C21.7666 19.24 22.8706 18.544 23.6866 17.464V19H26.5426V10.768C26.5426 7.336 24.3346 6.184 21.5266 6.184C18.7186 6.184 16.3906 7.408 16.1506 10.336H18.9586C19.1026 9.088 19.8466 8.368 21.3586 8.368C23.0626 8.368 23.6386 9.208 23.6386 10.888V11.536H22.0786C18.4786 11.536 15.6466 12.592 15.6466 15.52C15.6466 18.136 17.5426 19.24 19.8466 19.24ZM20.5426 17.152C19.1026 17.152 18.5266 16.456 18.5266 15.4C18.5266 13.864 19.9426 13.36 22.1506 13.36H23.6386V14.608C23.6386 16.216 22.3186 17.152 20.5426 17.152ZM32.3516 23.296H35.2076L42.0476 6.448H39.2156L36.1436 14.536L32.8076 6.448H29.6636L34.6316 17.728L32.3516 23.296ZM45.6652 19H48.5692V11.488C48.5692 9.568 49.8892 8.608 51.3292 8.608C52.7452 8.608 53.5612 9.4 53.5612 11.248V19H56.4652V11.488C56.4652 9.568 57.7852 8.608 59.2252 8.608C60.6652 8.608 61.4572 9.4 61.4572 11.248V19H64.3612V11.056C64.3612 7.6 62.4892 6.184 60.1852 6.184C58.6252 6.184 56.8972 6.88 55.9372 8.44C55.3132 6.88 54.0172 6.184 52.3852 6.184C50.5372 6.184 49.1692 7.192 48.5692 8.368V6.448H45.6652V19ZM74.6564 19.24C77.8724 19.24 80.0084 17.8 80.4164 15.16H77.6084C77.3924 16.384 76.4804 17.08 74.7284 17.08C72.5684 17.08 71.3684 15.736 71.2724 13.36H80.4644V12.52C80.4644 8.032 77.6564 6.184 74.5364 6.184C70.9604 6.184 68.2964 8.776 68.2964 12.664V12.856C68.2964 16.816 70.9604 19.24 74.6564 19.24ZM71.3204 11.416C71.6084 9.472 72.7844 8.296 74.5364 8.296C76.3364 8.296 77.4404 9.256 77.5844 11.416H71.3204ZM84.4983 19H87.4023V11.608C87.4023 9.616 88.7223 8.608 90.3543 8.608C92.0823 8.608 92.8503 9.472 92.8503 11.368V19H95.7543V11.104C95.7543 7.648 93.9783 6.184 91.4583 6.184C89.3943 6.184 88.0023 7.216 87.4023 8.44V6.448H84.4983V19ZM104.812 19.216C105.7 19.216 106.324 19.072 106.78 18.904V16.6C106.372 16.768 105.94 16.84 105.364 16.84C104.452 16.84 103.924 16.336 103.924 15.232V8.632H106.684V6.448H103.924V3.688H101.02V6.448H99.3399V8.632H101.02V15.496C101.02 17.872 102.316 19.216 104.812 19.216ZM118.238 19H121.118V6.04L126.326 19H127.358L132.47 6.04V19H135.662V1.84H131.438L127.022 13.552L122.51 1.84H118.238V19ZM146.192 19.24C149.408 19.24 151.544 17.8 151.952 15.16H149.144C148.928 16.384 148.016 17.08 146.264 17.08C144.104 17.08 142.904 15.736 142.808 13.36H152V12.52C152 8.032 149.192 6.184 146.072 6.184C142.496 6.184 139.832 8.776 139.832 12.664V12.856C139.832 16.816 142.496 19.24 146.192 19.24ZM142.856 11.416C143.144 9.472 144.32 8.296 146.072 8.296C147.872 8.296 148.976 9.256 149.12 11.416H142.856ZM160.306 19.216C161.194 19.216 161.818 19.072 162.274 18.904V16.6C161.866 16.768 161.434 16.84 160.858 16.84C159.946 16.84 159.418 16.336 159.418 15.232V8.632H162.178V6.448H159.418V3.688H156.514V6.448H154.834V8.632H156.514V15.496C156.514 17.872 157.81 19.216 160.306 19.216ZM166.334 19H169.238V11.608C169.238 9.616 170.558 8.608 172.19 8.608C173.918 8.608 174.686 9.472 174.686 11.368V19H177.59V11.104C177.59 7.648 175.814 6.184 173.294 6.184C171.23 6.184 169.838 7.216 169.238 8.44V0.639999H166.334V19ZM187.991 16.984C185.783 16.984 184.511 15.376 184.511 12.808V12.616C184.511 10.024 185.831 8.464 187.991 8.464C190.151 8.464 191.447 10.048 191.447 12.64V12.808C191.447 15.376 190.151 16.984 187.991 16.984ZM187.967 19.24C191.663 19.24 194.423 16.696 194.423 12.784V12.592C194.423 8.752 191.663 6.184 187.991 6.184C184.295 6.184 181.535 8.776 181.535 12.664V12.856C181.535 16.672 184.271 19.24 187.967 19.24ZM203.191 19.24C205.039 19.24 206.647 18.136 207.319 16.888V19H210.223V0.639999H207.319V8.368C206.623 7.12 205.351 6.184 203.311 6.184C200.047 6.184 197.671 8.728 197.671 12.736V12.928C197.671 17.008 200.047 19.24 203.191 19.24ZM203.911 16.936C202.039 16.936 200.647 15.616 200.647 12.856V12.664C200.647 9.952 201.895 8.464 204.031 8.464C206.143 8.464 207.415 9.832 207.415 12.592V12.784C207.415 15.592 205.927 16.936 203.911 16.936ZM219.411 19.24C222.627 19.24 224.427 17.776 224.427 15.232C224.427 12.568 222.675 11.848 219.723 11.392C217.731 11.056 217.131 10.696 217.131 9.784C217.131 8.896 217.875 8.296 219.123 8.296C220.467 8.296 221.115 8.824 221.355 9.976H224.043C223.731 7.144 221.691 6.184 219.123 6.184C216.771 6.184 214.419 7.432 214.419 9.952C214.419 12.304 215.643 13.24 218.955 13.768C220.803 14.08 221.643 14.464 221.643 15.496C221.643 16.552 220.947 17.104 219.387 17.104C217.683 17.104 217.035 16.36 216.891 15.088H214.155C214.275 17.752 216.171 19.24 219.411 19.24Z" fill="#002F34"/>
</svg>
