<svg width="102" height="18" viewBox="0 0 102 18" fill="none" xmlns="http://www.w3.org/2000/svg">
<path d="M0.476 14H2.654V4.136L8.45 14H10.934V1.13H8.756V10.436L3.338 1.13H0.476V14ZM17.7602 14.18C20.1722 14.18 21.7742 13.1 22.0802 11.12H19.9742C19.8122 12.038 19.1282 12.56 17.8142 12.56C16.1942 12.56 15.2942 11.552 15.2222 9.77H22.1162V9.14C22.1162 5.774 20.0102 4.388 17.6702 4.388C14.9882 4.388 12.9902 6.332 12.9902 9.248V9.392C12.9902 12.362 14.9882 14.18 17.7602 14.18ZM15.2582 8.312C15.4742 6.854 16.3562 5.972 17.6702 5.972C19.0202 5.972 19.8482 6.692 19.9562 8.312H15.2582ZM27.2656 14.162C27.9316 14.162 28.3996 14.054 28.7416 13.928V12.2C28.4356 12.326 28.1116 12.38 27.6796 12.38C26.9956 12.38 26.5996 12.002 26.5996 11.174V6.224H28.6696V4.586H26.5996V2.516H24.4216V4.586H23.1616V6.224H24.4216V11.372C24.4216 13.154 25.3936 14.162 27.2656 14.162ZM35.1752 14H40.1252C42.9512 14 44.5352 12.794 44.5352 10.4V10.328C44.5352 8.618 43.7072 7.664 41.9612 7.286C43.4192 6.836 43.9952 5.828 43.9952 4.55V4.478C43.9952 2.138 42.4292 1.13 39.7832 1.13H35.1752V14ZM37.5152 12.29V8.168H39.6752C41.4392 8.168 42.1772 8.834 42.1772 10.166V10.238C42.1772 11.57 41.4392 12.29 39.8372 12.29H37.5152ZM37.5152 6.548V2.84H39.4592C40.9892 2.84 41.6912 3.362 41.6912 4.586V4.658C41.6912 5.972 41.0792 6.548 39.4952 6.548H37.5152ZM49.0628 14.18C50.5028 14.18 51.3308 13.658 51.9428 12.848V14H54.0848V7.826C54.0848 5.252 52.4288 4.388 50.3228 4.388C48.2168 4.388 46.4708 5.306 46.2908 7.502H48.3968C48.5048 6.566 49.0628 6.026 50.1968 6.026C51.4748 6.026 51.9068 6.656 51.9068 7.916V8.402H50.7368C48.0368 8.402 45.9128 9.194 45.9128 11.39C45.9128 13.352 47.3348 14.18 49.0628 14.18ZM49.5848 12.614C48.5048 12.614 48.0728 12.092 48.0728 11.3C48.0728 10.148 49.1348 9.77 50.7908 9.77H51.9068V10.706C51.9068 11.912 50.9168 12.614 49.5848 12.614ZM56.5812 14H58.7592V8.456C58.7592 6.962 59.7492 6.206 60.9732 6.206C62.2692 6.206 62.8452 6.854 62.8452 8.276V14H65.0232V8.078C65.0232 5.486 63.6912 4.388 61.8012 4.388C60.2532 4.388 59.2092 5.162 58.7592 6.08V4.586H56.5812V14ZM67.5323 14H69.7103V9.374L73.2383 14H75.7583L71.7983 8.906L75.4523 4.586H73.0763L69.7103 8.726V0.229999H67.5323V14ZM77.307 14H79.485V4.586H77.307V14ZM78.369 3.038C79.089 3.038 79.665 2.498 79.665 1.796C79.665 1.076 79.089 0.536 78.369 0.536C77.649 0.536 77.073 1.076 77.073 1.796C77.073 2.498 77.649 3.038 78.369 3.038ZM82.1398 14H84.3178V8.456C84.3178 6.962 85.3078 6.206 86.5318 6.206C87.8278 6.206 88.4038 6.854 88.4038 8.276V14H90.5818V8.078C90.5818 5.486 89.2498 4.388 87.3598 4.388C85.8118 4.388 84.7678 5.162 84.3178 6.08V4.586H82.1398V14ZM97.1049 17.456C100.021 17.456 101.875 16.07 101.893 13.298V4.586H99.7149V6.026C99.1749 5.09 98.2389 4.388 96.6909 4.388C94.2609 4.388 92.4609 6.368 92.4609 9.014V9.14C92.4609 11.858 94.2789 13.622 96.6369 13.622C98.0229 13.622 99.1929 12.776 99.7149 11.876V13.262C99.7149 14.954 98.7789 15.8 97.0869 15.8C95.6649 15.8 94.9449 15.26 94.7649 14.324H92.5689C92.8209 16.124 94.1529 17.456 97.1049 17.456ZM97.1769 11.948C95.7729 11.948 94.6929 10.868 94.6929 9.122V8.978C94.6929 7.268 95.6289 6.098 97.2489 6.098C98.8149 6.098 99.7869 7.16 99.7869 8.942V9.068C99.7869 10.868 98.6889 11.948 97.1769 11.948Z" fill="#002F34"/>
</svg>
