<svg width="267" height="16" viewBox="0 0 267 16" fill="none" xmlns="http://www.w3.org/2000/svg">
<path d="M5.08 15H7.76V8.82L12.24 0.699999H9.64L6.5 6.62L3.28 0.699999H0.34L5.08 8.8V15ZM19.782 13.06C17.182 13.06 15.282 11.04 15.282 7.92V7.76C15.282 4.68 16.942 2.62 19.742 2.62C22.542 2.62 24.182 4.8 24.182 7.74V7.9C24.182 11 22.482 13.06 19.782 13.06ZM19.742 15.2C24.082 15.2 26.942 12.06 26.942 7.88V7.72C26.942 3.52 24.002 0.5 19.742 0.5C15.502 0.5 12.502 3.6 12.502 7.78V7.94C12.502 12.06 15.362 15.2 19.742 15.2ZM35.0111 15.2C38.7911 15.2 40.8111 13.14 40.8111 9.4V0.699999H38.1311V9.18C38.1311 12.14 37.0911 13.06 35.0311 13.06C32.9111 13.06 32.0711 11.98 32.0711 9.36V0.699999H29.3911V9.56C29.3911 13.24 31.4311 15.2 35.0111 15.2ZM43.9642 15H46.6242V9.22H48.3242L52.0642 15H54.9442L50.9242 8.82C52.7042 8.36 54.1042 7.22 54.1042 4.98V4.9C54.1042 1.98 51.9042 0.699999 48.7642 0.699999H43.9642V15ZM46.6242 7.32V2.76H48.7642C50.4642 2.76 51.4842 3.32 51.4842 4.96V5.04C51.4842 6.56 50.5442 7.32 48.7642 7.32H46.6242ZM60.7353 15H63.2353L64.3553 11.46H69.8153L70.9553 15H73.7153L68.9953 0.699999H65.5153L60.7353 15ZM67.0953 2.88L69.1953 9.52H64.9753L67.0953 2.88ZM78.5578 12.9V2.8H80.0978C83.4578 2.8 84.8578 4.66 84.8578 7.74V7.9C84.8578 11.06 83.3178 12.9 80.1178 12.9H78.5578ZM75.8978 15H80.1978C85.2178 15 87.6378 12.04 87.6378 7.88V7.7C87.6378 3.54 85.2178 0.699999 80.2378 0.699999H75.8978V15ZM97.3808 15H99.9208L102.821 4.58L105.641 15H108.301L111.881 0.699999H109.401L106.841 11.26L104.001 0.699999H101.801L99.0208 11.2L96.5408 0.699999H93.8208L97.3808 15ZM111.634 15H114.134L115.254 11.46H120.714L121.854 15H124.614L119.894 0.699999H116.414L111.634 15ZM117.994 2.88L120.094 9.52H115.874L117.994 2.88ZM131.363 15.2C134.523 15.2 136.623 13.26 136.623 10.78C136.623 7.92 134.883 6.96 131.523 6.5C129.043 6.14 128.563 5.56 128.563 4.4C128.563 3.3 129.403 2.52 131.023 2.52C132.663 2.52 133.523 3.16 133.783 4.66H136.223C135.943 1.92 134.103 0.519999 131.023 0.519999C128.043 0.519999 126.043 2.28 126.043 4.62C126.043 7.3 127.663 8.34 131.083 8.8C133.403 9.18 134.063 9.68 134.063 11C134.063 12.32 132.943 13.2 131.363 13.2C128.943 13.2 128.363 12 128.183 10.56H125.623C125.823 13.26 127.463 15.2 131.363 15.2ZM143.964 15H146.384V4.04L152.824 15H155.584V0.699999H153.164V11.04L147.144 0.699999H143.964V15ZM165.427 13.06C162.827 13.06 160.927 11.04 160.927 7.92V7.76C160.927 4.68 162.587 2.62 165.387 2.62C168.187 2.62 169.827 4.8 169.827 7.74V7.9C169.827 11 168.127 13.06 165.427 13.06ZM165.387 15.2C169.727 15.2 172.587 12.06 172.587 7.88V7.72C172.587 3.52 169.647 0.5 165.387 0.5C161.147 0.5 158.147 3.6 158.147 7.78V7.94C158.147 12.06 161.007 15.2 165.387 15.2ZM177.41 15H180.09V2.8H184.07V0.699999H173.43V2.8H177.41V15ZM190.976 15H193.636V9.56H195.636C198.696 9.56 200.876 8.22 200.876 5.2V5.12C200.876 2.12 198.776 0.699999 195.576 0.699999H190.976V15ZM193.636 7.64V2.76H195.576C197.276 2.76 198.276 3.42 198.276 5.12V5.2C198.276 6.78 197.336 7.64 195.576 7.64H193.636ZM209.821 13.06C207.221 13.06 205.321 11.04 205.321 7.92V7.76C205.321 4.68 206.981 2.62 209.781 2.62C212.581 2.62 214.221 4.8 214.221 7.74V7.9C214.221 11 212.521 13.06 209.821 13.06ZM209.781 15.2C214.121 15.2 216.981 12.06 216.981 7.88V7.72C216.981 3.52 214.041 0.5 209.781 0.5C205.541 0.5 202.541 3.6 202.541 7.78V7.94C202.541 12.06 205.401 15.2 209.781 15.2ZM224.215 15.2C227.375 15.2 229.475 13.26 229.475 10.78C229.475 7.92 227.735 6.96 224.375 6.5C221.895 6.14 221.415 5.56 221.415 4.4C221.415 3.3 222.255 2.52 223.875 2.52C225.515 2.52 226.375 3.16 226.635 4.66H229.075C228.795 1.92 226.955 0.519999 223.875 0.519999C220.895 0.519999 218.895 2.28 218.895 4.62C218.895 7.3 220.515 8.34 223.935 8.8C226.255 9.18 226.915 9.68 226.915 11C226.915 12.32 225.795 13.2 224.215 13.2C221.795 13.2 221.215 12 221.035 10.56H218.475C218.675 13.26 220.315 15.2 224.215 15.2ZM234.52 15H237.2V2.8H241.18V0.699999H230.54V2.8H234.52V15ZM243.32 15H252.6V12.9H245.98V8.72H251.02V6.72H245.98V2.8H252.26V0.699999H243.32V15ZM257.659 12.9V2.8H259.199C262.559 2.8 263.959 4.66 263.959 7.74V7.9C263.959 11.06 262.419 12.9 259.219 12.9H257.659ZM254.999 15H259.299C264.319 15 266.739 12.04 266.739 7.88V7.7C266.739 3.54 264.319 0.699999 259.339 0.699999H254.999V15Z" fill="#002F34"/>
</svg>
