<svg width="146" height="40" viewBox="0 0 146 40" fill="none" xmlns="http://www.w3.org/2000/svg">
<path d="M1 5C1 2.79086 2.79086 1 5 1H141C143.209 1 145 2.79086 145 5V35C145 37.2091 143.209 39 141 39H5C2.79086 39 1 37.2091 1 35V5Z" fill="#002F34"/>
<path d="M12.724 25H15.188L19.06 13.56H17.06L14.068 22.84L11.092 13.56H8.868L12.724 25ZM20.7979 25H22.9419V13.56H20.7979V25ZM25.6401 25H33.0641V23.32H27.7681V19.976H31.8001V18.376H27.7681V15.24H32.7921V13.56H25.6401V25ZM36.9359 25H38.9679L41.2879 16.664L43.5439 25H45.6719L48.5359 13.56H46.5519L44.5039 22.008L42.2319 13.56H40.4719L38.2479 21.96L36.2639 13.56H34.0879L36.9359 25ZM54.0776 25H56.2056V20.648H57.8056C60.2536 20.648 61.9976 19.576 61.9976 17.16V17.096C61.9976 14.696 60.3176 13.56 57.7576 13.56H54.0776V25ZM56.2056 19.112V15.208H57.7576C59.1176 15.208 59.9176 15.736 59.9176 17.096V17.16C59.9176 18.424 59.1656 19.112 57.7576 19.112H56.2056ZM62.1508 25H64.1508L65.0468 22.168H69.4148L70.3268 25H72.5348L68.7588 13.56H65.9748L62.1508 25ZM67.2388 15.304L68.9188 20.616H65.5428L67.2388 15.304ZM78.6481 25.16C81.3681 25.16 83.3201 23.768 83.6561 21.016H81.5761C81.3521 22.632 80.2321 23.432 78.6481 23.432C76.5361 23.432 75.3041 21.912 75.3041 19.336V19.208C75.3041 16.648 76.6161 15.08 78.6321 15.08C80.2801 15.08 81.1281 15.864 81.3681 17.384H83.5281C83.2721 14.696 81.2401 13.384 78.6161 13.384C75.4321 13.384 73.0641 15.784 73.0641 19.224V19.352C73.0641 22.872 75.0641 25.16 78.6481 25.16ZM85.4995 25H87.6275V19.656L92.0275 25H94.5395L89.5635 19.016L94.2995 13.544H92.0115L87.6275 18.744V13.56H85.4995V25ZM95.1664 25H97.1664L98.0624 22.168H102.43L103.342 25H105.55L101.774 13.56H98.9904L95.1664 25ZM100.254 15.304L101.934 20.616H98.5584L100.254 15.304ZM111.792 25.16C115.024 25.16 117.008 23.24 117.008 20.072V19.016H112.032V20.616H114.912C114.848 22.2 113.968 23.496 111.824 23.496C109.424 23.496 108.288 21.816 108.288 19.368V19.24C108.288 16.728 109.584 15.064 111.824 15.064C113.312 15.064 114.336 15.72 114.592 17.24H116.72C116.416 14.504 114.24 13.384 111.792 13.384C108.448 13.384 106.08 15.816 106.08 19.224V19.352C106.08 22.728 108.128 25.16 111.792 25.16ZM119.062 25H126.486V23.32H121.19V19.976H125.222V18.376H121.19V15.24H126.214V13.56H119.062V25ZM132.294 25.16C134.822 25.16 136.502 23.608 136.502 21.624C136.502 19.336 135.11 18.568 132.422 18.2C130.438 17.912 130.054 17.448 130.054 16.52C130.054 15.64 130.726 15.016 132.022 15.016C133.334 15.016 134.022 15.528 134.23 16.728H136.182C135.958 14.536 134.486 13.416 132.022 13.416C129.638 13.416 128.038 14.824 128.038 16.696C128.038 18.84 129.334 19.672 132.07 20.04C133.926 20.344 134.454 20.744 134.454 21.8C134.454 22.856 133.558 23.56 132.294 23.56C130.358 23.56 129.894 22.6 129.75 21.448H127.702C127.862 23.608 129.174 25.16 132.294 25.16Z" fill="white"/>
<path d="M5 2H141V0H5V2ZM144 5V35H146V5H144ZM141 38H5V40H141V38ZM2 35V5H0V35H2ZM5 38C3.34315 38 2 36.6569 2 35H0C0 37.7614 2.23858 40 5 40V38ZM144 35C144 36.6569 142.657 38 141 38V40C143.761 40 146 37.7614 146 35H144ZM141 2C142.657 2 144 3.34315 144 5H146C146 2.23858 143.761 0 141 0V2ZM5 0C2.23858 0 0 2.23858 0 5H2C2 3.34315 3.34315 2 5 2V0Z" fill="white"/>
</svg>
