<svg width="225" height="18" viewBox="0 0 225 18" fill="none" xmlns="http://www.w3.org/2000/svg">
<path d="M5.85 14.18C8.694 14.18 10.584 12.434 10.584 10.202C10.584 7.628 9.018 6.764 5.994 6.35C3.762 6.026 3.33 5.504 3.33 4.46C3.33 3.47 4.086 2.768 5.544 2.768C7.02 2.768 7.794 3.344 8.028 4.694H10.224C9.972 2.228 8.316 0.967999 5.544 0.967999C2.862 0.967999 1.062 2.552 1.062 4.658C1.062 7.07 2.52 8.006 5.598 8.42C7.686 8.762 8.28 9.212 8.28 10.4C8.28 11.588 7.272 12.38 5.85 12.38C3.672 12.38 3.15 11.3 2.988 10.004H0.684C0.864 12.434 2.34 14.18 5.85 14.18ZM17.9418 14.18C20.3538 14.18 21.9558 13.1 22.2618 11.12H20.1558C19.9938 12.038 19.3098 12.56 17.9958 12.56C16.3758 12.56 15.4758 11.552 15.4038 9.77H22.2978V9.14C22.2978 5.774 20.1918 4.388 17.8518 4.388C15.1698 4.388 13.1718 6.332 13.1718 9.248V9.392C13.1718 12.362 15.1698 14.18 17.9418 14.18ZM15.4398 8.312C15.6558 6.854 16.5378 5.972 17.8518 5.972C19.2018 5.972 20.0298 6.692 20.1378 8.312H15.4398ZM25.3772 14H27.5552V0.229999H25.3772V14ZM35.4299 14.18C37.8419 14.18 39.4439 13.1 39.7499 11.12H37.6439C37.4819 12.038 36.7979 12.56 35.4839 12.56C33.8639 12.56 32.9639 11.552 32.8919 9.77H39.7859V9.14C39.7859 5.774 37.6799 4.388 35.3399 4.388C32.6579 4.388 30.6599 6.332 30.6599 9.248V9.392C30.6599 12.362 32.6579 14.18 35.4299 14.18ZM32.9279 8.312C33.1439 6.854 34.0259 5.972 35.3399 5.972C36.6899 5.972 37.5179 6.692 37.6259 8.312H32.9279ZM46.9333 14.18C49.4893 14.18 51.1273 12.65 51.2893 10.49H49.2913C49.1653 11.822 48.1753 12.506 47.0233 12.506C45.4213 12.506 44.4133 11.426 44.4133 9.374V9.23C44.4133 7.286 45.4753 6.134 46.9693 6.134C48.1213 6.134 48.9493 6.656 49.1293 7.916H51.2353C50.9833 5.324 49.0213 4.388 46.9333 4.388C44.3053 4.388 42.1813 6.278 42.1813 9.266V9.41C42.1813 12.416 44.2333 14.18 46.9333 14.18ZM57.4488 14.162C58.1148 14.162 58.5828 14.054 58.9248 13.928V12.2C58.6188 12.326 58.2948 12.38 57.8628 12.38C57.1788 12.38 56.7828 12.002 56.7828 11.174V6.224H58.8528V4.586H56.7828V2.516H54.6048V4.586H53.3448V6.224H54.6048V11.372C54.6048 13.154 55.5768 14.162 57.4488 14.162ZM67.5184 14H69.9124V9.104H71.7124C74.4664 9.104 76.4284 7.898 76.4284 5.18V5.108C76.4284 2.408 74.5384 1.13 71.6584 1.13H67.5184V14ZM69.9124 7.376V2.984H71.6584C73.1884 2.984 74.0884 3.578 74.0884 5.108V5.18C74.0884 6.602 73.2424 7.376 71.6584 7.376H69.9124ZM81.6774 14.18C83.1174 14.18 83.9454 13.658 84.5574 12.848V14H86.6994V7.826C86.6994 5.252 85.0434 4.388 82.9374 4.388C80.8314 4.388 79.0854 5.306 78.9054 7.502H81.0114C81.1194 6.566 81.6774 6.026 82.8114 6.026C84.0894 6.026 84.5214 6.656 84.5214 7.916V8.402H83.3514C80.6514 8.402 78.5274 9.194 78.5274 11.39C78.5274 13.352 79.9494 14.18 81.6774 14.18ZM82.1994 12.614C81.1194 12.614 80.6874 12.092 80.6874 11.3C80.6874 10.148 81.7494 9.77 83.4054 9.77H84.5214V10.706C84.5214 11.912 83.5314 12.614 82.1994 12.614ZM91.0561 17.222H93.1981L98.3281 4.586H96.2041L93.9001 10.652L91.3981 4.586H89.0401L92.7661 13.046L91.0561 17.222ZM101.041 14H103.219V8.366C103.219 6.926 104.209 6.206 105.289 6.206C106.351 6.206 106.963 6.8 106.963 8.186V14H109.141V8.366C109.141 6.926 110.131 6.206 111.211 6.206C112.291 6.206 112.885 6.8 112.885 8.186V14H115.063V8.042C115.063 5.45 113.659 4.388 111.931 4.388C110.761 4.388 109.465 4.91 108.745 6.08C108.277 4.91 107.305 4.388 106.081 4.388C104.695 4.388 103.669 5.144 103.219 6.026V4.586H101.041V14ZM122.785 14.18C125.197 14.18 126.799 13.1 127.105 11.12H124.999C124.837 12.038 124.153 12.56 122.839 12.56C121.219 12.56 120.319 11.552 120.247 9.77H127.141V9.14C127.141 5.774 125.035 4.388 122.695 4.388C120.013 4.388 118.015 6.332 118.015 9.248V9.392C118.015 12.362 120.013 14.18 122.785 14.18ZM120.283 8.312C120.499 6.854 121.381 5.972 122.695 5.972C124.045 5.972 124.873 6.692 124.981 8.312H120.283ZM130.166 14H132.344V8.456C132.344 6.962 133.334 6.206 134.558 6.206C135.854 6.206 136.43 6.854 136.43 8.276V14H138.608V8.078C138.608 5.486 137.276 4.388 135.386 4.388C133.838 4.388 132.794 5.162 132.344 6.08V4.586H130.166V14ZM145.401 14.162C146.067 14.162 146.535 14.054 146.877 13.928V12.2C146.571 12.326 146.247 12.38 145.815 12.38C145.131 12.38 144.735 12.002 144.735 11.174V6.224H146.805V4.586H144.735V2.516H142.557V4.586H141.297V6.224H142.557V11.372C142.557 13.154 143.529 14.162 145.401 14.162ZM155.471 14H157.631V4.28L161.537 14H162.311L166.145 4.28V14H168.539V1.13H165.371L162.059 9.914L158.675 1.13H155.471V14ZM176.437 14.18C178.849 14.18 180.451 13.1 180.757 11.12H178.651C178.489 12.038 177.805 12.56 176.491 12.56C174.871 12.56 173.971 11.552 173.899 9.77H180.793V9.14C180.793 5.774 178.687 4.388 176.347 4.388C173.665 4.388 171.667 6.332 171.667 9.248V9.392C171.667 12.362 173.665 14.18 176.437 14.18ZM173.935 8.312C174.151 6.854 175.033 5.972 176.347 5.972C177.697 5.972 178.525 6.692 178.633 8.312H173.935ZM187.022 14.162C187.688 14.162 188.156 14.054 188.498 13.928V12.2C188.192 12.326 187.868 12.38 187.436 12.38C186.752 12.38 186.356 12.002 186.356 11.174V6.224H188.426V4.586H186.356V2.516H184.178V4.586H182.918V6.224H184.178V11.372C184.178 13.154 185.15 14.162 187.022 14.162ZM191.543 14H193.721V8.456C193.721 6.962 194.711 6.206 195.935 6.206C197.231 6.206 197.807 6.854 197.807 8.276V14H199.985V8.078C199.985 5.486 198.653 4.388 196.763 4.388C195.215 4.388 194.171 5.162 193.721 6.08V0.229999H191.543V14ZM207.786 12.488C206.13 12.488 205.176 11.282 205.176 9.356V9.212C205.176 7.268 206.166 6.098 207.786 6.098C209.406 6.098 210.378 7.286 210.378 9.23V9.356C210.378 11.282 209.406 12.488 207.786 12.488ZM207.768 14.18C210.54 14.18 212.61 12.272 212.61 9.338V9.194C212.61 6.314 210.54 4.388 207.786 4.388C205.014 4.388 202.944 6.332 202.944 9.248V9.392C202.944 12.254 204.996 14.18 207.768 14.18ZM219.186 14.18C220.572 14.18 221.778 13.352 222.282 12.416V14H224.46V0.229999H222.282V6.026C221.76 5.09 220.806 4.388 219.276 4.388C216.828 4.388 215.046 6.296 215.046 9.302V9.446C215.046 12.506 216.828 14.18 219.186 14.18ZM219.726 12.452C218.322 12.452 217.278 11.462 217.278 9.392V9.248C217.278 7.214 218.214 6.098 219.816 6.098C221.4 6.098 222.354 7.124 222.354 9.194V9.338C222.354 11.444 221.238 12.452 219.726 12.452Z" fill="black"/>
</svg>
