<svg width="158" height="24" viewBox="0 0 158 24" fill="none" xmlns="http://www.w3.org/2000/svg">
<path d="M0.968 19H4.16V12.472H6.56C10.232 12.472 12.848 10.864 12.848 7.24V7.144C12.848 3.544 10.328 1.84 6.488 1.84H0.968V19ZM4.16 10.168V4.312H6.488C8.528 4.312 9.728 5.104 9.728 7.144V7.24C9.728 9.136 8.6 10.168 6.488 10.168H4.16ZM22.0574 16.984C19.8494 16.984 18.5774 15.376 18.5774 12.808V12.616C18.5774 10.024 19.8974 8.464 22.0574 8.464C24.2174 8.464 25.5134 10.048 25.5134 12.64V12.808C25.5134 15.376 24.2174 16.984 22.0574 16.984ZM22.0334 19.24C25.7294 19.24 28.4894 16.696 28.4894 12.784V12.592C28.4894 8.752 25.7294 6.184 22.0574 6.184C18.3614 6.184 15.6014 8.776 15.6014 12.664V12.856C15.6014 16.672 18.3374 19.24 22.0334 19.24ZM36.8493 19.24C40.0653 19.24 41.8653 17.776 41.8653 15.232C41.8653 12.568 40.1133 11.848 37.1613 11.392C35.1693 11.056 34.5693 10.696 34.5693 9.784C34.5693 8.896 35.3133 8.296 36.5613 8.296C37.9053 8.296 38.5533 8.824 38.7933 9.976H41.4813C41.1693 7.144 39.1293 6.184 36.5613 6.184C34.2093 6.184 31.8573 7.432 31.8573 9.952C31.8573 12.304 33.0813 13.24 36.3933 13.768C38.2413 14.08 39.0813 14.464 39.0813 15.496C39.0813 16.552 38.3853 17.104 36.8253 17.104C35.1213 17.104 34.4733 16.36 34.3293 15.088H31.5933C31.7133 17.752 33.6093 19.24 36.8493 19.24ZM50.1247 19.216C51.0127 19.216 51.6367 19.072 52.0927 18.904V16.6C51.6847 16.768 51.2527 16.84 50.6767 16.84C49.7647 16.84 49.2367 16.336 49.2367 15.232V8.632H51.9967V6.448H49.2367V3.688H46.3327V6.448H44.6527V8.632H46.3327V15.496C46.3327 17.872 47.6287 19.216 50.1247 19.216ZM64.7028 23.296H67.5588L74.3988 6.448H71.5668L68.4948 14.536L65.1588 6.448H62.0148L66.9828 17.728L64.7028 23.296ZM83.1637 16.984C80.9557 16.984 79.6837 15.376 79.6837 12.808V12.616C79.6837 10.024 81.0037 8.464 83.1637 8.464C85.3237 8.464 86.6197 10.048 86.6197 12.64V12.808C86.6197 15.376 85.3237 16.984 83.1637 16.984ZM83.1397 19.24C86.8357 19.24 89.5957 16.696 89.5957 12.784V12.592C89.5957 8.752 86.8357 6.184 83.1637 6.184C79.4677 6.184 76.7077 8.776 76.7077 12.664V12.856C76.7077 16.672 79.4437 19.24 83.1397 19.24ZM97.8596 19.24C99.8996 19.24 101.22 18.256 101.844 17.032V19H104.748V6.448H101.844V13.912C101.844 15.904 100.476 16.912 98.9156 16.912C97.2356 16.912 96.4436 16.048 96.4436 14.152V6.448H93.5396V14.488C93.5396 17.824 95.3876 19.24 97.8596 19.24ZM109.631 19H112.535V12.472C112.535 9.808 114.071 8.992 116.615 8.968V6.256C114.503 6.28 113.327 7.216 112.535 8.8V6.448H109.631V19ZM126.689 19H129.689L131.033 14.752H137.585L138.953 19H142.265L136.601 1.84H132.425L126.689 19ZM134.321 4.456L136.841 12.424H131.777L134.321 4.456ZM150.553 19.24C152.401 19.24 154.009 18.136 154.681 16.888V19H157.585V0.639999H154.681V8.368C153.985 7.12 152.713 6.184 150.673 6.184C147.409 6.184 145.033 8.728 145.033 12.736V12.928C145.033 17.008 147.409 19.24 150.553 19.24ZM151.273 16.936C149.401 16.936 148.009 15.616 148.009 12.856V12.664C148.009 9.952 149.257 8.464 151.393 8.464C153.505 8.464 154.777 9.832 154.777 12.592V12.784C154.777 15.592 153.289 16.936 151.273 16.936Z" fill="black"/>
</svg>
