<svg width="301" height="18" viewBox="0 0 301 18" fill="none" xmlns="http://www.w3.org/2000/svg">
<path d="M5.778 14.162C8.334 14.162 10.224 12.524 10.224 10.364C10.224 7.934 8.712 7.07 5.85 6.62C3.222 6.224 2.754 5.576 2.754 4.316C2.754 3.11 3.672 2.228 5.436 2.228C7.218 2.228 8.154 2.894 8.46 4.514H9.864C9.612 2.228 8.01 0.967999 5.436 0.967999C3.006 0.967999 1.296 2.48 1.296 4.46C1.296 6.746 2.898 7.592 5.598 8.006C8.046 8.402 8.712 9.014 8.712 10.472C8.712 11.93 7.434 12.902 5.778 12.902C3.186 12.902 2.574 11.606 2.376 10.076H0.864C1.098 12.272 2.34 14.162 5.778 14.162ZM16.6492 14.162C18.7732 14.162 20.3392 13.172 20.6632 11.282H19.1692C18.9712 12.38 18.1252 12.92 16.6672 12.92C14.7412 12.92 13.7152 11.732 13.6432 9.59H20.7352V9.104C20.7352 5.738 18.6832 4.424 16.5052 4.424C13.9132 4.424 12.0952 6.404 12.0952 9.248V9.392C12.0952 12.29 13.9852 14.162 16.6492 14.162ZM13.6972 8.384C13.9492 6.71 14.9752 5.666 16.5052 5.666C18.0532 5.666 19.0612 6.44 19.2052 8.384H13.6972ZM26.9336 14.162C29.2016 14.162 30.8396 12.65 31.0376 10.616H29.6516C29.4896 12.146 28.2836 12.92 26.9516 12.92C25.1336 12.92 23.8736 11.696 23.8736 9.392V9.248C23.8736 7.034 25.1876 5.666 26.8976 5.666C28.1936 5.666 29.2736 6.224 29.5076 7.718H30.9836C30.6956 5.324 28.8596 4.424 26.8976 4.424C24.3776 4.424 22.3256 6.368 22.3256 9.248V9.392C22.3256 12.308 24.3056 14.162 26.9336 14.162ZM36.4793 14.162C37.9913 14.162 39.0353 13.388 39.4673 12.506V14H40.9613V4.586H39.4673V10.292C39.4673 11.984 38.2073 12.866 36.8753 12.866C35.3993 12.866 34.6973 12.128 34.6973 10.472V4.586H33.2033V10.544C33.2033 13.136 34.6073 14.162 36.4793 14.162ZM43.9808 14H45.4748V8.834C45.4748 6.512 46.6808 5.918 48.5708 5.828V4.424C46.8788 4.478 46.0688 5.216 45.4748 6.278V4.586H43.9808V14ZM54.3367 14.162C56.4607 14.162 58.0267 13.172 58.3507 11.282H56.8567C56.6587 12.38 55.8127 12.92 54.3547 12.92C52.4287 12.92 51.4027 11.732 51.3307 9.59H58.4227V9.104C58.4227 5.738 56.3707 4.424 54.1927 4.424C51.6007 4.424 49.7827 6.404 49.7827 9.248V9.392C49.7827 12.29 51.6727 14.162 54.3367 14.162ZM51.3847 8.384C51.6367 6.71 52.6627 5.666 54.1927 5.666C55.7407 5.666 56.7487 6.44 56.8927 8.384H51.3847ZM70.9688 14.162C73.8488 14.162 75.9008 12.704 76.3508 9.734H74.8928C74.5688 11.822 73.1108 12.884 71.0048 12.884C68.2328 12.884 66.5768 10.904 66.5768 7.628V7.484C66.5768 4.244 68.3588 2.174 71.0228 2.174C73.2188 2.174 74.3528 3.182 74.6768 5.144H76.2248C75.9548 2.354 73.6868 0.932 71.0048 0.932C67.5128 0.932 64.9568 3.686 64.9568 7.502V7.646C64.9568 11.606 67.2428 14.162 70.9688 14.162ZM78.6272 14H80.1212V8.834C80.1212 6.512 81.3272 5.918 83.2172 5.828V4.424C81.5252 4.478 80.7152 5.216 80.1212 6.278V4.586H78.6272V14ZM88.9831 14.162C91.1071 14.162 92.6731 13.172 92.9971 11.282H91.5031C91.3051 12.38 90.4591 12.92 89.0011 12.92C87.0751 12.92 86.0491 11.732 85.9771 9.59H93.0691V9.104C93.0691 5.738 91.0171 4.424 88.8391 4.424C86.2471 4.424 84.4291 6.404 84.4291 9.248V9.392C84.4291 12.29 86.3191 14.162 88.9831 14.162ZM86.0311 8.384C86.2831 6.71 87.3091 5.666 88.8391 5.666C90.3871 5.666 91.3951 6.44 91.5391 8.384H86.0311ZM98.9076 14.162C100.276 14.162 101.59 13.298 102.13 12.38V14H103.624V0.0859989H102.13V6.098C101.59 5.18 100.618 4.424 99.0516 4.424C96.4596 4.424 94.6596 6.458 94.6596 9.338V9.482C94.6596 12.416 96.4416 14.162 98.9076 14.162ZM99.0696 12.92C97.4856 12.92 96.2076 11.786 96.2076 9.41V9.266C96.2076 6.98 97.3236 5.666 99.1956 5.666C101.032 5.666 102.184 6.8 102.184 9.212V9.356C102.184 11.768 100.816 12.92 99.0696 12.92ZM106.683 14H108.177V4.586H106.683V14ZM107.403 2.624C107.943 2.624 108.393 2.174 108.393 1.634C108.393 1.094 107.943 0.643999 107.403 0.643999C106.863 0.643999 106.413 1.094 106.413 1.634C106.413 2.174 106.863 2.624 107.403 2.624ZM114.097 14.126C114.709 14.126 115.069 14.036 115.375 13.928V12.668C115.051 12.794 114.691 12.866 114.223 12.866C113.467 12.866 113.053 12.416 113.053 11.498V5.846H115.249V4.586H113.053V2.444H111.559V4.586H110.209V5.846H111.559V11.642C111.559 13.118 112.387 14.126 114.097 14.126ZM120.993 16.664H122.361L127.599 0.0319996H126.231L120.993 16.664ZM136.094 12.722V2.39H137.84C141.386 2.39 142.826 4.478 142.826 7.448V7.592C142.826 10.742 141.17 12.722 137.858 12.722H136.094ZM134.528 14H137.894C142.394 14 144.446 11.174 144.446 7.61V7.448C144.446 3.866 142.358 1.13 137.93 1.13H134.528V14ZM150.805 14.162C152.929 14.162 154.495 13.172 154.819 11.282H153.325C153.127 12.38 152.281 12.92 150.823 12.92C148.897 12.92 147.871 11.732 147.799 9.59H154.891V9.104C154.891 5.738 152.839 4.424 150.661 4.424C148.069 4.424 146.251 6.404 146.251 9.248V9.392C146.251 12.29 148.141 14.162 150.805 14.162ZM147.853 8.384C148.105 6.71 149.131 5.666 150.661 5.666C152.209 5.666 153.217 6.44 153.361 8.384H147.853ZM161.864 14.162C164.456 14.162 166.148 12.182 166.148 9.302V9.158C166.148 6.224 164.33 4.424 161.864 4.424C160.496 4.424 159.218 5.252 158.678 6.17V0.0859989H157.184V14H158.678V12.452C159.218 13.388 160.334 14.162 161.864 14.162ZM161.72 12.92C159.884 12.92 158.624 11.786 158.624 9.374V9.23C158.624 6.818 159.956 5.666 161.702 5.666C163.286 5.666 164.6 6.854 164.6 9.23V9.374C164.6 11.66 163.592 12.92 161.72 12.92ZM168.505 14H169.999V4.586H168.505V14ZM169.225 2.624C169.765 2.624 170.215 2.174 170.215 1.634C170.215 1.094 169.765 0.643999 169.225 0.643999C168.685 0.643999 168.235 1.094 168.235 1.634C168.235 2.174 168.685 2.624 169.225 2.624ZM175.919 14.126C176.531 14.126 176.891 14.036 177.197 13.928V12.668C176.873 12.794 176.513 12.866 176.045 12.866C175.289 12.866 174.875 12.416 174.875 11.498V5.846H177.071V4.586H174.875V2.444H173.381V4.586H172.031V5.846H173.381V11.642C173.381 13.118 174.209 14.126 175.919 14.126ZM189.709 14.162C192.589 14.162 194.641 12.704 195.091 9.734H193.633C193.309 11.822 191.851 12.884 189.745 12.884C186.973 12.884 185.317 10.904 185.317 7.628V7.484C185.317 4.244 187.099 2.174 189.763 2.174C191.959 2.174 193.093 3.182 193.417 5.144H194.965C194.695 2.354 192.427 0.932 189.745 0.932C186.253 0.932 183.697 3.686 183.697 7.502V7.646C183.697 11.606 185.983 14.162 189.709 14.162ZM199.901 14.162C201.287 14.162 202.133 13.694 202.835 12.812V14H204.329V7.79C204.329 5.162 202.691 4.424 200.891 4.424C199.073 4.424 197.363 5.216 197.165 7.358H198.659C198.803 6.206 199.523 5.666 200.819 5.666C202.259 5.666 202.835 6.296 202.835 7.79V8.474H201.485C199.073 8.474 196.769 9.212 196.769 11.39C196.769 13.316 198.155 14.162 199.901 14.162ZM200.045 12.974C198.731 12.974 198.263 12.362 198.263 11.39C198.263 10.004 199.649 9.536 201.539 9.536H202.835V10.706C202.835 12.164 201.629 12.974 200.045 12.974ZM207.264 14H208.758V8.834C208.758 6.512 209.964 5.918 211.854 5.828V4.424C210.162 4.478 209.352 5.216 208.758 6.278V4.586H207.264V14ZM217.314 14.162C218.682 14.162 219.996 13.298 220.536 12.38V14H222.03V0.0859989H220.536V6.098C219.996 5.18 219.024 4.424 217.458 4.424C214.866 4.424 213.066 6.458 213.066 9.338V9.482C213.066 12.416 214.848 14.162 217.314 14.162ZM217.476 12.92C215.892 12.92 214.614 11.786 214.614 9.41V9.266C214.614 6.98 215.73 5.666 217.602 5.666C219.438 5.666 220.59 6.8 220.59 9.212V9.356C220.59 11.768 219.222 12.92 217.476 12.92ZM229.925 14H231.491V8.762H233.579C236.027 8.762 238.079 7.7 238.079 4.964V4.892C238.079 2.21 236.045 1.13 233.579 1.13H229.925V14ZM231.491 7.52V2.39H233.687C235.433 2.39 236.513 3.074 236.513 4.892V4.964C236.513 6.62 235.523 7.52 233.687 7.52H231.491ZM242.546 14.162C243.932 14.162 244.778 13.694 245.48 12.812V14H246.974V7.79C246.974 5.162 245.336 4.424 243.536 4.424C241.718 4.424 240.008 5.216 239.81 7.358H241.304C241.448 6.206 242.168 5.666 243.464 5.666C244.904 5.666 245.48 6.296 245.48 7.79V8.474H244.13C241.718 8.474 239.414 9.212 239.414 11.39C239.414 13.316 240.8 14.162 242.546 14.162ZM242.69 12.974C241.376 12.974 240.908 12.362 240.908 11.39C240.908 10.004 242.294 9.536 244.184 9.536H245.48V10.706C245.48 12.164 244.274 12.974 242.69 12.974ZM250.491 17.276H252.003L257.205 4.586H255.675L253.065 11.336L250.185 4.586H248.583L252.273 13.028L250.491 17.276ZM259.172 14H260.666V8.24C260.666 6.548 261.926 5.72 263.15 5.72C264.446 5.72 265.148 6.404 265.148 8.06V14H266.642V8.24C266.642 6.548 267.902 5.72 269.126 5.72C270.422 5.72 271.124 6.404 271.124 8.06V14H272.618V8.168C272.618 5.432 271.142 4.424 269.45 4.424C268.28 4.424 266.876 4.964 266.228 6.188C265.742 4.928 264.68 4.424 263.474 4.424C262.124 4.424 261.098 5.144 260.666 6.026V4.586H259.172V14ZM279.407 14.162C281.531 14.162 283.097 13.172 283.421 11.282H281.927C281.729 12.38 280.883 12.92 279.425 12.92C277.499 12.92 276.473 11.732 276.401 9.59H283.493V9.104C283.493 5.738 281.441 4.424 279.263 4.424C276.671 4.424 274.853 6.404 274.853 9.248V9.392C274.853 12.29 276.743 14.162 279.407 14.162ZM276.455 8.384C276.707 6.71 277.733 5.666 279.263 5.666C280.811 5.666 281.819 6.44 281.963 8.384H276.455ZM285.785 14H287.279V8.294C287.279 6.602 288.521 5.72 289.907 5.72C291.419 5.72 292.121 6.458 292.121 8.114V14H293.615V8.222C293.615 5.486 292.247 4.424 290.303 4.424C288.755 4.424 287.711 5.198 287.279 6.08V4.586H285.785V14ZM299.405 14.126C300.017 14.126 300.377 14.036 300.683 13.928V12.668C300.359 12.794 299.999 12.866 299.531 12.866C298.775 12.866 298.361 12.416 298.361 11.498V5.846H300.557V4.586H298.361V2.444H296.867V4.586H295.517V5.846H296.867V11.642C296.867 13.118 297.695 14.126 299.405 14.126Z" fill="#002F34"/>
</svg>
