<svg width="122" height="14" viewBox="0 0 122 14" fill="none" xmlns="http://www.w3.org/2000/svg">
<path d="M0.312 13H2.44V8.648H4.04C6.488 8.648 8.232 7.576 8.232 5.16V5.096C8.232 2.696 6.552 1.56 3.992 1.56H0.312V13ZM2.44 7.112V3.208H3.992C5.352 3.208 6.152 3.736 6.152 5.096V5.16C6.152 6.424 5.4 7.112 3.992 7.112H2.44ZM13.4116 11.656C11.9396 11.656 11.0916 10.584 11.0916 8.872V8.744C11.0916 7.016 11.9716 5.976 13.4116 5.976C14.8516 5.976 15.7156 7.032 15.7156 8.76V8.872C15.7156 10.584 14.8516 11.656 13.4116 11.656ZM13.3956 13.16C15.8596 13.16 17.6996 11.464 17.6996 8.856V8.728C17.6996 6.168 15.8596 4.456 13.4116 4.456C10.9476 4.456 9.10763 6.184 9.10763 8.776V8.904C9.10763 11.448 10.9316 13.16 13.3956 13.16ZM22.3129 13.16C24.4569 13.16 25.6569 12.184 25.6569 10.488C25.6569 8.712 24.4889 8.232 22.5209 7.928C21.1929 7.704 20.7929 7.464 20.7929 6.856C20.7929 6.264 21.2889 5.864 22.1209 5.864C23.0169 5.864 23.4489 6.216 23.6089 6.984H25.4009C25.1929 5.096 23.8329 4.456 22.1209 4.456C20.5529 4.456 18.9849 5.288 18.9849 6.968C18.9849 8.536 19.8009 9.16 22.0089 9.512C23.2409 9.72 23.8009 9.976 23.8009 10.664C23.8009 11.368 23.3369 11.736 22.2969 11.736C21.1609 11.736 20.7289 11.24 20.6329 10.392H18.8089C18.8889 12.168 20.1529 13.16 22.3129 13.16ZM30.2031 13.144C30.7951 13.144 31.2111 13.048 31.5151 12.936V11.4C31.2431 11.512 30.9551 11.56 30.5711 11.56C29.9631 11.56 29.6111 11.224 29.6111 10.488V6.088H31.4511V4.632H29.6111V2.792H27.6751V4.632H26.5551V6.088H27.6751V10.664C27.6751 12.248 28.5391 13.144 30.2031 13.144ZM36.3539 13H38.3539L39.2499 10.168H43.6179L44.5299 13H46.7379L42.9619 1.56H40.1779L36.3539 13ZM41.4419 3.304L43.1219 8.616H39.7459L41.4419 3.304ZM48.3239 13H50.2599V8.072C50.2599 6.744 51.1399 6.072 52.2279 6.072C53.3799 6.072 53.8919 6.648 53.8919 7.912V13H55.8279V7.736C55.8279 5.432 54.6439 4.456 52.9639 4.456C51.5879 4.456 50.6599 5.144 50.2599 5.96V4.632H48.3239V13ZM61.8023 11.656C60.3303 11.656 59.4823 10.584 59.4823 8.872V8.744C59.4823 7.016 60.3623 5.976 61.8023 5.976C63.2423 5.976 64.1063 7.032 64.1063 8.76V8.872C64.1063 10.584 63.2423 11.656 61.8023 11.656ZM61.7863 13.16C64.2503 13.16 66.0903 11.464 66.0903 8.856V8.728C66.0903 6.168 64.2503 4.456 61.8023 4.456C59.3383 4.456 57.4983 6.184 57.4983 8.776V8.904C57.4983 11.448 59.3223 13.16 61.7863 13.16ZM70.6875 13.144C71.2795 13.144 71.6955 13.048 71.9995 12.936V11.4C71.7275 11.512 71.4395 11.56 71.0555 11.56C70.4475 11.56 70.0955 11.224 70.0955 10.488V6.088H71.9355V4.632H70.0955V2.792H68.1595V4.632H67.0395V6.088H68.1595V10.664C68.1595 12.248 69.0235 13.144 70.6875 13.144ZM73.7458 13H75.6818V8.072C75.6818 6.744 76.5618 6.072 77.6498 6.072C78.8018 6.072 79.3138 6.648 79.3138 7.912V13H81.2498V7.736C81.2498 5.432 80.0658 4.456 78.3858 4.456C77.0098 4.456 76.0818 5.144 75.6818 5.96V0.759999H73.7458V13ZM87.1601 13.16C89.3041 13.16 90.7281 12.2 91.0001 10.44H89.1281C88.9841 11.256 88.3761 11.72 87.2081 11.72C85.7681 11.72 84.9681 10.824 84.9041 9.24H91.0321V8.68C91.0321 5.688 89.1601 4.456 87.0801 4.456C84.6961 4.456 82.9201 6.184 82.9201 8.776V8.904C82.9201 11.544 84.6961 13.16 87.1601 13.16ZM84.9361 7.944C85.1281 6.648 85.9121 5.864 87.0801 5.864C88.2801 5.864 89.0161 6.504 89.1121 7.944H84.9361ZM92.7614 13H94.6974V8.648C94.6974 6.872 95.7214 6.328 97.4174 6.312V4.504C96.0094 4.52 95.2254 5.144 94.6974 6.2V4.632H92.7614V13ZM102.213 13H104.213L105.109 10.168H109.477L110.389 13H112.597L108.821 1.56H106.037L102.213 13ZM107.301 3.304L108.981 8.616H105.605L107.301 3.304ZM117.163 13.16C118.395 13.16 119.467 12.424 119.915 11.592V13H121.851V0.759999H119.915V5.912C119.451 5.08 118.603 4.456 117.243 4.456C115.067 4.456 113.483 6.152 113.483 8.824V8.952C113.483 11.672 115.067 13.16 117.163 13.16ZM117.643 11.624C116.395 11.624 115.467 10.744 115.467 8.904V8.776C115.467 6.968 116.299 5.976 117.723 5.976C119.131 5.976 119.979 6.888 119.979 8.728V8.856C119.979 10.728 118.987 11.624 117.643 11.624Z" fill="#002F34"/>
</svg>
