<svg width="27" height="14" viewBox="0 0 27 14" fill="none" xmlns="http://www.w3.org/2000/svg">
<path d="M5.426 13.18C8.828 13.18 10.646 11.326 10.646 7.96V0.129999H8.234V7.762C8.234 10.426 7.298 11.254 5.444 11.254C3.536 11.254 2.78 10.282 2.78 7.924V0.129999H0.368V8.104C0.368 11.416 2.204 13.18 5.426 13.18ZM13.4838 13H15.8778V8.104H17.6778C20.4318 8.104 22.3938 6.898 22.3938 4.18V4.108C22.3938 1.408 20.5038 0.129999 17.6238 0.129999H13.4838V13ZM15.8778 6.376V1.984H17.6238C19.1538 1.984 20.0538 2.578 20.0538 4.108V4.18C20.0538 5.602 19.2078 6.376 17.6238 6.376H15.8778ZM24.5246 13H26.9366V0.129999H24.5246V13Z" fill="#002F34"/>
</svg>
