<svg width="173" height="15" viewBox="0 0 173 15" fill="none" xmlns="http://www.w3.org/2000/svg">
<path d="M3.672 14H5.958L8.568 4.622L11.106 14H13.5L16.722 1.13H14.49L12.186 10.634L9.63 1.13H7.65L5.148 10.58L2.916 1.13H0.468L3.672 14ZM18.6674 14H21.0614V8.528H26.8394V14H29.2514V1.13H26.8394V6.602H21.0614V1.13H18.6674V14ZM31.195 14H33.445L34.453 10.814H39.367L40.393 14H42.877L38.629 1.13H35.497L31.195 14ZM36.919 3.092L38.809 9.068H35.011L36.919 3.092ZM46.1496 14H48.5616V3.02H52.1436V1.13H42.5676V3.02H46.1496V14ZM60.9328 14H63.3448V3.02H66.9268V1.13H57.3508V3.02H60.9328V14ZM74.212 12.254C71.872 12.254 70.162 10.436 70.162 7.628V7.484C70.162 4.712 71.656 2.858 74.176 2.858C76.696 2.858 78.172 4.82 78.172 7.466V7.61C78.172 10.4 76.642 12.254 74.212 12.254ZM74.176 14.18C78.082 14.18 80.656 11.354 80.656 7.592V7.448C80.656 3.668 78.01 0.95 74.176 0.95C70.36 0.95 67.66 3.74 67.66 7.502V7.646C67.66 11.354 70.234 14.18 74.176 14.18ZM89.6513 12.11V3.02H91.0373C94.0613 3.02 95.3213 4.694 95.3213 7.466V7.61C95.3213 10.454 93.9353 12.11 91.0553 12.11H89.6513ZM87.2573 14H91.1273C95.6453 14 97.8233 11.336 97.8233 7.592V7.43C97.8233 3.686 95.6453 1.13 91.1633 1.13H87.2573V14ZM106.011 12.254C103.671 12.254 101.961 10.436 101.961 7.628V7.484C101.961 4.712 103.455 2.858 105.975 2.858C108.495 2.858 109.971 4.82 109.971 7.466V7.61C109.971 10.4 108.441 12.254 106.011 12.254ZM105.975 14.18C109.881 14.18 112.455 11.354 112.455 7.592V7.448C112.455 3.668 109.809 0.95 105.975 0.95C102.159 0.95 99.4589 3.74 99.4589 7.502V7.646C99.4589 11.354 102.033 14.18 105.975 14.18ZM119.056 14H121.234V4.136L127.03 14H129.514V1.13H127.336V10.436L121.918 1.13H119.056V14ZM132.468 14H140.82V12.11H134.862V8.348H139.398V6.548H134.862V3.02H140.514V1.13H132.468V14ZM142.152 14H144.6L147.624 8.978L150.648 14H153.384L149.262 7.34L153.06 1.13H150.594L147.876 5.702L145.14 1.13H142.44L146.292 7.394L142.152 14ZM157.894 14H160.306V3.02H163.888V1.13H154.312V3.02H157.894V14ZM167.576 10.13H169.592V9.554C169.646 8.546 170.51 7.808 171.356 6.998C172.166 6.206 172.94 5.378 172.94 4.1C172.94 2.354 171.734 0.95 169.16 0.95C166.748 0.95 165.074 2.426 164.948 4.784H167.036C167.162 3.542 167.936 2.75 169.052 2.75C170.15 2.75 170.654 3.344 170.654 4.262C170.654 5.036 170.06 5.63 169.394 6.296C168.53 7.142 167.576 8.024 167.576 9.446V10.13ZM168.566 14.126C169.358 14.126 170.006 13.514 170.006 12.74C170.006 11.948 169.358 11.336 168.566 11.336C167.756 11.336 167.09 11.948 167.09 12.74C167.09 13.514 167.756 14.126 168.566 14.126Z" fill="#002F34"/>
</svg>
