<svg width="272" height="36" viewBox="0 0 272 36" fill="none" xmlns="http://www.w3.org/2000/svg">
<path d="M20.6543 5.18359H12.4277V28H9.07031V5.18359H0.861328V2.40625H20.6543V5.18359ZM21.3223 18.3145C21.3223 16.4512 21.6855 14.7754 22.4121 13.2871C23.1504 11.7988 24.1699 10.6504 25.4707 9.8418C26.7832 9.0332 28.2773 8.62891 29.9531 8.62891C32.543 8.62891 34.6348 9.52539 36.2285 11.3184C37.834 13.1113 38.6367 15.4961 38.6367 18.4727V18.7012C38.6367 20.5527 38.2793 22.2168 37.5645 23.6934C36.8613 25.1582 35.8477 26.3008 34.5234 27.1211C33.2109 27.9414 31.6992 28.3516 29.9883 28.3516C27.4102 28.3516 25.3184 27.4551 23.7129 25.6621C22.1191 23.8691 21.3223 21.4961 21.3223 18.543V18.3145ZM24.5918 18.7012C24.5918 20.8105 25.0781 22.5039 26.0508 23.7812C27.0352 25.0586 28.3477 25.6973 29.9883 25.6973C31.6406 25.6973 32.9531 25.0527 33.9258 23.7637C34.8984 22.4629 35.3848 20.6465 35.3848 18.3145C35.3848 16.2285 34.8867 14.541 33.8906 13.252C32.9062 11.9512 31.5938 11.3008 29.9531 11.3008C28.3477 11.3008 27.0527 11.9395 26.0684 13.2168C25.084 14.4941 24.5918 16.3223 24.5918 18.7012ZM58.7812 18.7012C58.7812 21.5957 58.1191 23.9277 56.7949 25.6973C55.4707 27.4668 53.6777 28.3516 51.416 28.3516C49.1074 28.3516 47.291 27.6191 45.9668 26.1543V35.3125H42.7148V8.98047H45.6855L45.8438 11.0898C47.168 9.44922 49.0078 8.62891 51.3633 8.62891C53.6484 8.62891 55.4531 9.49023 56.7773 11.2129C58.1133 12.9355 58.7812 15.332 58.7812 18.4023V18.7012ZM55.5293 18.332C55.5293 16.1875 55.0723 14.4941 54.1582 13.252C53.2441 12.0098 51.9902 11.3887 50.3965 11.3887C48.4277 11.3887 46.9512 12.2617 45.9668 14.0078V23.0957C46.9395 24.8301 48.4277 25.6973 50.4316 25.6973C51.9902 25.6973 53.2266 25.082 54.1406 23.8516C55.0664 22.6094 55.5293 20.7695 55.5293 18.332ZM87.9258 18.7012C87.9258 21.5957 87.2637 23.9277 85.9395 25.6973C84.6152 27.4668 82.8223 28.3516 80.5605 28.3516C78.252 28.3516 76.4355 27.6191 75.1113 26.1543V35.3125H71.8594V8.98047H74.8301L74.9883 11.0898C76.3125 9.44922 78.1523 8.62891 80.5078 8.62891C82.793 8.62891 84.5977 9.49023 85.9219 11.2129C87.2578 12.9355 87.9258 15.332 87.9258 18.4023V18.7012ZM84.6738 18.332C84.6738 16.1875 84.2168 14.4941 83.3027 13.252C82.3887 12.0098 81.1348 11.3887 79.541 11.3887C77.5723 11.3887 76.0957 12.2617 75.1113 14.0078V23.0957C76.084 24.8301 77.5723 25.6973 79.5762 25.6973C81.1348 25.6973 82.3711 25.082 83.2852 23.8516C84.2109 22.6094 84.6738 20.7695 84.6738 18.332ZM95.6074 28H92.3555V8.98047H95.6074V28ZM92.0918 3.93555C92.0918 3.4082 92.25 2.96289 92.5664 2.59961C92.8945 2.23633 93.375 2.05469 94.0078 2.05469C94.6406 2.05469 95.1211 2.23633 95.4492 2.59961C95.7773 2.96289 95.9414 3.4082 95.9414 3.93555C95.9414 4.46289 95.7773 4.90234 95.4492 5.25391C95.1211 5.60547 94.6406 5.78125 94.0078 5.78125C93.375 5.78125 92.8945 5.60547 92.5664 5.25391C92.25 4.90234 92.0918 4.46289 92.0918 3.93555ZM108.457 25.6973C109.617 25.6973 110.631 25.3457 111.498 24.6426C112.365 23.9395 112.846 23.0605 112.939 22.0059H116.016C115.957 23.0957 115.582 24.1328 114.891 25.1172C114.199 26.1016 113.273 26.8867 112.113 27.4727C110.965 28.0586 109.746 28.3516 108.457 28.3516C105.867 28.3516 103.805 27.4902 102.27 25.7676C100.746 24.0332 99.9844 21.666 99.9844 18.666V18.1211C99.9844 16.2695 100.324 14.623 101.004 13.1816C101.684 11.7402 102.656 10.6211 103.922 9.82422C105.199 9.02734 106.705 8.62891 108.439 8.62891C110.572 8.62891 112.342 9.26758 113.748 10.5449C115.166 11.8223 115.922 13.4805 116.016 15.5195H112.939C112.846 14.2891 112.377 13.2812 111.533 12.4961C110.701 11.6992 109.67 11.3008 108.439 11.3008C106.787 11.3008 105.504 11.8984 104.59 13.0938C103.688 14.2773 103.236 15.9941 103.236 18.2441V18.8594C103.236 21.0508 103.688 22.7383 104.59 23.9219C105.492 25.1055 106.781 25.6973 108.457 25.6973ZM124.98 19.1934L122.941 21.3203V28H119.689V1H122.941V17.3301L124.682 15.2383L130.605 8.98047H134.561L127.16 16.9258L135.422 28H131.607L124.98 19.1934ZM148.992 22.9551C148.992 22.0762 148.658 21.3965 147.99 20.916C147.334 20.4238 146.18 20.002 144.527 19.6504C142.887 19.2988 141.58 18.877 140.607 18.3848C139.646 17.8926 138.932 17.3066 138.463 16.627C138.006 15.9473 137.777 15.1387 137.777 14.2012C137.777 12.6426 138.434 11.3242 139.746 10.2461C141.07 9.16797 142.758 8.62891 144.809 8.62891C146.965 8.62891 148.711 9.18555 150.047 10.2988C151.395 11.4121 152.068 12.8359 152.068 14.5703H148.799C148.799 13.6797 148.418 12.9121 147.656 12.2676C146.906 11.623 145.957 11.3008 144.809 11.3008C143.625 11.3008 142.699 11.5586 142.031 12.0742C141.363 12.5898 141.029 13.2637 141.029 14.0957C141.029 14.8809 141.34 15.4727 141.961 15.8711C142.582 16.2695 143.701 16.6504 145.318 17.0137C146.947 17.377 148.266 17.8105 149.273 18.3145C150.281 18.8184 151.025 19.4277 151.506 20.1426C151.998 20.8457 152.244 21.707 152.244 22.7266C152.244 24.4258 151.564 25.791 150.205 26.8223C148.846 27.8418 147.082 28.3516 144.914 28.3516C143.391 28.3516 142.043 28.082 140.871 27.543C139.699 27.0039 138.779 26.2539 138.111 25.293C137.455 24.3203 137.127 23.2715 137.127 22.1465H140.379C140.438 23.2363 140.871 24.1035 141.68 24.748C142.5 25.3809 143.578 25.6973 144.914 25.6973C146.145 25.6973 147.129 25.4512 147.867 24.959C148.617 24.4551 148.992 23.7871 148.992 22.9551ZM167.01 28V11.4941H164.004V8.98047H167.01V7.0293C167.01 4.99023 167.555 3.41406 168.645 2.30078C169.734 1.1875 171.275 0.630859 173.268 0.630859C174.018 0.630859 174.762 0.730469 175.5 0.929688L175.324 3.56641C174.773 3.46094 174.188 3.4082 173.566 3.4082C172.512 3.4082 171.697 3.71875 171.123 4.33984C170.549 4.94922 170.262 5.82813 170.262 6.97656V8.98047H174.322V11.4941H170.262V28H167.01ZM177.064 18.3145C177.064 16.4512 177.428 14.7754 178.154 13.2871C178.893 11.7988 179.912 10.6504 181.213 9.8418C182.525 9.0332 184.02 8.62891 185.695 8.62891C188.285 8.62891 190.377 9.52539 191.971 11.3184C193.576 13.1113 194.379 15.4961 194.379 18.4727V18.7012C194.379 20.5527 194.021 22.2168 193.307 23.6934C192.604 25.1582 191.59 26.3008 190.266 27.1211C188.953 27.9414 187.441 28.3516 185.73 28.3516C183.152 28.3516 181.061 27.4551 179.455 25.6621C177.861 23.8691 177.064 21.4961 177.064 18.543V18.3145ZM180.334 18.7012C180.334 20.8105 180.82 22.5039 181.793 23.7812C182.777 25.0586 184.09 25.6973 185.73 25.6973C187.383 25.6973 188.695 25.0527 189.668 23.7637C190.641 22.4629 191.127 20.6465 191.127 18.3145C191.127 16.2285 190.629 14.541 189.633 13.252C188.648 11.9512 187.336 11.3008 185.695 11.3008C184.09 11.3008 182.795 11.9395 181.811 13.2168C180.826 14.4941 180.334 16.3223 180.334 18.7012ZM207.65 11.8984C207.158 11.8164 206.625 11.7754 206.051 11.7754C203.918 11.7754 202.471 12.6836 201.709 14.5V28H198.457V8.98047H201.621L201.674 11.1777C202.74 9.47852 204.252 8.62891 206.209 8.62891C206.842 8.62891 207.322 8.71094 207.65 8.875V11.8984ZM225.809 23.2363L230.238 8.98047H233.719L226.072 30.9355C224.889 34.0996 223.008 35.6816 220.43 35.6816L219.814 35.6289L218.602 35.4004V32.7637L219.48 32.834C220.582 32.834 221.438 32.6113 222.047 32.166C222.668 31.7207 223.178 30.9062 223.576 29.7227L224.297 27.7891L217.512 8.98047H221.062L225.809 23.2363ZM235.494 18.3145C235.494 16.4512 235.857 14.7754 236.584 13.2871C237.322 11.7988 238.342 10.6504 239.643 9.8418C240.955 9.0332 242.449 8.62891 244.125 8.62891C246.715 8.62891 248.807 9.52539 250.4 11.3184C252.006 13.1113 252.809 15.4961 252.809 18.4727V18.7012C252.809 20.5527 252.451 22.2168 251.736 23.6934C251.033 25.1582 250.02 26.3008 248.695 27.1211C247.383 27.9414 245.871 28.3516 244.16 28.3516C241.582 28.3516 239.49 27.4551 237.885 25.6621C236.291 23.8691 235.494 21.4961 235.494 18.543V18.3145ZM238.764 18.7012C238.764 20.8105 239.25 22.5039 240.223 23.7812C241.207 25.0586 242.52 25.6973 244.16 25.6973C245.812 25.6973 247.125 25.0527 248.098 23.7637C249.07 22.4629 249.557 20.6465 249.557 18.3145C249.557 16.2285 249.059 14.541 248.062 13.252C247.078 11.9512 245.766 11.3008 244.125 11.3008C242.52 11.3008 241.225 11.9395 240.24 13.2168C239.256 14.4941 238.764 16.3223 238.764 18.7012ZM268.629 26.1191C267.363 27.6074 265.506 28.3516 263.057 28.3516C261.029 28.3516 259.482 27.7656 258.416 26.5938C257.361 25.4102 256.828 23.6641 256.816 21.3555V8.98047H260.068V21.2676C260.068 24.1504 261.24 25.5918 263.584 25.5918C266.068 25.5918 267.721 24.666 268.541 22.8145V8.98047H271.793V28H268.699L268.629 26.1191Z" fill="#002F34"/>
</svg>
