<svg width="1043" height="42" viewBox="0 0 1043 42" fill="none" xmlns="http://www.w3.org/2000/svg">
<rect width="205" height="42" fill="white"/>
<path d="M9.26 25.5H15.35V24.506H10.478V20.88H14.202V19.886H10.478V16.484H15.098V15.49H9.26V25.5ZM17.1337 25.5H18.3097V14.678H17.1337V25.5ZM23.6837 25.626C25.3357 25.626 26.5537 24.856 26.8057 23.386H25.6437C25.4897 24.24 24.8317 24.66 23.6977 24.66C22.1997 24.66 21.4017 23.736 21.3457 22.07H26.8617V21.692C26.8617 19.074 25.2657 18.052 23.5717 18.052C21.5557 18.052 20.1417 19.592 20.1417 21.804V21.916C20.1417 24.17 21.6117 25.626 23.6837 25.626ZM21.3877 21.132C21.5837 19.83 22.3817 19.018 23.5717 19.018C24.7757 19.018 25.5597 19.62 25.6717 21.132H21.3877ZM31.6828 25.626C33.4468 25.626 34.7208 24.45 34.8748 22.868H33.7968C33.6708 24.058 32.7328 24.66 31.6968 24.66C30.2828 24.66 29.3028 23.708 29.3028 21.916V21.804C29.3028 20.082 30.3248 19.018 31.6548 19.018C32.6628 19.018 33.5028 19.452 33.6848 20.614H34.8328C34.6088 18.752 33.1808 18.052 31.6548 18.052C29.6948 18.052 28.0988 19.564 28.0988 21.804V21.916C28.0988 24.184 29.6388 25.626 31.6828 25.626ZM38.8551 25.598C39.3311 25.598 39.6111 25.528 39.8491 25.444V24.464C39.5971 24.562 39.3171 24.618 38.9531 24.618C38.3651 24.618 38.0431 24.268 38.0431 23.554V19.158H39.7511V18.178H38.0431V16.512H36.8811V18.178H35.8311V19.158H36.8811V23.666C36.8811 24.814 37.5251 25.598 38.8551 25.598ZM41.6057 25.5H42.7677V21.482C42.7677 19.676 43.7057 19.214 45.1757 19.144V18.052C43.8597 18.094 43.2297 18.668 42.7677 19.494V18.178H41.6057V25.5ZM49.7163 24.66C48.2323 24.66 47.3223 23.568 47.3223 21.902V21.79C47.3223 20.11 48.2463 19.018 49.7163 19.018C51.1723 19.018 52.1103 20.11 52.1103 21.804V21.902C52.1103 23.554 51.1863 24.66 49.7163 24.66ZM49.7023 25.626C51.7883 25.626 53.3143 24.1 53.3143 21.888V21.776C53.3143 19.578 51.7883 18.052 49.7163 18.052C47.6443 18.052 46.1183 19.592 46.1183 21.79V21.902C46.1183 24.044 47.6163 25.626 49.7023 25.626ZM55.1135 25.5H56.2755V21.062C56.2755 19.746 57.2415 19.06 58.3195 19.06C59.4955 19.06 60.0415 19.634 60.0415 20.922V25.5H61.2035V21.006C61.2035 18.878 60.1395 18.052 58.6275 18.052C57.4235 18.052 56.6115 18.654 56.2755 19.34V18.178H55.1135V25.5ZM63.5087 25.5H64.6707V18.178H63.5087V25.5ZM64.0687 16.652C64.4887 16.652 64.8387 16.302 64.8387 15.882C64.8387 15.462 64.4887 15.112 64.0687 15.112C63.6487 15.112 63.2987 15.462 63.2987 15.882C63.2987 16.302 63.6487 16.652 64.0687 16.652ZM70.087 25.626C71.851 25.626 73.125 24.45 73.279 22.868H72.201C72.075 24.058 71.137 24.66 70.101 24.66C68.687 24.66 67.707 23.708 67.707 21.916V21.804C67.707 20.082 68.729 19.018 70.059 19.018C71.067 19.018 71.907 19.452 72.089 20.614H73.237C73.013 18.752 71.585 18.052 70.059 18.052C68.099 18.052 66.503 19.564 66.503 21.804V21.916C66.503 24.184 68.043 25.626 70.087 25.626ZM77.3014 25.626C79.0794 25.626 79.9894 24.73 79.9894 23.4C79.9894 21.846 78.9254 21.51 77.4134 21.23C76.0694 20.992 75.7054 20.726 75.7054 20.068C75.7054 19.438 76.2514 19.018 77.0914 19.018C78.0154 19.018 78.4634 19.368 78.6314 20.166H79.7514C79.5554 18.584 78.4214 18.052 77.1054 18.052C75.9574 18.052 74.6274 18.752 74.6274 20.11C74.6274 21.384 75.2714 21.916 77.1754 22.266C78.3094 22.476 78.8834 22.728 78.8834 23.498C78.8834 24.282 78.3934 24.66 77.2874 24.66C76.1114 24.66 75.6494 24.114 75.5654 23.246H74.4314C74.5014 24.744 75.5514 25.626 77.3014 25.626ZM93.3051 20.334H92.2271L91.0091 22.644L88.9091 20.082C90.1831 19.536 91.0511 18.71 91.0511 17.492C91.0511 16.288 90.0991 15.434 88.8671 15.434C87.6071 15.434 86.4171 16.218 86.4171 17.73C86.4171 18.402 86.7111 19.088 87.2991 19.844C86.0111 20.474 85.0031 21.272 85.0031 22.854C85.0031 24.506 86.3331 25.598 88.1671 25.598C89.4271 25.598 90.3091 25.024 90.9391 24.296L91.9331 25.5H93.3471L91.6671 23.456L93.3051 20.334ZM88.2091 24.646C86.9491 24.646 86.1791 23.946 86.1791 22.742C86.1791 21.566 86.8651 20.992 87.8451 20.516L90.3371 23.554C89.7351 24.282 89.0071 24.646 88.2091 24.646ZM87.5371 17.744C87.5371 16.764 88.1251 16.344 88.8251 16.344C89.4971 16.344 89.9591 16.82 89.9591 17.464C89.9591 18.43 89.5251 18.934 88.4051 19.438C87.8591 18.752 87.5371 18.248 87.5371 17.744ZM98.0958 25.5H99.2438L100.21 22.616H104.34L105.32 25.5H106.524L103.136 15.49H101.54L98.0958 25.5ZM102.282 16.498L104.018 21.65H100.546L102.282 16.498ZM108.201 28.048H109.363V24.296C109.783 25.024 110.637 25.626 111.841 25.626C113.857 25.626 115.173 24.086 115.173 21.846V21.734C115.173 19.452 113.759 18.052 111.841 18.052C110.777 18.052 109.783 18.696 109.363 19.41V18.178H108.201V28.048ZM111.729 24.66C110.301 24.66 109.321 23.778 109.321 21.902V21.79C109.321 19.914 110.357 19.018 111.715 19.018C112.947 19.018 113.969 19.942 113.969 21.79V21.902C113.969 23.68 113.185 24.66 111.729 24.66ZM116.979 28.048H118.141V24.296C118.561 25.024 119.415 25.626 120.619 25.626C122.635 25.626 123.951 24.086 123.951 21.846V21.734C123.951 19.452 122.537 18.052 120.619 18.052C119.555 18.052 118.561 18.696 118.141 19.41V18.178H116.979V28.048ZM120.507 24.66C119.079 24.66 118.099 23.778 118.099 21.902V21.79C118.099 19.914 119.135 19.018 120.493 19.018C121.725 19.018 122.747 19.942 122.747 21.79V21.902C122.747 23.68 121.963 24.66 120.507 24.66ZM125.784 25.5H126.96V14.678H125.784V25.5ZM129.366 25.5H130.528V18.178H129.366V25.5ZM129.926 16.652C130.346 16.652 130.696 16.302 130.696 15.882C130.696 15.462 130.346 15.112 129.926 15.112C129.506 15.112 129.156 15.462 129.156 15.882C129.156 16.302 129.506 16.652 129.926 16.652ZM134.74 25.626C135.818 25.626 136.476 25.262 137.022 24.576V25.5H138.184V20.67C138.184 18.626 136.91 18.052 135.51 18.052C134.096 18.052 132.766 18.668 132.612 20.334H133.774C133.886 19.438 134.446 19.018 135.454 19.018C136.574 19.018 137.022 19.508 137.022 20.67V21.202H135.972C134.096 21.202 132.304 21.776 132.304 23.47C132.304 24.968 133.382 25.626 134.74 25.626ZM134.852 24.702C133.83 24.702 133.466 24.226 133.466 23.47C133.466 22.392 134.544 22.028 136.014 22.028H137.022V22.938C137.022 24.072 136.084 24.702 134.852 24.702ZM140.467 25.5H141.629V21.062C141.629 19.746 142.595 19.06 143.673 19.06C144.849 19.06 145.395 19.634 145.395 20.922V25.5H146.557V21.006C146.557 18.878 145.493 18.052 143.981 18.052C142.777 18.052 141.965 18.654 141.629 19.34V18.178H140.467V25.5ZM151.872 25.626C153.636 25.626 154.91 24.45 155.064 22.868H153.986C153.86 24.058 152.922 24.66 151.886 24.66C150.472 24.66 149.492 23.708 149.492 21.916V21.804C149.492 20.082 150.514 19.018 151.844 19.018C152.852 19.018 153.692 19.452 153.874 20.614H155.022C154.798 18.752 153.37 18.052 151.844 18.052C149.884 18.052 148.288 19.564 148.288 21.804V21.916C148.288 24.184 149.828 25.626 151.872 25.626ZM159.815 25.626C161.467 25.626 162.685 24.856 162.937 23.386H161.775C161.621 24.24 160.963 24.66 159.829 24.66C158.331 24.66 157.533 23.736 157.477 22.07H162.993V21.692C162.993 19.074 161.397 18.052 159.703 18.052C157.687 18.052 156.273 19.592 156.273 21.804V21.916C156.273 24.17 157.743 25.626 159.815 25.626ZM157.519 21.132C157.715 19.83 158.513 19.018 159.703 19.018C160.907 19.018 161.691 19.62 161.803 21.132H157.519ZM167.112 25.626C168.89 25.626 169.8 24.73 169.8 23.4C169.8 21.846 168.736 21.51 167.224 21.23C165.88 20.992 165.516 20.726 165.516 20.068C165.516 19.438 166.062 19.018 166.902 19.018C167.826 19.018 168.274 19.368 168.442 20.166H169.562C169.366 18.584 168.232 18.052 166.916 18.052C165.768 18.052 164.438 18.752 164.438 20.11C164.438 21.384 165.082 21.916 166.986 22.266C168.12 22.476 168.694 22.728 168.694 23.498C168.694 24.282 168.204 24.66 167.098 24.66C165.922 24.66 165.46 24.114 165.376 23.246H164.242C164.312 24.744 165.362 25.626 167.112 25.626Z" fill="#002F34"/>
<path d="M183 18L188.062 23.0625L193.125 18" stroke="black" stroke-width="1.6875" stroke-linecap="round" stroke-linejoin="round"/>
<rect width="110" height="42" transform="translate(229)" fill="white"/>
<path d="M238.26 25.5H239.478V21.426H241.102C243.006 21.426 244.602 20.6 244.602 18.472V18.416C244.602 16.33 243.02 15.49 241.102 15.49H238.26V25.5ZM239.478 20.46V16.47H241.186C242.544 16.47 243.384 17.002 243.384 18.416V18.472C243.384 19.76 242.614 20.46 241.186 20.46H239.478ZM246.311 25.5H247.473V21.482C247.473 19.676 248.411 19.214 249.881 19.144V18.052C248.565 18.094 247.935 18.668 247.473 19.494V18.178H246.311V25.5ZM254.421 24.66C252.937 24.66 252.027 23.568 252.027 21.902V21.79C252.027 20.11 252.951 19.018 254.421 19.018C255.877 19.018 256.815 20.11 256.815 21.804V21.902C256.815 23.554 255.891 24.66 254.421 24.66ZM254.407 25.626C256.493 25.626 258.019 24.1 258.019 21.888V21.776C258.019 19.578 256.493 18.052 254.421 18.052C252.349 18.052 250.823 19.592 250.823 21.79V21.902C250.823 24.044 252.321 25.626 254.407 25.626ZM259.819 28.048H260.981V24.296C261.401 25.024 262.255 25.626 263.459 25.626C265.475 25.626 266.791 24.086 266.791 21.846V21.734C266.791 19.452 265.377 18.052 263.459 18.052C262.395 18.052 261.401 18.696 260.981 19.41V18.178H259.819V28.048ZM263.347 24.66C261.919 24.66 260.939 23.778 260.939 21.902V21.79C260.939 19.914 261.975 19.018 263.333 19.018C264.565 19.018 265.587 19.942 265.587 21.79V21.902C265.587 23.68 264.803 24.66 263.347 24.66ZM271.592 25.626C273.244 25.626 274.462 24.856 274.714 23.386H273.552C273.398 24.24 272.74 24.66 271.606 24.66C270.108 24.66 269.31 23.736 269.254 22.07H274.77V21.692C274.77 19.074 273.174 18.052 271.48 18.052C269.464 18.052 268.05 19.592 268.05 21.804V21.916C268.05 24.17 269.52 25.626 271.592 25.626ZM269.296 21.132C269.492 19.83 270.29 19.018 271.48 19.018C272.684 19.018 273.468 19.62 273.58 21.132H269.296ZM276.553 25.5H277.715V21.482C277.715 19.676 278.653 19.214 280.123 19.144V18.052C278.807 18.094 278.177 18.668 277.715 19.494V18.178H276.553V25.5ZM284.111 25.598C284.587 25.598 284.867 25.528 285.105 25.444V24.464C284.853 24.562 284.573 24.618 284.209 24.618C283.621 24.618 283.299 24.268 283.299 23.554V19.158H285.007V18.178H283.299V16.512H282.137V18.178H281.087V19.158H282.137V23.666C282.137 24.814 282.781 25.598 284.111 25.598ZM286.89 25.5H288.052V18.178H286.89V25.5ZM287.45 16.652C287.87 16.652 288.22 16.302 288.22 15.882C288.22 15.462 287.87 15.112 287.45 15.112C287.03 15.112 286.68 15.462 286.68 15.882C286.68 16.302 287.03 16.652 287.45 16.652ZM293.426 25.626C295.078 25.626 296.296 24.856 296.548 23.386H295.386C295.232 24.24 294.574 24.66 293.44 24.66C291.942 24.66 291.144 23.736 291.088 22.07H296.604V21.692C296.604 19.074 295.008 18.052 293.314 18.052C291.298 18.052 289.884 19.592 289.884 21.804V21.916C289.884 24.17 291.354 25.626 293.426 25.626ZM291.13 21.132C291.326 19.83 292.124 19.018 293.314 19.018C294.518 19.018 295.302 19.62 295.414 21.132H291.13ZM300.723 25.626C302.501 25.626 303.411 24.73 303.411 23.4C303.411 21.846 302.347 21.51 300.835 21.23C299.491 20.992 299.127 20.726 299.127 20.068C299.127 19.438 299.673 19.018 300.513 19.018C301.437 19.018 301.885 19.368 302.053 20.166H303.173C302.977 18.584 301.843 18.052 300.527 18.052C299.379 18.052 298.049 18.752 298.049 20.11C298.049 21.384 298.693 21.916 300.597 22.266C301.731 22.476 302.305 22.728 302.305 23.498C302.305 24.282 301.815 24.66 300.709 24.66C299.533 24.66 299.071 24.114 298.987 23.246H297.853C297.923 24.744 298.973 25.626 300.723 25.626Z" fill="#002F34"/>
<path d="M317 18L322.062 23.0625L327.125 18" stroke="black" stroke-width="1.6875" stroke-linecap="round" stroke-linejoin="round"/>
<rect width="157" height="42" transform="translate(363)" fill="white"/>
<path d="M372.26 25.5H373.38V17.072L376.81 25.5H377.188L380.506 17.072V25.5H381.724V15.49H380.044L377.048 23.288L373.954 15.49H372.26V25.5ZM387.218 24.66C385.734 24.66 384.824 23.568 384.824 21.902V21.79C384.824 20.11 385.748 19.018 387.218 19.018C388.674 19.018 389.612 20.11 389.612 21.804V21.902C389.612 23.554 388.688 24.66 387.218 24.66ZM387.204 25.626C389.29 25.626 390.816 24.1 390.816 21.888V21.776C390.816 19.578 389.29 18.052 387.218 18.052C385.146 18.052 383.62 19.592 383.62 21.79V21.902C383.62 24.044 385.118 25.626 387.204 25.626ZM396.255 25.626C398.271 25.626 399.587 24.086 399.587 21.846V21.734C399.587 19.452 398.173 18.052 396.255 18.052C395.191 18.052 394.197 18.696 393.777 19.41V14.678H392.615V25.5H393.777V24.296C394.197 25.024 395.065 25.626 396.255 25.626ZM396.143 24.66C394.715 24.66 393.735 23.778 393.735 21.902V21.79C393.735 19.914 394.771 19.018 396.129 19.018C397.361 19.018 398.383 19.942 398.383 21.79V21.902C398.383 23.68 397.599 24.66 396.143 24.66ZM401.421 25.5H402.583V18.178H401.421V25.5ZM401.981 16.652C402.401 16.652 402.751 16.302 402.751 15.882C402.751 15.462 402.401 15.112 401.981 15.112C401.561 15.112 401.211 15.462 401.211 15.882C401.211 16.302 401.561 16.652 401.981 16.652ZM404.989 25.5H406.165V14.678H404.989V25.5ZM411.539 25.626C413.191 25.626 414.409 24.856 414.661 23.386H413.499C413.345 24.24 412.687 24.66 411.553 24.66C410.055 24.66 409.257 23.736 409.201 22.07H414.717V21.692C414.717 19.074 413.121 18.052 411.427 18.052C409.411 18.052 407.997 19.592 407.997 21.804V21.916C407.997 24.17 409.467 25.626 411.539 25.626ZM409.243 21.132C409.439 19.83 410.237 19.018 411.427 19.018C412.631 19.018 413.415 19.62 413.527 21.132H409.243ZM418.837 25.626C420.615 25.626 421.525 24.73 421.525 23.4C421.525 21.846 420.461 21.51 418.949 21.23C417.605 20.992 417.241 20.726 417.241 20.068C417.241 19.438 417.787 19.018 418.627 19.018C419.551 19.018 419.999 19.368 420.167 20.166H421.287C421.091 18.584 419.957 18.052 418.641 18.052C417.493 18.052 416.163 18.752 416.163 20.11C416.163 21.384 416.807 21.916 418.711 22.266C419.845 22.476 420.419 22.728 420.419 23.498C420.419 24.282 419.929 24.66 418.823 24.66C417.647 24.66 417.185 24.114 417.101 23.246H415.967C416.037 24.744 417.087 25.626 418.837 25.626ZM434.84 20.334H433.762L432.544 22.644L430.444 20.082C431.718 19.536 432.586 18.71 432.586 17.492C432.586 16.288 431.634 15.434 430.402 15.434C429.142 15.434 427.952 16.218 427.952 17.73C427.952 18.402 428.246 19.088 428.834 19.844C427.546 20.474 426.538 21.272 426.538 22.854C426.538 24.506 427.868 25.598 429.702 25.598C430.962 25.598 431.844 25.024 432.474 24.296L433.468 25.5H434.882L433.202 23.456L434.84 20.334ZM429.744 24.646C428.484 24.646 427.714 23.946 427.714 22.742C427.714 21.566 428.4 20.992 429.38 20.516L431.872 23.554C431.27 24.282 430.542 24.646 429.744 24.646ZM429.072 17.744C429.072 16.764 429.66 16.344 430.36 16.344C431.032 16.344 431.494 16.82 431.494 17.464C431.494 18.43 431.06 18.934 429.94 19.438C429.394 18.752 429.072 18.248 429.072 17.744ZM442.445 25.5H443.663V16.484H446.575V15.49H439.533V16.484H442.445V25.5ZM449.069 25.626C450.147 25.626 450.805 25.262 451.351 24.576V25.5H452.513V20.67C452.513 18.626 451.239 18.052 449.839 18.052C448.425 18.052 447.095 18.668 446.941 20.334H448.103C448.215 19.438 448.775 19.018 449.783 19.018C450.903 19.018 451.351 19.508 451.351 20.67V21.202H450.301C448.425 21.202 446.633 21.776 446.633 23.47C446.633 24.968 447.711 25.626 449.069 25.626ZM449.181 24.702C448.159 24.702 447.795 24.226 447.795 23.47C447.795 22.392 448.873 22.028 450.343 22.028H451.351V22.938C451.351 24.072 450.413 24.702 449.181 24.702ZM458.435 25.626C460.451 25.626 461.767 24.086 461.767 21.846V21.734C461.767 19.452 460.353 18.052 458.435 18.052C457.371 18.052 456.377 18.696 455.957 19.41V14.678H454.795V25.5H455.957V24.296C456.377 25.024 457.245 25.626 458.435 25.626ZM458.323 24.66C456.895 24.66 455.915 23.778 455.915 21.902V21.79C455.915 19.914 456.951 19.018 458.309 19.018C459.541 19.018 460.563 19.942 460.563 21.79V21.902C460.563 23.68 459.779 24.66 458.323 24.66ZM463.6 25.5H464.776V14.678H463.6V25.5ZM470.151 25.626C471.803 25.626 473.021 24.856 473.273 23.386H472.111C471.957 24.24 471.299 24.66 470.165 24.66C468.667 24.66 467.869 23.736 467.813 22.07H473.329V21.692C473.329 19.074 471.733 18.052 470.039 18.052C468.023 18.052 466.609 19.592 466.609 21.804V21.916C466.609 24.17 468.079 25.626 470.151 25.626ZM467.855 21.132C468.051 19.83 468.849 19.018 470.039 19.018C471.243 19.018 472.027 19.62 472.139 21.132H467.855ZM477.338 25.598C477.814 25.598 478.094 25.528 478.332 25.444V24.464C478.08 24.562 477.8 24.618 477.436 24.618C476.848 24.618 476.526 24.268 476.526 23.554V19.158H478.234V18.178H476.526V16.512H475.364V18.178H474.314V19.158H475.364V23.666C475.364 24.814 476.008 25.598 477.338 25.598ZM482.356 25.626C484.134 25.626 485.044 24.73 485.044 23.4C485.044 21.846 483.98 21.51 482.468 21.23C481.124 20.992 480.76 20.726 480.76 20.068C480.76 19.438 481.306 19.018 482.146 19.018C483.07 19.018 483.518 19.368 483.686 20.166H484.806C484.61 18.584 483.476 18.052 482.16 18.052C481.012 18.052 479.682 18.752 479.682 20.11C479.682 21.384 480.326 21.916 482.23 22.266C483.364 22.476 483.938 22.728 483.938 23.498C483.938 24.282 483.448 24.66 482.342 24.66C481.166 24.66 480.704 24.114 480.62 23.246H479.486C479.556 24.744 480.606 25.626 482.356 25.626Z" fill="#002F34"/>
<path d="M498 18L503.062 23.0625L508.125 18" stroke="black" stroke-width="1.6875" stroke-linecap="round" stroke-linejoin="round"/>
<rect width="256" height="42" transform="translate(544)" fill="white"/>
<path d="M557.446 25.626C559.686 25.626 561.282 24.492 561.632 22.182H560.498C560.246 23.806 559.112 24.632 557.474 24.632C555.318 24.632 554.03 23.092 554.03 20.544V20.432C554.03 17.912 555.416 16.302 557.488 16.302C559.196 16.302 560.078 17.086 560.33 18.612H561.534C561.324 16.442 559.56 15.336 557.474 15.336C554.758 15.336 552.77 17.478 552.77 20.446V20.558C552.77 23.638 554.548 25.626 557.446 25.626ZM566.455 24.66C564.971 24.66 564.061 23.568 564.061 21.902V21.79C564.061 20.11 564.985 19.018 566.455 19.018C567.911 19.018 568.849 20.11 568.849 21.804V21.902C568.849 23.554 567.925 24.66 566.455 24.66ZM566.441 25.626C568.527 25.626 570.053 24.1 570.053 21.888V21.776C570.053 19.578 568.527 18.052 566.455 18.052C564.383 18.052 562.857 19.592 562.857 21.79V21.902C562.857 24.044 564.355 25.626 566.441 25.626ZM571.852 25.5H573.014V21.02C573.014 19.704 573.994 19.06 574.946 19.06C575.954 19.06 576.5 19.592 576.5 20.88V25.5H577.662V21.02C577.662 19.704 578.642 19.06 579.594 19.06C580.602 19.06 581.148 19.592 581.148 20.88V25.5H582.31V20.964C582.31 18.836 581.162 18.052 579.846 18.052C578.936 18.052 577.844 18.472 577.34 19.424C576.962 18.444 576.136 18.052 575.198 18.052C574.148 18.052 573.35 18.612 573.014 19.298V18.178H571.852V25.5ZM584.594 25.5H585.756V21.02C585.756 19.704 586.736 19.06 587.688 19.06C588.696 19.06 589.242 19.592 589.242 20.88V25.5H590.404V21.02C590.404 19.704 591.384 19.06 592.336 19.06C593.344 19.06 593.89 19.592 593.89 20.88V25.5H595.052V20.964C595.052 18.836 593.904 18.052 592.588 18.052C591.678 18.052 590.586 18.472 590.082 19.424C589.704 18.444 588.878 18.052 587.94 18.052C586.89 18.052 586.092 18.612 585.756 19.298V18.178H584.594V25.5ZM600.332 25.626C601.984 25.626 603.202 24.856 603.454 23.386H602.292C602.138 24.24 601.48 24.66 600.346 24.66C598.848 24.66 598.05 23.736 597.994 22.07H603.51V21.692C603.51 19.074 601.914 18.052 600.22 18.052C598.204 18.052 596.79 19.592 596.79 21.804V21.916C596.79 24.17 598.26 25.626 600.332 25.626ZM598.036 21.132C598.232 19.83 599.03 19.018 600.22 19.018C601.424 19.018 602.208 19.62 602.32 21.132H598.036ZM605.293 25.5H606.455V21.482C606.455 19.676 607.393 19.214 608.863 19.144V18.052C607.547 18.094 606.917 18.668 606.455 19.494V18.178H605.293V25.5ZM613.39 25.626C615.154 25.626 616.428 24.45 616.582 22.868H615.504C615.378 24.058 614.44 24.66 613.404 24.66C611.99 24.66 611.01 23.708 611.01 21.916V21.804C611.01 20.082 612.032 19.018 613.362 19.018C614.37 19.018 615.21 19.452 615.392 20.614H616.54C616.316 18.752 614.888 18.052 613.362 18.052C611.402 18.052 609.806 19.564 609.806 21.804V21.916C609.806 24.184 611.346 25.626 613.39 25.626ZM618.364 25.5H619.526V18.178H618.364V25.5ZM618.924 16.652C619.344 16.652 619.694 16.302 619.694 15.882C619.694 15.462 619.344 15.112 618.924 15.112C618.504 15.112 618.154 15.462 618.154 15.882C618.154 16.302 618.504 16.652 618.924 16.652ZM623.739 25.626C624.817 25.626 625.475 25.262 626.021 24.576V25.5H627.183V20.67C627.183 18.626 625.909 18.052 624.509 18.052C623.095 18.052 621.765 18.668 621.611 20.334H622.773C622.885 19.438 623.445 19.018 624.453 19.018C625.573 19.018 626.021 19.508 626.021 20.67V21.202H624.971C623.095 21.202 621.303 21.776 621.303 23.47C621.303 24.968 622.381 25.626 623.739 25.626ZM623.851 24.702C622.829 24.702 622.465 24.226 622.465 23.47C622.465 22.392 623.543 22.028 625.013 22.028H626.021V22.938C626.021 24.072 625.083 24.702 623.851 24.702ZM629.493 25.5H630.669V14.678H629.493V25.5ZM639.398 25.5H640.854L644.312 15.49H643.164L640.182 24.324L637.2 15.49H635.996L639.398 25.5ZM648.074 25.626C649.726 25.626 650.944 24.856 651.196 23.386H650.034C649.88 24.24 649.222 24.66 648.088 24.66C646.59 24.66 645.792 23.736 645.736 22.07H651.252V21.692C651.252 19.074 649.656 18.052 647.962 18.052C645.946 18.052 644.532 19.592 644.532 21.804V21.916C644.532 24.17 646.002 25.626 648.074 25.626ZM645.778 21.132C645.974 19.83 646.772 19.018 647.962 19.018C649.166 19.018 649.95 19.62 650.062 21.132H645.778ZM653.035 25.5H654.197V21.062C654.197 19.746 655.163 19.06 656.241 19.06C657.417 19.06 657.963 19.634 657.963 20.922V25.5H659.125V21.006C659.125 18.878 658.061 18.052 656.549 18.052C655.345 18.052 654.533 18.654 654.197 19.34V14.678H653.035V25.5ZM661.431 25.5H662.593V18.178H661.431V25.5ZM661.991 16.652C662.411 16.652 662.761 16.302 662.761 15.882C662.761 15.462 662.411 15.112 661.991 15.112C661.571 15.112 661.221 15.462 661.221 15.882C661.221 16.302 661.571 16.652 661.991 16.652ZM668.009 25.626C669.773 25.626 671.047 24.45 671.201 22.868H670.123C669.997 24.058 669.059 24.66 668.023 24.66C666.609 24.66 665.629 23.708 665.629 21.916V21.804C665.629 20.082 666.651 19.018 667.981 19.018C668.989 19.018 669.829 19.452 670.011 20.614H671.159C670.935 18.752 669.507 18.052 667.981 18.052C666.021 18.052 664.425 19.564 664.425 21.804V21.916C664.425 24.184 665.965 25.626 668.009 25.626ZM672.983 25.5H674.159V14.678H672.983V25.5ZM679.533 25.626C681.185 25.626 682.403 24.856 682.655 23.386H681.493C681.339 24.24 680.681 24.66 679.547 24.66C678.049 24.66 677.251 23.736 677.195 22.07H682.711V21.692C682.711 19.074 681.115 18.052 679.421 18.052C677.405 18.052 675.991 19.592 675.991 21.804V21.916C675.991 24.17 677.461 25.626 679.533 25.626ZM677.237 21.132C677.433 19.83 678.231 19.018 679.421 19.018C680.625 19.018 681.409 19.62 681.521 21.132H677.237ZM686.831 25.626C688.609 25.626 689.519 24.73 689.519 23.4C689.519 21.846 688.455 21.51 686.943 21.23C685.599 20.992 685.235 20.726 685.235 20.068C685.235 19.438 685.781 19.018 686.621 19.018C687.545 19.018 687.993 19.368 688.161 20.166H689.281C689.085 18.584 687.951 18.052 686.635 18.052C685.487 18.052 684.157 18.752 684.157 20.11C684.157 21.384 684.801 21.916 686.705 22.266C687.839 22.476 688.413 22.728 688.413 23.498C688.413 24.282 687.923 24.66 686.817 24.66C685.641 24.66 685.179 24.114 685.095 23.246H683.961C684.031 24.744 685.081 25.626 686.831 25.626ZM696.828 25.626C697.906 25.626 698.564 25.262 699.11 24.576V25.5H700.272V20.67C700.272 18.626 698.998 18.052 697.598 18.052C696.184 18.052 694.854 18.668 694.7 20.334H695.862C695.974 19.438 696.534 19.018 697.542 19.018C698.662 19.018 699.11 19.508 699.11 20.67V21.202H698.06C696.184 21.202 694.392 21.776 694.392 23.47C694.392 24.968 695.47 25.626 696.828 25.626ZM696.94 24.702C695.918 24.702 695.554 24.226 695.554 23.47C695.554 22.392 696.632 22.028 698.102 22.028H699.11V22.938C699.11 24.072 698.172 24.702 696.94 24.702ZM702.555 25.5H703.717V21.062C703.717 19.746 704.683 19.06 705.761 19.06C706.937 19.06 707.483 19.634 707.483 20.922V25.5H708.645V21.006C708.645 18.878 707.581 18.052 706.069 18.052C704.865 18.052 704.053 18.654 703.717 19.34V18.178H702.555V25.5ZM713.68 25.626C714.744 25.626 715.766 24.954 716.186 24.24V25.5H717.348V14.678H716.186V19.354C715.766 18.64 715.01 18.052 713.792 18.052C711.776 18.052 710.376 19.634 710.376 21.874V21.986C710.376 24.268 711.762 25.626 713.68 25.626ZM713.806 24.66C712.574 24.66 711.58 23.778 711.58 21.93V21.818C711.58 20.04 712.448 19.018 713.904 19.018C715.332 19.018 716.228 19.9 716.228 21.776V21.888C716.228 23.764 715.164 24.66 713.806 24.66ZM725.673 25.626C727.451 25.626 728.361 24.73 728.361 23.4C728.361 21.846 727.297 21.51 725.785 21.23C724.441 20.992 724.077 20.726 724.077 20.068C724.077 19.438 724.623 19.018 725.463 19.018C726.387 19.018 726.835 19.368 727.003 20.166H728.123C727.927 18.584 726.793 18.052 725.477 18.052C724.329 18.052 722.999 18.752 722.999 20.11C722.999 21.384 723.643 21.916 725.547 22.266C726.681 22.476 727.255 22.728 727.255 23.498C727.255 24.282 726.765 24.66 725.659 24.66C724.483 24.66 724.021 24.114 723.937 23.246H722.803C722.873 24.744 723.923 25.626 725.673 25.626ZM730.131 28.048H731.293V24.296C731.713 25.024 732.567 25.626 733.771 25.626C735.787 25.626 737.103 24.086 737.103 21.846V21.734C737.103 19.452 735.689 18.052 733.771 18.052C732.707 18.052 731.713 18.696 731.293 19.41V18.178H730.131V28.048ZM733.659 24.66C732.231 24.66 731.251 23.778 731.251 21.902V21.79C731.251 19.914 732.287 19.018 733.645 19.018C734.877 19.018 735.899 19.942 735.899 21.79V21.902C735.899 23.68 735.115 24.66 733.659 24.66ZM740.742 25.626C741.82 25.626 742.478 25.262 743.024 24.576V25.5H744.186V20.67C744.186 18.626 742.912 18.052 741.512 18.052C740.098 18.052 738.768 18.668 738.614 20.334H739.776C739.888 19.438 740.448 19.018 741.456 19.018C742.576 19.018 743.024 19.508 743.024 20.67V21.202H741.974C740.098 21.202 738.306 21.776 738.306 23.47C738.306 24.968 739.384 25.626 740.742 25.626ZM740.854 24.702C739.832 24.702 739.468 24.226 739.468 23.47C739.468 22.392 740.546 22.028 742.016 22.028H743.024V22.938C743.024 24.072 742.086 24.702 740.854 24.702ZM746.469 25.5H747.631V21.482C747.631 19.676 748.569 19.214 750.039 19.144V18.052C748.723 18.094 748.093 18.668 747.631 19.494V18.178H746.469V25.5ZM754.524 25.626C756.176 25.626 757.394 24.856 757.646 23.386H756.484C756.33 24.24 755.672 24.66 754.538 24.66C753.04 24.66 752.242 23.736 752.186 22.07H757.702V21.692C757.702 19.074 756.106 18.052 754.412 18.052C752.396 18.052 750.982 19.592 750.982 21.804V21.916C750.982 24.17 752.452 25.626 754.524 25.626ZM752.228 21.132C752.424 19.83 753.222 19.018 754.412 19.018C755.616 19.018 756.4 19.62 756.512 21.132H752.228ZM761.821 25.626C763.599 25.626 764.509 24.73 764.509 23.4C764.509 21.846 763.445 21.51 761.933 21.23C760.589 20.992 760.225 20.726 760.225 20.068C760.225 19.438 760.771 19.018 761.611 19.018C762.535 19.018 762.983 19.368 763.151 20.166H764.271C764.075 18.584 762.941 18.052 761.625 18.052C760.477 18.052 759.147 18.752 759.147 20.11C759.147 21.384 759.791 21.916 761.695 22.266C762.829 22.476 763.403 22.728 763.403 23.498C763.403 24.282 762.913 24.66 761.807 24.66C760.631 24.66 760.169 24.114 760.085 23.246H758.951C759.021 24.744 760.071 25.626 761.821 25.626Z" fill="#002F34"/>
<path d="M778 18L783.062 23.0625L788.125 18" stroke="black" stroke-width="1.6875" stroke-linecap="round" stroke-linejoin="round"/>
<rect width="102" height="42" transform="translate(824)" fill="white"/>
<path d="M833.26 25.5H834.478V21.02H838.09V20.026H834.478V16.484H839.112V15.49H833.26V25.5ZM843.023 25.626C844.199 25.626 845.011 25.024 845.347 24.338V25.5H846.509V18.178H845.347V22.616C845.347 23.932 844.367 24.618 843.331 24.618C842.183 24.618 841.637 24.044 841.637 22.756V18.178H840.475V22.812C840.475 24.828 841.567 25.626 843.023 25.626ZM848.858 25.5H850.02V21.482C850.02 19.676 850.958 19.214 852.428 19.144V18.052C851.112 18.094 850.482 18.668 850.02 19.494V18.178H848.858V25.5ZM854.121 25.5H855.283V21.062C855.283 19.746 856.249 19.06 857.327 19.06C858.503 19.06 859.049 19.634 859.049 20.922V25.5H860.211V21.006C860.211 18.878 859.147 18.052 857.635 18.052C856.431 18.052 855.619 18.654 855.283 19.34V18.178H854.121V25.5ZM862.517 25.5H863.679V18.178H862.517V25.5ZM863.077 16.652C863.497 16.652 863.847 16.302 863.847 15.882C863.847 15.462 863.497 15.112 863.077 15.112C862.657 15.112 862.307 15.462 862.307 15.882C862.307 16.302 862.657 16.652 863.077 16.652ZM868.283 25.598C868.759 25.598 869.039 25.528 869.277 25.444V24.464C869.025 24.562 868.745 24.618 868.381 24.618C867.793 24.618 867.471 24.268 867.471 23.554V19.158H869.179V18.178H867.471V16.512H866.309V18.178H865.259V19.158H866.309V23.666C866.309 24.814 866.953 25.598 868.283 25.598ZM873.511 25.626C874.687 25.626 875.499 25.024 875.835 24.338V25.5H876.997V18.178H875.835V22.616C875.835 23.932 874.855 24.618 873.819 24.618C872.671 24.618 872.125 24.044 872.125 22.756V18.178H870.963V22.812C870.963 24.828 872.055 25.626 873.511 25.626ZM879.346 25.5H880.508V21.482C880.508 19.676 881.446 19.214 882.916 19.144V18.052C881.6 18.094 880.97 18.668 880.508 19.494V18.178H879.346V25.5ZM887.401 25.626C889.053 25.626 890.271 24.856 890.523 23.386H889.361C889.207 24.24 888.549 24.66 887.415 24.66C885.917 24.66 885.119 23.736 885.063 22.07H890.579V21.692C890.579 19.074 888.983 18.052 887.289 18.052C885.273 18.052 883.859 19.592 883.859 21.804V21.916C883.859 24.17 885.329 25.626 887.401 25.626ZM885.105 21.132C885.301 19.83 886.099 19.018 887.289 19.018C888.493 19.018 889.277 19.62 889.389 21.132H885.105Z" fill="#002F34"/>
<path d="M904 18L909.062 23.0625L914.125 18" stroke="black" stroke-width="1.6875" stroke-linecap="round" stroke-linejoin="round"/>
<rect width="93" height="42" transform="translate(950)" fill="white"/>
<path d="M959.26 25.5H960.478V21.02H964.09V20.026H960.478V16.484H965.112V15.49H959.26V25.5ZM968.379 25.626C969.457 25.626 970.115 25.262 970.661 24.576V25.5H971.823V20.67C971.823 18.626 970.549 18.052 969.149 18.052C967.735 18.052 966.405 18.668 966.251 20.334H967.413C967.525 19.438 968.085 19.018 969.093 19.018C970.213 19.018 970.661 19.508 970.661 20.67V21.202H969.611C967.735 21.202 965.943 21.776 965.943 23.47C965.943 24.968 967.021 25.626 968.379 25.626ZM968.491 24.702C967.469 24.702 967.105 24.226 967.105 23.47C967.105 22.392 968.183 22.028 969.653 22.028H970.661V22.938C970.661 24.072 969.723 24.702 968.491 24.702ZM976.374 25.626C978.152 25.626 979.062 24.73 979.062 23.4C979.062 21.846 977.998 21.51 976.486 21.23C975.142 20.992 974.778 20.726 974.778 20.068C974.778 19.438 975.324 19.018 976.164 19.018C977.088 19.018 977.536 19.368 977.704 20.166H978.824C978.628 18.584 977.494 18.052 976.178 18.052C975.03 18.052 973.7 18.752 973.7 20.11C973.7 21.384 974.344 21.916 976.248 22.266C977.382 22.476 977.956 22.728 977.956 23.498C977.956 24.282 977.466 24.66 976.36 24.66C975.184 24.66 974.722 24.114 974.638 23.246H973.504C973.574 24.744 974.624 25.626 976.374 25.626ZM980.832 25.5H981.994V21.062C981.994 19.746 982.96 19.06 984.038 19.06C985.214 19.06 985.76 19.634 985.76 20.922V25.5H986.922V21.006C986.922 18.878 985.858 18.052 984.346 18.052C983.142 18.052 982.33 18.654 981.994 19.34V14.678H980.832V25.5ZM989.227 25.5H990.389V18.178H989.227V25.5ZM989.787 16.652C990.207 16.652 990.557 16.302 990.557 15.882C990.557 15.462 990.207 15.112 989.787 15.112C989.367 15.112 989.017 15.462 989.017 15.882C989.017 16.302 989.367 16.652 989.787 16.652ZM995.82 24.66C994.336 24.66 993.426 23.568 993.426 21.902V21.79C993.426 20.11 994.35 19.018 995.82 19.018C997.276 19.018 998.214 20.11 998.214 21.804V21.902C998.214 23.554 997.29 24.66 995.82 24.66ZM995.806 25.626C997.892 25.626 999.418 24.1 999.418 21.888V21.776C999.418 19.578 997.892 18.052 995.82 18.052C993.748 18.052 992.222 19.592 992.222 21.79V21.902C992.222 24.044 993.72 25.626 995.806 25.626ZM1001.22 25.5H1002.38V21.062C1002.38 19.746 1003.35 19.06 1004.42 19.06C1005.6 19.06 1006.15 19.634 1006.15 20.922V25.5H1007.31V21.006C1007.31 18.878 1006.24 18.052 1004.73 18.052C1003.53 18.052 1002.72 18.654 1002.38 19.34V18.178H1001.22V25.5Z" fill="#002F34"/>
<path d="M1021 18L1026.06 23.0625L1031.12 18" stroke="black" stroke-width="1.6875" stroke-linecap="round" stroke-linejoin="round"/>
</svg>
