<svg width="126" height="42" viewBox="0 0 126 42" fill="none" xmlns="http://www.w3.org/2000/svg">
<path d="M0 4C0 1.79086 1.79086 0 4 0H122C124.209 0 126 1.79086 126 4V38C126 40.2091 124.209 42 122 42H4C1.79086 42 0 40.2091 0 38V4Z" fill="#003034"/>
<path d="M38.2 26.16C40.728 26.16 42.408 24.608 42.408 22.624C42.408 20.336 41.016 19.568 38.328 19.2C36.344 18.912 35.96 18.448 35.96 17.52C35.96 16.64 36.632 16.016 37.928 16.016C39.24 16.016 39.928 16.528 40.136 17.728H42.088C41.864 15.536 40.392 14.416 37.928 14.416C35.544 14.416 33.944 15.824 33.944 17.696C33.944 19.84 35.24 20.672 37.976 21.04C39.832 21.344 40.36 21.744 40.36 22.8C40.36 23.856 39.464 24.56 38.2 24.56C36.264 24.56 35.8 23.6 35.656 22.448H33.608C33.768 24.608 35.08 26.16 38.2 26.16ZM47.9883 26.16C50.1323 26.16 51.5563 25.2 51.8283 23.44H49.9563C49.8123 24.256 49.2043 24.72 48.0363 24.72C46.5963 24.72 45.7963 23.824 45.7323 22.24H51.8603V21.68C51.8603 18.688 49.9883 17.456 47.9083 17.456C45.5243 17.456 43.7483 19.184 43.7483 21.776V21.904C43.7483 24.544 45.5243 26.16 47.9883 26.16ZM45.7643 20.944C45.9563 19.648 46.7403 18.864 47.9083 18.864C49.1083 18.864 49.8443 19.504 49.9403 20.944H45.7643ZM53.6375 26H55.5735V13.76H53.6375V26ZM57.9813 26H59.9173V13.76H57.9813V26ZM71.2575 26.16C73.9775 26.16 75.9295 24.768 76.2655 22.016H74.1855C73.9615 23.632 72.8415 24.432 71.2575 24.432C69.1455 24.432 67.9135 22.912 67.9135 20.336V20.208C67.9135 17.648 69.2255 16.08 71.2415 16.08C72.8895 16.08 73.7375 16.864 73.9775 18.384H76.1375C75.8815 15.696 73.8495 14.384 71.2255 14.384C68.0415 14.384 65.6735 16.784 65.6735 20.224V20.352C65.6735 23.872 67.6735 26.16 71.2575 26.16ZM80.219 26.16C81.499 26.16 82.235 25.696 82.779 24.976V26H84.683V20.512C84.683 18.224 83.211 17.456 81.339 17.456C79.467 17.456 77.915 18.272 77.755 20.224H79.627C79.723 19.392 80.219 18.912 81.227 18.912C82.363 18.912 82.747 19.472 82.747 20.592V21.024H81.707C79.307 21.024 77.419 21.728 77.419 23.68C77.419 25.424 78.683 26.16 80.219 26.16ZM80.683 24.768C79.723 24.768 79.339 24.304 79.339 23.6C79.339 22.576 80.283 22.24 81.755 22.24H82.747V23.072C82.747 24.144 81.867 24.768 80.683 24.768ZM86.902 26H88.838V21.648C88.838 19.872 89.862 19.328 91.558 19.312V17.504C90.15 17.52 89.366 18.144 88.838 19.2V17.632H86.902V26Z" fill="white"/>
<path d="M4 1H122V-1H4V1ZM125 4V38H127V4H125ZM122 41H4V43H122V41ZM1 38V4H-1V38H1ZM4 41C2.34315 41 1 39.6569 1 38H-1C-1 40.7614 1.23858 43 4 43V41ZM125 38C125 39.6569 123.657 41 122 41V43C124.761 43 127 40.7614 127 38H125ZM122 1C123.657 1 125 2.34315 125 4H127C127 1.23858 124.761 -1 122 -1V1ZM4 -1C1.23858 -1 -1 1.23858 -1 4H1C1 2.34315 2.34315 1 4 1V-1Z" fill="black"/>
</svg>
