<svg width="126" height="42" viewBox="0 0 126 42" fill="none" xmlns="http://www.w3.org/2000/svg">
<path d="M0 4C0 1.79086 1.79086 0 4 0H122C124.209 0 126 1.79086 126 4V38C126 40.2091 124.209 42 122 42H4C1.79086 42 0 40.2091 0 38V4Z" fill="white"/>
<path d="M34.312 26H38.712C41.224 26 42.632 24.928 42.632 22.8V22.736C42.632 21.216 41.896 20.368 40.344 20.032C41.64 19.632 42.152 18.736 42.152 17.6V17.536C42.152 15.456 40.76 14.56 38.408 14.56H34.312V26ZM36.392 24.48V20.816H38.312C39.88 20.816 40.536 21.408 40.536 22.592V22.656C40.536 23.84 39.88 24.48 38.456 24.48H36.392ZM36.392 19.376V16.08H38.12C39.48 16.08 40.104 16.544 40.104 17.632V17.696C40.104 18.864 39.56 19.376 38.152 19.376H36.392ZM47.2645 26.16C48.6245 26.16 49.5045 25.504 49.9205 24.688V26H51.8565V17.632H49.9205V22.608C49.9205 23.936 49.0085 24.608 47.9685 24.608C46.8485 24.608 46.3205 24.032 46.3205 22.768V17.632H44.3845V22.992C44.3845 25.216 45.6165 26.16 47.2645 26.16ZM55.08 28.864H56.984L61.544 17.632H59.656L57.608 23.024L55.384 17.632H53.288L56.6 25.152L55.08 28.864ZM71.9763 26.16C74.6962 26.16 76.6483 24.768 76.9843 22.016H74.9043C74.6803 23.632 73.5603 24.432 71.9763 24.432C69.8643 24.432 68.6323 22.912 68.6323 20.336V20.208C68.6323 17.648 69.9443 16.08 71.9603 16.08C73.6083 16.08 74.4563 16.864 74.6962 18.384H76.8563C76.6003 15.696 74.5683 14.384 71.9443 14.384C68.7603 14.384 66.3923 16.784 66.3923 20.224V20.352C66.3923 23.872 68.3923 26.16 71.9763 26.16ZM80.9378 26.16C82.2178 26.16 82.9538 25.696 83.4978 24.976V26H85.4018V20.512C85.4018 18.224 83.9298 17.456 82.0578 17.456C80.1858 17.456 78.6338 18.272 78.4738 20.224H80.3458C80.4418 19.392 80.9378 18.912 81.9458 18.912C83.0818 18.912 83.4658 19.472 83.4658 20.592V21.024H82.4258C80.0258 21.024 78.1378 21.728 78.1378 23.68C78.1378 25.424 79.4018 26.16 80.9378 26.16ZM81.4018 24.768C80.4418 24.768 80.0578 24.304 80.0578 23.6C80.0578 22.576 81.0018 22.24 82.4738 22.24H83.4658V23.072C83.4658 24.144 82.5858 24.768 81.4018 24.768ZM87.6208 26H89.5568V21.648C89.5568 19.872 90.5807 19.328 92.2768 19.312V17.504C90.8688 17.52 90.0848 18.144 89.5568 19.2V17.632H87.6208V26Z" fill="#002F34"/>
<path d="M4 1H122V-1H4V1ZM125 4V38H127V4H125ZM122 41H4V43H122V41ZM1 38V4H-1V38H1ZM4 41C2.34315 41 1 39.6569 1 38H-1C-1 40.7614 1.23858 43 4 43V41ZM125 38C125 39.6569 123.657 41 122 41V43C124.761 43 127 40.7614 127 38H125ZM122 1C123.657 1 125 2.34315 125 4H127C127 1.23858 124.761 -1 122 -1V1ZM4 -1C1.23858 -1 -1 1.23858 -1 4H1C1 2.34315 2.34315 1 4 1V-1Z" fill="black"/>
</svg>
