<svg width="541" height="110" viewBox="0 0 541 110" fill="none" xmlns="http://www.w3.org/2000/svg">
<path d="M2.936 37H8.744V10.696L24.2 37H30.824V2.68H25.016V27.496L10.568 2.68H2.936V37ZM49.2193 32.968C44.8033 32.968 42.2593 29.752 42.2593 24.616V24.232C42.2593 19.048 44.8993 15.928 49.2193 15.928C53.5393 15.928 56.1313 19.096 56.1313 24.28V24.616C56.1313 29.752 53.5393 32.968 49.2193 32.968ZM49.1713 37.48C56.5633 37.48 62.0833 32.392 62.0833 24.568V24.184C62.0833 16.504 56.5633 11.368 49.2193 11.368C41.8273 11.368 36.3073 16.552 36.3073 24.328V24.712C36.3073 32.344 41.7793 37.48 49.1713 37.48ZM71.8119 37H77.7639L82.8519 20.104L87.5079 37H93.4119L101.284 11.896H95.6199L90.3879 30.04L85.4919 11.896H80.6439L75.3159 30.04L70.3239 11.896H64.1319L71.8119 37ZM103.835 42.904L110.123 32.152L104.603 29.944L100.235 41.32L103.835 42.904ZM128.28 37H141.48C149.016 37 153.24 33.784 153.24 27.4V27.208C153.24 22.648 151.032 20.104 146.376 19.096C150.264 17.896 151.8 15.208 151.8 11.8V11.608C151.8 5.368 147.624 2.68 140.568 2.68H128.28V37ZM134.52 32.44V21.448H140.28C144.984 21.448 146.952 23.224 146.952 26.776V26.968C146.952 30.52 144.984 32.44 140.712 32.44H134.52ZM134.52 17.128V7.24H139.704C143.784 7.24 145.656 8.632 145.656 11.896V12.088C145.656 15.592 144.024 17.128 139.8 17.128H134.52ZM167.137 37.48C171.217 37.48 173.857 35.512 175.105 33.064V37H180.913V11.896H175.105V26.824C175.105 30.808 172.369 32.824 169.249 32.824C165.889 32.824 164.305 31.096 164.305 27.304V11.896H158.497V27.976C158.497 34.648 162.193 37.48 167.137 37.48ZM190.584 45.592H196.296L209.976 11.896H204.312L198.168 28.072L191.496 11.896H185.208L195.144 34.456L190.584 45.592ZM232.345 37.48C236.185 37.48 238.393 36.088 240.025 33.928V37H245.737V20.536C245.737 13.672 241.321 11.368 235.705 11.368C230.089 11.368 225.433 13.816 224.953 19.672H230.569C230.857 17.176 232.345 15.736 235.369 15.736C238.777 15.736 239.929 17.416 239.929 20.776V22.072H236.809C229.609 22.072 223.945 24.184 223.945 30.04C223.945 35.272 227.737 37.48 232.345 37.48ZM233.737 33.304C230.857 33.304 229.705 31.912 229.705 29.8C229.705 26.728 232.537 25.72 236.953 25.72H239.929V28.216C239.929 31.432 237.289 33.304 233.737 33.304ZM252.394 37H258.202V22.216C258.202 18.232 260.842 16.216 264.106 16.216C267.562 16.216 269.098 17.944 269.098 21.736V37H274.906V21.208C274.906 14.296 271.354 11.368 266.314 11.368C262.186 11.368 259.402 13.432 258.202 15.88V11.896H252.394V37ZM291.005 37.48C294.701 37.48 297.917 35.272 299.261 32.776V37H305.069V0.279998H299.261V15.736C297.869 13.24 295.325 11.368 291.245 11.368C284.717 11.368 279.965 16.456 279.965 24.472V24.856C279.965 33.016 284.717 37.48 291.005 37.48ZM292.445 32.872C288.701 32.872 285.917 30.232 285.917 24.712V24.328C285.917 18.904 288.413 15.928 292.685 15.928C296.909 15.928 299.453 18.664 299.453 24.184V24.568C299.453 30.184 296.477 32.872 292.445 32.872ZM335.553 37.48C343.137 37.48 348.177 32.824 348.177 26.872C348.177 20.008 344.001 17.704 335.937 16.6C329.985 15.736 328.833 14.344 328.833 11.56C328.833 8.92 330.849 7.048 334.737 7.048C338.673 7.048 340.737 8.584 341.361 12.184H347.217C346.545 5.608 342.129 2.248 334.737 2.248C327.585 2.248 322.785 6.472 322.785 12.088C322.785 18.52 326.673 21.016 334.881 22.12C340.449 23.032 342.033 24.232 342.033 27.4C342.033 30.568 339.345 32.68 335.553 32.68C329.745 32.68 328.353 29.8 327.921 26.344H321.777C322.257 32.824 326.193 37.48 335.553 37.48ZM364.918 37.48C371.35 37.48 375.622 34.6 376.438 29.32H370.822C370.39 31.768 368.566 33.16 365.062 33.16C360.742 33.16 358.342 30.472 358.15 25.72H376.534V24.04C376.534 15.064 370.918 11.368 364.678 11.368C357.526 11.368 352.198 16.552 352.198 24.328V24.712C352.198 32.632 357.526 37.48 364.918 37.48ZM358.246 21.832C358.822 17.944 361.174 15.592 364.678 15.592C368.278 15.592 370.486 17.512 370.774 21.832H358.246ZM381.866 37H387.674V0.279998H381.866V37ZM394.897 37H400.705V0.279998H394.897V37ZM434.726 37.48C442.886 37.48 448.742 33.304 449.75 25.048H443.51C442.838 29.896 439.478 32.296 434.726 32.296C428.39 32.296 424.694 27.736 424.694 20.008V19.624C424.694 11.944 428.63 7.24 434.678 7.24C439.622 7.24 442.166 9.592 442.886 14.152H449.366C448.598 6.088 442.502 2.152 434.63 2.152C425.078 2.152 417.974 9.352 417.974 19.672V20.056C417.974 30.616 423.974 37.48 434.726 37.48ZM461.61 37.48C465.45 37.48 467.658 36.088 469.29 33.928V37H475.002V20.536C475.002 13.672 470.586 11.368 464.97 11.368C459.354 11.368 454.698 13.816 454.218 19.672H459.834C460.122 17.176 461.61 15.736 464.634 15.736C468.042 15.736 469.194 17.416 469.194 20.776V22.072H466.074C458.874 22.072 453.21 24.184 453.21 30.04C453.21 35.272 457.002 37.48 461.61 37.48ZM463.002 33.304C460.122 33.304 458.97 31.912 458.97 29.8C458.97 26.728 461.802 25.72 466.218 25.72H469.194V28.216C469.194 31.432 466.554 33.304 463.002 33.304ZM481.659 37H487.467V23.944C487.467 18.616 490.539 16.984 495.627 16.936V11.512C491.403 11.56 489.051 13.432 487.467 16.6V11.896H481.659V37ZM509.329 37.48C515.761 37.48 519.361 34.552 519.361 29.464C519.361 24.136 515.857 22.696 509.953 21.784C505.969 21.112 504.769 20.392 504.769 18.568C504.769 16.792 506.257 15.592 508.753 15.592C511.441 15.592 512.737 16.648 513.217 18.952H518.593C517.969 13.288 513.889 11.368 508.753 11.368C504.049 11.368 499.345 13.864 499.345 18.904C499.345 23.608 501.793 25.48 508.417 26.536C512.113 27.16 513.793 27.928 513.793 29.992C513.793 32.104 512.401 33.208 509.281 33.208C505.873 33.208 504.577 31.72 504.289 29.176H498.817C499.057 34.504 502.849 37.48 509.329 37.48ZM11.864 101.48C15.56 101.48 18.776 99.272 20.12 96.776V101H25.928V64.28H20.12V79.736C18.728 77.24 16.184 75.368 12.104 75.368C5.576 75.368 0.824 80.456 0.824 88.472V88.856C0.824 97.016 5.576 101.48 11.864 101.48ZM13.304 96.872C9.56 96.872 6.776 94.232 6.776 88.712V88.328C6.776 82.904 9.272 79.928 13.544 79.928C17.768 79.928 20.312 82.664 20.312 88.184V88.568C20.312 94.184 17.336 96.872 13.304 96.872ZM32.975 101H38.783V75.896H32.975V101ZM35.807 71.768C37.727 71.768 39.263 70.328 39.263 68.456C39.263 66.536 37.727 65.096 35.807 65.096C33.887 65.096 32.351 66.536 32.351 68.456C32.351 70.328 33.887 71.768 35.807 71.768ZM45.8623 101H51.6703V87.944C51.6703 82.616 54.7422 80.984 59.8303 80.936V75.512C55.6063 75.56 53.2543 77.432 51.6703 80.6V75.896H45.8623V101ZM75.5116 101.48C81.9436 101.48 86.2156 98.6 87.0316 93.32H81.4156C80.9836 95.768 79.1596 97.16 75.6556 97.16C71.3356 97.16 68.9356 94.472 68.7436 89.72H87.1276V88.04C87.1276 79.064 81.5116 75.368 75.2716 75.368C68.1196 75.368 62.7916 80.552 62.7916 88.328V88.712C62.7916 96.632 68.1196 101.48 75.5116 101.48ZM68.8396 85.832C69.4156 81.944 71.7676 79.592 75.2716 79.592C78.8716 79.592 81.0796 81.512 81.3676 85.832H68.8396ZM103.307 101.48C110.123 101.48 114.491 97.4 114.923 91.64H109.595C109.259 95.192 106.619 97.016 103.547 97.016C99.2754 97.016 96.5874 94.136 96.5874 88.664V88.28C96.5874 83.096 99.4194 80.024 103.403 80.024C106.475 80.024 108.683 81.416 109.163 84.776H114.779C114.107 77.864 108.875 75.368 103.307 75.368C96.2994 75.368 90.6354 80.408 90.6354 88.376V88.76C90.6354 96.776 96.1074 101.48 103.307 101.48ZM128.469 101.432C130.245 101.432 131.493 101.144 132.405 100.808V96.2C131.589 96.536 130.725 96.68 129.573 96.68C127.749 96.68 126.693 95.672 126.693 93.464V80.264H132.213V75.896H126.693V70.376H120.885V75.896H117.525V80.264H120.885V93.992C120.885 98.744 123.477 101.432 128.469 101.432ZM137.788 101H143.596V64.28H137.788V101ZM153.459 109.592H159.171L172.851 75.896H167.187L161.043 92.072L154.371 75.896H148.083L158.019 98.456L153.459 109.592ZM193.828 101H199.78L204.868 84.104L209.524 101H215.428L223.3 75.896H217.636L212.404 94.04L207.508 75.896H202.66L197.332 94.04L192.34 75.896H186.148L193.828 101ZM227.881 101H233.689V75.896H227.881V101ZM230.713 71.768C232.633 71.768 234.169 70.328 234.169 68.456C234.169 66.536 232.633 65.096 230.713 65.096C228.793 65.096 227.257 66.536 227.257 68.456C227.257 70.328 228.793 71.768 230.713 71.768ZM249.312 101.432C251.089 101.432 252.337 101.144 253.249 100.808V96.2C252.433 96.536 251.569 96.68 250.417 96.68C248.593 96.68 247.537 95.672 247.537 93.464V80.264H253.057V75.896H247.537V70.376H241.729V75.896H238.369V80.264H241.729V93.992C241.729 98.744 244.321 101.432 249.312 101.432ZM258.487 101H264.295V86.216C264.295 82.232 266.935 80.216 270.199 80.216C273.655 80.216 275.191 81.944 275.191 85.736V101H280.999V85.208C280.999 78.296 277.447 75.368 272.407 75.368C268.279 75.368 265.495 77.432 264.295 79.88V64.28H258.487V101Z" fill="#719DFF"/>
<path d="M315.352 95.336C309.736 95.336 305.704 91.016 305.704 84.008V83.624C305.704 76.712 309.304 72.344 315.256 72.344C321.256 72.344 324.808 76.904 324.808 83.576V83.96C324.808 90.872 321.16 95.336 315.352 95.336ZM315.208 101.528C325.912 101.528 332.92 94.088 332.92 83.864V83.48C332.92 73.16 325.576 66.2 315.256 66.2C305.08 66.2 297.592 73.448 297.592 83.672V84.056C297.592 94.088 304.456 101.528 315.208 101.528ZM338.555 101H360.299V94.904H346.331V66.68H338.555V101ZM363.159 101H371.127L378.519 88.232L385.959 101H394.791L383.943 83.144L393.735 66.68H385.767L379.287 78.104L372.759 66.68H363.975L374.055 83.384L363.159 101ZM407.867 101H415.163L417.515 93.368H429.947L432.299 101H440.411L429.275 66.68H419.147L407.867 101ZM423.755 73.016L428.267 87.848H419.195L423.755 73.016ZM452.127 101.528C456.255 101.528 458.799 99.608 460.095 97.064V101H467.007V75.896H460.095V90.632C460.095 94.328 457.791 96.152 454.863 96.152C451.887 96.152 450.495 94.52 450.495 91.112V75.896H443.583V92.072C443.583 98.648 447.231 101.528 452.127 101.528ZM482.334 101.48C484.206 101.48 485.598 101.144 486.558 100.808V95.432C485.742 95.768 484.974 95.912 483.918 95.912C482.142 95.912 481.134 94.952 481.134 92.936V80.84H486.414V75.896H481.134V70.472H474.222V75.896H471.006V80.84H474.222V93.56C474.222 98.792 477.054 101.48 482.334 101.48ZM502.972 96.248C499.036 96.248 496.828 93.368 496.828 88.568V88.184C496.828 83.384 499.132 80.6 502.972 80.6C506.86 80.6 509.116 83.48 509.116 88.28V88.616C509.116 93.368 506.86 96.248 502.972 96.248ZM502.924 101.528C510.46 101.528 516.172 96.488 516.172 88.568V88.184C516.172 80.36 510.508 75.32 502.972 75.32C495.436 75.32 489.724 80.456 489.724 88.328V88.712C489.724 96.536 495.436 101.528 502.924 101.528ZM529.958 101.528C536.582 101.528 540.518 98.696 540.518 93.272C540.518 87.896 537.062 86.312 530.774 85.4C527.126 84.872 525.926 84.248 525.926 82.664C525.926 81.128 527.222 80.072 529.478 80.072C531.878 80.072 533.03 81.032 533.414 83.096H539.798C539.174 77.336 534.998 75.32 529.43 75.32C524.294 75.32 519.494 77.912 519.494 83.144C519.494 88.04 522.086 89.96 528.758 90.968C532.358 91.496 533.846 92.216 533.846 93.944C533.846 95.672 532.598 96.68 529.91 96.68C526.886 96.68 525.782 95.384 525.494 93.128H519.014C519.254 98.552 523.19 101.528 529.958 101.528Z" fill="#003034"/>
</svg>
