<svg width="539" height="72" viewBox="0 0 539 72" fill="none" xmlns="http://www.w3.org/2000/svg">
<rect x="0.5" y="0.5" width="538" height="71" rx="3.5" fill="white" stroke="#002F34"/>
<path d="M36.9934 27.5H19.0066C18.1745 27.5 17.5 28.1745 17.5 29.0066V38.7434C17.5 39.5755 18.1745 40.25 19.0066 40.25H36.9934C37.8255 40.25 38.5 39.5755 38.5 38.7434V29.0066C38.5 28.1745 37.8255 27.5 36.9934 27.5Z" stroke="#003034" stroke-width="1.5" stroke-linejoin="round"/>
<path d="M22 42.5H34H22Z" fill="#003034"/>
<path d="M22 42.5H34" stroke="#003034" stroke-width="1.5" stroke-miterlimit="10" stroke-linecap="round"/>
<path d="M57.968 44H69.104V41.48H61.16V36.464H67.208V34.064H61.16V29.36H68.696V26.84H57.968V44ZM71.8156 44H74.7196V25.64H71.8156V44ZM83.7793 44.24C86.9953 44.24 89.1313 42.8 89.5393 40.16H86.7313C86.5153 41.384 85.6033 42.08 83.8513 42.08C81.6913 42.08 80.4913 40.736 80.3953 38.36H89.5873V37.52C89.5873 33.032 86.7793 31.184 83.6593 31.184C80.0833 31.184 77.4193 33.776 77.4193 37.664V37.856C77.4193 41.816 80.0833 44.24 83.7793 44.24ZM80.4433 36.416C80.7313 34.472 81.9073 33.296 83.6593 33.296C85.4593 33.296 86.5633 34.256 86.7073 36.416H80.4433ZM97.6771 44.24C101.085 44.24 103.269 42.2 103.485 39.32H100.821C100.653 41.096 99.3331 42.008 97.7971 42.008C95.6611 42.008 94.3171 40.568 94.3171 37.832V37.64C94.3171 35.048 95.7331 33.512 97.7251 33.512C99.2611 33.512 100.365 34.208 100.605 35.888H103.413C103.077 32.432 100.461 31.184 97.6771 31.184C94.1731 31.184 91.3411 33.704 91.3411 37.688V37.88C91.3411 41.888 94.0771 44.24 97.6771 44.24ZM110.258 44.216C111.146 44.216 111.77 44.072 112.226 43.904V41.6C111.818 41.768 111.386 41.84 110.81 41.84C109.898 41.84 109.37 41.336 109.37 40.232V33.632H112.13V31.448H109.37V28.688H106.466V31.448H104.786V33.632H106.466V40.496C106.466 42.872 107.762 44.216 110.258 44.216ZM114.845 44H117.749V37.472C117.749 34.808 119.285 33.992 121.829 33.968V31.256C119.717 31.28 118.541 32.216 117.749 33.8V31.448H114.845V44ZM129.766 41.984C127.558 41.984 126.286 40.376 126.286 37.808V37.616C126.286 35.024 127.606 33.464 129.766 33.464C131.926 33.464 133.222 35.048 133.222 37.64V37.808C133.222 40.376 131.926 41.984 129.766 41.984ZM129.742 44.24C133.438 44.24 136.198 41.696 136.198 37.784V37.592C136.198 33.752 133.438 31.184 129.766 31.184C126.07 31.184 123.31 33.776 123.31 37.664V37.856C123.31 41.672 126.046 44.24 129.742 44.24ZM138.822 44H141.726V36.608C141.726 34.616 143.046 33.608 144.678 33.608C146.406 33.608 147.174 34.472 147.174 36.368V44H150.078V36.104C150.078 32.648 148.302 31.184 145.782 31.184C143.718 31.184 142.326 32.216 141.726 33.44V31.448H138.822V44ZM153.495 44H156.399V31.448H153.495V44ZM154.911 29.384C155.871 29.384 156.639 28.664 156.639 27.728C156.639 26.768 155.871 26.048 154.911 26.048C153.951 26.048 153.183 26.768 153.183 27.728C153.183 28.664 153.951 29.384 154.911 29.384ZM165.435 44.24C168.843 44.24 171.027 42.2 171.243 39.32H168.579C168.411 41.096 167.091 42.008 165.555 42.008C163.419 42.008 162.075 40.568 162.075 37.832V37.64C162.075 35.048 163.491 33.512 165.483 33.512C167.019 33.512 168.123 34.208 168.363 35.888H171.171C170.835 32.432 168.219 31.184 165.435 31.184C161.931 31.184 159.099 33.704 159.099 37.688V37.88C159.099 41.888 161.835 44.24 165.435 44.24ZM178.157 44.24C181.373 44.24 183.173 42.776 183.173 40.232C183.173 37.568 181.421 36.848 178.469 36.392C176.477 36.056 175.877 35.696 175.877 34.784C175.877 33.896 176.621 33.296 177.869 33.296C179.213 33.296 179.861 33.824 180.101 34.976H182.789C182.477 32.144 180.437 31.184 177.869 31.184C175.517 31.184 173.165 32.432 173.165 34.952C173.165 37.304 174.389 38.24 177.701 38.768C179.549 39.08 180.389 39.464 180.389 40.496C180.389 41.552 179.693 42.104 178.133 42.104C176.429 42.104 175.781 41.36 175.637 40.088H172.901C173.021 42.752 174.917 44.24 178.157 44.24ZM206.151 35.12H203.535L201.783 38.48L198.759 34.784C200.991 33.824 202.335 32.408 202.335 30.416C202.335 28.112 200.367 26.696 198.015 26.696C195.519 26.696 193.287 28.136 193.287 30.848C193.287 31.88 193.719 33.032 194.631 34.232C192.327 35.336 190.767 36.8 190.767 39.32C190.767 42.32 193.071 44.216 196.407 44.216C198.615 44.216 200.031 43.352 201.111 42.248L202.551 44H206.223L203.343 40.496L206.151 35.12ZM196.743 41.816C194.871 41.816 193.791 40.736 193.791 39.008C193.791 37.4 194.703 36.608 195.975 35.96L199.623 40.4C198.831 41.336 197.847 41.816 196.743 41.816ZM196.119 30.872C196.119 29.504 196.959 28.832 198.015 28.832C199.023 28.832 199.695 29.552 199.695 30.536C199.695 31.88 199.023 32.648 197.415 33.392C196.599 32.408 196.119 31.664 196.119 30.872ZM213.257 44H216.257L217.601 39.752H224.153L225.521 44H228.833L223.169 26.84H218.993L213.257 44ZM220.889 29.456L223.409 37.424H218.345L220.889 29.456ZM231.212 48.296H234.116V42.032C234.788 43.256 236.228 44.24 238.22 44.24C241.46 44.24 243.788 41.792 243.788 37.76V37.568C243.788 33.512 241.364 31.184 238.22 31.184C236.372 31.184 234.812 32.264 234.116 33.464V31.448H231.212V48.296ZM237.5 41.936C235.388 41.936 234.02 40.616 234.02 37.808V37.616C234.02 34.832 235.46 33.464 237.476 33.464C239.372 33.464 240.812 34.832 240.812 37.616V37.808C240.812 40.496 239.636 41.936 237.5 41.936ZM246.4 48.296H249.304V42.032C249.976 43.256 251.416 44.24 253.408 44.24C256.648 44.24 258.976 41.792 258.976 37.76V37.568C258.976 33.512 256.552 31.184 253.408 31.184C251.56 31.184 250 32.264 249.304 33.464V31.448H246.4V48.296ZM252.688 41.936C250.576 41.936 249.208 40.616 249.208 37.808V37.616C249.208 34.832 250.648 33.464 252.664 33.464C254.56 33.464 256 34.832 256 37.616V37.808C256 40.496 254.824 41.936 252.688 41.936ZM261.659 44H264.563V25.64H261.659V44ZM268.175 44H271.079V31.448H268.175V44ZM269.591 29.384C270.551 29.384 271.319 28.664 271.319 27.728C271.319 26.768 270.551 26.048 269.591 26.048C268.631 26.048 267.863 26.768 267.863 27.728C267.863 28.664 268.631 29.384 269.591 29.384ZM277.907 44.24C279.827 44.24 280.931 43.544 281.747 42.464V44H284.603V35.768C284.603 32.336 282.395 31.184 279.587 31.184C276.779 31.184 274.451 32.408 274.211 35.336H277.019C277.163 34.088 277.907 33.368 279.419 33.368C281.123 33.368 281.699 34.208 281.699 35.888V36.536H280.139C276.539 36.536 273.707 37.592 273.707 40.52C273.707 43.136 275.603 44.24 277.907 44.24ZM278.603 42.152C277.163 42.152 276.587 41.456 276.587 40.4C276.587 38.864 278.003 38.36 280.211 38.36H281.699V39.608C281.699 41.216 280.379 42.152 278.603 42.152ZM287.931 44H290.835V36.608C290.835 34.616 292.155 33.608 293.787 33.608C295.515 33.608 296.283 34.472 296.283 36.368V44H299.187V36.104C299.187 32.648 297.411 31.184 294.891 31.184C292.827 31.184 291.435 32.216 290.835 33.44V31.448H287.931V44ZM308.029 44.24C311.437 44.24 313.621 42.2 313.837 39.32H311.173C311.005 41.096 309.685 42.008 308.149 42.008C306.013 42.008 304.669 40.568 304.669 37.832V37.64C304.669 35.048 306.085 33.512 308.077 33.512C309.613 33.512 310.717 34.208 310.957 35.888H313.765C313.429 32.432 310.813 31.184 308.029 31.184C304.525 31.184 301.693 33.704 301.693 37.688V37.88C301.693 41.888 304.429 44.24 308.029 44.24ZM321.857 44.24C325.073 44.24 327.209 42.8 327.617 40.16H324.809C324.593 41.384 323.681 42.08 321.929 42.08C319.769 42.08 318.569 40.736 318.473 38.36H327.665V37.52C327.665 33.032 324.857 31.184 321.737 31.184C318.161 31.184 315.497 33.776 315.497 37.664V37.856C315.497 41.816 318.161 44.24 321.857 44.24ZM318.521 36.416C318.809 34.472 319.985 33.296 321.737 33.296C323.537 33.296 324.641 34.256 324.785 36.416H318.521ZM334.672 44.24C337.888 44.24 339.688 42.776 339.688 40.232C339.688 37.568 337.936 36.848 334.984 36.392C332.992 36.056 332.392 35.696 332.392 34.784C332.392 33.896 333.136 33.296 334.384 33.296C335.728 33.296 336.376 33.824 336.616 34.976H339.304C338.992 32.144 336.952 31.184 334.384 31.184C332.032 31.184 329.68 32.432 329.68 34.952C329.68 37.304 330.904 38.24 334.216 38.768C336.064 39.08 336.904 39.464 336.904 40.496C336.904 41.552 336.208 42.104 334.648 42.104C332.944 42.104 332.296 41.36 332.152 40.088H329.416C329.536 42.752 331.432 44.24 334.672 44.24Z" fill="#002F34"/>
<path d="M499.707 42.125L506.457 35.375L499.707 28.625" stroke="#002F34" stroke-width="1.6875" stroke-linecap="round" stroke-linejoin="round"/>
</svg>
