<svg width="539" height="72" viewBox="0 0 539 72" fill="none" xmlns="http://www.w3.org/2000/svg">
<rect x="0.5" y="0.5" width="538" height="71" rx="3.5" fill="white" stroke="#002F34"/>
<path d="M28 30.5C28.75 27.5394 31.5827 26.0277 37.75 26C37.8486 25.9996 37.9463 26.0188 38.0375 26.0563C38.1286 26.0939 38.2114 26.1491 38.2812 26.2188C38.3509 26.2886 38.4061 26.3714 38.4437 26.4626C38.4812 26.5537 38.5004 26.6514 38.5 26.75V40.25C38.5 40.4489 38.421 40.6397 38.2803 40.7803C38.1397 40.921 37.9489 41 37.75 41C31.75 41 29.432 42.2098 28 44C26.5764 42.2188 24.25 41 18.25 41C17.7869 41 17.5 40.6227 17.5 40.1595V26.75C17.4996 26.6514 17.5188 26.5537 17.5563 26.4626C17.5939 26.3714 17.6491 26.2886 17.7188 26.2188C17.7886 26.1491 17.8714 26.0939 17.9626 26.0563C18.0537 26.0188 18.1514 25.9996 18.25 26C24.4173 26.0277 27.25 27.5394 28 30.5Z" stroke="#003034" stroke-width="1.5" stroke-linecap="round" stroke-linejoin="round"/>
<path d="M28 30.5V44" stroke="#003034" stroke-width="1.5" stroke-linecap="round" stroke-linejoin="round"/>
<path d="M57.968 44H64.568C68.336 44 70.448 42.392 70.448 39.2V39.104C70.448 36.824 69.344 35.552 67.016 35.048C68.96 34.448 69.728 33.104 69.728 31.4V31.304C69.728 28.184 67.64 26.84 64.112 26.84H57.968V44ZM61.088 41.72V36.224H63.968C66.32 36.224 67.304 37.112 67.304 38.888V38.984C67.304 40.76 66.32 41.72 64.184 41.72H61.088ZM61.088 34.064V29.12H63.68C65.72 29.12 66.656 29.816 66.656 31.448V31.544C66.656 33.296 65.84 34.064 63.728 34.064H61.088ZM78.8128 41.984C76.6048 41.984 75.3328 40.376 75.3328 37.808V37.616C75.3328 35.024 76.6528 33.464 78.8128 33.464C80.9728 33.464 82.2688 35.048 82.2688 37.64V37.808C82.2688 40.376 80.9728 41.984 78.8128 41.984ZM78.7888 44.24C82.4848 44.24 85.2448 41.696 85.2448 37.784V37.592C85.2448 33.752 82.4848 31.184 78.8128 31.184C75.1168 31.184 72.3568 33.776 72.3568 37.664V37.856C72.3568 41.672 75.0928 44.24 78.7888 44.24ZM93.4846 41.984C91.2766 41.984 90.0046 40.376 90.0046 37.808V37.616C90.0046 35.024 91.3246 33.464 93.4846 33.464C95.6446 33.464 96.9406 35.048 96.9406 37.64V37.808C96.9406 40.376 95.6446 41.984 93.4846 41.984ZM93.4606 44.24C97.1566 44.24 99.9166 41.696 99.9166 37.784V37.592C99.9166 33.752 97.1566 31.184 93.4846 31.184C89.7886 31.184 87.0286 33.776 87.0286 37.664V37.856C87.0286 41.672 89.7646 44.24 93.4606 44.24ZM102.541 44H105.445V37.832L110.149 44H113.509L108.229 37.208L113.101 31.448H109.933L105.445 36.968V25.64H102.541V44ZM119.563 44.24C122.779 44.24 124.579 42.776 124.579 40.232C124.579 37.568 122.827 36.848 119.875 36.392C117.883 36.056 117.283 35.696 117.283 34.784C117.283 33.896 118.027 33.296 119.275 33.296C120.619 33.296 121.267 33.824 121.507 34.976H124.195C123.883 32.144 121.843 31.184 119.275 31.184C116.923 31.184 114.571 32.432 114.571 34.952C114.571 37.304 115.795 38.24 119.107 38.768C120.955 39.08 121.795 39.464 121.795 40.496C121.795 41.552 121.099 42.104 119.539 42.104C117.835 42.104 117.187 41.36 117.043 40.088H114.307C114.427 42.752 116.323 44.24 119.563 44.24ZM127.87 46.952L131.014 41.576L128.254 40.472L126.07 46.16L127.87 46.952ZM145.925 44.24C149.717 44.24 152.237 41.912 152.237 38.936C152.237 35.504 150.149 34.352 146.117 33.8C143.141 33.368 142.565 32.672 142.565 31.28C142.565 29.96 143.573 29.024 145.517 29.024C147.485 29.024 148.517 29.792 148.829 31.592H151.757C151.421 28.304 149.213 26.624 145.517 26.624C141.941 26.624 139.541 28.736 139.541 31.544C139.541 34.76 141.485 36.008 145.589 36.56C148.373 37.016 149.165 37.616 149.165 39.2C149.165 40.784 147.821 41.84 145.925 41.84C143.021 41.84 142.325 40.4 142.109 38.672H139.037C139.277 41.912 141.245 44.24 145.925 44.24ZM155.087 48.296H157.991V42.032C158.663 43.256 160.103 44.24 162.095 44.24C165.335 44.24 167.663 41.792 167.663 37.76V37.568C167.663 33.512 165.239 31.184 162.095 31.184C160.247 31.184 158.687 32.264 157.991 33.464V31.448H155.087V48.296ZM161.375 41.936C159.263 41.936 157.895 40.616 157.895 37.808V37.616C157.895 34.832 159.335 33.464 161.351 33.464C163.247 33.464 164.687 34.832 164.687 37.616V37.808C164.687 40.496 163.511 41.936 161.375 41.936ZM175.891 41.984C173.683 41.984 172.411 40.376 172.411 37.808V37.616C172.411 35.024 173.731 33.464 175.891 33.464C178.051 33.464 179.347 35.048 179.347 37.64V37.808C179.347 40.376 178.051 41.984 175.891 41.984ZM175.867 44.24C179.563 44.24 182.323 41.696 182.323 37.784V37.592C182.323 33.752 179.563 31.184 175.891 31.184C172.195 31.184 169.435 33.776 169.435 37.664V37.856C169.435 41.672 172.171 44.24 175.867 44.24ZM184.947 44H187.851V37.472C187.851 34.808 189.387 33.992 191.931 33.968V31.256C189.819 31.28 188.643 32.216 187.851 33.8V31.448H184.947V44ZM198.875 44.216C199.763 44.216 200.387 44.072 200.843 43.904V41.6C200.435 41.768 200.003 41.84 199.427 41.84C198.515 41.84 197.987 41.336 197.987 40.232V33.632H200.747V31.448H197.987V28.688H195.083V31.448H193.403V33.632H195.083V40.496C195.083 42.872 196.379 44.216 198.875 44.216ZM207.876 44.24C211.092 44.24 212.892 42.776 212.892 40.232C212.892 37.568 211.14 36.848 208.188 36.392C206.196 36.056 205.596 35.696 205.596 34.784C205.596 33.896 206.34 33.296 207.588 33.296C208.932 33.296 209.58 33.824 209.82 34.976H212.508C212.196 32.144 210.156 31.184 207.588 31.184C205.236 31.184 202.884 32.432 202.884 34.952C202.884 37.304 204.108 38.24 207.42 38.768C209.268 39.08 210.108 39.464 210.108 40.496C210.108 41.552 209.412 42.104 207.852 42.104C206.148 42.104 205.5 41.36 205.356 40.088H202.62C202.74 42.752 204.636 44.24 207.876 44.24ZM235.87 35.12H233.254L231.502 38.48L228.478 34.784C230.71 33.824 232.054 32.408 232.054 30.416C232.054 28.112 230.086 26.696 227.734 26.696C225.238 26.696 223.006 28.136 223.006 30.848C223.006 31.88 223.438 33.032 224.35 34.232C222.046 35.336 220.486 36.8 220.486 39.32C220.486 42.32 222.79 44.216 226.126 44.216C228.334 44.216 229.75 43.352 230.83 42.248L232.27 44H235.942L233.062 40.496L235.87 35.12ZM226.462 41.816C224.59 41.816 223.51 40.736 223.51 39.008C223.51 37.4 224.422 36.608 225.694 35.96L229.342 40.4C228.55 41.336 227.566 41.816 226.462 41.816ZM225.838 30.872C225.838 29.504 226.678 28.832 227.734 28.832C228.742 28.832 229.414 29.552 229.414 30.536C229.414 31.88 228.742 32.648 227.134 33.392C226.318 32.408 225.838 31.664 225.838 30.872ZM244.296 44H247.488V36.704H255.192V44H258.408V26.84H255.192V34.136H247.488V26.84H244.296V44ZM267.578 41.984C265.37 41.984 264.098 40.376 264.098 37.808V37.616C264.098 35.024 265.418 33.464 267.578 33.464C269.738 33.464 271.034 35.048 271.034 37.64V37.808C271.034 40.376 269.738 41.984 267.578 41.984ZM267.554 44.24C271.25 44.24 274.01 41.696 274.01 37.784V37.592C274.01 33.752 271.25 31.184 267.578 31.184C263.882 31.184 261.122 33.776 261.122 37.664V37.856C261.122 41.672 263.858 44.24 267.554 44.24ZM283.642 44.24C286.882 44.24 289.21 41.792 289.21 37.76V37.568C289.21 33.512 286.786 31.184 283.642 31.184C281.794 31.184 280.234 32.264 279.538 33.464V25.64H276.634V44H279.538V41.984C280.21 43.256 281.65 44.24 283.642 44.24ZM282.922 41.936C280.81 41.936 279.442 40.616 279.442 37.808V37.616C279.442 34.832 280.882 33.464 282.898 33.464C284.794 33.464 286.234 34.832 286.234 37.616V37.808C286.234 40.496 285.058 41.936 282.922 41.936ZM298.83 44.24C302.07 44.24 304.398 41.792 304.398 37.76V37.568C304.398 33.512 301.974 31.184 298.83 31.184C296.982 31.184 295.422 32.264 294.726 33.464V25.64H291.822V44H294.726V41.984C295.398 43.256 296.838 44.24 298.83 44.24ZM298.11 41.936C295.998 41.936 294.63 40.616 294.63 37.808V37.616C294.63 34.832 296.07 33.464 298.086 33.464C299.982 33.464 301.422 34.832 301.422 37.616V37.808C301.422 40.496 300.246 41.936 298.11 41.936ZM307.081 44H309.985V31.448H307.081V44ZM308.497 29.384C309.457 29.384 310.225 28.664 310.225 27.728C310.225 26.768 309.457 26.048 308.497 26.048C307.537 26.048 306.769 26.768 306.769 27.728C306.769 28.664 307.537 29.384 308.497 29.384ZM319.045 44.24C322.261 44.24 324.397 42.8 324.805 40.16H321.997C321.781 41.384 320.869 42.08 319.117 42.08C316.957 42.08 315.757 40.736 315.661 38.36H324.853V37.52C324.853 33.032 322.045 31.184 318.925 31.184C315.349 31.184 312.685 33.776 312.685 37.664V37.856C312.685 41.816 315.349 44.24 319.045 44.24ZM315.709 36.416C315.997 34.472 317.173 33.296 318.925 33.296C320.725 33.296 321.829 34.256 321.973 36.416H315.709ZM331.86 44.24C335.076 44.24 336.876 42.776 336.876 40.232C336.876 37.568 335.124 36.848 332.172 36.392C330.18 36.056 329.58 35.696 329.58 34.784C329.58 33.896 330.324 33.296 331.572 33.296C332.916 33.296 333.564 33.824 333.804 34.976H336.492C336.18 32.144 334.14 31.184 331.572 31.184C329.22 31.184 326.868 32.432 326.868 34.952C326.868 37.304 328.092 38.24 331.404 38.768C333.252 39.08 334.092 39.464 334.092 40.496C334.092 41.552 333.396 42.104 331.836 42.104C330.132 42.104 329.484 41.36 329.34 40.088H326.604C326.724 42.752 328.62 44.24 331.86 44.24Z" fill="#002F34"/>
<path d="M499.707 42.125L506.457 35.375L499.707 28.625" stroke="#002F34" stroke-width="1.6875" stroke-linecap="round" stroke-linejoin="round"/>
</svg>
