<svg width="539" height="72" viewBox="0 0 539 72" fill="none" xmlns="http://www.w3.org/2000/svg">
<rect x="0.5" y="0.5" width="538" height="71" rx="3.5" fill="white" stroke="#002F34"/>
<path d="M38.0175 33.9969C37.6739 33.5408 36.3975 33.2267 35.8575 32.4059C35.3175 31.5852 34.8755 29.8077 33.5011 29.1247C32.1268 28.4417 29.4999 28.25 27.9999 28.25C26.4999 28.25 23.8749 28.4375 22.4986 29.1233C21.1224 29.8091 20.6822 31.5852 20.1422 32.4045C19.6022 33.2239 18.3258 33.5408 17.9822 33.9969C17.6386 34.453 17.3968 37.3363 17.5439 38.75C17.6911 40.1637 17.9658 41 17.9658 41H21.9971C22.6571 41 22.8718 40.752 24.2218 40.625C25.703 40.4844 27.1561 40.4375 27.9999 40.4375C28.8436 40.4375 30.3436 40.4844 31.8239 40.625C33.1739 40.753 33.3957 41 34.0486 41H38.033C38.033 41 38.3077 40.1637 38.4549 38.75C38.6021 37.3363 38.3593 34.453 38.0175 33.9969Z" stroke="#003034" stroke-width="1.5" stroke-linecap="round" stroke-linejoin="round"/>
<path d="M34.75 41H37.375V41.75H34.75V41Z" stroke="#003034" stroke-width="1.5" stroke-linecap="round" stroke-linejoin="round"/>
<path d="M18.625 41H21.25V41.75H18.625V41Z" stroke="#003034" stroke-width="1.5" stroke-linecap="round" stroke-linejoin="round"/>
<path d="M33.0845 37.4919C32.8075 37.1717 31.9047 36.9045 30.7093 36.7255C29.514 36.5464 29.0781 36.5 28.0093 36.5C26.9406 36.5 26.4545 36.5769 25.3089 36.7255C24.1633 36.8741 23.3031 37.1384 22.9342 37.4919C22.3806 38.0281 23.1915 38.63 23.8281 38.7031C24.445 38.7734 25.6783 38.7477 28.0145 38.7477C30.3508 38.7477 31.584 38.7734 32.2009 38.7031C32.8365 38.6258 33.5893 38.0656 33.0845 37.4919Z" fill="#003034"/>
<path d="M36.2298 34.3929C36.2272 34.3557 36.2109 34.3208 36.1841 34.2948C36.1573 34.2689 36.1218 34.2537 36.0845 34.2523C35.5309 34.2326 34.9689 34.272 33.9719 34.5659C33.4632 34.7144 32.9855 34.9536 32.5619 35.2718C32.455 35.3553 32.4929 35.5807 32.627 35.6047C33.4488 35.701 34.2755 35.7496 35.1029 35.75C35.5994 35.75 36.1117 35.6093 36.2069 35.1668C36.2554 34.9117 36.2631 34.6505 36.2298 34.3929Z" fill="#003034"/>
<path d="M19.7703 34.3929C19.7729 34.3557 19.7892 34.3208 19.816 34.2948C19.8428 34.2689 19.8783 34.2537 19.9156 34.2523C20.4692 34.2326 21.0312 34.272 22.0282 34.5659C22.5369 34.7144 23.0146 34.9536 23.4382 35.2718C23.5451 35.3553 23.5072 35.5807 23.3731 35.6047C22.5513 35.701 21.7246 35.7496 20.8972 35.75C20.4007 35.75 19.8884 35.6093 19.7932 35.1668C19.7447 34.9117 19.737 34.6505 19.7703 34.3929Z" fill="#003034"/>
<path d="M36.25 32H37" stroke="#003034" stroke-width="1.5" stroke-linecap="round" stroke-linejoin="round"/>
<path d="M19 32H19.75" stroke="#003034" stroke-width="1.5" stroke-linecap="round" stroke-linejoin="round"/>
<path d="M19.6562 32.8906C19.6562 32.8906 21.8289 32.3281 28 32.3281C34.1711 32.3281 36.3438 32.8906 36.3438 32.8906" stroke="#003034" stroke-width="1.5" stroke-linecap="round" stroke-linejoin="round"/>
<path d="M65.84 41.672C62.72 41.672 60.44 39.248 60.44 35.504V35.312C60.44 31.616 62.432 29.144 65.792 29.144C69.152 29.144 71.12 31.76 71.12 35.288V35.48C71.12 39.2 69.08 41.672 65.84 41.672ZM65.792 44.24C71 44.24 74.432 40.472 74.432 35.456V35.264C74.432 30.224 70.904 26.6 65.792 26.6C60.704 26.6 57.104 30.32 57.104 35.336V35.528C57.104 40.472 60.536 44.24 65.792 44.24ZM77.5149 44H88.0269V41.456H80.7069V26.84H77.5149V44ZM89.6296 44H92.8936L96.9256 37.304L100.958 44H104.606L99.1096 35.12L104.174 26.84H100.886L97.2616 32.936L93.6136 26.84H90.0136L95.1496 35.192L89.6296 44ZM111.82 44H114.82L116.164 39.752H122.716L124.084 44H127.396L121.732 26.84H117.556L111.82 44ZM119.452 29.456L121.972 37.424H116.908L119.452 29.456ZM133.623 44.24C135.663 44.24 136.983 43.256 137.607 42.032V44H140.511V31.448H137.607V38.912C137.607 40.904 136.239 41.912 134.679 41.912C132.999 41.912 132.207 41.048 132.207 39.152V31.448H129.303V39.488C129.303 42.824 131.151 44.24 133.623 44.24ZM148.227 44.216C149.115 44.216 149.739 44.072 150.195 43.904V41.6C149.787 41.768 149.355 41.84 148.779 41.84C147.867 41.84 147.339 41.336 147.339 40.232V33.632H150.099V31.448H147.339V28.688H144.435V31.448H142.755V33.632H144.435V40.496C144.435 42.872 145.731 44.216 148.227 44.216ZM158.43 41.984C156.222 41.984 154.95 40.376 154.95 37.808V37.616C154.95 35.024 156.27 33.464 158.43 33.464C160.59 33.464 161.886 35.048 161.886 37.64V37.808C161.886 40.376 160.59 41.984 158.43 41.984ZM158.406 44.24C162.102 44.24 164.862 41.696 164.862 37.784V37.592C164.862 33.752 162.102 31.184 158.43 31.184C154.734 31.184 151.974 33.776 151.974 37.664V37.856C151.974 41.672 154.71 44.24 158.406 44.24ZM171.782 44.24C174.998 44.24 176.798 42.776 176.798 40.232C176.798 37.568 175.046 36.848 172.094 36.392C170.102 36.056 169.502 35.696 169.502 34.784C169.502 33.896 170.246 33.296 171.494 33.296C172.838 33.296 173.486 33.824 173.726 34.976H176.414C176.102 32.144 174.062 31.184 171.494 31.184C169.142 31.184 166.79 32.432 166.79 34.952C166.79 37.304 168.014 38.24 171.326 38.768C173.174 39.08 174.014 39.464 174.014 40.496C174.014 41.552 173.318 42.104 171.758 42.104C170.054 42.104 169.406 41.36 169.262 40.088H166.526C166.646 42.752 168.542 44.24 171.782 44.24ZM188.448 47.552H190.992C189.048 44.96 187.344 41.48 187.344 36.488C187.344 31.52 189.048 28.016 190.992 25.424H188.448C186.384 27.872 184.464 31.496 184.464 36.488C184.464 41.504 186.384 45.104 188.448 47.552ZM206.574 44.24C210.654 44.24 213.582 42.152 214.086 38.024H210.966C210.63 40.448 208.95 41.648 206.574 41.648C203.406 41.648 201.558 39.368 201.558 35.504V35.312C201.558 31.472 203.526 29.12 206.55 29.12C209.022 29.12 210.294 30.296 210.654 32.576H213.894C213.51 28.544 210.462 26.576 206.526 26.576C201.75 26.576 198.198 30.176 198.198 35.336V35.528C198.198 40.808 201.198 44.24 206.574 44.24ZM220.016 44.24C221.936 44.24 223.04 43.544 223.856 42.464V44H226.712V35.768C226.712 32.336 224.504 31.184 221.696 31.184C218.888 31.184 216.56 32.408 216.32 35.336H219.128C219.272 34.088 220.016 33.368 221.528 33.368C223.232 33.368 223.808 34.208 223.808 35.888V36.536H222.248C218.648 36.536 215.816 37.592 215.816 40.52C215.816 43.136 217.712 44.24 220.016 44.24ZM220.712 42.152C219.272 42.152 218.696 41.456 218.696 40.4C218.696 38.864 220.112 38.36 222.32 38.36H223.808V39.608C223.808 41.216 222.488 42.152 220.712 42.152ZM230.041 44H232.945V37.472C232.945 34.808 234.48 33.992 237.025 33.968V31.256C234.913 31.28 233.737 32.216 232.945 33.8V31.448H230.041V44ZM243.876 44.24C247.092 44.24 248.892 42.776 248.892 40.232C248.892 37.568 247.14 36.848 244.188 36.392C242.196 36.056 241.596 35.696 241.596 34.784C241.596 33.896 242.34 33.296 243.588 33.296C244.932 33.296 245.58 33.824 245.82 34.976H248.508C248.196 32.144 246.156 31.184 243.588 31.184C241.236 31.184 238.884 32.432 238.884 34.952C238.884 37.304 240.108 38.24 243.42 38.768C245.268 39.08 246.108 39.464 246.108 40.496C246.108 41.552 245.412 42.104 243.852 42.104C242.148 42.104 241.5 41.36 241.356 40.088H238.62C238.74 42.752 240.636 44.24 243.876 44.24ZM250.002 47.504H252.522C254.586 45.056 256.506 41.432 256.506 36.44C256.506 31.424 254.586 27.824 252.522 25.376H250.002C251.922 27.968 253.626 31.448 253.626 36.44C253.626 41.408 251.922 44.912 250.002 47.504Z" fill="#002F34"/>
<path d="M499.707 42.125L506.457 35.375L499.707 28.625" stroke="#002F34" stroke-width="1.6875" stroke-linecap="round" stroke-linejoin="round"/>
</svg>
