<svg width="333" height="35" viewBox="0 0 333 35" fill="none" xmlns="http://www.w3.org/2000/svg">
<path d="M13.22 28.36C19.34 28.36 23.732 25.228 24.488 19.036H19.808C19.304 22.672 16.784 24.472 13.22 24.472C8.468 24.472 5.696 21.052 5.696 15.256V14.968C5.696 9.208 8.648 5.68 13.184 5.68C16.892 5.68 18.8 7.444 19.34 10.864H24.2C23.624 4.816 19.052 1.864 13.148 1.864C5.984 1.864 0.656 7.264 0.656 15.004V15.292C0.656 23.212 5.156 28.36 13.22 28.36ZM28.9956 28H33.3516V16.912C33.3516 13.924 35.3316 12.412 37.7796 12.412C40.3716 12.412 41.5236 13.708 41.5236 16.552V28H45.8796V16.156C45.8796 10.972 43.2156 8.776 39.4356 8.776C36.3396 8.776 34.2516 10.324 33.3516 12.16V0.459998H28.9956V28ZM60.0419 24.976C56.7299 24.976 54.8219 22.564 54.8219 18.712V18.424C54.8219 14.536 56.8019 12.196 60.0419 12.196C63.2819 12.196 65.2259 14.572 65.2259 18.46V18.712C65.2259 22.564 63.2819 24.976 60.0419 24.976ZM60.0059 28.36C65.5499 28.36 69.6899 24.544 69.6899 18.676V18.388C69.6899 12.628 65.5499 8.776 60.0419 8.776C54.4979 8.776 50.3579 12.664 50.3579 18.496V18.784C50.3579 24.508 54.4619 28.36 60.0059 28.36ZM82.7698 24.976C79.4578 24.976 77.5498 22.564 77.5498 18.712V18.424C77.5498 14.536 79.5298 12.196 82.7698 12.196C86.0098 12.196 87.9538 14.572 87.9538 18.46V18.712C87.9538 22.564 86.0098 24.976 82.7698 24.976ZM82.7338 28.36C88.2778 28.36 92.4178 24.544 92.4178 18.676V18.388C92.4178 12.628 88.2778 8.776 82.7698 8.776C77.2258 8.776 73.0858 12.664 73.0858 18.496V18.784C73.0858 24.508 77.1898 28.36 82.7338 28.36ZM103.518 28.36C108.342 28.36 111.042 26.164 111.042 22.348C111.042 18.352 108.414 17.272 103.986 16.588C100.998 16.084 100.098 15.544 100.098 14.176C100.098 12.844 101.214 11.944 103.086 11.944C105.102 11.944 106.074 12.736 106.434 14.464H110.466C109.998 10.216 106.938 8.776 103.086 8.776C99.5576 8.776 96.0296 10.648 96.0296 14.428C96.0296 17.956 97.8656 19.36 102.834 20.152C105.606 20.62 106.866 21.196 106.866 22.744C106.866 24.328 105.822 25.156 103.482 25.156C100.926 25.156 99.9536 24.04 99.7376 22.132H95.6336C95.8136 26.128 98.6576 28.36 103.518 28.36ZM123.863 28.36C128.687 28.36 131.891 26.2 132.503 22.24H128.291C127.967 24.076 126.599 25.12 123.971 25.12C120.731 25.12 118.931 23.104 118.787 19.54H132.575V18.28C132.575 11.548 128.363 8.776 123.683 8.776C118.319 8.776 114.323 12.664 114.323 18.496V18.784C114.323 24.724 118.319 28.36 123.863 28.36ZM118.859 16.624C119.291 13.708 121.055 11.944 123.683 11.944C126.383 11.944 128.039 13.384 128.255 16.624H118.859ZM151.416 28.36C154.296 28.36 155.952 27.316 157.176 25.696V28H161.46V15.652C161.46 10.504 158.148 8.776 153.936 8.776C149.724 8.776 146.232 10.612 145.872 15.004H150.084C150.3 13.132 151.416 12.052 153.684 12.052C156.24 12.052 157.104 13.312 157.104 15.832V16.804H154.764C149.364 16.804 145.116 18.388 145.116 22.78C145.116 26.704 147.96 28.36 151.416 28.36ZM152.46 25.228C150.3 25.228 149.436 24.184 149.436 22.6C149.436 20.296 151.56 19.54 154.872 19.54H157.104V21.412C157.104 23.824 155.124 25.228 152.46 25.228ZM184.714 28.36C189.826 28.36 193.102 25.3 193.426 20.98H189.43C189.178 23.644 187.198 25.012 184.894 25.012C181.69 25.012 179.674 22.852 179.674 18.748V18.46C179.674 14.572 181.798 12.268 184.786 12.268C187.09 12.268 188.746 13.312 189.106 15.832H193.318C192.814 10.648 188.89 8.776 184.714 8.776C179.458 8.776 175.21 12.556 175.21 18.532V18.82C175.21 24.832 179.314 28.36 184.714 28.36ZM202.829 28.36C205.709 28.36 207.365 27.316 208.589 25.696V28H212.873V15.652C212.873 10.504 209.561 8.776 205.349 8.776C201.137 8.776 197.645 10.612 197.285 15.004H201.497C201.713 13.132 202.829 12.052 205.097 12.052C207.653 12.052 208.517 13.312 208.517 15.832V16.804H206.177C200.777 16.804 196.529 18.388 196.529 22.78C196.529 26.704 199.373 28.36 202.829 28.36ZM203.873 25.228C201.713 25.228 200.849 24.184 200.849 22.6C200.849 20.296 202.973 19.54 206.285 19.54H208.517V21.412C208.517 23.824 206.537 25.228 203.873 25.228ZM224.994 28.324C226.326 28.324 227.262 28.108 227.946 27.856V24.4C227.334 24.652 226.686 24.76 225.822 24.76C224.454 24.76 223.662 24.004 223.662 22.348V12.448H227.802V9.172H223.662V5.032H219.306V9.172H216.786V12.448H219.306V22.744C219.306 26.308 221.25 28.324 224.994 28.324ZM240.875 28.36C245.699 28.36 248.903 26.2 249.515 22.24H245.303C244.979 24.076 243.611 25.12 240.983 25.12C237.743 25.12 235.943 23.104 235.799 19.54H249.587V18.28C249.587 11.548 245.375 8.776 240.695 8.776C235.331 8.776 231.335 12.664 231.335 18.496V18.784C231.335 24.724 235.331 28.36 240.875 28.36ZM235.871 16.624C236.303 13.708 238.067 11.944 240.695 11.944C243.395 11.944 245.051 13.384 245.267 16.624H235.871ZM262.226 34.912C268.058 34.912 271.766 32.14 271.802 26.596V9.172H267.446V12.052C266.366 10.18 264.494 8.776 261.398 8.776C256.538 8.776 252.938 12.736 252.938 18.028V18.28C252.938 23.716 256.574 27.244 261.29 27.244C264.062 27.244 266.402 25.552 267.446 23.752V26.524C267.446 29.908 265.574 31.6 262.19 31.6C259.346 31.6 257.906 30.52 257.546 28.648H253.154C253.658 32.248 256.322 34.912 262.226 34.912ZM262.37 23.896C259.562 23.896 257.402 21.736 257.402 18.244V17.956C257.402 14.536 259.274 12.196 262.514 12.196C265.646 12.196 267.59 14.32 267.59 17.884V18.136C267.59 21.736 265.394 23.896 262.37 23.896ZM286.123 24.976C282.811 24.976 280.903 22.564 280.903 18.712V18.424C280.903 14.536 282.883 12.196 286.123 12.196C289.363 12.196 291.307 14.572 291.307 18.46V18.712C291.307 22.564 289.363 24.976 286.123 24.976ZM286.087 28.36C291.631 28.36 295.771 24.544 295.771 18.676V18.388C295.771 12.628 291.631 8.776 286.123 8.776C280.579 8.776 276.439 12.664 276.439 18.496V18.784C276.439 24.508 280.543 28.36 286.087 28.36ZM300.427 28H304.783V18.208C304.783 14.212 307.087 12.988 310.903 12.952V8.884C307.735 8.92 305.971 10.324 304.783 12.7V9.172H300.427V28ZM317.72 34.444H322.004L332.264 9.172H328.016L323.408 21.304L318.404 9.172H313.688L321.14 26.092L317.72 34.444Z" fill="#002F34" fill-opacity="0.8"/>
</svg>
