<svg width="539" height="72" viewBox="0 0 539 72" fill="none" xmlns="http://www.w3.org/2000/svg">
<rect x="0.5" y="0.5" width="538" height="71" rx="3.5" fill="white" stroke="#002F34"/>
<path d="M26.5 33.875C26.5 33.4772 26.658 33.0956 26.9393 32.8143C27.2206 32.533 27.6022 32.375 28 32.375C28.3978 32.375 28.7794 32.533 29.0607 32.8143C29.342 33.0956 29.5 33.4772 29.5 33.875" stroke="#003034" stroke-width="1.5" stroke-linecap="round" stroke-linejoin="round"/>
<path d="M37 32.375H37.75" stroke="#003034" stroke-width="1.5" stroke-linecap="round" stroke-linejoin="round"/>
<path d="M19 32.375H18.25" stroke="#003034" stroke-width="1.5" stroke-linecap="round" stroke-linejoin="round"/>
<path d="M19 32.375C19 36.875 19.75 38.375 22.75 38.375C25.75 38.375 26.5 36.875 26.5 32.375C26.5 32.375 25.75 31.625 22.75 31.625C19.75 31.625 19 32.375 19 32.375Z" stroke="#003034" stroke-width="1.5" stroke-linecap="round" stroke-linejoin="round"/>
<path d="M37 32.375C37 36.875 36.25 38.375 33.25 38.375C30.25 38.375 29.5 36.875 29.5 32.375C29.5 32.375 30.25 31.625 33.25 31.625C36.25 31.625 37 32.375 37 32.375Z" stroke="#003034" stroke-width="1.5" stroke-linecap="round" stroke-linejoin="round"/>
<path d="M57.968 44H61.16V36.968H67.016V34.496H61.16V29.384H68.6V26.84H57.968V44ZM73.9535 44.24C75.8735 44.24 76.9775 43.544 77.7935 42.464V44H80.6495V35.768C80.6495 32.336 78.4415 31.184 75.6335 31.184C72.8255 31.184 70.4975 32.408 70.2575 35.336H73.0655C73.2095 34.088 73.9535 33.368 75.4655 33.368C77.1695 33.368 77.7455 34.208 77.7455 35.888V36.536H76.1855C72.5855 36.536 69.7535 37.592 69.7535 40.52C69.7535 43.136 71.6495 44.24 73.9535 44.24ZM74.6495 42.152C73.2095 42.152 72.6335 41.456 72.6335 40.4C72.6335 38.864 74.0495 38.36 76.2575 38.36H77.7455V39.608C77.7455 41.216 76.4255 42.152 74.6495 42.152ZM88.274 44.24C91.49 44.24 93.29 42.776 93.29 40.232C93.29 37.568 91.538 36.848 88.586 36.392C86.594 36.056 85.994 35.696 85.994 34.784C85.994 33.896 86.738 33.296 87.986 33.296C89.33 33.296 89.978 33.824 90.218 34.976H92.906C92.594 32.144 90.554 31.184 87.986 31.184C85.634 31.184 83.282 32.432 83.282 34.952C83.282 37.304 84.506 38.24 87.818 38.768C89.666 39.08 90.506 39.464 90.506 40.496C90.506 41.552 89.81 42.104 88.25 42.104C86.546 42.104 85.898 41.36 85.754 40.088H83.018C83.138 42.752 85.034 44.24 88.274 44.24ZM95.8374 44H98.7414V36.608C98.7414 34.616 100.061 33.608 101.693 33.608C103.421 33.608 104.189 34.472 104.189 36.368V44H107.093V36.104C107.093 32.648 105.317 31.184 102.797 31.184C100.733 31.184 99.3414 32.216 98.7414 33.44V25.64H95.8374V44ZM110.511 44H113.415V31.448H110.511V44ZM111.927 29.384C112.887 29.384 113.655 28.664 113.655 27.728C113.655 26.768 112.887 26.048 111.927 26.048C110.967 26.048 110.199 26.768 110.199 27.728C110.199 28.664 110.967 29.384 111.927 29.384ZM122.571 41.984C120.363 41.984 119.091 40.376 119.091 37.808V37.616C119.091 35.024 120.411 33.464 122.571 33.464C124.731 33.464 126.027 35.048 126.027 37.64V37.808C126.027 40.376 124.731 41.984 122.571 41.984ZM122.547 44.24C126.243 44.24 129.003 41.696 129.003 37.784V37.592C129.003 33.752 126.243 31.184 122.571 31.184C118.875 31.184 116.115 33.776 116.115 37.664V37.856C116.115 41.672 118.851 44.24 122.547 44.24ZM131.626 44H134.53V36.608C134.53 34.616 135.85 33.608 137.482 33.608C139.21 33.608 139.978 34.472 139.978 36.368V44H142.882V36.104C142.882 32.648 141.106 31.184 138.586 31.184C136.522 31.184 135.13 32.216 134.53 33.44V31.448H131.626V44Z" fill="#002F34"/>
<path d="M499.707 42.125L506.457 35.375L499.707 28.625" stroke="#002F34" stroke-width="1.6875" stroke-linecap="round" stroke-linejoin="round"/>
</svg>
