<svg width="539" height="72" viewBox="0 0 539 72" fill="none" xmlns="http://www.w3.org/2000/svg">
<rect x="0.5" y="0.5" width="538" height="71" rx="3.5" fill="white" stroke="#002F34"/>
<path d="M34 34.25H20.5V29.375C20.5015 28.8782 20.6995 28.4021 21.0508 28.0508C21.4021 27.6995 21.8782 27.5015 22.375 27.5H33.625C34.1218 27.5015 34.5979 27.6995 34.9492 28.0508C35.3005 28.4021 35.4985 28.8782 35.5 29.375V34.25H34Z" stroke="#003034" stroke-width="1.5" stroke-linecap="round" stroke-linejoin="round"/>
<path d="M18.25 42.5V37.25C18.2523 36.4551 18.5692 35.6934 19.1313 35.1313C19.6934 34.5692 20.4551 34.2523 21.25 34.25H34.75C35.5449 34.2523 36.3066 34.5692 36.8687 35.1313C37.4308 35.6934 37.7477 36.4551 37.75 37.25V42.5" stroke="#003034" stroke-width="1.5" stroke-linecap="round" stroke-linejoin="round"/>
<path d="M18.25 42.5V42.125C18.2509 41.8269 18.3697 41.5413 18.5805 41.3305C18.7913 41.1197 19.0769 41.0009 19.375 41H36.625C36.9231 41.0009 37.2087 41.1197 37.4195 41.3305C37.6303 41.5413 37.7491 41.8269 37.75 42.125V42.5" stroke="#003034" stroke-width="1.5" stroke-linecap="round" stroke-linejoin="round"/>
<path d="M21.25 34.25V33.5C21.2511 33.1025 21.4095 32.7216 21.6906 32.4406C21.9716 32.1595 22.3525 32.0011 22.75 32H26.5C26.8975 32.0011 27.2784 32.1595 27.5594 32.4406C27.8405 32.7216 27.9989 33.1025 28 33.5V34.25" stroke="#003034" stroke-width="1.5" stroke-linecap="round" stroke-linejoin="round"/>
<path d="M28 34.25V33.5C28.0011 33.1025 28.1595 32.7216 28.4406 32.4406C28.7216 32.1595 29.1025 32.0011 29.5 32H33.25C33.6475 32.0011 34.0284 32.1595 34.3094 32.4406C34.5905 32.7216 34.7489 33.1025 34.75 33.5V34.25" stroke="#003034" stroke-width="1.5" stroke-linecap="round" stroke-linejoin="round"/>
<path d="M57.968 44H61.16V36.968H67.016V34.496H61.16V29.384H68.6V26.84H57.968V44ZM74.8655 44.24C76.9055 44.24 78.2255 43.256 78.8495 42.032V44H81.7535V31.448H78.8495V38.912C78.8495 40.904 77.4815 41.912 75.9215 41.912C74.2415 41.912 73.4495 41.048 73.4495 39.152V31.448H70.5455V39.488C70.5455 42.824 72.3935 44.24 74.8655 44.24ZM85.1968 44H88.1008V37.472C88.1008 34.808 89.6367 33.992 92.1808 33.968V31.256C90.0688 31.28 88.8928 32.216 88.1008 33.8V31.448H85.1968V44ZM94.7358 44H97.6398V36.608C97.6398 34.616 98.9598 33.608 100.592 33.608C102.32 33.608 103.088 34.472 103.088 36.368V44H105.992V36.104C105.992 32.648 104.216 31.184 101.696 31.184C99.6318 31.184 98.2398 32.216 97.6398 33.44V31.448H94.7358V44ZM109.409 44H112.313V31.448H109.409V44ZM110.825 29.384C111.785 29.384 112.553 28.664 112.553 27.728C112.553 26.768 111.785 26.048 110.825 26.048C109.865 26.048 109.097 26.768 109.097 27.728C109.097 28.664 109.865 29.384 110.825 29.384ZM120.125 44.216C121.013 44.216 121.637 44.072 122.093 43.904V41.6C121.685 41.768 121.253 41.84 120.677 41.84C119.765 41.84 119.237 41.336 119.237 40.232V33.632H121.997V31.448H119.237V28.688H116.333V31.448H114.653V33.632H116.333V40.496C116.333 42.872 117.629 44.216 120.125 44.216ZM128.912 44.24C130.952 44.24 132.272 43.256 132.896 42.032V44H135.8V31.448H132.896V38.912C132.896 40.904 131.528 41.912 129.968 41.912C128.288 41.912 127.496 41.048 127.496 39.152V31.448H124.592V39.488C124.592 42.824 126.44 44.24 128.912 44.24ZM139.244 44H142.148V37.472C142.148 34.808 143.684 33.992 146.228 33.968V31.256C144.116 31.28 142.94 32.216 142.148 33.8V31.448H139.244V44ZM154.068 44.24C157.284 44.24 159.42 42.8 159.828 40.16H157.02C156.804 41.384 155.892 42.08 154.14 42.08C151.98 42.08 150.78 40.736 150.684 38.36H159.876V37.52C159.876 33.032 157.068 31.184 153.948 31.184C150.372 31.184 147.708 33.776 147.708 37.664V37.856C147.708 41.816 150.372 44.24 154.068 44.24ZM150.732 36.416C151.02 34.472 152.196 33.296 153.948 33.296C155.748 33.296 156.852 34.256 156.996 36.416H150.732Z" fill="#002F34"/>
<path d="M499.707 42.125L506.457 35.375L499.707 28.625" stroke="#002F34" stroke-width="1.6875" stroke-linecap="round" stroke-linejoin="round"/>
</svg>
