<svg width="539" height="72" viewBox="0 0 539 72" fill="none" xmlns="http://www.w3.org/2000/svg">
<rect x="0.5" y="0.5" width="538" height="71" rx="3.5" fill="white" stroke="#002F34"/>
<path d="M36.9934 27.5H19.0066C18.1745 27.5 17.5 28.1745 17.5 29.0066V38.7434C17.5 39.5755 18.1745 40.25 19.0066 40.25H36.9934C37.8255 40.25 38.5 39.5755 38.5 38.7434V29.0066C38.5 28.1745 37.8255 27.5 36.9934 27.5Z" stroke="#003034" stroke-width="1.5" stroke-linejoin="round"/>
<path d="M22 42.5H34H22Z" fill="#003034"/>
<path d="M22 42.5H34" stroke="#003034" stroke-width="1.5" stroke-miterlimit="10" stroke-linecap="round"/>
<path d="M57.968 44H60.848V31.04L66.056 44H67.088L72.2 31.04V44H75.392V26.84H71.168L66.752 38.552L62.24 26.84H57.968V44ZM84.5784 41.984C82.3704 41.984 81.0984 40.376 81.0984 37.808V37.616C81.0984 35.024 82.4184 33.464 84.5784 33.464C86.7384 33.464 88.0344 35.048 88.0344 37.64V37.808C88.0344 40.376 86.7384 41.984 84.5784 41.984ZM84.5544 44.24C88.2504 44.24 91.0104 41.696 91.0104 37.784V37.592C91.0104 33.752 88.2504 31.184 84.5784 31.184C80.8824 31.184 78.1224 33.776 78.1224 37.664V37.856C78.1224 41.672 80.8584 44.24 84.5544 44.24ZM100.642 44.24C103.882 44.24 106.21 41.792 106.21 37.76V37.568C106.21 33.512 103.786 31.184 100.642 31.184C98.7943 31.184 97.2343 32.264 96.5383 33.464V25.64H93.6343V44H96.5383V41.984C97.2103 43.256 98.6503 44.24 100.642 44.24ZM99.9223 41.936C97.8103 41.936 96.4423 40.616 96.4423 37.808V37.616C96.4423 34.832 97.8823 33.464 99.8983 33.464C101.794 33.464 103.234 34.832 103.234 37.616V37.808C103.234 40.496 102.058 41.936 99.9223 41.936ZM108.894 44H111.798V31.448H108.894V44ZM110.31 29.384C111.27 29.384 112.038 28.664 112.038 27.728C112.038 26.768 111.27 26.048 110.31 26.048C109.35 26.048 108.582 26.768 108.582 27.728C108.582 28.664 109.35 29.384 110.31 29.384ZM115.409 44H118.313V25.64H115.409V44ZM127.373 44.24C130.589 44.24 132.725 42.8 133.133 40.16H130.325C130.109 41.384 129.197 42.08 127.445 42.08C125.285 42.08 124.085 40.736 123.989 38.36H133.181V37.52C133.181 33.032 130.373 31.184 127.253 31.184C123.677 31.184 121.013 33.776 121.013 37.664V37.856C121.013 41.816 123.677 44.24 127.373 44.24ZM124.037 36.416C124.325 34.472 125.501 33.296 127.253 33.296C129.053 33.296 130.157 34.256 130.301 36.416H124.037ZM140.188 44.24C143.404 44.24 145.204 42.776 145.204 40.232C145.204 37.568 143.452 36.848 140.5 36.392C138.508 36.056 137.908 35.696 137.908 34.784C137.908 33.896 138.652 33.296 139.9 33.296C141.244 33.296 141.892 33.824 142.132 34.976H144.82C144.508 32.144 142.468 31.184 139.9 31.184C137.548 31.184 135.196 32.432 135.196 34.952C135.196 37.304 136.42 38.24 139.732 38.768C141.58 39.08 142.42 39.464 142.42 40.496C142.42 41.552 141.724 42.104 140.164 42.104C138.46 42.104 137.812 41.36 137.668 40.088H134.932C135.052 42.752 136.948 44.24 140.188 44.24ZM168.182 35.12H165.566L163.814 38.48L160.79 34.784C163.022 33.824 164.366 32.408 164.366 30.416C164.366 28.112 162.398 26.696 160.046 26.696C157.55 26.696 155.318 28.136 155.318 30.848C155.318 31.88 155.75 33.032 156.662 34.232C154.358 35.336 152.798 36.8 152.798 39.32C152.798 42.32 155.102 44.216 158.438 44.216C160.646 44.216 162.062 43.352 163.142 42.248L164.582 44H168.254L165.374 40.496L168.182 35.12ZM158.774 41.816C156.902 41.816 155.822 40.736 155.822 39.008C155.822 37.4 156.734 36.608 158.006 35.96L161.654 40.4C160.862 41.336 159.878 41.816 158.774 41.816ZM158.15 30.872C158.15 29.504 158.99 28.832 160.046 28.832C161.054 28.832 161.726 29.552 161.726 30.536C161.726 31.88 161.054 32.648 159.446 33.392C158.63 32.408 158.15 31.664 158.15 30.872ZM180.041 44H183.257V29.36H188.033V26.84H175.265V29.36H180.041V44ZM192.079 44.24C193.999 44.24 195.103 43.544 195.919 42.464V44H198.775V35.768C198.775 32.336 196.567 31.184 193.759 31.184C190.951 31.184 188.623 32.408 188.383 35.336H191.191C191.335 34.088 192.079 33.368 193.591 33.368C195.295 33.368 195.871 34.208 195.871 35.888V36.536H194.311C190.711 36.536 187.879 37.592 187.879 40.52C187.879 43.136 189.775 44.24 192.079 44.24ZM192.775 42.152C191.335 42.152 190.759 41.456 190.759 40.4C190.759 38.864 192.175 38.36 194.383 38.36H195.871V39.608C195.871 41.216 194.551 42.152 192.775 42.152ZM209.111 44.24C212.351 44.24 214.679 41.792 214.679 37.76V37.568C214.679 33.512 212.255 31.184 209.111 31.184C207.263 31.184 205.703 32.264 205.007 33.464V25.64H202.103V44H205.007V41.984C205.679 43.256 207.119 44.24 209.111 44.24ZM208.391 41.936C206.279 41.936 204.911 40.616 204.911 37.808V37.616C204.911 34.832 206.351 33.464 208.367 33.464C210.263 33.464 211.703 34.832 211.703 37.616V37.808C211.703 40.496 210.527 41.936 208.391 41.936ZM217.363 44H220.267V25.64H217.363V44ZM229.326 44.24C232.542 44.24 234.678 42.8 235.086 40.16H232.278C232.062 41.384 231.15 42.08 229.398 42.08C227.238 42.08 226.038 40.736 225.942 38.36H235.134V37.52C235.134 33.032 232.326 31.184 229.206 31.184C225.63 31.184 222.966 33.776 222.966 37.664V37.856C222.966 41.816 225.63 44.24 229.326 44.24ZM225.99 36.416C226.278 34.472 227.454 33.296 229.206 33.296C231.006 33.296 232.11 34.256 232.254 36.416H225.99ZM242 44.216C242.888 44.216 243.512 44.072 243.968 43.904V41.6C243.56 41.768 243.128 41.84 242.552 41.84C241.64 41.84 241.112 41.336 241.112 40.232V33.632H243.872V31.448H241.112V28.688H238.208V31.448H236.528V33.632H238.208V40.496C238.208 42.872 239.504 44.216 242 44.216ZM251.001 44.24C254.217 44.24 256.017 42.776 256.017 40.232C256.017 37.568 254.265 36.848 251.313 36.392C249.321 36.056 248.721 35.696 248.721 34.784C248.721 33.896 249.465 33.296 250.713 33.296C252.057 33.296 252.705 33.824 252.945 34.976H255.633C255.321 32.144 253.281 31.184 250.713 31.184C248.361 31.184 246.009 32.432 246.009 34.952C246.009 37.304 247.233 38.24 250.545 38.768C252.393 39.08 253.233 39.464 253.233 40.496C253.233 41.552 252.537 42.104 250.977 42.104C249.273 42.104 248.625 41.36 248.481 40.088H245.745C245.865 42.752 247.761 44.24 251.001 44.24Z" fill="#002F34"/>
<path d="M499.707 42.125L506.457 35.375L499.707 28.625" stroke="#002F34" stroke-width="1.6875" stroke-linecap="round" stroke-linejoin="round"/>
</svg>
