<svg width="1440" height="62" viewBox="0 0 1440 62" fill="none" xmlns="http://www.w3.org/2000/svg">
<rect width="1440" height="62" fill="#002F34" fill-opacity="0.8"/>
<path d="M61.2 35.16C63.728 35.16 65.408 33.608 65.408 31.624C65.408 29.336 64.016 28.568 61.328 28.2C59.344 27.912 58.96 27.448 58.96 26.52C58.96 25.64 59.632 25.016 60.928 25.016C62.24 25.016 62.928 25.528 63.136 26.728H65.088C64.864 24.536 63.392 23.416 60.928 23.416C58.544 23.416 56.944 24.824 56.944 26.696C56.944 28.84 58.24 29.672 60.976 30.04C62.832 30.344 63.36 30.744 63.36 31.8C63.36 32.856 62.464 33.56 61.2 33.56C59.264 33.56 58.8 32.6 58.656 31.448H56.608C56.768 33.608 58.08 35.16 61.2 35.16ZM67.3563 35H69.2923V26.632H67.3563V35ZM68.3003 25.256C68.9403 25.256 69.4523 24.776 69.4523 24.152C69.4523 23.512 68.9403 23.032 68.3003 23.032C67.6603 23.032 67.1483 23.512 67.1483 24.152C67.1483 24.776 67.6603 25.256 68.3003 25.256ZM74.5 35.144C75.092 35.144 75.508 35.048 75.812 34.936V33.4C75.54 33.512 75.252 33.56 74.868 33.56C74.26 33.56 73.908 33.224 73.908 32.488V28.088H75.748V26.632H73.908V24.792H71.972V26.632H70.852V28.088H71.972V32.664C71.972 34.248 72.836 35.144 74.5 35.144ZM81.2383 35.16C83.3823 35.16 84.8063 34.2 85.0783 32.44H83.2063C83.0623 33.256 82.4543 33.72 81.2863 33.72C79.8463 33.72 79.0463 32.824 78.9823 31.24H85.1103V30.68C85.1103 27.688 83.2383 26.456 81.1583 26.456C78.7743 26.456 76.9983 28.184 76.9983 30.776V30.904C76.9983 33.544 78.7743 35.16 81.2383 35.16ZM79.0143 29.944C79.2063 28.648 79.9903 27.864 81.1583 27.864C82.3583 27.864 83.0943 28.504 83.1903 29.944H79.0143ZM86.8395 35H88.7755V29.992C88.7755 28.712 89.6555 28.072 90.6155 28.072C91.5595 28.072 92.1035 28.6 92.1035 29.832V35H94.0395V29.992C94.0395 28.712 94.9195 28.072 95.8795 28.072C96.8395 28.072 97.3675 28.6 97.3675 29.832V35H99.3035V29.704C99.3035 27.4 98.0555 26.456 96.5195 26.456C95.4795 26.456 94.3275 26.92 93.6875 27.96C93.2715 26.92 92.4075 26.456 91.3195 26.456C90.0875 26.456 89.1755 27.128 88.7755 27.912V26.632H86.8395V35ZM103.719 35.16C104.999 35.16 105.735 34.696 106.279 33.976V35H108.183V29.512C108.183 27.224 106.711 26.456 104.839 26.456C102.967 26.456 101.415 27.272 101.255 29.224H103.127C103.223 28.392 103.719 27.912 104.727 27.912C105.863 27.912 106.247 28.472 106.247 29.592V30.024H105.207C102.807 30.024 100.919 30.728 100.919 32.68C100.919 34.424 102.183 35.16 103.719 35.16ZM104.183 33.768C103.223 33.768 102.839 33.304 102.839 32.6C102.839 31.576 103.783 31.24 105.255 31.24H106.247V32.072C106.247 33.144 105.367 33.768 104.183 33.768ZM110.402 37.864H112.338V33.688C112.786 34.504 113.746 35.16 115.074 35.16C117.234 35.16 118.786 33.528 118.786 30.84V30.712C118.786 28.008 117.17 26.456 115.074 26.456C113.842 26.456 112.802 27.176 112.338 27.976V26.632H110.402V37.864ZM114.594 33.624C113.186 33.624 112.274 32.744 112.274 30.872V30.744C112.274 28.888 113.234 27.976 114.578 27.976C115.842 27.976 116.802 28.888 116.802 30.744V30.872C116.802 32.664 116.018 33.624 114.594 33.624Z" fill="white"/>
<path d="M1033.31 35H1035.44V30.312H1039.34V28.664H1035.44V25.256H1040.4V23.56H1033.31V35ZM1041.78 35H1043.71V30.648C1043.71 28.872 1044.74 28.328 1046.43 28.312V26.504C1045.03 26.52 1044.24 27.144 1043.71 28.2V26.632H1041.78V35ZM1051.66 35.16C1053.8 35.16 1055.23 34.2 1055.5 32.44H1053.63C1053.48 33.256 1052.88 33.72 1051.71 33.72C1050.27 33.72 1049.47 32.824 1049.4 31.24H1055.53V30.68C1055.53 27.688 1053.66 26.456 1051.58 26.456C1049.2 26.456 1047.42 28.184 1047.42 30.776V30.904C1047.42 33.544 1049.2 35.16 1051.66 35.16ZM1049.44 29.944C1049.63 28.648 1050.41 27.864 1051.58 27.864C1052.78 27.864 1053.52 28.504 1053.61 29.944H1049.44ZM1060.94 35.16C1063.09 35.16 1064.51 34.2 1064.78 32.44H1062.91C1062.77 33.256 1062.16 33.72 1060.99 33.72C1059.55 33.72 1058.75 32.824 1058.69 31.24H1064.81V30.68C1064.81 27.688 1062.94 26.456 1060.86 26.456C1058.48 26.456 1056.7 28.184 1056.7 30.776V30.904C1056.7 33.544 1058.48 35.16 1060.94 35.16ZM1058.72 29.944C1058.91 28.648 1059.69 27.864 1060.86 27.864C1062.06 27.864 1062.8 28.504 1062.89 29.944H1058.72ZM1075.52 35.16C1078.24 35.16 1080.2 33.768 1080.53 31.016H1078.45C1078.23 32.632 1077.11 33.432 1075.52 33.432C1073.41 33.432 1072.18 31.912 1072.18 29.336V29.208C1072.18 26.648 1073.49 25.08 1075.51 25.08C1077.16 25.08 1078 25.864 1078.24 27.384H1080.4C1080.15 24.696 1078.12 23.384 1075.49 23.384C1072.31 23.384 1069.94 25.784 1069.94 29.224V29.352C1069.94 32.872 1071.94 35.16 1075.52 35.16ZM1082.26 35H1084.2V22.76H1082.26V35ZM1088.75 35.16C1090.03 35.16 1090.77 34.696 1091.31 33.976V35H1093.21V29.512C1093.21 27.224 1091.74 26.456 1089.87 26.456C1088 26.456 1086.45 27.272 1086.29 29.224H1088.16C1088.25 28.392 1088.75 27.912 1089.76 27.912C1090.89 27.912 1091.28 28.472 1091.28 29.592V30.024H1090.24C1087.84 30.024 1085.95 30.728 1085.95 32.68C1085.95 34.424 1087.21 35.16 1088.75 35.16ZM1089.21 33.768C1088.25 33.768 1087.87 33.304 1087.87 32.6C1087.87 31.576 1088.81 31.24 1090.29 31.24H1091.28V32.072C1091.28 33.144 1090.4 33.768 1089.21 33.768ZM1098.3 35.16C1100.44 35.16 1101.64 34.184 1101.64 32.488C1101.64 30.712 1100.47 30.232 1098.51 29.928C1097.18 29.704 1096.78 29.464 1096.78 28.856C1096.78 28.264 1097.27 27.864 1098.11 27.864C1099 27.864 1099.43 28.216 1099.59 28.984H1101.39C1101.18 27.096 1099.82 26.456 1098.11 26.456C1096.54 26.456 1094.97 27.288 1094.97 28.968C1094.97 30.536 1095.79 31.16 1097.99 31.512C1099.23 31.72 1099.79 31.976 1099.79 32.664C1099.79 33.368 1099.32 33.736 1098.28 33.736C1097.15 33.736 1096.71 33.24 1096.62 32.392H1094.79C1094.87 34.168 1096.14 35.16 1098.3 35.16ZM1106.2 35.16C1108.35 35.16 1109.55 34.184 1109.55 32.488C1109.55 30.712 1108.38 30.232 1106.41 29.928C1105.08 29.704 1104.68 29.464 1104.68 28.856C1104.68 28.264 1105.18 27.864 1106.01 27.864C1106.91 27.864 1107.34 28.216 1107.5 28.984H1109.29C1109.08 27.096 1107.72 26.456 1106.01 26.456C1104.44 26.456 1102.88 27.288 1102.88 28.968C1102.88 30.536 1103.69 31.16 1105.9 31.512C1107.13 31.72 1107.69 31.976 1107.69 32.664C1107.69 33.368 1107.23 33.736 1106.19 33.736C1105.05 33.736 1104.62 33.24 1104.52 32.392H1102.7C1102.78 34.168 1104.04 35.16 1106.2 35.16ZM1111.29 35H1113.23V26.632H1111.29V35ZM1112.24 25.256C1112.88 25.256 1113.39 24.776 1113.39 24.152C1113.39 23.512 1112.88 23.032 1112.24 23.032C1111.6 23.032 1111.09 23.512 1111.09 24.152C1111.09 24.776 1111.6 25.256 1112.24 25.256ZM1115.93 35H1117.86V28.088H1119.77V26.632H1117.86V25.432C1117.86 24.712 1118.18 24.2 1118.95 24.2C1119.3 24.2 1119.54 24.232 1119.77 24.328V22.824C1119.46 22.728 1119.19 22.68 1118.71 22.68C1116.93 22.68 1115.93 23.672 1115.93 25.512V26.632H1114.79V28.088H1115.93V35ZM1121.22 35H1123.15V26.632H1121.22V35ZM1122.16 25.256C1122.8 25.256 1123.31 24.776 1123.31 24.152C1123.31 23.512 1122.8 23.032 1122.16 23.032C1121.52 23.032 1121.01 23.512 1121.01 24.152C1121.01 24.776 1121.52 25.256 1122.16 25.256ZM1129.19 35.16C1131.34 35.16 1132.76 34.2 1133.03 32.44H1131.16C1131.02 33.256 1130.41 33.72 1129.24 33.72C1127.8 33.72 1127 32.824 1126.94 31.24H1133.06V30.68C1133.06 27.688 1131.19 26.456 1129.11 26.456C1126.73 26.456 1124.95 28.184 1124.95 30.776V30.904C1124.95 33.544 1126.73 35.16 1129.19 35.16ZM1126.97 29.944C1127.16 28.648 1127.94 27.864 1129.11 27.864C1130.31 27.864 1131.05 28.504 1131.14 29.944H1126.97ZM1137.93 35.16C1139.16 35.16 1140.23 34.424 1140.68 33.592V35H1142.62V22.76H1140.68V27.912C1140.22 27.08 1139.37 26.456 1138.01 26.456C1135.83 26.456 1134.25 28.152 1134.25 30.824V30.952C1134.25 33.672 1135.83 35.16 1137.93 35.16ZM1138.41 33.624C1137.16 33.624 1136.23 32.744 1136.23 30.904V30.776C1136.23 28.968 1137.06 27.976 1138.49 27.976C1139.9 27.976 1140.74 28.888 1140.74 30.728V30.856C1140.74 32.728 1139.75 33.624 1138.41 33.624ZM1147.78 35.16C1149.93 35.16 1151.13 34.184 1151.13 32.488C1151.13 30.712 1149.96 30.232 1147.99 29.928C1146.66 29.704 1146.26 29.464 1146.26 28.856C1146.26 28.264 1146.76 27.864 1147.59 27.864C1148.49 27.864 1148.92 28.216 1149.08 28.984H1150.87C1150.66 27.096 1149.3 26.456 1147.59 26.456C1146.02 26.456 1144.45 27.288 1144.45 28.968C1144.45 30.536 1145.27 31.16 1147.48 31.512C1148.71 31.72 1149.27 31.976 1149.27 32.664C1149.27 33.368 1148.81 33.736 1147.77 33.736C1146.63 33.736 1146.2 33.24 1146.1 32.392H1144.28C1144.36 34.168 1145.62 35.16 1147.78 35.16ZM1156.68 35H1158.62V26.632H1156.68V35ZM1157.63 25.256C1158.27 25.256 1158.78 24.776 1158.78 24.152C1158.78 23.512 1158.27 23.032 1157.63 23.032C1156.99 23.032 1156.48 23.512 1156.48 24.152C1156.48 24.776 1156.99 25.256 1157.63 25.256ZM1160.98 35H1162.92V30.072C1162.92 28.744 1163.8 28.072 1164.88 28.072C1166.04 28.072 1166.55 28.648 1166.55 29.912V35H1168.48V29.736C1168.48 27.432 1167.3 26.456 1165.62 26.456C1164.24 26.456 1163.32 27.144 1162.92 27.96V26.632H1160.98V35ZM1174.75 35H1176.9V23.56H1174.75V35ZM1179.43 35H1181.37V30.072C1181.37 28.744 1182.25 28.072 1183.34 28.072C1184.49 28.072 1185 28.648 1185 29.912V35H1186.94V29.736C1186.94 27.432 1185.75 26.456 1184.07 26.456C1182.7 26.456 1181.77 27.144 1181.37 27.96V26.632H1179.43V35ZM1192.3 35.16C1193.54 35.16 1194.61 34.424 1195.06 33.592V35H1196.99V22.76H1195.06V27.912C1194.59 27.08 1193.74 26.456 1192.38 26.456C1190.21 26.456 1188.62 28.152 1188.62 30.824V30.952C1188.62 33.672 1190.21 35.16 1192.3 35.16ZM1192.78 33.624C1191.54 33.624 1190.61 32.744 1190.61 30.904V30.776C1190.61 28.968 1191.44 27.976 1192.86 27.976C1194.27 27.976 1195.12 28.888 1195.12 30.728V30.856C1195.12 32.728 1194.13 33.624 1192.78 33.624ZM1199.34 35H1201.28V26.632H1199.34V35ZM1200.28 25.256C1200.92 25.256 1201.44 24.776 1201.44 24.152C1201.44 23.512 1200.92 23.032 1200.28 23.032C1199.64 23.032 1199.13 23.512 1199.13 24.152C1199.13 24.776 1199.64 25.256 1200.28 25.256ZM1205.83 35.16C1207.11 35.16 1207.84 34.696 1208.39 33.976V35H1210.29V29.512C1210.29 27.224 1208.82 26.456 1206.95 26.456C1205.08 26.456 1203.52 27.272 1203.36 29.224H1205.24C1205.33 28.392 1205.83 27.912 1206.84 27.912C1207.97 27.912 1208.36 28.472 1208.36 29.592V30.024H1207.32C1204.92 30.024 1203.03 30.728 1203.03 32.68C1203.03 34.424 1204.29 35.16 1205.83 35.16ZM1206.29 33.768C1205.33 33.768 1204.95 33.304 1204.95 32.6C1204.95 31.576 1205.89 31.24 1207.36 31.24H1208.36V32.072C1208.36 33.144 1207.48 33.768 1206.29 33.768Z" fill="white"/>
<path d="M1266.3 35H1273.97V33.864H1268.45L1271.6 30.792C1273.01 29.416 1273.9 28.04 1273.9 26.632C1273.9 24.664 1272.56 23.416 1270.45 23.416C1268.27 23.416 1266.91 24.84 1266.74 27.08H1268.03C1268.26 25.288 1269.12 24.536 1270.45 24.536C1271.74 24.536 1272.5 25.304 1272.5 26.584C1272.5 27.752 1271.89 28.792 1270.85 29.896L1266.3 34.68V35ZM1280.29 33.992C1278.38 33.992 1277.17 32.488 1277.17 29.592V28.952C1277.17 26.136 1278.32 24.536 1280.25 24.536C1282.19 24.536 1283.31 26.264 1283.31 28.92V29.56C1283.31 32.456 1282.29 33.992 1280.29 33.992ZM1280.29 35.144C1283.1 35.144 1284.72 32.904 1284.72 29.576V28.936C1284.72 25.672 1283.07 23.416 1280.25 23.416C1277.45 23.416 1275.74 25.592 1275.74 28.968V29.608C1275.74 32.936 1277.55 35.144 1280.29 35.144ZM1291.18 33.992C1289.27 33.992 1288.06 32.488 1288.06 29.592V28.952C1288.06 26.136 1289.21 24.536 1291.14 24.536C1293.08 24.536 1294.2 26.264 1294.2 28.92V29.56C1294.2 32.456 1293.18 33.992 1291.18 33.992ZM1291.18 35.144C1293.99 35.144 1295.61 32.904 1295.61 29.576V28.936C1295.61 25.672 1293.96 23.416 1291.14 23.416C1288.34 23.416 1286.63 25.592 1286.63 28.968V29.608C1286.63 32.936 1288.44 35.144 1291.18 35.144ZM1301.63 35.144C1304.05 35.144 1305.59 33.608 1305.59 31.32C1305.59 29.224 1304.11 27.576 1301.84 27.576C1300.51 27.576 1299.44 28.2 1298.9 29.128C1298.96 26.104 1300.18 24.552 1301.91 24.552C1303.19 24.552 1303.76 25.128 1304.02 26.184H1305.35C1305.04 24.344 1303.78 23.416 1302 23.416C1299.38 23.416 1297.52 25.56 1297.52 29.672V29.944C1297.52 32.808 1298.51 35.144 1301.63 35.144ZM1301.63 34.056C1300.1 34.056 1298.99 33.064 1298.99 31.192C1298.99 29.704 1300.08 28.664 1301.62 28.664C1303.17 28.664 1304.16 29.736 1304.16 31.384C1304.16 33 1303.14 34.056 1301.63 34.056ZM1307.43 30.392H1311.33V29.144H1307.43V30.392ZM1312.6 35H1320.26V33.864H1314.74L1317.9 30.792C1319.3 29.416 1320.2 28.04 1320.2 26.632C1320.2 24.664 1318.86 23.416 1316.74 23.416C1314.57 23.416 1313.21 24.84 1313.03 27.08H1314.33C1314.55 25.288 1315.42 24.536 1316.74 24.536C1318.04 24.536 1318.79 25.304 1318.79 26.584C1318.79 27.752 1318.18 28.792 1317.14 29.896L1312.6 34.68V35ZM1326.58 33.992C1324.68 33.992 1323.46 32.488 1323.46 29.592V28.952C1323.46 26.136 1324.61 24.536 1326.55 24.536C1328.49 24.536 1329.61 26.264 1329.61 28.92V29.56C1329.61 32.456 1328.58 33.992 1326.58 33.992ZM1326.58 35.144C1329.4 35.144 1331.01 32.904 1331.01 29.576V28.936C1331.01 25.672 1329.37 23.416 1326.55 23.416C1323.75 23.416 1322.04 25.592 1322.04 28.968V29.608C1322.04 32.936 1323.85 35.144 1326.58 35.144ZM1332.27 35H1339.94V33.864H1334.42L1337.57 30.792C1338.98 29.416 1339.87 28.04 1339.87 26.632C1339.87 24.664 1338.53 23.416 1336.42 23.416C1334.24 23.416 1332.88 24.84 1332.7 27.08H1334C1334.22 25.288 1335.09 24.536 1336.42 24.536C1337.71 24.536 1338.46 25.304 1338.46 26.584C1338.46 27.752 1337.86 28.792 1336.82 29.896L1332.27 34.68V35ZM1343.92 35H1345.31V23.56H1344.01L1341.36 25.48V26.776L1343.92 24.936V35ZM1358 33.992C1355.61 33.992 1353.77 32.104 1353.77 29.336V29.208C1353.77 26.488 1355.31 24.536 1357.97 24.536C1360.61 24.536 1362.11 26.616 1362.11 29.176V29.304C1362.11 32.072 1360.54 33.992 1358 33.992ZM1358 35.144C1361.33 35.144 1363.55 32.552 1363.55 29.32V29.192C1363.55 25.976 1361.33 23.416 1357.97 23.416C1354.61 23.416 1352.33 25.976 1352.33 29.224V29.352C1352.33 32.552 1354.62 35.144 1358 35.144ZM1365.86 35H1372.49V33.864H1367.25V23.56H1365.86V35ZM1373.7 35H1375.1L1378.15 30.184L1381.21 35H1382.78L1379.05 29.128L1382.6 23.56H1381.18L1378.34 28.056L1375.5 23.56H1373.96L1377.48 29.128L1373.7 35Z" fill="white"/>
</svg>
