<svg width="539" height="72" viewBox="0 0 539 72" fill="none" xmlns="http://www.w3.org/2000/svg">
<rect x="0.5" y="0.5" width="538" height="71" rx="3.5" fill="white" stroke="#002F34"/>
<path d="M24.25 42.5V45.5" stroke="#003034" stroke-width="1.5" stroke-linecap="round" stroke-linejoin="round"/>
<path d="M19.75 24.5H28.75C29.1478 24.5 29.5294 24.658 29.8107 24.9393C30.092 25.2206 30.25 25.6022 30.25 26V45.3125C30.25 45.3622 30.2302 45.4099 30.1951 45.4451C30.1599 45.4802 30.1122 45.5 30.0625 45.5H18.25V26C18.25 25.6022 18.408 25.2206 18.6893 24.9393C18.9706 24.658 19.3522 24.5 19.75 24.5V24.5Z" stroke="#003034" stroke-width="1.5" stroke-linecap="round" stroke-linejoin="round"/>
<path d="M31 32H36.25C36.6478 32 37.0294 32.158 37.3107 32.4393C37.592 32.7206 37.75 33.1022 37.75 33.5V45.5H30.25V32.75C30.25 32.5511 30.329 32.3603 30.4697 32.2197C30.6103 32.079 30.8011 32 31 32Z" stroke="#003034" stroke-width="1.5" stroke-linecap="round" stroke-linejoin="round"/>
<path d="M20.5973 43.2437C20.4419 43.264 20.2841 43.2351 20.146 43.1612C20.0079 43.0873 19.8964 42.972 19.8272 42.8314C19.758 42.6909 19.7345 42.5322 19.76 42.3777C19.7856 42.2231 19.8589 42.0804 19.9697 41.9697C20.0804 41.8589 20.2231 41.7856 20.3777 41.76C20.5322 41.7345 20.6909 41.758 20.8314 41.8272C20.972 41.8964 21.0873 42.0079 21.1612 42.146C21.2351 42.2841 21.264 42.4419 21.2437 42.5973C21.2222 42.7612 21.1472 42.9134 21.0303 43.0303C20.9134 43.1472 20.7612 43.2222 20.5973 43.2437Z" fill="#003034"/>
<path d="M20.5973 39.4937C20.4419 39.514 20.2841 39.4851 20.146 39.4112C20.0079 39.3373 19.8964 39.222 19.8272 39.0814C19.758 38.9409 19.7345 38.7822 19.76 38.6277C19.7856 38.4731 19.8589 38.3304 19.9697 38.2197C20.0804 38.1089 20.2231 38.0356 20.3777 38.01C20.5322 37.9845 20.6909 38.008 20.8314 38.0772C20.972 38.1464 21.0873 38.2579 21.1612 38.396C21.2351 38.5341 21.264 38.6919 21.2437 38.8473C21.2222 39.0112 21.1472 39.1634 21.0303 39.2803C20.9134 39.3972 20.7612 39.4722 20.5973 39.4937Z" fill="#003034"/>
<path d="M20.5973 35.7437C20.4419 35.764 20.2841 35.7351 20.146 35.6612C20.0079 35.5873 19.8964 35.472 19.8272 35.3314C19.758 35.1909 19.7345 35.0322 19.76 34.8777C19.7856 34.7231 19.8589 34.5804 19.9697 34.4697C20.0804 34.3589 20.2231 34.2856 20.3777 34.26C20.5322 34.2345 20.6909 34.258 20.8314 34.3272C20.972 34.3964 21.0873 34.5079 21.1612 34.646C21.2351 34.7841 21.264 34.9419 21.2437 35.0973C21.2222 35.2612 21.1472 35.4134 21.0303 35.5303C20.9134 35.6472 20.7612 35.7222 20.5973 35.7437Z" fill="#003034"/>
<path d="M20.5973 31.9937C20.4419 32.014 20.2841 31.9851 20.146 31.9112C20.0079 31.8373 19.8964 31.722 19.8272 31.5814C19.758 31.4409 19.7345 31.2822 19.76 31.1277C19.7856 30.9731 19.8589 30.8304 19.9697 30.7197C20.0804 30.6089 20.2231 30.5356 20.3777 30.51C20.5322 30.4845 20.6909 30.508 20.8314 30.5772C20.972 30.6464 21.0873 30.7579 21.1612 30.896C21.2351 31.0341 21.264 31.1919 21.2437 31.3473C21.2222 31.5112 21.1472 31.6634 21.0303 31.7803C20.9134 31.8972 20.7612 31.9722 20.5973 31.9937Z" fill="#003034"/>
<path d="M20.5973 28.2437C20.4419 28.264 20.2841 28.2351 20.146 28.1612C20.0079 28.0873 19.8964 27.972 19.8272 27.8314C19.758 27.6909 19.7345 27.5322 19.76 27.3777C19.7856 27.2231 19.8589 27.0804 19.9697 26.9697C20.0804 26.8589 20.2231 26.7856 20.3777 26.76C20.5322 26.7345 20.6909 26.758 20.8314 26.8272C20.972 26.8964 21.0873 27.0079 21.1612 27.146C21.2351 27.2841 21.264 27.4419 21.2437 27.5973C21.2222 27.7612 21.1472 27.9134 21.0303 28.0303C20.9134 28.1472 20.7612 28.2222 20.5973 28.2437Z" fill="#003034"/>
<path d="M24.3473 39.4937C24.1919 39.514 24.0341 39.4851 23.896 39.4112C23.7579 39.3373 23.6464 39.222 23.5772 39.0814C23.508 38.9409 23.4845 38.7822 23.51 38.6277C23.5356 38.4731 23.6089 38.3304 23.7197 38.2197C23.8304 38.1089 23.9731 38.0356 24.1277 38.01C24.2822 37.9845 24.4409 38.008 24.5814 38.0772C24.722 38.1464 24.8373 38.2579 24.9112 38.396C24.9851 38.5341 25.014 38.6919 24.9937 38.8473C24.9722 39.0112 24.8972 39.1634 24.7803 39.2803C24.6634 39.3972 24.5112 39.4722 24.3473 39.4937Z" fill="#003034"/>
<path d="M24.3473 35.7437C24.1919 35.764 24.0341 35.7351 23.896 35.6612C23.7579 35.5873 23.6464 35.472 23.5772 35.3314C23.508 35.1909 23.4845 35.0322 23.51 34.8777C23.5356 34.7231 23.6089 34.5804 23.7197 34.4697C23.8304 34.3589 23.9731 34.2856 24.1277 34.26C24.2822 34.2345 24.4409 34.258 24.5814 34.3272C24.722 34.3964 24.8373 34.5079 24.9112 34.646C24.9851 34.7841 25.014 34.9419 24.9937 35.0973C24.9722 35.2612 24.8972 35.4134 24.7803 35.5303C24.6634 35.6472 24.5112 35.7222 24.3473 35.7437Z" fill="#003034"/>
<path d="M24.3473 31.9937C24.1919 32.014 24.0341 31.9851 23.896 31.9112C23.7579 31.8373 23.6464 31.722 23.5772 31.5814C23.508 31.4409 23.4845 31.2822 23.51 31.1277C23.5356 30.9731 23.6089 30.8304 23.7197 30.7197C23.8304 30.6089 23.9731 30.5356 24.1277 30.51C24.2822 30.4845 24.4409 30.508 24.5814 30.5772C24.722 30.6464 24.8373 30.7579 24.9112 30.896C24.9851 31.0341 25.014 31.1919 24.9937 31.3473C24.9722 31.5112 24.8972 31.6634 24.7803 31.7803C24.6634 31.8972 24.5112 31.9722 24.3473 31.9937Z" fill="#003034"/>
<path d="M24.3473 28.2437C24.1919 28.264 24.0341 28.2351 23.896 28.1612C23.7579 28.0873 23.6464 27.972 23.5772 27.8314C23.508 27.6909 23.4845 27.5322 23.51 27.3777C23.5356 27.2231 23.6089 27.0804 23.7197 26.9697C23.8304 26.8589 23.9731 26.7856 24.1277 26.76C24.2822 26.7345 24.4409 26.758 24.5814 26.8272C24.722 26.8964 24.8373 27.0079 24.9112 27.146C24.9851 27.2841 25.014 27.4419 24.9937 27.5973C24.9722 27.7612 24.8972 27.9134 24.7803 28.0303C24.6634 28.1472 24.5112 28.2222 24.3473 28.2437Z" fill="#003034"/>
<path d="M28.0973 43.2437C27.9419 43.264 27.7841 43.2351 27.646 43.1612C27.5079 43.0873 27.3964 42.972 27.3272 42.8314C27.258 42.6909 27.2345 42.5322 27.26 42.3777C27.2856 42.2231 27.3589 42.0804 27.4697 41.9697C27.5804 41.8589 27.7231 41.7856 27.8777 41.76C28.0322 41.7345 28.1909 41.758 28.3314 41.8272C28.472 41.8964 28.5873 42.0079 28.6612 42.146C28.7351 42.2841 28.764 42.4419 28.7437 42.5973C28.7222 42.7612 28.6472 42.9134 28.5303 43.0303C28.4134 43.1472 28.2612 43.2222 28.0973 43.2437Z" fill="#003034"/>
<path d="M28.0973 39.4937C27.9419 39.514 27.7841 39.4851 27.646 39.4112C27.5079 39.3373 27.3964 39.222 27.3272 39.0814C27.258 38.9409 27.2345 38.7822 27.26 38.6277C27.2856 38.4731 27.3589 38.3304 27.4697 38.2197C27.5804 38.1089 27.7231 38.0356 27.8777 38.01C28.0322 37.9845 28.1909 38.008 28.3314 38.0772C28.472 38.1464 28.5873 38.2579 28.6612 38.396C28.7351 38.5341 28.764 38.6919 28.7437 38.8473C28.7222 39.0112 28.6472 39.1634 28.5303 39.2803C28.4134 39.3972 28.2612 39.4722 28.0973 39.4937Z" fill="#003034"/>
<path d="M28.0973 35.7437C27.9419 35.764 27.7841 35.7351 27.646 35.6612C27.5079 35.5873 27.3964 35.472 27.3272 35.3314C27.258 35.1909 27.2345 35.0322 27.26 34.8777C27.2856 34.7231 27.3589 34.5804 27.4697 34.4697C27.5804 34.3589 27.7231 34.2856 27.8777 34.26C28.0322 34.2345 28.1909 34.258 28.3314 34.3272C28.472 34.3964 28.5873 34.5079 28.6612 34.646C28.7351 34.7841 28.764 34.9419 28.7437 35.0973C28.7222 35.2612 28.6472 35.4134 28.5303 35.5303C28.4134 35.6472 28.2612 35.7222 28.0973 35.7437Z" fill="#003034"/>
<path d="M28.5327 31.7801C28.8247 31.4881 28.8235 31.0135 28.5301 30.7201C28.2366 30.4266 27.7621 30.4254 27.4701 30.7174C27.1781 31.0094 27.1793 31.484 27.4727 31.7774C27.7662 32.0709 28.2407 32.072 28.5327 31.7801Z" fill="#003034"/>
<path d="M28.0973 28.2437C27.9419 28.264 27.7841 28.2351 27.646 28.1612C27.5079 28.0873 27.3964 27.972 27.3272 27.8314C27.258 27.6909 27.2345 27.5322 27.26 27.3777C27.2856 27.2231 27.3589 27.0804 27.4697 26.9697C27.5804 26.8589 27.7231 26.7856 27.8777 26.76C28.0322 26.7345 28.1909 26.758 28.3314 26.8272C28.472 26.8964 28.5873 27.0079 28.6612 27.146C28.7351 27.2841 28.764 27.4419 28.7437 27.5973C28.7222 27.7612 28.6472 27.9134 28.5303 28.0303C28.4134 28.1472 28.2612 28.2222 28.0973 28.2437Z" fill="#003034"/>
<path d="M34.75 41.75C34.6017 41.75 34.4567 41.794 34.3333 41.8764C34.21 41.9588 34.1139 42.0759 34.0571 42.213C34.0003 42.35 33.9855 42.5008 34.0144 42.6463C34.0434 42.7918 34.1148 42.9254 34.2197 43.0303C34.3246 43.1352 34.4582 43.2067 34.6037 43.2356C34.7492 43.2645 34.9 43.2497 35.037 43.1929C35.1741 43.1361 35.2912 43.04 35.3736 42.9167C35.456 42.7933 35.5 42.6483 35.5 42.5C35.5 42.3011 35.421 42.1103 35.2803 41.9697C35.1397 41.829 34.9489 41.75 34.75 41.75Z" fill="#003034"/>
<path d="M34.75 38C34.6017 38 34.4567 38.044 34.3333 38.1264C34.21 38.2088 34.1139 38.3259 34.0571 38.463C34.0003 38.6 33.9855 38.7508 34.0144 38.8963C34.0434 39.0418 34.1148 39.1754 34.2197 39.2803C34.3246 39.3852 34.4582 39.4567 34.6037 39.4856C34.7492 39.5145 34.9 39.4997 35.037 39.4429C35.1741 39.3861 35.2912 39.29 35.3736 39.1667C35.456 39.0433 35.5 38.8983 35.5 38.75C35.5 38.5511 35.421 38.3603 35.2803 38.2197C35.1397 38.079 34.9489 38 34.75 38Z" fill="#003034"/>
<path d="M34.75 34.25C34.6017 34.25 34.4567 34.294 34.3333 34.3764C34.21 34.4588 34.1139 34.5759 34.0571 34.713C34.0003 34.85 33.9855 35.0008 34.0144 35.1463C34.0434 35.2918 34.1148 35.4254 34.2197 35.5303C34.3246 35.6352 34.4582 35.7067 34.6037 35.7356C34.7492 35.7645 34.9 35.7497 35.037 35.6929C35.1741 35.6361 35.2912 35.54 35.3736 35.4167C35.456 35.2933 35.5 35.1483 35.5 35C35.5 34.8011 35.421 34.6103 35.2803 34.4697C35.1397 34.329 34.9489 34.25 34.75 34.25Z" fill="#003034"/>
<path d="M31.75 41.75C31.6017 41.75 31.4567 41.794 31.3333 41.8764C31.21 41.9588 31.1139 42.0759 31.0571 42.213C31.0003 42.35 30.9855 42.5008 31.0144 42.6463C31.0434 42.7918 31.1148 42.9254 31.2197 43.0303C31.3246 43.1352 31.4582 43.2067 31.6037 43.2356C31.7492 43.2645 31.9 43.2497 32.037 43.1929C32.1741 43.1361 32.2912 43.04 32.3736 42.9167C32.456 42.7933 32.5 42.6483 32.5 42.5C32.5 42.3011 32.421 42.1103 32.2803 41.9697C32.1397 41.829 31.9489 41.75 31.75 41.75Z" fill="#003034"/>
<path d="M31.75 38C31.6017 38 31.4567 38.044 31.3333 38.1264C31.21 38.2088 31.1139 38.3259 31.0571 38.463C31.0003 38.6 30.9855 38.7508 31.0144 38.8963C31.0434 39.0418 31.1148 39.1754 31.2197 39.2803C31.3246 39.3852 31.4582 39.4567 31.6037 39.4856C31.7492 39.5145 31.9 39.4997 32.037 39.4429C32.1741 39.3861 32.2912 39.29 32.3736 39.1667C32.456 39.0433 32.5 38.8983 32.5 38.75C32.5 38.5511 32.421 38.3603 32.2803 38.2197C32.1397 38.079 31.9489 38 31.75 38Z" fill="#003034"/>
<path d="M31.75 34.25C31.6017 34.25 31.4567 34.294 31.3333 34.3764C31.21 34.4588 31.1139 34.5759 31.0571 34.713C31.0003 34.85 30.9855 35.0008 31.0144 35.1463C31.0434 35.2918 31.1148 35.4254 31.2197 35.5303C31.3246 35.6352 31.4582 35.7067 31.6037 35.7356C31.7492 35.7645 31.9 35.7497 32.037 35.6929C32.1741 35.6361 32.2912 35.54 32.3736 35.4167C32.456 35.2933 32.5 35.1483 32.5 35C32.5 34.8011 32.421 34.6103 32.2803 34.4697C32.1397 34.329 31.9489 34.25 31.75 34.25Z" fill="#003034"/>
<path d="M57.968 44H61.16V37.472H63.56C67.232 37.472 69.848 35.864 69.848 32.24V32.144C69.848 28.544 67.328 26.84 63.488 26.84H57.968V44ZM61.16 35.168V29.312H63.488C65.528 29.312 66.728 30.104 66.728 32.144V32.24C66.728 34.136 65.6 35.168 63.488 35.168H61.16ZM72.353 44H75.257V37.472C75.257 34.808 76.793 33.992 79.337 33.968V31.256C77.225 31.28 76.049 32.216 75.257 33.8V31.448H72.353V44ZM87.2737 41.984C85.0657 41.984 83.7937 40.376 83.7937 37.808V37.616C83.7937 35.024 85.1137 33.464 87.2737 33.464C89.4337 33.464 90.7297 35.048 90.7297 37.64V37.808C90.7297 40.376 89.4337 41.984 87.2737 41.984ZM87.2497 44.24C90.9457 44.24 93.7057 41.696 93.7057 37.784V37.592C93.7057 33.752 90.9457 31.184 87.2737 31.184C83.5777 31.184 80.8177 33.776 80.8177 37.664V37.856C80.8177 41.672 83.5537 44.24 87.2497 44.24ZM96.3296 48.296H99.2336V42.032C99.9056 43.256 101.346 44.24 103.338 44.24C106.578 44.24 108.906 41.792 108.906 37.76V37.568C108.906 33.512 106.482 31.184 103.338 31.184C101.49 31.184 99.9296 32.264 99.2336 33.464V31.448H96.3296V48.296ZM102.618 41.936C100.506 41.936 99.1376 40.616 99.1376 37.808V37.616C99.1376 34.832 100.578 33.464 102.594 33.464C104.49 33.464 105.93 34.832 105.93 37.616V37.808C105.93 40.496 104.754 41.936 102.618 41.936ZM117.037 44.24C120.253 44.24 122.389 42.8 122.797 40.16H119.989C119.773 41.384 118.861 42.08 117.109 42.08C114.949 42.08 113.749 40.736 113.653 38.36H122.845V37.52C122.845 33.032 120.037 31.184 116.917 31.184C113.341 31.184 110.677 33.776 110.677 37.664V37.856C110.677 41.816 113.341 44.24 117.037 44.24ZM113.701 36.416C113.989 34.472 115.165 33.296 116.917 33.296C118.717 33.296 119.821 34.256 119.965 36.416H113.701ZM125.439 44H128.343V37.472C128.343 34.808 129.879 33.992 132.423 33.968V31.256C130.311 31.28 129.135 32.216 128.343 33.8V31.448H125.439V44ZM139.367 44.216C140.255 44.216 140.879 44.072 141.335 43.904V41.6C140.927 41.768 140.495 41.84 139.919 41.84C139.007 41.84 138.479 41.336 138.479 40.232V33.632H141.239V31.448H138.479V28.688H135.575V31.448H133.895V33.632H135.575V40.496C135.575 42.872 136.871 44.216 139.367 44.216ZM144.027 44H146.931V31.448H144.027V44ZM145.443 29.384C146.403 29.384 147.171 28.664 147.171 27.728C147.171 26.768 146.403 26.048 145.443 26.048C144.483 26.048 143.715 26.768 143.715 27.728C143.715 28.664 144.483 29.384 145.443 29.384ZM155.99 44.24C159.206 44.24 161.342 42.8 161.75 40.16H158.942C158.726 41.384 157.814 42.08 156.062 42.08C153.902 42.08 152.702 40.736 152.606 38.36H161.798V37.52C161.798 33.032 158.99 31.184 155.87 31.184C152.294 31.184 149.63 33.776 149.63 37.664V37.856C149.63 41.816 152.294 44.24 155.99 44.24ZM152.654 36.416C152.942 34.472 154.118 33.296 155.87 33.296C157.67 33.296 158.774 34.256 158.918 36.416H152.654ZM168.805 44.24C172.021 44.24 173.821 42.776 173.821 40.232C173.821 37.568 172.069 36.848 169.117 36.392C167.125 36.056 166.525 35.696 166.525 34.784C166.525 33.896 167.269 33.296 168.517 33.296C169.861 33.296 170.509 33.824 170.749 34.976H173.437C173.125 32.144 171.085 31.184 168.517 31.184C166.165 31.184 163.813 32.432 163.813 34.952C163.813 37.304 165.037 38.24 168.349 38.768C170.197 39.08 171.037 39.464 171.037 40.496C171.037 41.552 170.341 42.104 168.781 42.104C167.077 42.104 166.429 41.36 166.285 40.088H163.549C163.669 42.752 165.565 44.24 168.805 44.24Z" fill="#002F34"/>
<path d="M499.707 42.125L506.457 35.375L499.707 28.625" stroke="#002F34" stroke-width="1.6875" stroke-linecap="round" stroke-linejoin="round"/>
</svg>
