<svg width="539" height="72" viewBox="0 0 539 72" fill="none" xmlns="http://www.w3.org/2000/svg">
<rect x="0.5" y="0.5" width="538" height="71" rx="3.5" fill="white" stroke="#002F34"/>
<path d="M38.5019 27.7386L33.4567 32.7838L38.4658 37.8022L35.2173 41.0506L21.9414 27.7742L25.1894 24.5253L30.2083 29.5353L35.252 24.5L38.5019 27.7386Z" fill="#003034"/>
<path d="M17.5258 32.1884L20.7742 28.9395L34.0502 42.2163L30.8017 45.4648L25.7861 40.4552L20.7381 45.5009L17.5 42.251L22.5353 37.2068L17.5258 32.1884Z" fill="#003034"/>
<path d="M65.48 44.24C69.56 44.24 72.488 42.152 72.992 38.024H69.872C69.536 40.448 67.856 41.648 65.48 41.648C62.312 41.648 60.464 39.368 60.464 35.504V35.312C60.464 31.472 62.432 29.12 65.456 29.12C67.928 29.12 69.2 30.296 69.56 32.576H72.8C72.416 28.544 69.368 26.576 65.432 26.576C60.656 26.576 57.104 30.176 57.104 35.336V35.528C57.104 40.808 60.104 44.24 65.48 44.24ZM81.1331 41.984C78.9251 41.984 77.6531 40.376 77.6531 37.808V37.616C77.6531 35.024 78.9731 33.464 81.1331 33.464C83.2931 33.464 84.5891 35.048 84.5891 37.64V37.808C84.5891 40.376 83.2931 41.984 81.1331 41.984ZM81.1091 44.24C84.8051 44.24 87.5651 41.696 87.5651 37.784V37.592C87.5651 33.752 84.8051 31.184 81.1331 31.184C77.4371 31.184 74.6771 33.776 74.6771 37.664V37.856C74.6771 41.672 77.4131 44.24 81.1091 44.24ZM90.1889 44H93.0929V36.488C93.0929 34.568 94.4129 33.608 95.8529 33.608C97.2689 33.608 98.0849 34.4 98.0849 36.248V44H100.989V36.488C100.989 34.568 102.309 33.608 103.749 33.608C105.189 33.608 105.981 34.4 105.981 36.248V44H108.885V36.056C108.885 32.6 107.013 31.184 104.709 31.184C103.149 31.184 101.421 31.88 100.461 33.44C99.8369 31.88 98.5409 31.184 96.9089 31.184C95.0609 31.184 93.6929 32.192 93.0929 33.368V31.448H90.1889V44ZM112.22 44H115.124V36.488C115.124 34.568 116.444 33.608 117.884 33.608C119.3 33.608 120.116 34.4 120.116 36.248V44H123.02V36.488C123.02 34.568 124.34 33.608 125.78 33.608C127.22 33.608 128.012 34.4 128.012 36.248V44H130.916V36.056C130.916 32.6 129.044 31.184 126.74 31.184C125.18 31.184 123.452 31.88 122.492 33.44C121.868 31.88 120.572 31.184 118.94 31.184C117.092 31.184 115.724 32.192 115.124 33.368V31.448H112.22V44ZM139.771 44.24C142.987 44.24 145.123 42.8 145.531 40.16H142.723C142.507 41.384 141.595 42.08 139.843 42.08C137.683 42.08 136.483 40.736 136.387 38.36H145.579V37.52C145.579 33.032 142.771 31.184 139.651 31.184C136.075 31.184 133.411 33.776 133.411 37.664V37.856C133.411 41.816 136.075 44.24 139.771 44.24ZM136.435 36.416C136.723 34.472 137.899 33.296 139.651 33.296C141.451 33.296 142.555 34.256 142.699 36.416H136.435ZM148.173 44H151.077V37.472C151.077 34.808 152.613 33.992 155.157 33.968V31.256C153.045 31.28 151.869 32.216 151.077 33.8V31.448H148.173V44ZM162.974 44.24C166.382 44.24 168.566 42.2 168.782 39.32H166.118C165.95 41.096 164.63 42.008 163.094 42.008C160.958 42.008 159.614 40.568 159.614 37.832V37.64C159.614 35.048 161.03 33.512 163.022 33.512C164.558 33.512 165.662 34.208 165.902 35.888H168.71C168.374 32.432 165.758 31.184 162.974 31.184C159.47 31.184 156.638 33.704 156.638 37.688V37.88C156.638 41.888 159.374 44.24 162.974 44.24ZM171.355 44H174.259V31.448H171.355V44ZM172.771 29.384C173.731 29.384 174.499 28.664 174.499 27.728C174.499 26.768 173.731 26.048 172.771 26.048C171.811 26.048 171.043 26.768 171.043 27.728C171.043 28.664 171.811 29.384 172.771 29.384ZM181.086 44.24C183.006 44.24 184.11 43.544 184.926 42.464V44H187.782V35.768C187.782 32.336 185.574 31.184 182.766 31.184C179.958 31.184 177.63 32.408 177.39 35.336H180.198C180.342 34.088 181.086 33.368 182.598 33.368C184.302 33.368 184.878 34.208 184.878 35.888V36.536H183.318C179.718 36.536 176.886 37.592 176.886 40.52C176.886 43.136 178.782 44.24 181.086 44.24ZM181.782 42.152C180.342 42.152 179.766 41.456 179.766 40.4C179.766 38.864 181.182 38.36 183.39 38.36H184.878V39.608C184.878 41.216 183.558 42.152 181.782 42.152ZM191.183 44H194.087V25.64H191.183V44ZM207.953 44H211.649L217.457 26.84H214.457L209.969 40.76L205.505 26.84H202.169L207.953 44ZM223.678 44.24C226.894 44.24 229.03 42.8 229.438 40.16H226.63C226.414 41.384 225.502 42.08 223.75 42.08C221.59 42.08 220.39 40.736 220.294 38.36H229.486V37.52C229.486 33.032 226.678 31.184 223.558 31.184C219.982 31.184 217.318 33.776 217.318 37.664V37.856C217.318 41.816 219.982 44.24 223.678 44.24ZM220.342 36.416C220.63 34.472 221.806 33.296 223.558 33.296C225.358 33.296 226.462 34.256 226.606 36.416H220.342ZM232.08 44H234.984V36.608C234.984 34.616 236.304 33.608 237.936 33.608C239.664 33.608 240.432 34.472 240.432 36.368V44H243.336V36.104C243.336 32.648 241.56 31.184 239.04 31.184C236.976 31.184 235.584 32.216 234.984 33.44V25.64H232.08V44ZM246.753 44H249.657V31.448H246.753V44ZM248.169 29.384C249.129 29.384 249.897 28.664 249.897 27.728C249.897 26.768 249.129 26.048 248.169 26.048C247.209 26.048 246.441 26.768 246.441 27.728C246.441 28.664 247.209 29.384 248.169 29.384ZM258.693 44.24C262.101 44.24 264.285 42.2 264.501 39.32H261.837C261.669 41.096 260.349 42.008 258.813 42.008C256.677 42.008 255.333 40.568 255.333 37.832V37.64C255.333 35.048 256.749 33.512 258.741 33.512C260.277 33.512 261.381 34.208 261.621 35.888H264.429C264.093 32.432 261.477 31.184 258.693 31.184C255.189 31.184 252.357 33.704 252.357 37.688V37.88C252.357 41.888 255.093 44.24 258.693 44.24ZM267.073 44H269.977V25.64H267.073V44ZM279.037 44.24C282.253 44.24 284.389 42.8 284.797 40.16H281.989C281.773 41.384 280.861 42.08 279.109 42.08C276.949 42.08 275.749 40.736 275.653 38.36H284.845V37.52C284.845 33.032 282.037 31.184 278.917 31.184C275.341 31.184 272.677 33.776 272.677 37.664V37.856C272.677 41.816 275.341 44.24 279.037 44.24ZM275.701 36.416C275.989 34.472 277.165 33.296 278.917 33.296C280.717 33.296 281.821 34.256 281.965 36.416H275.701ZM291.852 44.24C295.068 44.24 296.868 42.776 296.868 40.232C296.868 37.568 295.116 36.848 292.164 36.392C290.172 36.056 289.572 35.696 289.572 34.784C289.572 33.896 290.316 33.296 291.564 33.296C292.908 33.296 293.556 33.824 293.796 34.976H296.484C296.172 32.144 294.132 31.184 291.564 31.184C289.212 31.184 286.86 32.432 286.86 34.952C286.86 37.304 288.084 38.24 291.396 38.768C293.244 39.08 294.084 39.464 294.084 40.496C294.084 41.552 293.388 42.104 291.828 42.104C290.124 42.104 289.476 41.36 289.332 40.088H286.596C286.716 42.752 288.612 44.24 291.852 44.24ZM319.846 35.12H317.23L315.478 38.48L312.454 34.784C314.686 33.824 316.03 32.408 316.03 30.416C316.03 28.112 314.062 26.696 311.71 26.696C309.214 26.696 306.982 28.136 306.982 30.848C306.982 31.88 307.414 33.032 308.326 34.232C306.022 35.336 304.462 36.8 304.462 39.32C304.462 42.32 306.766 44.216 310.102 44.216C312.31 44.216 313.726 43.352 314.806 42.248L316.246 44H319.918L317.038 40.496L319.846 35.12ZM310.438 41.816C308.566 41.816 307.486 40.736 307.486 39.008C307.486 37.4 308.398 36.608 309.67 35.96L313.318 40.4C312.526 41.336 311.542 41.816 310.438 41.816ZM309.814 30.872C309.814 29.504 310.654 28.832 311.71 28.832C312.718 28.832 313.39 29.552 313.39 30.536C313.39 31.88 312.718 32.648 311.11 33.392C310.294 32.408 309.814 31.664 309.814 30.872ZM334.105 44.24C337.897 44.24 340.417 41.912 340.417 38.936C340.417 35.504 338.329 34.352 334.297 33.8C331.321 33.368 330.745 32.672 330.745 31.28C330.745 29.96 331.753 29.024 333.697 29.024C335.665 29.024 336.697 29.792 337.009 31.592H339.937C339.601 28.304 337.393 26.624 333.697 26.624C330.121 26.624 327.721 28.736 327.721 31.544C327.721 34.76 329.665 36.008 333.769 36.56C336.553 37.016 337.345 37.616 337.345 39.2C337.345 40.784 336.001 41.84 334.105 41.84C331.201 41.84 330.505 40.4 330.289 38.672H327.217C327.457 41.912 329.425 44.24 334.105 44.24ZM343.267 48.296H346.171V42.032C346.843 43.256 348.283 44.24 350.275 44.24C353.515 44.24 355.843 41.792 355.843 37.76V37.568C355.843 33.512 353.419 31.184 350.275 31.184C348.427 31.184 346.867 32.264 346.171 33.464V31.448H343.267V48.296ZM349.555 41.936C347.443 41.936 346.075 40.616 346.075 37.808V37.616C346.075 34.832 347.515 33.464 349.531 33.464C351.427 33.464 352.867 34.832 352.867 37.616V37.808C352.867 40.496 351.691 41.936 349.555 41.936ZM361.743 44.24C363.663 44.24 364.767 43.544 365.583 42.464V44H368.439V35.768C368.439 32.336 366.231 31.184 363.423 31.184C360.615 31.184 358.287 32.408 358.047 35.336H360.855C360.999 34.088 361.743 33.368 363.255 33.368C364.959 33.368 365.535 34.208 365.535 35.888V36.536H363.975C360.375 36.536 357.543 37.592 357.543 40.52C357.543 43.136 359.439 44.24 361.743 44.24ZM362.439 42.152C360.999 42.152 360.423 41.456 360.423 40.4C360.423 38.864 361.839 38.36 364.047 38.36H365.535V39.608C365.535 41.216 364.215 42.152 362.439 42.152ZM371.767 44H374.671V37.472C374.671 34.808 376.207 33.992 378.751 33.968V31.256C376.639 31.28 375.463 32.216 374.671 33.8V31.448H371.767V44ZM386.592 44.24C389.808 44.24 391.944 42.8 392.352 40.16H389.544C389.328 41.384 388.416 42.08 386.664 42.08C384.504 42.08 383.304 40.736 383.208 38.36H392.4V37.52C392.4 33.032 389.592 31.184 386.472 31.184C382.896 31.184 380.232 33.776 380.232 37.664V37.856C380.232 41.816 382.896 44.24 386.592 44.24ZM383.256 36.416C383.544 34.472 384.72 33.296 386.472 33.296C388.272 33.296 389.376 34.256 389.52 36.416H383.256ZM399.407 44.24C402.623 44.24 404.423 42.776 404.423 40.232C404.423 37.568 402.671 36.848 399.719 36.392C397.727 36.056 397.127 35.696 397.127 34.784C397.127 33.896 397.871 33.296 399.119 33.296C400.463 33.296 401.111 33.824 401.351 34.976H404.039C403.727 32.144 401.687 31.184 399.119 31.184C396.767 31.184 394.415 32.432 394.415 34.952C394.415 37.304 395.639 38.24 398.951 38.768C400.799 39.08 401.639 39.464 401.639 40.496C401.639 41.552 400.943 42.104 399.383 42.104C397.679 42.104 397.031 41.36 396.887 40.088H394.151C394.271 42.752 396.167 44.24 399.407 44.24Z" fill="#002F34"/>
<path d="M499.707 42.125L506.457 35.375L499.707 28.625" stroke="#002F34" stroke-width="1.6875" stroke-linecap="round" stroke-linejoin="round"/>
</svg>
