<svg width="600" height="471" viewBox="0 0 600 471" fill="none" xmlns="http://www.w3.org/2000/svg">
<path d="M76.9451 176.55C78.0237 176.55 78.8981 175.668 78.8981 174.58C78.8981 173.492 78.0237 172.609 76.9451 172.609C75.8665 172.609 74.9922 173.492 74.9922 174.58C74.9922 175.668 75.8665 176.55 76.9451 176.55Z" fill="#E6F3F2"/>
<path opacity="0.2" d="M77.8182 172.609C78.1495 172.942 78.3622 173.394 78.4174 173.885C78.4727 174.376 78.3669 174.873 78.1192 175.285C77.8716 175.697 77.4986 175.997 77.0681 176.13C76.6376 176.263 76.1782 176.221 75.7734 176.011C75.9723 176.212 76.208 176.362 76.4644 176.453C76.7208 176.543 76.9918 176.571 77.2589 176.535C77.526 176.498 77.7828 176.399 78.0117 176.242C78.2407 176.086 78.4364 175.876 78.5855 175.628C78.7345 175.38 78.8334 175.1 78.8753 174.805C78.9173 174.511 78.9012 174.21 78.8284 173.924C78.7555 173.637 78.6275 173.371 78.4531 173.144C78.2788 172.917 78.0622 172.735 77.8182 172.609Z" fill="#007F7C" fill-opacity="0.4"/>
<path d="M125.769 177.339C128.358 177.339 130.456 176.81 130.456 176.157C130.456 175.504 128.358 174.975 125.769 174.975C123.18 174.975 121.082 175.504 121.082 176.157C121.082 176.81 123.18 177.339 125.769 177.339Z" fill="#003034"/>
<path opacity="0.2" d="M124.075 174.975C123.856 174.975 123.639 174.977 123.426 174.981C126.645 175.041 129.158 175.545 129.158 176.157C129.158 176.769 126.645 177.273 123.426 177.333C123.639 177.337 123.856 177.339 124.075 177.339C127.599 177.339 130.456 176.81 130.456 176.157C130.456 175.504 127.599 174.975 124.075 174.975Z" fill="#007F7C" fill-opacity="0.4"/>
<path d="M130.774 177.154H107.947V174.654C107.947 174.53 107.899 174.411 107.812 174.323C107.725 174.235 107.607 174.186 107.485 174.186H94.8376C94.7149 174.186 94.5972 174.235 94.5105 174.323C94.4237 174.411 94.3749 174.53 94.3749 174.654V177.154H81.111V175.591C81.111 175.467 81.0623 175.348 80.9755 175.26C80.8887 175.172 80.771 175.123 80.6483 175.123H73.8621C73.7394 175.123 73.6217 175.172 73.5349 175.26C73.4482 175.348 73.3994 175.467 73.3994 175.591V177.154H71.5486C71.4878 177.154 71.4276 177.166 71.3715 177.189C71.3153 177.213 71.2643 177.247 71.2213 177.291C71.1783 177.334 71.1442 177.386 71.121 177.443C71.0978 177.5 71.0859 177.561 71.0859 177.622V208.397C71.0859 208.458 71.0978 208.519 71.121 208.576C71.1442 208.633 71.1783 208.685 71.2213 208.728C71.2643 208.772 71.3153 208.806 71.3715 208.83C71.4276 208.853 71.4878 208.865 71.5486 208.865H130.774C130.834 208.865 130.895 208.853 130.951 208.83C131.007 208.806 131.058 208.772 131.101 208.728C131.144 208.685 131.178 208.633 131.201 208.576C131.225 208.519 131.236 208.458 131.236 208.397V177.622C131.236 177.561 131.225 177.5 131.201 177.443C131.178 177.386 131.144 177.334 131.101 177.291C131.058 177.247 131.007 177.213 130.951 177.189C130.895 177.166 130.834 177.154 130.774 177.154Z" fill="#003034"/>
<path opacity="0.2" d="M130.774 205.621H71.5486C71.4878 205.621 71.4276 205.603 71.3715 205.569C71.3153 205.534 71.2643 205.482 71.2213 205.418C71.1783 205.353 71.1442 205.276 71.121 205.192C71.0978 205.108 71.0859 205.017 71.0859 204.926V208.171C71.0859 208.263 71.0978 208.353 71.121 208.437C71.1442 208.522 71.1783 208.599 71.2213 208.663C71.2643 208.728 71.3153 208.779 71.3715 208.814C71.4276 208.849 71.4878 208.867 71.5486 208.867H130.774C130.834 208.867 130.895 208.849 130.951 208.814C131.007 208.779 131.058 208.728 131.101 208.663C131.144 208.599 131.178 208.522 131.201 208.437C131.225 208.353 131.236 208.263 131.236 208.171V204.926C131.236 205.017 131.225 205.108 131.201 205.192C131.178 205.276 131.144 205.353 131.101 205.418C131.058 205.482 131.007 205.534 130.951 205.569C130.895 205.603 130.834 205.621 130.774 205.621Z" fill="#007F7C" fill-opacity="0.4"/>
<path opacity="0.2" d="M131.236 189.949H71.0859V197.043H131.236V189.949Z" fill="#007F7C" fill-opacity="0.4"/>
<path opacity="0.2" d="M131.236 187.586H71.0859V194.68H131.236V187.586Z" fill="#007F7C" fill-opacity="0.4"/>
<path d="M131.236 189.162H71.0859V196.256H131.236V189.162Z" fill="#E6F3F2"/>
<path d="M101.944 204.137C108.631 204.137 114.052 198.844 114.052 192.315C114.052 185.785 108.631 180.492 101.944 180.492C95.257 180.492 89.8359 185.785 89.8359 192.315C89.8359 198.844 95.257 204.137 101.944 204.137Z" fill="#E6F3F2"/>
<path opacity="0.2" d="M111.162 184.434C112.762 187.041 113.277 190.13 112.604 193.084C111.931 196.039 110.12 198.643 107.53 200.378C104.94 202.113 101.761 202.851 98.6275 202.447C95.4935 202.043 92.6337 200.525 90.6172 198.196C91.4966 199.629 92.6769 200.872 94.0837 201.847C95.4905 202.822 97.0933 203.509 98.7911 203.862C100.489 204.216 102.245 204.229 103.948 203.902C105.652 203.575 107.266 202.914 108.689 201.96C110.112 201.007 111.314 199.782 112.217 198.363C113.121 196.944 113.707 195.361 113.94 193.715C114.172 192.068 114.045 190.393 113.567 188.796C113.089 187.199 112.27 185.713 111.162 184.434Z" fill="#007F7C" fill-opacity="0.4"/>
<path d="M101.163 200.983C105.693 200.983 109.366 196.925 109.366 191.919C109.366 186.914 105.693 182.855 101.163 182.855C96.6332 182.855 92.9609 186.914 92.9609 191.919C92.9609 196.925 96.6332 200.983 101.163 200.983Z" fill="#003034"/>
<path d="M108.585 192.313C108.586 193.276 108.392 194.229 108.014 195.113C107.812 195.59 107.557 196.043 107.255 196.463C106.66 197.296 105.892 197.989 105.005 198.494C104.118 198.998 103.133 199.302 102.118 199.385C101.103 199.467 100.082 199.326 99.1261 198.972C98.1703 198.617 97.3024 198.057 96.5823 197.331C95.8622 196.604 95.3072 195.728 94.9556 194.764C94.6041 193.8 94.4643 192.77 94.5462 191.746C94.628 190.722 94.9293 189.728 95.4294 188.833C95.9295 187.938 96.6164 187.163 97.4425 186.562C97.8586 186.257 98.3071 186 98.7798 185.796C99.8491 185.333 101.016 185.145 102.175 185.248C103.334 185.352 104.45 185.745 105.422 186.391C106.394 187.037 107.191 187.916 107.743 188.95C108.295 189.983 108.584 191.139 108.585 192.313Z" fill="white"/>
<path opacity="0.2" d="M108.508 191.327C108.239 189.534 107.274 187.911 105.814 186.797C106.447 187.766 106.828 188.873 106.923 190.02C107.019 191.166 106.826 192.318 106.362 193.375C106.155 193.85 105.894 194.3 105.584 194.717C105.017 195.487 104.297 196.137 103.468 196.627C102.638 197.118 101.715 197.44 100.756 197.574C99.7956 197.707 98.818 197.649 97.8813 197.404C96.9447 197.159 96.0683 196.731 95.3047 196.146C95.9367 197.117 96.8019 197.922 97.8249 198.49C98.8479 199.058 99.9974 199.372 101.173 199.405C102.349 199.438 103.515 199.188 104.569 198.678C105.624 198.169 106.534 197.414 107.222 196.48C107.532 196.063 107.793 195.613 108 195.139C108.526 193.939 108.702 192.619 108.508 191.327V191.327Z" fill="#007F7C" fill-opacity="0.4"/>
<path d="M354.653 444.53H13.28C9.75912 444.526 6.38362 443.113 3.894 440.601C1.40438 438.089 0.00396358 434.683 0 431.131V13.399C0.00396358 9.84656 1.40438 6.4408 3.894 3.92888C6.38362 1.41695 9.75912 0.00399909 13.28 0H354.653C358.174 0.00399909 361.55 1.41695 364.039 3.92888C366.529 6.4408 367.929 9.84656 367.933 13.399V431.131C367.929 434.683 366.529 438.089 364.039 440.601C361.55 443.113 358.174 444.526 354.653 444.53ZM13.28 1.57635C10.1733 1.57989 7.19497 2.82662 4.99825 5.04302C2.80153 7.25942 1.56586 10.2645 1.56235 13.399V431.131C1.56586 434.266 2.80153 437.271 4.99825 439.487C7.19497 441.703 10.1733 442.95 13.28 442.954H354.653C357.76 442.95 360.738 441.703 362.935 439.487C365.132 437.271 366.367 434.266 366.371 431.131V13.399C366.367 10.2645 365.132 7.25942 362.935 5.04302C360.738 2.82662 357.76 1.57989 354.653 1.57635H13.28Z" fill="#002F34" fill-opacity="0.4"/>
<path d="M367.152 32.7793H0.78125V34.3556H367.152V32.7793Z" fill="#002F34" fill-opacity="0.4"/>
<path d="M18.7494 23.6459C22.2008 23.6459 24.9988 20.8229 24.9988 17.3405C24.9988 13.8582 22.2008 11.0352 18.7494 11.0352C15.2979 11.0352 12.5 13.8582 12.5 17.3405C12.5 20.8229 15.2979 23.6459 18.7494 23.6459Z" fill="#002F34" fill-opacity="0.4"/>
<path d="M38.2767 23.6459C41.7282 23.6459 44.5261 20.8229 44.5261 17.3405C44.5261 13.8582 41.7282 11.0352 38.2767 11.0352C34.8253 11.0352 32.0273 13.8582 32.0273 17.3405C32.0273 20.8229 34.8253 23.6459 38.2767 23.6459Z" fill="#002F34" fill-opacity="0.4"/>
<path d="M57.808 23.6459C61.2594 23.6459 64.0574 20.8229 64.0574 17.3405C64.0574 13.8582 61.2594 11.0352 57.808 11.0352C54.3565 11.0352 51.5586 13.8582 51.5586 17.3405C51.5586 20.8229 54.3565 23.6459 57.808 23.6459Z" fill="#002F34" fill-opacity="0.4"/>
<path d="M301.737 95.3695H58.0107C55.3174 95.3695 52.7344 94.29 50.8299 92.3684C48.9254 90.4469 47.8555 87.8407 47.8555 85.1232C47.8555 82.4057 48.9254 79.7996 50.8299 77.878C52.7344 75.9565 55.3174 74.877 58.0107 74.877H301.737C304.431 74.877 307.014 75.9565 308.918 77.878C310.823 79.7996 311.892 82.4057 311.892 85.1232C311.892 87.8407 310.823 90.4469 308.918 92.3684C307.014 94.29 304.431 95.3695 301.737 95.3695ZM58.0107 76.4533C55.7318 76.4533 53.5461 77.3667 51.9347 78.9927C50.3232 80.6186 49.4178 82.8238 49.4178 85.1232C49.4178 87.4226 50.3232 89.6278 51.9347 91.2538C53.5461 92.8797 55.7318 93.7931 58.0107 93.7931H301.737C304.016 93.7931 306.202 92.8797 307.813 91.2538C309.425 89.6278 310.33 87.4226 310.33 85.1232C310.33 82.8238 309.425 80.6186 307.813 78.9927C306.202 77.3667 304.016 76.4533 301.737 76.4533H58.0107Z" fill="#002F34" fill-opacity="0.4"/>
<path d="M149.204 239.605H53.1198C49.599 239.601 46.2235 238.188 43.7338 235.676C41.2442 233.164 39.8438 229.758 39.8398 226.206V146.6C39.8438 143.048 41.2442 139.642 43.7338 137.13C46.2235 134.618 49.599 133.205 53.1198 133.201H149.204C152.725 133.205 156.101 134.618 158.59 137.13C161.08 139.642 162.48 143.048 162.484 146.6V226.206C162.48 229.758 161.08 233.164 158.59 235.676C156.101 238.188 152.725 239.601 149.204 239.605ZM53.1198 134.778C50.0132 134.781 47.0348 136.028 44.8381 138.244C42.6414 140.461 41.4057 143.466 41.4022 146.6V226.206C41.4057 229.34 42.6414 232.345 44.8381 234.562C47.0348 236.778 50.0132 238.025 53.1198 238.028H149.204C152.311 238.025 155.289 236.778 157.486 234.562C159.683 232.345 160.918 229.34 160.922 226.206V146.6C160.918 143.466 159.683 140.461 157.486 138.244C155.289 136.028 152.311 134.781 149.204 134.778H53.1198Z" fill="#002F34" fill-opacity="0.4"/>
<path d="M218.729 137.643H314.814C321.436 137.643 326.813 143.061 326.813 149.753V229.359C326.813 236.052 321.436 241.47 314.814 241.47H218.729C212.107 241.47 206.73 236.052 206.73 229.359V149.753C206.73 143.061 212.107 137.643 218.729 137.643Z" stroke="#757575" stroke-opacity="0.6"/>
<path d="M149.204 387.782H53.1198C49.599 387.778 46.2235 386.365 43.7338 383.853C41.2442 381.342 39.8438 377.936 39.8398 374.383V294.778C39.8438 291.225 41.2442 287.82 43.7338 285.308C46.2235 282.796 49.599 281.383 53.1198 281.379H149.204C152.725 281.383 156.101 282.796 158.59 285.308C161.08 287.82 162.48 291.225 162.484 294.778V374.383C162.48 377.936 161.08 381.342 158.59 383.853C156.101 386.365 152.725 387.778 149.204 387.782ZM53.1198 282.955C50.0132 282.959 47.0348 284.206 44.8381 286.422C42.6414 288.638 41.4057 291.643 41.4022 294.778V374.383C41.4057 377.518 42.6414 380.523 44.8381 382.739C47.0348 384.956 50.0132 386.202 53.1198 386.206H149.204C152.311 386.202 155.289 384.956 157.486 382.739C159.683 380.523 160.918 377.518 160.922 374.383V294.778C160.918 291.643 159.683 288.638 157.486 286.422C155.289 284.206 152.311 282.959 149.204 282.955H53.1198Z" fill="#002F34" fill-opacity="0.4"/>
<path d="M314.814 285.318H218.729C211.826 285.318 206.23 290.964 206.23 297.929V377.535C206.23 384.499 211.826 390.145 218.729 390.145H314.814C321.717 390.145 327.313 384.499 327.313 377.535V297.929C327.313 290.964 321.717 285.318 314.814 285.318Z" fill="#F2F2F2"/>
<path d="M570.633 456.251C549.992 471.254 523.243 472.007 497.388 470.164C493.778 469.907 490.193 469.606 486.641 469.28C486.62 469.275 486.591 469.277 486.57 469.271C486.399 469.255 486.228 469.238 486.065 469.228C485.332 469.159 484.598 469.09 483.872 469.02L484.043 469.351L484.582 470.376C484.388 470.033 484.195 469.697 484.002 469.354C483.945 469.251 483.881 469.148 483.824 469.045C477.126 457.285 470.483 445.093 468.789 431.664C467.037 417.726 471.96 401.943 484.118 395.092C485.713 394.196 487.401 393.482 489.153 392.964C489.88 392.741 490.617 392.561 491.362 392.401C495.922 391.379 500.669 391.601 505.116 393.044C509.563 394.488 513.548 397.1 516.662 400.612C519.777 404.125 521.908 408.411 522.836 413.03C523.764 417.648 523.457 422.433 521.945 426.892C532.253 416.228 530.33 398.927 526.774 384.467C523.211 370.008 518.898 353.919 526.145 340.932C530.173 333.703 537.256 329.218 545.206 327.411C545.45 327.358 545.693 327.305 545.938 327.259C555.409 325.323 565.256 327.064 573.511 332.134C588.711 341.798 596.518 360.122 599.052 378.072C603.134 406.956 594.1 439.192 570.633 456.251Z" fill="#007F7C" fill-opacity="0.3"/>
<path d="M563.968 409.949C563.369 416.32 561.852 422.569 559.465 428.499C557.266 433.746 554.301 438.632 550.669 442.995C543.251 451.998 533.442 458.768 522.788 463.278C514.643 466.644 506.108 468.958 497.387 470.165C493.777 469.908 490.192 469.606 486.64 469.281C486.619 469.275 486.591 469.277 486.569 469.271C486.398 469.255 486.227 469.239 486.064 469.229C485.331 469.16 484.598 469.09 483.871 469.021L484.043 469.351L484.581 470.376C484.388 470.033 484.194 469.697 484.001 469.354C483.944 469.251 483.88 469.149 483.824 469.046C490.362 462.473 495.243 454.416 498.059 445.548C500.875 436.68 501.543 427.26 500.007 418.078C498.401 408.961 494.681 400.356 489.152 392.965C489.879 392.742 490.616 392.561 491.362 392.401C493.463 395.299 495.306 398.38 496.87 401.606C502.48 413.111 504.27 426.133 501.974 438.744C499.84 450.156 494.523 460.717 486.648 469.187C487.338 469.138 488.034 469.082 488.715 469.019C501.622 467.916 514.502 465.116 526.208 459.382C536.214 454.599 544.901 447.408 551.504 438.44C558.593 428.575 561.718 416.709 562.254 404.648C562.823 391.736 561.163 378.597 558.242 366.041C555.26 353.168 550.728 340.712 544.747 328.95C544.613 328.683 544.586 328.374 544.671 328.088C544.757 327.802 544.948 327.559 545.205 327.411C545.42 327.266 545.683 327.211 545.937 327.26C546.061 327.293 546.177 327.354 546.274 327.438C546.372 327.523 546.45 327.628 546.501 327.747C547.239 329.2 547.963 330.654 548.66 332.125C554.461 344.371 558.733 357.297 561.376 370.605C563.941 383.444 565.311 396.875 563.968 409.949Z" fill="#002F34" fill-opacity="0.1"/>
<path d="M449.514 232.654C436.571 232.654 426.079 222.067 426.079 209.008C426.079 195.95 436.571 185.363 449.514 185.363C462.457 185.363 472.949 195.95 472.949 209.008C472.949 222.067 462.457 232.654 449.514 232.654Z" fill="#2F2E41"/>
<path opacity="0.8" d="M447.548 232.699C436.952 232.699 428.361 224.032 428.361 213.341C428.361 202.649 436.952 193.982 447.548 193.982C458.144 193.982 466.734 202.649 466.734 213.341C466.734 224.032 458.144 232.699 447.548 232.699Z" fill="#FFCBCB"/>
<path opacity="0.8" d="M374.474 272.22C374.779 272.53 375.059 272.863 375.311 273.216L414.028 271.836L418.456 263.457L431.863 268.547L425.453 284.149C424.935 285.41 424.026 286.467 422.862 287.162C421.698 287.856 420.342 288.151 418.998 288.002L375.186 283.149C374.168 284.479 372.773 285.464 371.186 285.974C369.6 286.484 367.897 286.495 366.304 286.005C364.711 285.515 363.304 284.547 362.27 283.23C361.236 281.914 360.623 280.31 360.514 278.634C360.405 276.957 360.804 275.287 361.658 273.845C362.513 272.403 363.783 271.258 365.298 270.562C366.813 269.865 368.503 269.651 370.142 269.947C371.781 270.244 373.292 271.036 374.474 272.22H374.474Z" fill="#FFB8B8" fill-opacity="0.9"/>
<path d="M437.022 276.082C437.515 275.858 437.955 275.53 438.311 275.12C438.667 274.71 438.932 274.226 439.086 273.704L444.479 255.442C445.65 252.913 445.779 250.019 444.838 247.394C443.898 244.769 441.964 242.628 439.46 241.439C436.957 240.251 434.089 240.112 431.485 241.054C428.88 241.996 426.753 243.941 425.568 246.464L415.122 262.412C414.824 262.867 414.626 263.382 414.543 263.921C414.46 264.46 414.493 265.011 414.64 265.536C414.786 266.061 415.044 266.548 415.394 266.964C415.744 267.38 416.179 267.714 416.669 267.945L433.888 276.058C434.378 276.289 434.912 276.411 435.452 276.415C435.993 276.419 436.528 276.305 437.022 276.082Z" fill="#0DA7A3"/>
<path opacity="0.8" d="M398.889 461.483L390.478 456.863L404.136 421.93L416.551 428.748L398.889 461.483Z" fill="#FFB8B8" fill-opacity="0.9"/>
<path d="M402.531 459.893L385.966 450.795L385.965 450.794C384.579 450.033 383.058 449.554 381.488 449.386C379.919 449.218 378.331 449.363 376.818 449.814C375.304 450.265 373.893 451.012 372.665 452.013C371.437 453.014 370.417 454.249 369.662 455.648L369.476 455.994L396.598 470.89L402.531 459.893Z" fill="#2F2E41"/>
<path opacity="0.8" d="M491.447 461.523H481.87L477.314 424.252L491.449 424.253L491.447 461.523Z" fill="#FFB8B8" fill-opacity="0.9"/>
<path d="M493.891 458.368L475.03 458.367H475.029C473.451 458.367 471.888 458.681 470.43 459.29C468.971 459.9 467.646 460.793 466.53 461.919C465.414 463.045 464.529 464.382 463.925 465.853C463.321 467.325 463.01 468.902 463.01 470.494V470.888L493.89 470.89L493.891 458.368Z" fill="#2F2E41"/>
<path d="M468.995 292.48L473.022 267.906C473.689 263.876 473.339 259.742 472.006 255.884C470.672 252.027 468.398 248.57 465.391 245.833C462.453 243.122 458.886 241.201 455.018 240.247C451.15 239.293 447.106 239.337 443.26 240.375C443.031 240.436 442.803 240.5 442.574 240.565C437.841 241.932 433.638 244.732 430.533 248.586C427.428 252.441 425.57 257.164 425.211 262.118C424.442 272.79 425.13 288.272 432.771 301.424L432.919 301.68L468.995 292.48Z" fill="#0DA7A3"/>
<path d="M428.459 203.052C432.844 206.101 438.048 207.723 443.372 207.702C441.473 209.031 439.311 209.928 437.034 210.333C444.114 211.865 451.431 211.907 458.528 210.455C460.105 210.2 461.627 209.672 463.027 208.896C463.725 208.502 464.332 207.966 464.811 207.32C465.289 206.674 465.628 205.934 465.804 205.148C466.276 202.43 464.177 199.961 461.995 198.296C458.655 195.787 454.804 194.058 450.721 193.235C446.637 192.412 442.424 192.515 438.385 193.536C435.747 194.224 433.105 195.386 431.392 197.523C429.679 199.66 429.171 202.955 430.803 205.155L428.459 203.052Z" fill="#2F2E41"/>
<path d="M449.822 185.246C447.598 176.186 455.569 166.119 464.819 166.307C474.203 166.499 481.109 175.055 485.856 183.225C490.604 191.395 495.322 200.657 504.037 204.174C506.921 205.338 510.046 205.762 513.132 205.407C516.218 205.053 519.169 203.931 521.72 202.143C524.27 200.354 526.341 197.955 527.747 195.16C529.153 192.366 529.849 189.263 529.773 186.13C530.943 196.055 529.322 206.795 522.978 214.472C516.634 222.149 504.829 225.609 496.344 220.45C491.497 217.503 488.4 212.381 485.846 207.287C483.293 202.192 481.02 196.821 477.151 192.655C473.282 188.49 467.298 185.726 461.914 187.478C459.776 188.174 457.858 189.53 455.65 189.942C453.442 190.355 450.661 189.296 450.36 187.05L449.822 185.246Z" fill="#2F2E41"/>
<path d="M347.512 263.821L347.789 263.783L346.745 256.119C346.585 254.943 346.894 253.751 347.606 252.805C348.317 251.858 349.371 251.236 350.537 251.074L366.629 248.843C367.795 248.681 368.977 248.993 369.914 249.71C370.852 250.428 371.469 251.492 371.629 252.668L377.357 294.71C377.517 295.886 377.208 297.079 376.497 298.025C375.786 298.971 374.731 299.593 373.565 299.755L357.474 301.987C356.308 302.148 355.126 301.836 354.188 301.119C353.25 300.401 352.633 299.337 352.473 298.161L348.533 269.237L348.255 269.276L347.512 263.821Z" fill="#002F34" fill-opacity="0.4"/>
<path d="M351.042 253.323L353.045 253.045C352.984 253.286 352.983 253.538 353.041 253.78C353.099 254.021 353.215 254.244 353.379 254.43C353.543 254.615 353.75 254.757 353.981 254.843C354.212 254.929 354.461 254.956 354.705 254.922L363.498 253.702C363.742 253.669 363.974 253.575 364.173 253.429C364.373 253.284 364.534 253.091 364.642 252.867C364.75 252.644 364.803 252.398 364.794 252.149C364.786 251.901 364.717 251.659 364.594 251.444L366.465 251.184C366.876 251.127 367.294 251.152 367.696 251.258C368.098 251.364 368.474 251.549 368.805 251.802C369.136 252.055 369.414 252.372 369.624 252.733C369.833 253.095 369.97 253.494 370.027 253.909L375.482 293.952C375.539 294.367 375.514 294.789 375.409 295.194C375.304 295.599 375.12 295.979 374.869 296.313C374.619 296.647 374.305 296.927 373.947 297.139C373.589 297.35 373.193 297.488 372.781 297.545L357.358 299.684C356.528 299.8 355.686 299.577 355.018 299.066C354.35 298.555 353.911 297.797 353.797 296.959L348.341 256.917C348.227 256.079 348.447 255.229 348.954 254.556C349.46 253.882 350.211 253.438 351.042 253.323L351.042 253.323Z" fill="white"/>
<path d="M361.981 286.566C357.236 286.566 353.388 282.685 353.388 277.896C353.388 273.108 357.236 269.227 361.981 269.227C366.727 269.227 370.574 273.108 370.574 277.896C370.574 282.685 366.727 286.566 361.981 286.566Z" fill="#003034"/>
<path d="M361.216 281.205C361.022 281.205 360.834 281.142 360.68 281.025L360.67 281.018L358.651 279.458C358.557 279.386 358.478 279.296 358.418 279.193C358.359 279.09 358.32 278.976 358.305 278.858C358.289 278.74 358.297 278.62 358.327 278.505C358.357 278.39 358.41 278.282 358.482 278.187C358.554 278.093 358.643 278.014 358.745 277.954C358.848 277.894 358.961 277.856 359.078 277.84C359.195 277.825 359.314 277.833 359.428 277.864C359.542 277.895 359.648 277.948 359.742 278.021L361.05 279.033L364.141 274.966C364.213 274.871 364.302 274.792 364.404 274.733C364.506 274.673 364.619 274.635 364.735 274.619C364.852 274.604 364.971 274.611 365.085 274.642C365.199 274.673 365.305 274.726 365.399 274.798L365.38 274.825L365.399 274.799C365.588 274.945 365.711 275.161 365.742 275.399C365.774 275.636 365.71 275.877 365.565 276.068L361.93 280.852C361.845 280.962 361.737 281.051 361.614 281.113C361.49 281.174 361.354 281.205 361.216 281.205Z" fill="white"/>
<path d="M282.787 471H580.414C580.621 471 580.82 470.917 580.967 470.769C581.113 470.621 581.195 470.421 581.195 470.212C581.195 470.003 581.113 469.802 580.967 469.655C580.82 469.507 580.621 469.424 580.414 469.424H282.787C282.58 469.424 282.381 469.507 282.234 469.655C282.088 469.802 282.006 470.003 282.006 470.212C282.006 470.421 282.088 470.621 282.234 470.769C282.381 470.917 282.58 471 282.787 471Z" fill="#002F34" fill-opacity="0.4"/>
<g clip-path="url(#clip0)">
<path d="M278.5 368.279L276.944 367.62L275.877 359.773H261.662L260.505 367.588L259.112 368.289C259.046 368.322 258.992 368.377 258.961 368.445C258.929 368.513 258.921 368.589 258.939 368.662C258.956 368.735 258.997 368.8 259.055 368.847C259.114 368.893 259.186 368.919 259.26 368.919H278.372C278.448 368.919 278.522 368.892 278.581 368.843C278.64 368.795 278.681 368.727 278.696 368.652C278.711 368.577 278.7 368.498 278.664 368.43C278.628 368.363 278.57 368.309 278.5 368.279Z" fill="#E6E6E6"/>
<path d="M303.763 360.816H233.935C233.569 360.816 233.218 360.669 232.959 360.408C232.7 360.147 232.555 359.793 232.555 359.425V349.52H305.143V359.425C305.143 359.793 304.998 360.147 304.739 360.408C304.48 360.669 304.129 360.816 303.763 360.816Z" fill="#CCCCCC"/>
<path d="M305.213 354.203H232.488V311.82C232.489 311.375 232.665 310.949 232.977 310.634C233.29 310.32 233.714 310.143 234.156 310.143H303.546C303.988 310.143 304.412 310.32 304.724 310.634C305.037 310.949 305.213 311.375 305.213 311.82V354.203Z" fill="#002F34" fill-opacity="0.4"/>
<path d="M300.871 351.127H236.833C236.492 351.126 236.165 350.99 235.924 350.748C235.683 350.505 235.547 350.176 235.547 349.833V314.512C235.547 314.169 235.683 313.84 235.924 313.598C236.165 313.356 236.492 313.219 236.833 313.219H300.871C301.211 313.219 301.538 313.356 301.779 313.598C302.02 313.84 302.156 314.169 302.156 314.512V349.833C302.156 350.176 302.02 350.505 301.779 350.748C301.538 350.99 301.211 351.126 300.871 351.127Z" fill="white"/>
<path d="M286.813 368.999H250.83C250.793 369 250.757 368.989 250.727 368.967C250.697 368.945 250.676 368.913 250.666 368.878C250.659 368.854 250.658 368.828 250.663 368.804C250.668 368.779 250.679 368.756 250.694 368.736C250.709 368.716 250.729 368.7 250.751 368.689C250.774 368.678 250.798 368.672 250.823 368.672H286.8C286.839 368.671 286.877 368.683 286.909 368.706C286.94 368.729 286.962 368.762 286.972 368.8C286.978 368.824 286.978 368.849 286.972 368.873C286.967 368.897 286.956 368.919 286.941 368.938C286.925 368.957 286.906 368.973 286.884 368.983C286.862 368.994 286.838 368.999 286.813 368.999Z" fill="#CCCCCC"/>
<path d="M293.612 344.838H280.119C280.086 344.841 280.052 344.83 280.026 344.809C280 344.787 279.984 344.756 279.98 344.722V333.774C279.984 333.741 280 333.71 280.026 333.688C280.052 333.666 280.086 333.656 280.119 333.659H293.612C293.645 333.656 293.679 333.666 293.704 333.688C293.73 333.71 293.747 333.741 293.75 333.774V344.722C293.747 344.756 293.73 344.787 293.704 344.809C293.679 344.83 293.645 344.841 293.612 344.838Z" fill="#F0F0F0"/>
<path d="M292.143 334.869H281.584C281.547 334.869 281.512 334.884 281.486 334.91C281.46 334.936 281.445 334.972 281.445 335.009V343.239C281.445 343.276 281.46 343.312 281.486 343.338C281.512 343.364 281.547 343.379 281.584 343.379H292.143C292.18 343.379 292.215 343.364 292.241 343.338C292.268 343.312 292.282 343.276 292.282 343.239V335.009C292.282 334.972 292.268 334.936 292.241 334.91C292.215 334.884 292.18 334.869 292.143 334.869Z" fill="white"/>
<path d="M293.569 330.869H280.076C280.043 330.872 280.009 330.861 279.983 330.84C279.958 330.818 279.941 330.787 279.938 330.753V319.802C279.941 319.768 279.958 319.737 279.983 319.715C280.009 319.694 280.043 319.683 280.076 319.686H293.569C293.602 319.683 293.636 319.694 293.662 319.715C293.688 319.737 293.704 319.768 293.708 319.802V330.753C293.704 330.787 293.688 330.818 293.662 330.84C293.636 330.861 293.602 330.872 293.569 330.869Z" fill="#F0F0F0"/>
<path d="M292.1 320.896H281.541C281.504 320.897 281.469 320.911 281.443 320.937C281.417 320.964 281.402 320.999 281.402 321.036V329.267C281.402 329.304 281.417 329.339 281.443 329.365C281.469 329.392 281.504 329.406 281.541 329.406H292.1C292.137 329.406 292.172 329.392 292.199 329.365C292.225 329.339 292.239 329.304 292.239 329.267V321.036C292.239 320.999 292.225 320.964 292.199 320.937C292.172 320.911 292.137 320.897 292.1 320.896Z" fill="white"/>
<path d="M243.953 344.531V319.767C243.962 319.69 244 319.619 244.06 319.571C244.119 319.522 244.195 319.498 244.272 319.505H275.225C275.302 319.498 275.378 319.522 275.438 319.571C275.497 319.619 275.535 319.69 275.544 319.767V344.531C275.535 344.608 275.497 344.678 275.438 344.727C275.378 344.776 275.302 344.8 275.225 344.793H244.272C244.195 344.8 244.119 344.776 244.06 344.727C244 344.678 243.962 344.608 243.953 344.531Z" fill="#E4E4E4"/>
<path d="M247.316 322.604V341.486C247.317 341.571 247.35 341.652 247.41 341.713C247.47 341.773 247.551 341.806 247.635 341.807H271.859C271.944 341.806 272.025 341.773 272.085 341.713C272.144 341.652 272.178 341.571 272.178 341.486V322.604C272.178 322.519 272.144 322.437 272.085 322.377C272.025 322.317 271.944 322.283 271.859 322.283H247.635C247.551 322.283 247.47 322.317 247.41 322.377C247.35 322.437 247.317 322.519 247.316 322.604Z" fill="white"/>
</g>
<path d="M315.533 227.71C315.799 227.71 316.055 227.602 316.243 227.411C316.432 227.22 316.537 226.962 316.537 226.693L316.413 156.983C316.412 156.713 316.306 156.455 316.116 156.265C315.927 156.075 315.671 155.969 315.404 155.969L219.149 156.144C218.882 156.145 218.626 156.253 218.438 156.443C218.249 156.634 218.144 156.893 218.144 157.162L218.269 226.872C218.269 227.005 218.296 227.137 218.346 227.26C218.397 227.384 218.472 227.495 218.565 227.589C218.659 227.684 218.77 227.758 218.892 227.809C219.014 227.86 219.145 227.886 219.278 227.885L315.533 227.71Z" fill="#E6E6E6"/>
<path d="M310.097 162.214L310.185 211.756C310.186 212.086 310.056 212.403 309.825 212.638C309.594 212.872 309.28 213.004 308.952 213.004L225.601 213.156C225.542 213.157 225.484 213.152 225.426 213.141C225.132 213.1 224.863 212.953 224.667 212.727C224.472 212.501 224.364 212.212 224.363 211.912L224.275 162.37C224.274 162.04 224.404 161.723 224.635 161.489C224.866 161.255 225.18 161.123 225.507 161.122L308.859 160.97C309.187 160.97 309.501 161.1 309.733 161.334C309.965 161.567 310.096 161.884 310.097 162.214Z" fill="white"/>
<path d="M310.176 204.718L310.188 211.756C310.189 212.086 310.059 212.403 309.828 212.638C309.597 212.872 309.283 213.004 308.955 213.004L225.604 213.156C225.545 213.157 225.487 213.152 225.429 213.141C225.135 213.1 224.866 212.953 224.67 212.727C224.475 212.501 224.367 212.212 224.366 211.912L224.354 204.875L310.176 204.718Z" fill="#002F34" fill-opacity="0.4"/>
<path d="M274.46 208.988L261.199 209.012L261.202 210.541L274.462 210.517L274.46 208.988Z" fill="#CCCCCC"/>
<path d="M243.964 209.042L230.703 209.066L230.706 210.595L243.966 210.571L243.964 209.042Z" fill="#CCCCCC"/>
<path d="M304.96 208.931L291.699 208.955L291.702 210.484L304.962 210.46L304.96 208.931Z" fill="#CCCCCC"/>
<path d="M221.405 160.086C222.193 159.873 222.66 159.056 222.449 158.261C222.238 157.467 221.428 156.995 220.641 157.208C219.853 157.421 219.386 158.238 219.597 159.033C219.808 159.827 220.617 160.299 221.405 160.086Z" fill="#002F34" fill-opacity="0.4"/>
<path d="M313.721 159.916C314.509 159.703 314.976 158.886 314.765 158.092C314.554 157.297 313.745 156.825 312.957 157.038C312.17 157.251 311.702 158.068 311.913 158.863C312.124 159.657 312.934 160.129 313.721 159.916Z" fill="#002F34" fill-opacity="0.4"/>
<path d="M221.518 226.816C222.306 226.603 222.773 225.787 222.562 224.992C222.351 224.197 221.542 223.726 220.754 223.939C219.967 224.152 219.499 224.968 219.71 225.763C219.921 226.558 220.731 227.029 221.518 226.816Z" fill="#002F34" fill-opacity="0.4"/>
<path d="M313.843 226.648C314.63 226.435 315.097 225.619 314.886 224.824C314.675 224.029 313.866 223.558 313.078 223.771C312.291 223.984 311.823 224.8 312.034 225.595C312.245 226.39 313.055 226.861 313.843 226.648Z" fill="#002F34" fill-opacity="0.4"/>
<path d="M290.243 206.894L297.613 206.885L297.612 205.704L290.242 205.714L290.243 206.894Z" fill="#002F34" fill-opacity="0.4"/>
<path d="M236.957 206.076L238.479 206.428L296.269 206.354L296.787 205.131C297.689 203.034 297.996 200.725 297.673 198.462C297.421 196.775 296.795 195.1 295.377 194.374L292.781 177.145L260.809 177.145L248.457 187.235C248.457 187.235 242.621 187.139 239.458 191.127C238.317 192.61 237.645 194.405 237.53 196.278L237.408 198.35L236.957 206.076Z" fill="#007F7C" fill-opacity="0.4"/>
<path d="M251.493 212.718C255.3 211.689 257.559 207.741 256.539 203.9C255.519 200.059 251.606 197.779 247.799 198.808C243.992 199.838 241.733 203.786 242.753 207.627C243.773 211.468 247.686 213.747 251.493 212.718Z" fill="#002F34" fill-opacity="0.4"/>
<path d="M250.619 209.422C252.623 208.88 253.812 206.802 253.275 204.781C252.738 202.759 250.678 201.56 248.675 202.101C246.671 202.643 245.482 204.721 246.019 206.742C246.556 208.764 248.615 209.964 250.619 209.422Z" fill="#CCCCCC"/>
<path d="M286.708 212.671C290.515 211.642 292.774 207.694 291.754 203.853C290.734 200.012 286.821 197.732 283.014 198.761C279.207 199.791 276.948 203.739 277.968 207.58C278.988 211.421 282.901 213.7 286.708 212.671Z" fill="#002F34" fill-opacity="0.4"/>
<path d="M285.83 209.379C287.833 208.837 289.022 206.759 288.486 204.738C287.949 202.716 285.889 201.517 283.886 202.058C281.882 202.6 280.693 204.678 281.23 206.699C281.767 208.721 283.826 209.921 285.83 209.379Z" fill="#CCCCCC"/>
<path d="M253.368 186.048L270.63 186.024L272.737 186.021L276.296 186.017L276.295 185.754L276.292 182.598L276.288 179.054L273.921 179.058L271.814 179.059L268.081 179.064L265.974 179.067L261.665 179.073L253.368 186.048Z" fill="white"/>
<path d="M279.109 186.013L288.232 186.001L288.231 184.195L288.226 181.038L288.225 179.038L286.889 179.04L284.781 179.042L279.099 179.05L279.109 186.013Z" fill="white"/>
<path d="M275.139 193.455L276.309 193.453L276.306 191.211L275.136 191.212L275.139 193.455Z" fill="#002F34" fill-opacity="0.4"/>
<path d="M258.052 189.231L258.051 188.051L255.828 188.054L255.829 189.234L258.052 189.231Z" fill="#002F34" fill-opacity="0.4"/>
<path d="M257.23 188.568L257.102 188.569C256.453 188.569 255.831 188.31 255.372 187.848C254.913 187.386 254.655 186.759 254.654 186.105C254.653 185.451 254.91 184.823 255.368 184.36C255.826 183.896 256.447 183.636 257.096 183.635L257.224 183.635L257.23 188.568Z" fill="#002F34" fill-opacity="0.4"/>
<path d="M237.406 198.349C238.291 198.444 239.181 198.222 239.919 197.72C240.657 197.219 241.196 196.47 241.441 195.607C241.686 194.744 241.621 193.821 241.258 193.001C240.895 192.182 240.257 191.518 239.456 191.126C238.315 192.609 237.643 194.404 237.528 196.277L237.406 198.349Z" fill="#002F34" fill-opacity="0.4"/>
<path d="M271.816 179.057L276.298 185.752L276.295 182.595L273.924 179.055L271.816 179.057Z" fill="#F2F2F2"/>
<path d="M284.777 179.043L288.227 184.196L288.221 181.04L286.885 179.042L284.777 179.043Z" fill="#F2F2F2"/>
<path d="M265.973 179.068L270.629 186.025L272.736 186.022L268.08 179.065L265.973 179.068Z" fill="#F2F2F2"/>
<path d="M118.619 315.566H118.21V304.44C118.21 303.594 118.042 302.757 117.716 301.975C117.39 301.194 116.912 300.484 116.31 299.886C115.707 299.288 114.992 298.814 114.205 298.49C113.418 298.167 112.574 298 111.722 298H87.9755C86.255 298 84.605 298.678 83.3884 299.886C82.1718 301.094 81.4883 302.732 81.4883 304.439V365.478C81.4883 367.186 82.1718 368.824 83.3883 370.032C84.6049 371.239 86.255 371.918 87.9755 371.918H111.722C113.443 371.918 115.093 371.239 116.31 370.032C117.526 368.824 118.21 367.186 118.21 365.478V323.485H118.619L118.619 315.566Z" fill="#E6E6E6"/>
<path d="M116.828 304.485V365.434C116.828 366.709 116.317 367.933 115.409 368.835C114.5 369.737 113.268 370.243 111.983 370.243H88.1222C86.8372 370.243 85.605 369.737 84.6964 368.835C83.7878 367.933 83.2774 366.709 83.2773 365.434V304.485C83.2774 303.209 83.7878 301.986 84.6964 301.084C85.605 300.182 86.8372 299.676 88.1222 299.676H91.0168C90.8745 300.023 90.8204 300.399 90.859 300.772C90.8977 301.144 91.028 301.502 91.2385 301.813C91.449 302.123 91.7333 302.378 92.0663 302.554C92.3992 302.731 92.7707 302.823 93.1481 302.823H106.752C107.13 302.823 107.501 302.731 107.834 302.554C108.167 302.378 108.451 302.123 108.662 301.813C108.872 301.502 109.003 301.144 109.041 300.772C109.08 300.399 109.026 300.023 108.884 299.676H111.983C113.268 299.676 114.5 300.182 115.409 301.084C116.317 301.986 116.828 303.209 116.828 304.485Z" fill="white"/>
<path d="M114 333.751C113.914 333.513 113.755 333.307 113.547 333.162C113.338 333.016 113.089 332.938 112.835 332.938H87.2736C87.111 332.937 86.9499 332.969 86.7996 333.031C86.6493 333.093 86.5128 333.183 86.3978 333.297C86.2827 333.412 86.1915 333.547 86.1293 333.696C86.0671 333.846 86.0351 334.005 86.0352 334.167V353.638C86.0356 353.964 86.1663 354.276 86.3984 354.506C86.6306 354.737 86.9453 354.867 87.2736 354.867H112.835C113.163 354.867 113.478 354.737 113.71 354.506C113.942 354.276 114.073 353.964 114.073 353.638V334.167C114.073 334.025 114.049 333.884 114 333.751Z" fill="#F2F2F2"/>
<path d="M114 309.292C113.914 309.054 113.755 308.848 113.547 308.703C113.338 308.557 113.089 308.479 112.835 308.479H87.2736C87.111 308.478 86.9499 308.51 86.7996 308.572C86.6493 308.634 86.5128 308.724 86.3978 308.838C86.2827 308.953 86.1915 309.088 86.1293 309.237C86.0671 309.387 86.0351 309.546 86.0352 309.708V329.179C86.0356 329.505 86.1663 329.817 86.3984 330.047C86.6306 330.278 86.9453 330.408 87.2736 330.408H112.835C113.163 330.408 113.478 330.278 113.71 330.047C113.942 329.817 114.073 329.505 114.073 329.179V309.708C114.073 309.566 114.049 309.425 114 309.292Z" fill="white"/>
<path d="M114 309.292C113.914 309.054 113.755 308.848 113.547 308.703C113.338 308.557 113.089 308.479 112.835 308.479H87.2736C87.111 308.478 86.9499 308.51 86.7996 308.572C86.6493 308.634 86.5128 308.724 86.3978 308.838C86.2827 308.953 86.1915 309.088 86.1293 309.237C86.0671 309.387 86.0351 309.546 86.0352 309.708V329.179C86.0356 329.505 86.1663 329.817 86.3984 330.047C86.6306 330.278 86.9453 330.408 87.2736 330.408H112.835C113.163 330.408 113.478 330.278 113.71 330.047C113.942 329.817 114.073 329.505 114.073 329.179V309.708C114.073 309.566 114.049 309.425 114 309.292ZM113.927 329.179C113.927 329.466 113.812 329.742 113.607 329.945C113.402 330.149 113.124 330.263 112.835 330.263H87.2736C86.9839 330.263 86.7062 330.149 86.5013 329.945C86.2965 329.742 86.1812 329.466 86.1809 329.179V309.708C86.1812 309.42 86.2965 309.145 86.5013 308.941C86.7062 308.738 86.9839 308.623 87.2736 308.623H112.835C113.124 308.623 113.402 308.738 113.607 308.941C113.812 309.145 113.927 309.42 113.927 309.708V329.179Z" fill="#002F34" fill-opacity="0.4"/>
<path d="M112.101 311.1V324.696C112.101 324.741 112.092 324.785 112.074 324.827C112.057 324.868 112.032 324.906 112 324.938C111.968 324.97 111.93 324.995 111.888 325.012C111.846 325.029 111.801 325.038 111.756 325.038H88.505C88.4884 325.038 88.4719 325.037 88.4556 325.034C88.3735 325.023 88.2985 324.982 88.2443 324.92C88.19 324.858 88.1602 324.778 88.1602 324.696V311.1C88.1601 311.055 88.169 311.011 88.1863 310.969C88.2037 310.928 88.229 310.89 88.261 310.858C88.293 310.826 88.331 310.801 88.3728 310.784C88.4147 310.767 88.4595 310.758 88.5048 310.758H111.756C111.801 310.758 111.846 310.767 111.888 310.784C111.93 310.801 111.968 310.826 112 310.858C112.032 310.89 112.057 310.927 112.074 310.969C112.092 311.01 112.101 311.055 112.101 311.1V311.1Z" fill="#E6E6E6"/>
<path d="M94.0213 318.842C95.6921 318.842 97.0466 317.497 97.0466 315.839C97.0466 314.18 95.6921 312.836 94.0213 312.836C92.3505 312.836 90.9961 314.18 90.9961 315.839C90.9961 317.497 92.3505 318.842 94.0213 318.842Z" fill="#007F7C" fill-opacity="0.4"/>
<path d="M103.51 325.092H88.6687C88.6502 325.092 88.6316 325.091 88.6133 325.088L95.6323 313.019C95.6752 312.944 95.7374 312.881 95.8125 312.838C95.8877 312.794 95.9731 312.771 96.0601 312.771C96.1471 312.771 96.2325 312.794 96.3077 312.838C96.3828 312.881 96.445 312.944 96.4878 313.019L101.199 321.118L101.424 321.506L103.51 325.092Z" fill="#002F34" fill-opacity="0.4"/>
<path opacity="0.2" d="M103.505 325.093H98.4375L100.925 321.507L101.104 321.248L101.193 321.119L101.419 321.507L103.505 325.093Z" fill="#007F7C" fill-opacity="0.4"/>
<path d="M111.77 325.094H98.9336L101.421 321.507L101.6 321.249L104.841 316.575C105.054 316.269 105.565 316.25 105.815 316.517C105.832 316.536 105.847 316.555 105.862 316.575L111.77 325.094Z" fill="#002F34" fill-opacity="0.4"/>
<path d="M107.391 334.888C107.304 334.65 107.146 334.444 106.937 334.298C106.729 334.153 106.48 334.075 106.225 334.074H80.6643C80.5016 334.074 80.3405 334.106 80.1902 334.168C80.04 334.229 79.9034 334.32 79.7884 334.434C79.6734 334.548 79.5821 334.684 79.5199 334.833C79.4577 334.982 79.4257 335.142 79.4258 335.304V354.774C79.4262 355.1 79.5569 355.413 79.789 355.643C80.0212 355.874 80.3359 356.003 80.6643 356.004H106.225C106.553 356.003 106.868 355.874 107.1 355.643C107.333 355.413 107.463 355.1 107.464 354.774V335.304C107.464 335.162 107.439 335.021 107.391 334.888Z" fill="white"/>
<path d="M107.391 334.888C107.304 334.65 107.146 334.444 106.937 334.298C106.729 334.153 106.48 334.075 106.225 334.074H80.6643C80.5016 334.074 80.3405 334.106 80.1902 334.168C80.04 334.229 79.9034 334.32 79.7884 334.434C79.6734 334.548 79.5821 334.684 79.5199 334.833C79.4577 334.982 79.4257 335.142 79.4258 335.304V354.774C79.4262 355.1 79.5569 355.413 79.789 355.643C80.0212 355.874 80.3359 356.003 80.6643 356.004H106.225C106.553 356.003 106.868 355.874 107.1 355.643C107.333 355.413 107.463 355.1 107.464 354.774V335.304C107.464 335.162 107.439 335.021 107.391 334.888ZM107.318 354.774C107.318 355.062 107.202 355.338 106.997 355.541C106.793 355.744 106.515 355.859 106.225 355.859H80.6643C80.3746 355.859 80.0968 355.744 79.8919 355.541C79.6871 355.338 79.5718 355.062 79.5715 354.774V335.304C79.5718 335.016 79.6871 334.74 79.8919 334.537C80.0968 334.334 80.3746 334.219 80.6643 334.219H106.225C106.515 334.219 106.793 334.334 106.997 334.537C107.202 334.74 107.318 335.016 107.318 335.304L107.318 354.774Z" fill="#002F34" fill-opacity="0.4"/>
<path d="M105.491 336.694V350.29C105.491 350.335 105.482 350.379 105.465 350.421C105.448 350.462 105.422 350.5 105.39 350.532C105.358 350.563 105.32 350.589 105.279 350.606C105.237 350.623 105.192 350.632 105.147 350.632H81.8956C81.8791 350.632 81.8625 350.631 81.8462 350.628C81.7642 350.616 81.6892 350.576 81.6349 350.514C81.5806 350.451 81.5508 350.372 81.5508 350.29V336.694C81.5508 336.649 81.5597 336.604 81.577 336.563C81.5943 336.521 81.6197 336.484 81.6517 336.452C81.6837 336.42 81.7217 336.395 81.7635 336.378C81.8053 336.36 81.8501 336.352 81.8954 336.352H105.146C105.192 336.352 105.237 336.36 105.278 336.378C105.32 336.395 105.358 336.42 105.39 336.452C105.422 336.483 105.448 336.521 105.465 336.563C105.482 336.604 105.491 336.649 105.491 336.694V336.694Z" fill="#E6E6E6"/>
<path d="M87.4081 344.436C89.0789 344.436 90.4333 343.091 90.4333 341.433C90.4333 339.774 89.0789 338.43 87.4081 338.43C85.7373 338.43 84.3828 339.774 84.3828 341.433C84.3828 343.091 85.7373 344.436 87.4081 344.436Z" fill="#007F7C" fill-opacity="0.4"/>
<path d="M96.9003 350.688H82.0594C82.0408 350.688 82.0222 350.687 82.0039 350.683L89.023 338.615C89.0658 338.54 89.128 338.477 89.2031 338.434C89.2783 338.39 89.3637 338.367 89.4507 338.367C89.5377 338.367 89.6231 338.39 89.6983 338.434C89.7734 338.477 89.8356 338.54 89.8785 338.615L94.5891 346.714L94.8148 347.101L96.9003 350.688Z" fill="#002F34" fill-opacity="0.4"/>
<path opacity="0.2" d="M96.8991 350.687H91.832L94.3194 347.1L94.4985 346.842L94.588 346.713L94.8137 347.1L96.8991 350.687Z" fill="#007F7C" fill-opacity="0.4"/>
<path d="M105.164 350.688H92.3281L94.8155 347.101L94.9945 346.843L98.2358 342.169C98.4483 341.863 98.9595 341.844 99.2094 342.111C99.2262 342.129 99.2417 342.149 99.2561 342.169L105.164 350.688Z" fill="#002F34" fill-opacity="0.4"/>
<path d="M95.9435 363.367H88.5765C88.0745 363.367 87.593 363.169 87.238 362.817C86.883 362.465 86.6836 361.987 86.6836 361.488C86.6836 360.99 86.883 360.512 87.238 360.16C87.593 359.807 88.0745 359.609 88.5765 359.609H95.9435C96.4455 359.609 96.927 359.807 97.282 360.16C97.637 360.512 97.8364 360.99 97.8364 361.488C97.8364 361.987 97.637 362.465 97.282 362.817C96.927 363.169 96.4455 363.367 95.9435 363.367Z" fill="#E6F3F2"/>
<path d="M110.584 363.367H103.217C102.715 363.367 102.234 363.169 101.879 362.817C101.524 362.465 101.324 361.987 101.324 361.488C101.324 360.99 101.524 360.512 101.879 360.16C102.234 359.807 102.715 359.609 103.217 359.609H110.584C111.086 359.609 111.568 359.807 111.923 360.16C112.278 360.512 112.477 360.99 112.477 361.488C112.477 361.987 112.278 362.465 111.923 362.817C111.568 363.169 111.086 363.367 110.584 363.367Z" fill="#F2F2F2"/>
<path d="M431.939 296.1L428.814 333.933L393.959 439.434C393.822 439.849 393.772 440.288 393.812 440.724C393.852 441.159 393.982 441.582 394.193 441.964C394.404 442.346 394.691 442.68 395.036 442.944C395.382 443.208 395.778 443.397 396.2 443.498L406.882 446.064C407.566 446.229 408.285 446.155 408.923 445.856C409.561 445.557 410.08 445.05 410.396 444.417L454.958 355.233C455.103 354.942 455.334 354.704 455.618 354.551C455.903 354.398 456.228 354.338 456.548 354.378C456.868 354.419 457.168 354.559 457.406 354.778C457.644 354.998 457.81 355.286 457.879 355.604L477.489 445.741C477.642 446.443 478.028 447.071 478.583 447.522C479.138 447.972 479.829 448.218 480.541 448.218H490.479C490.893 448.218 491.303 448.136 491.685 447.975C492.067 447.814 492.413 447.578 492.704 447.28C492.994 446.983 493.223 446.63 493.377 446.242C493.531 445.855 493.608 445.44 493.601 445.023C492.691 382.523 495.695 311.306 471.779 300.041L467.873 289.795L431.939 296.1Z" fill="#002F34" fill-opacity="0.8"/>
<path d="M496.066 349.535C496.862 348.594 497.444 347.487 497.771 346.294C498.098 345.101 498.161 343.85 497.957 342.629C497.753 341.409 497.286 340.248 496.589 339.23C495.892 338.211 494.982 337.359 493.924 336.733L477.28 261.465L460.397 268.456L482.066 340.244C481.142 342.108 480.928 344.249 481.465 346.262C482.001 348.274 483.25 350.018 484.976 351.164C486.702 352.309 488.784 352.776 490.828 352.476C492.872 352.175 494.736 351.129 496.066 349.535H496.066Z" fill="#FFCBCB"/>
<path d="M483.874 272.262C484.14 271.787 484.301 271.259 484.346 270.716C484.391 270.172 484.32 269.625 484.137 269.112L477.737 251.184C477.192 248.448 475.594 246.041 473.293 244.491C470.992 242.941 468.175 242.375 465.461 242.918C462.747 243.46 460.357 245.066 458.815 247.383C457.273 249.701 456.705 252.541 457.235 255.28L458.207 274.372C458.235 274.917 458.379 275.449 458.629 275.933C458.879 276.416 459.229 276.84 459.656 277.175C460.083 277.509 460.577 277.747 461.103 277.872C461.63 277.997 462.176 278.006 462.706 277.899L481.338 274.119C481.868 274.012 482.369 273.79 482.807 273.47C483.245 273.149 483.608 272.737 483.874 272.262Z" fill="#0DA7A3"/>
<defs>
<clipPath id="clip0">
<rect width="90" height="67" fill="white" transform="translate(225 302)"/>
</clipPath>
</defs>
</svg>
