<svg width="117" height="13" viewBox="0 0 117 13" fill="none" xmlns="http://www.w3.org/2000/svg">
<path d="M0.304 12H7.968V10.864H2.448L5.6 7.792C7.008 6.416 7.904 5.04 7.904 3.632C7.904 1.664 6.56 0.415999 4.448 0.415999C2.272 0.415999 0.912 1.84 0.736 4.08H2.032C2.256 2.288 3.12 1.536 4.448 1.536C5.744 1.536 6.496 2.304 6.496 3.584C6.496 4.752 5.888 5.792 4.848 6.896L0.304 11.68V12ZM14.2853 10.992C12.3813 10.992 11.1653 9.488 11.1653 6.592V5.952C11.1653 3.136 12.3173 1.536 14.2533 1.536C16.1893 1.536 17.3093 3.264 17.3093 5.92V6.56C17.3093 9.456 16.2853 10.992 14.2853 10.992ZM14.2853 12.144C17.1013 12.144 18.7173 9.904 18.7173 6.576V5.936C18.7173 2.672 17.0693 0.415999 14.2533 0.415999C11.4533 0.415999 9.74125 2.592 9.74125 5.968V6.608C9.74125 9.936 11.5493 12.144 14.2853 12.144ZM25.1759 10.992C23.2719 10.992 22.0559 9.488 22.0559 6.592V5.952C22.0559 3.136 23.2079 1.536 25.1439 1.536C27.0799 1.536 28.1999 3.264 28.1999 5.92V6.56C28.1999 9.456 27.1759 10.992 25.1759 10.992ZM25.1759 12.144C27.9919 12.144 29.6079 9.904 29.6079 6.576V5.936C29.6079 2.672 27.9599 0.415999 25.1439 0.415999C22.3439 0.415999 20.6319 2.592 20.6319 5.968V6.608C20.6319 9.936 22.4399 12.144 25.1759 12.144ZM35.6345 12.144C38.0505 12.144 39.5865 10.608 39.5865 8.32C39.5865 6.224 38.1145 4.576 35.8425 4.576C34.5145 4.576 33.4425 5.2 32.8985 6.128C32.9625 3.104 34.1785 1.552 35.9065 1.552C37.1865 1.552 37.7625 2.128 38.0185 3.184H39.3465C39.0425 1.344 37.7785 0.415999 36.0025 0.415999C33.3785 0.415999 31.5225 2.56 31.5225 6.672V6.944C31.5225 9.808 32.5145 12.144 35.6345 12.144ZM35.6345 11.056C34.0985 11.056 32.9945 10.064 32.9945 8.192C32.9945 6.704 34.0825 5.664 35.6185 5.664C37.1705 5.664 38.1625 6.736 38.1625 8.384C38.1625 10 37.1385 11.056 35.6345 11.056ZM41.4288 7.392H45.3328V6.144H41.4288V7.392ZM46.6009 12H54.2649V10.864H48.7449L51.8969 7.792C53.3049 6.416 54.2009 5.04 54.2009 3.632C54.2009 1.664 52.8569 0.415999 50.7449 0.415999C48.5689 0.415999 47.2089 1.84 47.0329 4.08H48.3289C48.5529 2.288 49.4169 1.536 50.7449 1.536C52.0409 1.536 52.7929 2.304 52.7929 3.584C52.7929 4.752 52.1849 5.792 51.1449 6.896L46.6009 11.68V12ZM60.5821 10.992C58.6781 10.992 57.4621 9.488 57.4621 6.592V5.952C57.4621 3.136 58.6141 1.536 60.5501 1.536C62.4861 1.536 63.6061 3.264 63.6061 5.92V6.56C63.6061 9.456 62.5821 10.992 60.5821 10.992ZM60.5821 12.144C63.3981 12.144 65.0141 9.904 65.0141 6.576V5.936C65.0141 2.672 63.3661 0.415999 60.5501 0.415999C57.7501 0.415999 56.0381 2.592 56.0381 5.968V6.608C56.0381 9.936 57.8461 12.144 60.5821 12.144ZM66.2728 12H73.9368V10.864H68.4168L71.5688 7.792C72.9768 6.416 73.8728 5.04 73.8728 3.632C73.8728 1.664 72.5288 0.415999 70.4168 0.415999C68.2408 0.415999 66.8808 1.84 66.7048 4.08H68.0008C68.2248 2.288 69.0888 1.536 70.4168 1.536C71.7128 1.536 72.4648 2.304 72.4648 3.584C72.4648 4.752 71.8568 5.792 70.8168 6.896L66.2728 11.68V12ZM77.9161 12H79.3081V0.559999H78.0121L75.3561 2.48V3.776L77.9161 1.936V12ZM91.9971 10.992C89.6131 10.992 87.7731 9.104 87.7731 6.336V6.208C87.7731 3.488 89.3091 1.536 91.9651 1.536C94.6051 1.536 96.1091 3.616 96.1091 6.176V6.304C96.1091 9.072 94.5411 10.992 91.9971 10.992ZM91.9971 12.144C95.3251 12.144 97.5491 9.552 97.5491 6.32V6.192C97.5491 2.976 95.3251 0.415999 91.9651 0.415999C88.6051 0.415999 86.3331 2.976 86.3331 6.224V6.352C86.3331 9.552 88.6211 12.144 91.9971 12.144ZM99.8619 12H106.486V10.864H101.254V0.559999H99.8619V12ZM107.704 12H109.096L112.152 7.184L115.208 12H116.776L113.048 6.128L116.6 0.559999H115.176L112.344 5.056L109.496 0.559999H107.96L111.48 6.128L107.704 12Z" fill="white"/>
</svg>
