<svg width="81" height="19" viewBox="0 0 81 19" fill="none" xmlns="http://www.w3.org/2000/svg">
<path d="M0.9 15H2.64V0.699999H0.9V15ZM6.22688 15H7.88688V8.6C7.88688 6.72 9.28688 5.8 10.6469 5.8C12.0869 5.8 12.8669 6.56 12.8669 8.4V15H14.5269V8.6C14.5269 6.72 15.9269 5.8 17.2869 5.8C18.7269 5.8 19.5069 6.56 19.5069 8.4V15H21.1669V8.52C21.1669 5.48 19.5269 4.36 17.6469 4.36C16.3469 4.36 14.7869 4.96 14.0669 6.32C13.5269 4.92 12.3469 4.36 11.0069 4.36C9.50688 4.36 8.36688 5.16 7.88688 6.14V4.54H6.22688V15ZM27.05 15.18C28.59 15.18 29.53 14.66 30.31 13.68V15H31.97V8.1C31.97 5.18 30.15 4.36 28.15 4.36C26.13 4.36 24.23 5.24 24.01 7.62H25.67C25.83 6.34 26.63 5.74 28.07 5.74C29.67 5.74 30.31 6.44 30.31 8.1V8.86H28.81C26.13 8.86 23.57 9.68 23.57 12.1C23.57 14.24 25.11 15.18 27.05 15.18ZM27.21 13.86C25.75 13.86 25.23 13.18 25.23 12.1C25.23 10.56 26.77 10.04 28.87 10.04H30.31V11.34C30.31 12.96 28.97 13.86 27.21 13.86ZM39.4108 18.82C42.3308 18.82 44.3908 17.34 44.4108 14.3V4.54H42.7508V6.22C42.1508 5.2 41.0708 4.36 39.3308 4.36C36.4508 4.36 34.4508 6.72 34.4508 9.56V9.7C34.4508 12.58 36.4708 14.66 39.2108 14.66C40.7308 14.66 42.1508 13.7 42.7508 12.68V14.2C42.7508 16.44 41.4508 17.42 39.3908 17.42C37.6108 17.42 36.6108 16.8 36.3708 15.6H34.6708C34.9508 17.36 36.3108 18.82 39.4108 18.82ZM39.3908 13.28C37.6308 13.28 36.1708 11.92 36.1708 9.64V9.48C36.1708 7.28 37.4108 5.74 39.4908 5.74C41.5308 5.74 42.8108 7.1 42.8108 9.44V9.58C42.8108 11.92 41.3308 13.28 39.3908 13.28ZM52.0498 15.18C54.4098 15.18 56.1498 14.08 56.5098 11.98H54.8498C54.6298 13.2 53.6898 13.8 52.0698 13.8C49.9298 13.8 48.7898 12.48 48.7098 10.1H56.5898V9.56C56.5898 5.82 54.3098 4.36 51.8898 4.36C49.0098 4.36 46.9898 6.56 46.9898 9.72V9.88C46.9898 13.1 49.0898 15.18 52.0498 15.18ZM48.7698 8.76C49.0498 6.9 50.1898 5.74 51.8898 5.74C53.6098 5.74 54.7298 6.6 54.8898 8.76H48.7698ZM62.4747 15.18C65.0147 15.18 66.3147 13.9 66.3147 12C66.3147 9.78 64.7947 9.3 62.6347 8.9C60.7147 8.56 60.1947 8.18 60.1947 7.24C60.1947 6.34 60.9747 5.74 62.1747 5.74C63.4947 5.74 64.1347 6.24 64.3747 7.38H65.9747C65.6947 5.12 64.0747 4.36 62.1947 4.36C60.5547 4.36 58.6547 5.36 58.6547 7.3C58.6547 9.12 59.5747 9.88 62.2947 10.38C63.9147 10.68 64.7347 11.04 64.7347 12.14C64.7347 13.26 64.0347 13.8 62.4547 13.8C60.7747 13.8 60.1147 13.02 59.9947 11.78H58.3747C58.4747 13.92 59.9747 15.18 62.4747 15.18ZM75.237 6.82L76.637 4.42L78.117 6.82L79.237 6L77.577 3.78L80.057 3.2L79.617 1.86L77.277 2.82L77.417 0.139999H75.957L76.097 2.82L73.737 1.86L73.297 3.2L75.757 3.78L74.097 6L75.237 6.82Z" fill="#002F34"/>
</svg>
