<svg width="125" height="17" viewBox="0 0 125 17" fill="none" xmlns="http://www.w3.org/2000/svg">
<path d="M0.8 16H5.7C8.56 16 10.4 14.7 10.4 12V11.92C10.4 10.06 9.62 9 7.54 8.5C9.18 7.94 9.7 6.78 9.7 5.48V5.4C9.7 2.58 7.76 1.7 5.1 1.7H0.8V16ZM2.5 14.64V9.3H5.42C7.72 9.3 8.7 10.14 8.7 11.9V11.98C8.7 13.72 7.74 14.64 5.66 14.64H2.5ZM2.5 7.94V3.06H5.06C7.06 3.06 8 3.72 8 5.34V5.42C8 7.18 7.2 7.94 5.1 7.94H2.5ZM13.1214 16H14.7814V10.26C14.7814 7.68 16.1214 7.02 18.2214 6.92V5.36C16.3414 5.42 15.4414 6.24 14.7814 7.42V5.54H13.1214V16ZM23.1633 16.18C24.7033 16.18 25.6433 15.66 26.4233 14.68V16H28.0833V9.1C28.0833 6.18 26.2633 5.36 24.2633 5.36C22.2433 5.36 20.3433 6.24 20.1233 8.62H21.7833C21.9433 7.34 22.7433 6.74 24.1833 6.74C25.7833 6.74 26.4233 7.44 26.4233 9.1V9.86H24.9233C22.2433 9.86 19.6833 10.68 19.6833 13.1C19.6833 15.24 21.2233 16.18 23.1633 16.18ZM23.3233 14.86C21.8633 14.86 21.3433 14.18 21.3433 13.1C21.3433 11.56 22.8833 11.04 24.9833 11.04H26.4233V12.34C26.4233 13.96 25.0833 14.86 23.3233 14.86ZM31.3441 16H33.0041V9.66C33.0041 7.78 34.3841 6.8 35.9241 6.8C37.6041 6.8 38.3841 7.62 38.3841 9.46V16H40.0441V9.58C40.0441 6.54 38.5241 5.36 36.3641 5.36C34.6441 5.36 33.4841 6.22 33.0041 7.2V5.54H31.3441V16ZM47.2372 16.18C48.7572 16.18 50.2172 15.22 50.8172 14.2V16H52.4772V0.539999H50.8172V7.22C50.2172 6.2 49.1372 5.36 47.3972 5.36C44.5172 5.36 42.5172 7.62 42.5172 10.82V10.98C42.5172 14.24 44.4972 16.18 47.2372 16.18ZM47.4172 14.8C45.6572 14.8 44.2372 13.54 44.2372 10.9V10.74C44.2372 8.2 45.4772 6.74 47.5572 6.74C49.5972 6.74 50.8772 8 50.8772 10.68V10.84C50.8772 13.52 49.3572 14.8 47.4172 14.8ZM61.1292 16H62.7892V9.66C62.7892 7.78 64.1692 6.8 65.7092 6.8C67.3892 6.8 68.1692 7.62 68.1692 9.46V16H69.8292V9.58C69.8292 6.54 68.3092 5.36 66.1492 5.36C64.4292 5.36 63.2692 6.22 62.7892 7.2V5.54H61.1292V16ZM75.7023 16.18C77.2423 16.18 78.1823 15.66 78.9623 14.68V16H80.6223V9.1C80.6223 6.18 78.8023 5.36 76.8023 5.36C74.7823 5.36 72.8823 6.24 72.6623 8.62H74.3223C74.4823 7.34 75.2823 6.74 76.7223 6.74C78.3223 6.74 78.9623 7.44 78.9623 9.1V9.86H77.4623C74.7823 9.86 72.2223 10.68 72.2223 13.1C72.2223 15.24 73.7623 16.18 75.7023 16.18ZM75.8623 14.86C74.4023 14.86 73.8823 14.18 73.8823 13.1C73.8823 11.56 75.4223 11.04 77.5223 11.04H78.9623V12.34C78.9623 13.96 77.6223 14.86 75.8623 14.86ZM83.8831 16H85.5431V9.6C85.5431 7.72 86.9431 6.8 88.3031 6.8C89.7431 6.8 90.5231 7.56 90.5231 9.4V16H92.1831V9.6C92.1831 7.72 93.5831 6.8 94.9431 6.8C96.3831 6.8 97.1631 7.56 97.1631 9.4V16H98.8231V9.52C98.8231 6.48 97.1831 5.36 95.3031 5.36C94.0031 5.36 92.4431 5.96 91.7231 7.32C91.1831 5.92 90.0031 5.36 88.6631 5.36C87.1631 5.36 86.0231 6.16 85.5431 7.14V5.54H83.8831V16ZM106.366 16.18C108.726 16.18 110.466 15.08 110.826 12.98H109.166C108.946 14.2 108.006 14.8 106.386 14.8C104.246 14.8 103.106 13.48 103.026 11.1H110.906V10.56C110.906 6.82 108.626 5.36 106.206 5.36C103.326 5.36 101.306 7.56 101.306 10.72V10.88C101.306 14.1 103.406 16.18 106.366 16.18ZM103.086 9.76C103.366 7.9 104.506 6.74 106.206 6.74C107.926 6.74 109.046 7.6 109.206 9.76H103.086ZM119.846 7.82L121.246 5.42L122.726 7.82L123.846 7L122.186 4.78L124.666 4.2L124.226 2.86L121.886 3.82L122.026 1.14H120.566L120.706 3.82L118.346 2.86L117.906 4.2L120.366 4.78L118.706 7L119.846 7.82Z" fill="black"/>
</svg>
