<svg width="42" height="32" viewBox="0 0 42 32" fill="none" xmlns="http://www.w3.org/2000/svg">
<path d="M29.8631 5.93875L27.3675 1.99563C26.8416 1.3825 26.1206 1 25.3125 1H16.6875C15.8794 1 15.1584 1.3825 14.6325 1.99563L12.1369 5.93875C11.6109 6.55281 10.9331 7 10.125 7H4.5C3.70435 7 2.94129 7.31607 2.37868 7.87868C1.81607 8.44129 1.5 9.20435 1.5 10V28C1.5 28.7956 1.81607 29.5587 2.37868 30.1213C2.94129 30.6839 3.70435 31 4.5 31H37.5C38.2956 31 39.0587 30.6839 39.6213 30.1213C40.1839 29.5587 40.5 28.7956 40.5 28V10C40.5 9.20435 40.1839 8.44129 39.6213 7.87868C39.0587 7.31607 38.2956 7 37.5 7H31.9688C31.1578 7 30.3891 6.55281 29.8631 5.93875Z" stroke="black" stroke-width="1.5" stroke-linecap="round" stroke-linejoin="round"/>
</svg>
