<svg width="386" height="35" viewBox="0 0 386 35" fill="none" xmlns="http://www.w3.org/2000/svg">
<path d="M13.22 28.36C19.34 28.36 23.732 25.228 24.488 19.036H19.808C19.304 22.672 16.784 24.472 13.22 24.472C8.468 24.472 5.696 21.052 5.696 15.256V14.968C5.696 9.208 8.648 5.68 13.184 5.68C16.892 5.68 18.8 7.444 19.34 10.864H24.2C23.624 4.816 19.052 1.864 13.148 1.864C5.984 1.864 0.656 7.264 0.656 15.004V15.292C0.656 23.212 5.156 28.36 13.22 28.36ZM37.4196 24.976C34.1076 24.976 32.1996 22.564 32.1996 18.712V18.424C32.1996 14.536 34.1796 12.196 37.4196 12.196C40.6596 12.196 42.6036 14.572 42.6036 18.46V18.712C42.6036 22.564 40.6596 24.976 37.4196 24.976ZM37.3836 28.36C42.9276 28.36 47.0676 24.544 47.0676 18.676V18.388C47.0676 12.628 42.9276 8.776 37.4196 8.776C31.8756 8.776 27.7356 12.664 27.7356 18.496V18.784C27.7356 24.508 31.8396 28.36 37.3836 28.36ZM51.7234 28H56.0794V16.912C56.0794 13.924 58.0594 12.412 60.5074 12.412C63.0994 12.412 64.2514 13.708 64.2514 16.552V28H68.6074V16.156C68.6074 10.972 65.9434 8.776 62.1634 8.776C59.0674 8.776 56.9794 10.324 56.0794 12.16V9.172H51.7234V28ZM75.1018 28H79.4578V12.448H83.7418V9.172H79.4578V6.472C79.4578 4.852 80.1778 3.7 81.9058 3.7C82.6978 3.7 83.2378 3.772 83.7418 3.988V0.603999C83.0578 0.387999 82.4458 0.279999 81.3658 0.279999C77.3698 0.279999 75.1018 2.512 75.1018 6.652V9.172H72.5458V12.448H75.1018V28ZM87.7245 28H92.0805V9.172H87.7245V28ZM89.8485 6.076C91.2885 6.076 92.4405 4.996 92.4405 3.592C92.4405 2.152 91.2885 1.072 89.8485 1.072C88.4085 1.072 87.2565 2.152 87.2565 3.592C87.2565 4.996 88.4085 6.076 89.8485 6.076ZM98.11 28H102.466V18.208C102.466 14.212 104.77 12.988 108.586 12.952V8.884C105.418 8.92 103.654 10.324 102.466 12.7V9.172H98.11V28ZM113.139 28H117.495V16.732C117.495 13.852 119.475 12.412 121.635 12.412C123.759 12.412 124.983 13.6 124.983 16.372V28H129.339V16.732C129.339 13.852 131.319 12.412 133.479 12.412C135.639 12.412 136.827 13.6 136.827 16.372V28H141.183V16.084C141.183 10.9 138.375 8.776 134.919 8.776C132.579 8.776 129.987 9.82 128.547 12.16C127.611 9.82 125.667 8.776 123.219 8.776C120.447 8.776 118.395 10.288 117.495 12.052V9.172H113.139V28ZM158.292 34.444H162.576L172.836 9.172H168.588L163.98 21.304L158.976 9.172H154.26L161.712 26.092L158.292 34.444ZM184.543 24.976C181.231 24.976 179.323 22.564 179.323 18.712V18.424C179.323 14.536 181.303 12.196 184.543 12.196C187.783 12.196 189.727 14.572 189.727 18.46V18.712C189.727 22.564 187.783 24.976 184.543 24.976ZM184.507 28.36C190.051 28.36 194.191 24.544 194.191 18.676V18.388C194.191 12.628 190.051 8.776 184.543 8.776C178.999 8.776 174.859 12.664 174.859 18.496V18.784C174.859 24.508 178.963 28.36 184.507 28.36ZM205.147 28.36C208.207 28.36 210.187 26.884 211.123 25.048V28H215.479V9.172H211.123V20.368C211.123 23.356 209.071 24.868 206.731 24.868C204.211 24.868 203.023 23.572 203.023 20.728V9.172H198.667V21.232C198.667 26.236 201.439 28.36 205.147 28.36ZM221.364 28H225.72V18.208C225.72 14.212 228.024 12.988 231.84 12.952V8.884C228.672 8.92 226.908 10.324 225.72 12.7V9.172H221.364V28ZM245.798 28H250.154V0.459998H245.798V28ZM264.608 24.976C261.296 24.976 259.388 22.564 259.388 18.712V18.424C259.388 14.536 261.368 12.196 264.608 12.196C267.848 12.196 269.792 14.572 269.792 18.46V18.712C269.792 22.564 267.848 24.976 264.608 24.976ZM264.572 28.36C270.116 28.36 274.256 24.544 274.256 18.676V18.388C274.256 12.628 270.116 8.776 264.608 8.776C259.064 8.776 254.924 12.664 254.924 18.496V18.784C254.924 24.508 259.028 28.36 264.572 28.36ZM287.156 28.36C292.268 28.36 295.544 25.3 295.868 20.98H291.872C291.62 23.644 289.64 25.012 287.336 25.012C284.132 25.012 282.116 22.852 282.116 18.748V18.46C282.116 14.572 284.24 12.268 287.228 12.268C289.532 12.268 291.188 13.312 291.548 15.832H295.76C295.256 10.648 291.332 8.776 287.156 8.776C281.9 8.776 277.652 12.556 277.652 18.532V18.82C277.652 24.832 281.756 28.36 287.156 28.36ZM305.271 28.36C308.151 28.36 309.807 27.316 311.031 25.696V28H315.315V15.652C315.315 10.504 312.003 8.776 307.791 8.776C303.579 8.776 300.087 10.612 299.727 15.004H303.939C304.155 13.132 305.271 12.052 307.539 12.052C310.095 12.052 310.959 13.312 310.959 15.832V16.804H308.619C303.219 16.804 298.971 18.388 298.971 22.78C298.971 26.704 301.815 28.36 305.271 28.36ZM306.315 25.228C304.155 25.228 303.291 24.184 303.291 22.6C303.291 20.296 305.415 19.54 308.727 19.54H310.959V21.412C310.959 23.824 308.979 25.228 306.315 25.228ZM327.435 28.324C328.767 28.324 329.703 28.108 330.387 27.856V24.4C329.775 24.652 329.127 24.76 328.263 24.76C326.895 24.76 326.103 24.004 326.103 22.348V12.448H330.243V9.172H326.103V5.032H321.747V9.172H319.227V12.448H321.747V22.744C321.747 26.308 323.691 28.324 327.435 28.324ZM335.144 28H339.5V9.172H335.144V28ZM337.268 6.076C338.708 6.076 339.86 4.996 339.86 3.592C339.86 2.152 338.708 1.072 337.268 1.072C335.828 1.072 334.676 2.152 334.676 3.592C334.676 4.996 335.828 6.076 337.268 6.076ZM353.954 24.976C350.642 24.976 348.734 22.564 348.734 18.712V18.424C348.734 14.536 350.714 12.196 353.954 12.196C357.194 12.196 359.138 14.572 359.138 18.46V18.712C359.138 22.564 357.194 24.976 353.954 24.976ZM353.918 28.36C359.462 28.36 363.602 24.544 363.602 18.676V18.388C363.602 12.628 359.462 8.776 353.954 8.776C348.41 8.776 344.27 12.664 344.27 18.496V18.784C344.27 24.508 348.374 28.36 353.918 28.36ZM368.258 28H372.614V16.912C372.614 13.924 374.594 12.412 377.042 12.412C379.634 12.412 380.786 13.708 380.786 16.552V28H385.142V16.156C385.142 10.972 382.478 8.776 378.698 8.776C375.602 8.776 373.514 10.324 372.614 12.16V9.172H368.258V28Z" fill="#002F34" fill-opacity="0.8"/>
</svg>
