<svg width="120" height="19" viewBox="0 0 120 19" fill="none" xmlns="http://www.w3.org/2000/svg">
<path d="M2.54 13.58V2.1H4.48C8.42 2.1 10.02 4.42 10.02 7.72V7.88C10.02 11.38 8.18 13.58 4.5 13.58H2.54ZM0.8 15H4.54C9.54 15 11.82 11.86 11.82 7.9V7.72C11.82 3.74 9.5 0.699999 4.58 0.699999H0.8V15ZM18.8858 15.18C21.2458 15.18 22.9858 14.08 23.3458 11.98H21.6858C21.4658 13.2 20.5258 13.8 18.9058 13.8C16.7658 13.8 15.6258 12.48 15.5458 10.1H23.4258V9.56C23.4258 5.82 21.1458 4.36 18.7258 4.36C15.8458 4.36 13.8258 6.56 13.8258 9.72V9.88C13.8258 13.1 15.9258 15.18 18.8858 15.18ZM15.6058 8.76C15.8858 6.9 17.0258 5.74 18.7258 5.74C20.4458 5.74 21.5658 6.6 21.7258 8.76H15.6058ZM29.3106 15.18C31.8506 15.18 33.1506 13.9 33.1506 12C33.1506 9.78 31.6306 9.3 29.4706 8.9C27.5506 8.56 27.0306 8.18 27.0306 7.24C27.0306 6.34 27.8106 5.74 29.0106 5.74C30.3306 5.74 30.9706 6.24 31.2106 7.38H32.8106C32.5306 5.12 30.9106 4.36 29.0306 4.36C27.3906 4.36 25.4906 5.36 25.4906 7.3C25.4906 9.12 26.4106 9.88 29.1306 10.38C30.7506 10.68 31.5706 11.04 31.5706 12.14C31.5706 13.26 30.8706 13.8 29.2906 13.8C27.6106 13.8 26.9506 13.02 26.8306 11.78H25.2106C25.3106 13.92 26.8106 15.18 29.3106 15.18ZM40.02 15.18C42.54 15.18 44.36 13.5 44.58 11.24H43.04C42.86 12.94 41.52 13.8 40.04 13.8C38.02 13.8 36.62 12.44 36.62 9.88V9.72C36.62 7.26 38.08 5.74 39.98 5.74C41.42 5.74 42.62 6.36 42.88 8.02H44.52C44.2 5.36 42.16 4.36 39.98 4.36C37.18 4.36 34.9 6.52 34.9 9.72V9.88C34.9 13.12 37.1 15.18 40.02 15.18ZM47.0863 15H48.7463V9.26C48.7463 6.68 50.0863 6.02 52.1863 5.92V4.36C50.3063 4.42 49.4063 5.24 48.7463 6.42V4.54H47.0863V15ZM54.6458 15H56.3058V4.54H54.6458V15ZM55.4458 2.36C56.0458 2.36 56.5458 1.86 56.5458 1.26C56.5458 0.66 56.0458 0.159999 55.4458 0.159999C54.8458 0.159999 54.3458 0.66 54.3458 1.26C54.3458 1.86 54.8458 2.36 55.4458 2.36ZM59.7034 18.64H61.3634V13.28C61.9634 14.32 63.1834 15.18 64.9034 15.18C67.7834 15.18 69.6634 12.98 69.6634 9.78V9.62C69.6634 6.36 67.6434 4.36 64.9034 4.36C63.3834 4.36 61.9634 5.28 61.3634 6.3V4.54H59.7034V18.64ZM64.7434 13.8C62.7034 13.8 61.3034 12.54 61.3034 9.86V9.7C61.3034 7.02 62.7834 5.74 64.7234 5.74C66.4834 5.74 67.9434 7.06 67.9434 9.7V9.86C67.9434 12.4 66.8234 13.8 64.7434 13.8ZM75.4225 15.14C76.1025 15.14 76.5025 15.04 76.8425 14.92V13.52C76.4825 13.66 76.0825 13.74 75.5625 13.74C74.7225 13.74 74.2625 13.24 74.2625 12.22V5.94H76.7025V4.54H74.2625V2.16H72.6025V4.54H71.1025V5.94H72.6025V12.38C72.6025 14.02 73.5225 15.14 75.4225 15.14ZM79.3919 15H81.0519V4.54H79.3919V15ZM80.1919 2.36C80.7919 2.36 81.2919 1.86 81.2919 1.26C81.2919 0.66 80.7919 0.159999 80.1919 0.159999C79.5919 0.159999 79.0919 0.66 79.0919 1.26C79.0919 1.86 79.5919 2.36 80.1919 2.36ZM88.8095 13.8C86.6895 13.8 85.3895 12.24 85.3895 9.86V9.7C85.3895 7.3 86.7095 5.74 88.8095 5.74C90.8895 5.74 92.2295 7.3 92.2295 9.72V9.86C92.2295 12.22 90.9095 13.8 88.8095 13.8ZM88.7895 15.18C91.7695 15.18 93.9495 13 93.9495 9.84V9.68C93.9495 6.54 91.7695 4.36 88.8095 4.36C85.8495 4.36 83.6695 6.56 83.6695 9.7V9.86C83.6695 12.92 85.8095 15.18 88.7895 15.18ZM96.5198 15H98.1798V8.66C98.1798 6.78 99.5598 5.8 101.1 5.8C102.78 5.8 103.56 6.62 103.56 8.46V15H105.22V8.58C105.22 5.54 103.7 4.36 101.54 4.36C99.8198 4.36 98.6598 5.22 98.1798 6.2V4.54H96.5198V15ZM114.866 6.82L116.266 4.42L117.746 6.82L118.866 6L117.206 3.78L119.686 3.2L119.246 1.86L116.906 2.82L117.046 0.139999H115.586L115.726 2.82L113.366 1.86L112.926 3.2L115.386 3.78L113.726 6L114.866 6.82Z" fill="black"/>
</svg>
