<svg width="178" height="14" viewBox="0 0 178 14" fill="none" xmlns="http://www.w3.org/2000/svg">
<path d="M0.312 13H2.44V8.312H6.344V6.664H2.44V3.256H7.4V1.56H0.312V13ZM8.777 13H10.713V8.648C10.713 6.872 11.737 6.328 13.433 6.312V4.504C12.025 4.52 11.241 5.144 10.713 6.2V4.632H8.777V13ZM18.6601 13.16C20.8041 13.16 22.2281 12.2 22.5001 10.44H20.6281C20.4841 11.256 19.8761 11.72 18.7081 11.72C17.2681 11.72 16.4681 10.824 16.4041 9.24H22.5321V8.68C22.5321 5.688 20.6601 4.456 18.5801 4.456C16.1961 4.456 14.4201 6.184 14.4201 8.776V8.904C14.4201 11.544 16.1961 13.16 18.6601 13.16ZM16.4361 7.944C16.6281 6.648 17.4121 5.864 18.5801 5.864C19.7801 5.864 20.5161 6.504 20.6121 7.944H16.4361ZM27.9414 13.16C30.0854 13.16 31.5094 12.2 31.7814 10.44H29.9094C29.7654 11.256 29.1574 11.72 27.9894 11.72C26.5494 11.72 25.7494 10.824 25.6854 9.24H31.8134V8.68C31.8134 5.688 29.9414 4.456 27.8614 4.456C25.4774 4.456 23.7014 6.184 23.7014 8.776V8.904C23.7014 11.544 25.4774 13.16 27.9414 13.16ZM25.7174 7.944C25.9094 6.648 26.6934 5.864 27.8614 5.864C29.0614 5.864 29.7974 6.504 29.8934 7.944H25.7174ZM42.5231 13.16C45.2431 13.16 47.1951 11.768 47.5311 9.016H45.4511C45.2271 10.632 44.1071 11.432 42.5231 11.432C40.4111 11.432 39.1791 9.912 39.1791 7.336V7.208C39.1791 4.648 40.4911 3.08 42.5071 3.08C44.1551 3.08 45.0031 3.864 45.2431 5.384H47.4031C47.1471 2.696 45.1151 1.384 42.4911 1.384C39.3071 1.384 36.9391 3.784 36.9391 7.224V7.352C36.9391 10.872 38.9391 13.16 42.5231 13.16ZM49.2625 13H51.1985V0.759999H49.2625V13ZM55.7503 13.16C57.0303 13.16 57.7663 12.696 58.3103 11.976V13H60.2143V7.512C60.2143 5.224 58.7423 4.456 56.8703 4.456C54.9983 4.456 53.4463 5.272 53.2863 7.224H55.1583C55.2543 6.392 55.7503 5.912 56.7583 5.912C57.8943 5.912 58.2783 6.472 58.2783 7.592V8.024H57.2383C54.8383 8.024 52.9503 8.728 52.9503 10.68C52.9503 12.424 54.2143 13.16 55.7503 13.16ZM56.2143 11.768C55.2543 11.768 54.8703 11.304 54.8703 10.6C54.8703 9.576 55.8143 9.24 57.2863 9.24H58.2783V10.072C58.2783 11.144 57.3983 11.768 56.2143 11.768ZM65.2973 13.16C67.4413 13.16 68.6413 12.184 68.6413 10.488C68.6413 8.712 67.4733 8.232 65.5052 7.928C64.1773 7.704 63.7773 7.464 63.7773 6.856C63.7773 6.264 64.2733 5.864 65.1053 5.864C66.0013 5.864 66.4333 6.216 66.5933 6.984H68.3853C68.1773 5.096 66.8173 4.456 65.1053 4.456C63.5373 4.456 61.9693 5.288 61.9693 6.968C61.9693 8.536 62.7853 9.16 64.9933 9.512C66.2253 9.72 66.7853 9.976 66.7853 10.664C66.7853 11.368 66.3213 11.736 65.2812 11.736C64.1453 11.736 63.7133 11.24 63.6173 10.392H61.7933C61.8733 12.168 63.1373 13.16 65.2973 13.16ZM73.2035 13.16C75.3475 13.16 76.5475 12.184 76.5475 10.488C76.5475 8.712 75.3795 8.232 73.4115 7.928C72.0835 7.704 71.6835 7.464 71.6835 6.856C71.6835 6.264 72.1795 5.864 73.0115 5.864C73.9075 5.864 74.3395 6.216 74.4995 6.984H76.2915C76.0835 5.096 74.7235 4.456 73.0115 4.456C71.4435 4.456 69.8755 5.288 69.8755 6.968C69.8755 8.536 70.6915 9.16 72.8995 9.512C74.1315 9.72 74.6915 9.976 74.6915 10.664C74.6915 11.368 74.2275 11.736 73.1875 11.736C72.0515 11.736 71.6195 11.24 71.5235 10.392H69.6995C69.7795 12.168 71.0435 13.16 73.2035 13.16ZM78.2938 13H80.2298V4.632H78.2938V13ZM79.2378 3.256C79.8778 3.256 80.3898 2.776 80.3898 2.152C80.3898 1.512 79.8778 1.032 79.2378 1.032C78.5978 1.032 78.0858 1.512 78.0858 2.152C78.0858 2.776 78.5978 3.256 79.2378 3.256ZM82.9255 13H84.8615V6.088H86.7655V4.632H84.8615V3.432C84.8615 2.712 85.1815 2.2 85.9495 2.2C86.3015 2.2 86.5415 2.232 86.7655 2.328V0.823999C86.4615 0.728 86.1895 0.679999 85.7095 0.679999C83.9335 0.679999 82.9255 1.672 82.9255 3.512V4.632H81.7895V6.088H82.9255V13ZM88.2156 13H90.1516V4.632H88.2156V13ZM89.1596 3.256C89.7996 3.256 90.3116 2.776 90.3116 2.152C90.3116 1.512 89.7996 1.032 89.1596 1.032C88.5196 1.032 88.0076 1.512 88.0076 2.152C88.0076 2.776 88.5196 3.256 89.1596 3.256ZM96.1914 13.16C98.3354 13.16 99.7594 12.2 100.031 10.44H98.1594C98.0154 11.256 97.4074 11.72 96.2394 11.72C94.7994 11.72 93.9994 10.824 93.9354 9.24H100.063V8.68C100.063 5.688 98.1914 4.456 96.1114 4.456C93.7274 4.456 91.9514 6.184 91.9514 8.776V8.904C91.9514 11.544 93.7274 13.16 96.1914 13.16ZM93.9674 7.944C94.1594 6.648 94.9434 5.864 96.1114 5.864C97.3114 5.864 98.0474 6.504 98.1434 7.944H93.9674ZM104.929 13.16C106.161 13.16 107.233 12.424 107.681 11.592V13H109.617V0.759999H107.681V5.912C107.217 5.08 106.369 4.456 105.009 4.456C102.833 4.456 101.249 6.152 101.249 8.824V8.952C101.249 11.672 102.833 13.16 104.929 13.16ZM105.409 11.624C104.161 11.624 103.233 10.744 103.233 8.904V8.776C103.233 6.968 104.065 5.976 105.489 5.976C106.897 5.976 107.745 6.888 107.745 8.728V8.856C107.745 10.728 106.753 11.624 105.409 11.624ZM114.782 13.16C116.926 13.16 118.126 12.184 118.126 10.488C118.126 8.712 116.958 8.232 114.99 7.928C113.662 7.704 113.262 7.464 113.262 6.856C113.262 6.264 113.758 5.864 114.59 5.864C115.486 5.864 115.918 6.216 116.078 6.984H117.87C117.662 5.096 116.302 4.456 114.59 4.456C113.022 4.456 111.454 5.288 111.454 6.968C111.454 8.536 112.27 9.16 114.478 9.512C115.71 9.72 116.27 9.976 116.27 10.664C116.27 11.368 115.806 11.736 114.766 11.736C113.63 11.736 113.198 11.24 113.102 10.392H111.278C111.358 12.168 112.622 13.16 114.782 13.16ZM123.684 13H125.62V4.632H123.684V13ZM124.628 3.256C125.268 3.256 125.78 2.776 125.78 2.152C125.78 1.512 125.268 1.032 124.628 1.032C123.988 1.032 123.476 1.512 123.476 2.152C123.476 2.776 123.988 3.256 124.628 3.256ZM127.98 13H129.916V8.072C129.916 6.744 130.796 6.072 131.884 6.072C133.036 6.072 133.548 6.648 133.548 7.912V13H135.484V7.736C135.484 5.432 134.3 4.456 132.62 4.456C131.244 4.456 130.316 5.144 129.916 5.96V4.632H127.98V13ZM141.751 13H143.895V1.56H141.751V13ZM146.433 13H148.369V8.072C148.369 6.744 149.249 6.072 150.337 6.072C151.489 6.072 152.001 6.648 152.001 7.912V13H153.937V7.736C153.937 5.432 152.753 4.456 151.073 4.456C149.697 4.456 148.769 5.144 148.369 5.96V4.632H146.433V13ZM159.304 13.16C160.536 13.16 161.608 12.424 162.056 11.592V13H163.992V0.759999H162.056V5.912C161.592 5.08 160.744 4.456 159.384 4.456C157.208 4.456 155.624 6.152 155.624 8.824V8.952C155.624 11.672 157.208 13.16 159.304 13.16ZM159.784 11.624C158.536 11.624 157.608 10.744 157.608 8.904V8.776C157.608 6.968 158.44 5.976 159.864 5.976C161.272 5.976 162.12 6.888 162.12 8.728V8.856C162.12 10.728 161.128 11.624 159.784 11.624ZM166.341 13H168.277V4.632H166.341V13ZM167.285 3.256C167.925 3.256 168.437 2.776 168.437 2.152C168.437 1.512 167.925 1.032 167.285 1.032C166.645 1.032 166.133 1.512 166.133 2.152C166.133 2.776 166.645 3.256 167.285 3.256ZM172.828 13.16C174.108 13.16 174.844 12.696 175.388 11.976V13H177.292V7.512C177.292 5.224 175.82 4.456 173.948 4.456C172.076 4.456 170.524 5.272 170.364 7.224H172.236C172.332 6.392 172.828 5.912 173.836 5.912C174.972 5.912 175.356 6.472 175.356 7.592V8.024H174.316C171.916 8.024 170.028 8.728 170.028 10.68C170.028 12.424 171.292 13.16 172.828 13.16ZM173.292 11.768C172.332 11.768 171.948 11.304 171.948 10.6C171.948 9.576 172.892 9.24 174.364 9.24H175.356V10.072C175.356 11.144 174.476 11.768 173.292 11.768Z" fill="white"/>
</svg>
