<svg width="317" height="29" viewBox="0 0 317 29" fill="none" xmlns="http://www.w3.org/2000/svg">
<path d="M0.0960001 28H4.92V2.26H0.0960001V28ZM11.3511 28H15.7071V16.912C15.7071 13.924 17.6871 12.412 20.1351 12.412C22.7271 12.412 23.8791 13.708 23.8791 16.552V28H28.2351V16.156C28.2351 10.972 25.5711 8.776 21.7911 8.776C18.6951 8.776 16.6071 10.324 15.7071 12.16V9.172H11.3511V28ZM42.2174 28.36C47.3294 28.36 50.6054 25.3 50.9294 20.98H46.9334C46.6814 23.644 44.7014 25.012 42.3974 25.012C39.1934 25.012 37.1774 22.852 37.1774 18.748V18.46C37.1774 14.572 39.3014 12.268 42.2894 12.268C44.5934 12.268 46.2494 13.312 46.6094 15.832H50.8214C50.3174 10.648 46.3934 8.776 42.2174 8.776C36.9614 8.776 32.7134 12.556 32.7134 18.532V18.82C32.7134 24.832 36.8174 28.36 42.2174 28.36ZM55.5084 28H59.8644V0.459998H55.5084V28ZM72.1939 28.36C75.2539 28.36 77.2339 26.884 78.1699 25.048V28H82.5259V9.172H78.1699V20.368C78.1699 23.356 76.1179 24.868 73.7779 24.868C71.2579 24.868 70.0699 23.572 70.0699 20.728V9.172H65.7139V21.232C65.7139 26.236 68.4859 28.36 72.1939 28.36ZM95.4667 28.36C98.2387 28.36 100.651 26.704 101.659 24.832V28H106.015V0.459998H101.659V12.052C100.615 10.18 98.7067 8.776 95.6467 8.776C90.7507 8.776 87.1867 12.592 87.1867 18.604V18.892C87.1867 25.012 90.7507 28.36 95.4667 28.36ZM96.5467 24.904C93.7387 24.904 91.6507 22.924 91.6507 18.784V18.496C91.6507 14.428 93.5227 12.196 96.7267 12.196C99.8947 12.196 101.803 14.248 101.803 18.388V18.676C101.803 22.888 99.5707 24.904 96.5467 24.904ZM120.192 28.36C125.016 28.36 128.22 26.2 128.832 22.24H124.62C124.296 24.076 122.928 25.12 120.3 25.12C117.06 25.12 115.26 23.104 115.116 19.54H128.904V18.28C128.904 11.548 124.692 8.776 120.012 8.776C114.648 8.776 110.652 12.664 110.652 18.496V18.784C110.652 24.724 114.648 28.36 120.192 28.36ZM115.188 16.624C115.62 13.708 117.384 11.944 120.012 11.944C122.712 11.944 124.368 13.384 124.584 16.624H115.188ZM141.193 28H145.693L147.709 21.628H157.537L159.589 28H164.557L156.061 2.26H149.797L141.193 28ZM152.641 6.184L156.421 18.136H148.825L152.641 6.184ZM175.55 28.36C178.322 28.36 180.734 26.704 181.742 24.832V28H186.098V0.459998H181.742V12.052C180.698 10.18 178.79 8.776 175.73 8.776C170.834 8.776 167.27 12.592 167.27 18.604V18.892C167.27 25.012 170.834 28.36 175.55 28.36ZM176.63 24.904C173.822 24.904 171.734 22.924 171.734 18.784V18.496C171.734 14.428 173.606 12.196 176.81 12.196C179.978 12.196 181.886 14.248 181.886 18.388V18.676C181.886 22.888 179.654 24.904 176.63 24.904ZM208.349 28.36C211.121 28.36 213.533 26.704 214.541 24.832V28H218.897V0.459998H214.541V12.052C213.497 10.18 211.589 8.776 208.529 8.776C203.633 8.776 200.069 12.592 200.069 18.604V18.892C200.069 25.012 203.633 28.36 208.349 28.36ZM209.429 24.904C206.621 24.904 204.533 22.924 204.533 18.784V18.496C204.533 14.428 206.405 12.196 209.609 12.196C212.777 12.196 214.685 14.248 214.685 18.388V18.676C214.685 22.888 212.453 24.904 209.429 24.904ZM233.074 28.36C237.899 28.36 241.103 26.2 241.715 22.24H237.502C237.178 24.076 235.811 25.12 233.182 25.12C229.942 25.12 228.142 23.104 227.998 19.54H241.787V18.28C241.787 11.548 237.574 8.776 232.895 8.776C227.53 8.776 223.534 12.664 223.534 18.496V18.784C223.534 24.724 227.53 28.36 233.074 28.36ZM228.07 16.624C228.502 13.708 230.266 11.944 232.895 11.944C235.594 11.944 237.25 13.384 237.467 16.624H228.07ZM252.805 28.324C254.137 28.324 255.073 28.108 255.757 27.856V24.4C255.145 24.652 254.497 24.76 253.633 24.76C252.265 24.76 251.473 24.004 251.473 22.348V12.448H255.613V9.172H251.473V5.032H247.117V9.172H244.597V12.448H247.117V22.744C247.117 26.308 249.061 28.324 252.805 28.324ZM265.514 28.36C268.394 28.36 270.05 27.316 271.274 25.696V28H275.558V15.652C275.558 10.504 272.246 8.776 268.034 8.776C263.822 8.776 260.33 10.612 259.97 15.004H264.182C264.398 13.132 265.514 12.052 267.782 12.052C270.338 12.052 271.202 13.312 271.202 15.832V16.804H268.862C263.462 16.804 259.214 18.388 259.214 22.78C259.214 26.704 262.058 28.36 265.514 28.36ZM266.558 25.228C264.398 25.228 263.534 24.184 263.534 22.6C263.534 20.296 265.658 19.54 268.97 19.54H271.202V21.412C271.202 23.824 269.222 25.228 266.558 25.228ZM281.379 28H285.735V9.172H281.379V28ZM283.503 6.076C284.943 6.076 286.095 4.996 286.095 3.592C286.095 2.152 284.943 1.072 283.503 1.072C282.063 1.072 280.911 2.152 280.911 3.592C280.911 4.996 282.063 6.076 283.503 6.076ZM291.872 28H296.228V0.459998H291.872V28ZM308.702 28.36C313.526 28.36 316.226 26.164 316.226 22.348C316.226 18.352 313.598 17.272 309.17 16.588C306.182 16.084 305.282 15.544 305.282 14.176C305.282 12.844 306.398 11.944 308.27 11.944C310.286 11.944 311.258 12.736 311.618 14.464H315.65C315.182 10.216 312.122 8.776 308.27 8.776C304.742 8.776 301.214 10.648 301.214 14.428C301.214 17.956 303.05 19.36 308.018 20.152C310.79 20.62 312.05 21.196 312.05 22.744C312.05 24.328 311.006 25.156 308.666 25.156C306.11 25.156 305.138 24.04 304.922 22.132H300.818C300.998 26.128 303.842 28.36 308.702 28.36Z" fill="#002F34" fill-opacity="0.8"/>
</svg>
