<svg width="71" height="17" viewBox="0 0 71 17" fill="none" xmlns="http://www.w3.org/2000/svg">
<path d="M0.8 16H2.4V3.96L7.3 16H7.84L12.58 3.96V16H14.32V1.7H11.92L7.64 12.84L3.22 1.7H0.8V16ZM22.1689 14.8C20.0489 14.8 18.7489 13.24 18.7489 10.86V10.7C18.7489 8.3 20.0689 6.74 22.1689 6.74C24.2489 6.74 25.5889 8.3 25.5889 10.72V10.86C25.5889 13.22 24.2689 14.8 22.1689 14.8ZM22.1489 16.18C25.1289 16.18 27.3089 14 27.3089 10.84V10.68C27.3089 7.54 25.1289 5.36 22.1689 5.36C19.2089 5.36 17.0289 7.56 17.0289 10.7V10.86C17.0289 13.92 19.1689 16.18 22.1489 16.18ZM33.8192 16.18C35.3392 16.18 36.7992 15.22 37.3992 14.2V16H39.0592V0.539999H37.3992V7.22C36.7992 6.2 35.7192 5.36 33.9792 5.36C31.0992 5.36 29.0992 7.62 29.0992 10.82V10.98C29.0992 14.24 31.0792 16.18 33.8192 16.18ZM33.9992 14.8C32.2392 14.8 30.8192 13.54 30.8192 10.9V10.74C30.8192 8.2 32.0592 6.74 34.1392 6.74C36.1792 6.74 37.4592 8 37.4592 10.68V10.84C37.4592 13.52 35.9392 14.8 33.9992 14.8ZM46.6983 16.18C49.0583 16.18 50.7983 15.08 51.1583 12.98H49.4983C49.2783 14.2 48.3383 14.8 46.7183 14.8C44.5783 14.8 43.4383 13.48 43.3583 11.1H51.2383V10.56C51.2383 6.82 48.9583 5.36 46.5383 5.36C43.6583 5.36 41.6383 7.56 41.6383 10.72V10.88C41.6383 14.1 43.7383 16.18 46.6983 16.18ZM43.4183 9.76C43.6983 7.9 44.8383 6.74 46.5383 6.74C48.2583 6.74 49.3783 7.6 49.5383 9.76H43.4183ZM53.8255 16H55.5055V0.539999H53.8255V16ZM65.2956 7.82L66.6956 5.42L68.1756 7.82L69.2956 7L67.6356 4.78L70.1156 4.2L69.6756 2.86L67.3356 3.82L67.4756 1.14H66.0156L66.1556 3.82L63.7956 2.86L63.3556 4.2L65.8156 4.78L64.1556 7L65.2956 7.82Z" fill="black"/>
</svg>
