<svg width="186" height="20" viewBox="0 0 186 20" fill="none" xmlns="http://www.w3.org/2000/svg">
<path d="M0.8 16H2.54V10.18H4.86C7.58 10.18 9.86 9 9.86 5.96V5.88C9.86 2.9 7.6 1.7 4.86 1.7H0.8V16ZM2.54 8.8V3.1H4.98C6.92 3.1 8.12 3.86 8.12 5.88V5.96C8.12 7.8 7.02 8.8 4.98 8.8H2.54ZM12.3011 16H13.9611V9.66C13.9611 7.78 15.3411 6.8 16.8811 6.8C18.5611 6.8 19.3411 7.62 19.3411 9.46V16H21.0011V9.58C21.0011 6.54 19.4811 5.36 17.3211 5.36C15.6011 5.36 14.4411 6.22 13.9611 7.2V0.539999H12.3011V16ZM24.9013 19.64H26.5813L32.3613 5.54H30.6613L27.7613 13.04L24.5613 5.54H22.7813L26.8813 14.92L24.9013 19.64ZM37.7872 16.18C40.3272 16.18 41.6272 14.9 41.6272 13C41.6272 10.78 40.1072 10.3 37.9472 9.9C36.0272 9.56 35.5072 9.18 35.5072 8.24C35.5072 7.34 36.2872 6.74 37.4872 6.74C38.8072 6.74 39.4472 7.24 39.6872 8.38H41.2872C41.0072 6.12 39.3872 5.36 37.5072 5.36C35.8672 5.36 33.9672 6.36 33.9672 8.3C33.9672 10.12 34.8872 10.88 37.6072 11.38C39.2272 11.68 40.0472 12.04 40.0472 13.14C40.0472 14.26 39.3472 14.8 37.7672 14.8C36.0872 14.8 35.4272 14.02 35.3072 12.78H33.6872C33.7872 14.92 35.2872 16.18 37.7872 16.18ZM44.1966 16H45.8566V5.54H44.1966V16ZM44.9966 3.36C45.5966 3.36 46.0966 2.86 46.0966 2.26C46.0966 1.66 45.5966 1.16 44.9966 1.16C44.3966 1.16 43.8966 1.66 43.8966 2.26C43.8966 2.86 44.3966 3.36 44.9966 3.36ZM53.5942 16.18C56.1142 16.18 57.9342 14.5 58.1542 12.24H56.6142C56.4342 13.94 55.0942 14.8 53.6142 14.8C51.5942 14.8 50.1942 13.44 50.1942 10.88V10.72C50.1942 8.26 51.6542 6.74 53.5542 6.74C54.9942 6.74 56.1942 7.36 56.4542 9.02H58.0942C57.7742 6.36 55.7342 5.36 53.5542 5.36C50.7542 5.36 48.4742 7.52 48.4742 10.72V10.88C48.4742 14.12 50.6742 16.18 53.5942 16.18ZM63.2805 16.18C64.8205 16.18 65.7605 15.66 66.5405 14.68V16H68.2005V9.1C68.2005 6.18 66.3805 5.36 64.3805 5.36C62.3605 5.36 60.4605 6.24 60.2405 8.62H61.9005C62.0605 7.34 62.8605 6.74 64.3005 6.74C65.9005 6.74 66.5405 7.44 66.5405 9.1V9.86H65.0405C62.3605 9.86 59.8005 10.68 59.8005 13.1C59.8005 15.24 61.3405 16.18 63.2805 16.18ZM63.4405 14.86C61.9805 14.86 61.4605 14.18 61.4605 13.1C61.4605 11.56 63.0005 11.04 65.1005 11.04H66.5405V12.34C66.5405 13.96 65.2005 14.86 63.4405 14.86ZM71.5013 16H73.1813V0.539999H71.5013V16ZM87.9714 16.18C91.1714 16.18 93.4514 14.56 93.9514 11.26H92.3314C91.9714 13.58 90.3514 14.76 88.0114 14.76C84.9314 14.76 83.0914 12.56 83.0914 8.92V8.76C83.0914 5.16 85.0714 2.86 88.0314 2.86C90.4714 2.86 91.7314 3.98 92.0914 6.16H93.8114C93.5114 3.06 90.9914 1.48 88.0114 1.48C84.1314 1.48 81.2914 4.54 81.2914 8.78V8.94C81.2914 13.34 83.8314 16.18 87.9714 16.18ZM100.841 14.8C98.7208 14.8 97.4208 13.24 97.4208 10.86V10.7C97.4208 8.3 98.7408 6.74 100.841 6.74C102.921 6.74 104.261 8.3 104.261 10.72V10.86C104.261 13.22 102.941 14.8 100.841 14.8ZM100.821 16.18C103.801 16.18 105.981 14 105.981 10.84V10.68C105.981 7.54 103.801 5.36 100.841 5.36C97.8808 5.36 95.7008 7.56 95.7008 10.7V10.86C95.7008 13.92 97.8408 16.18 100.821 16.18ZM108.551 16H110.211V9.66C110.211 7.78 111.591 6.8 113.131 6.8C114.811 6.8 115.591 7.62 115.591 9.46V16H117.251V9.58C117.251 6.54 115.731 5.36 113.571 5.36C111.851 5.36 110.691 6.22 110.211 7.2V5.54H108.551V16ZM124.444 16.18C125.964 16.18 127.424 15.22 128.024 14.2V16H129.684V0.539999H128.024V7.22C127.424 6.2 126.344 5.36 124.604 5.36C121.724 5.36 119.724 7.62 119.724 10.82V10.98C119.724 14.24 121.704 16.18 124.444 16.18ZM124.624 14.8C122.864 14.8 121.444 13.54 121.444 10.9V10.74C121.444 8.2 122.684 6.74 124.764 6.74C126.804 6.74 128.084 8 128.084 10.68V10.84C128.084 13.52 126.564 14.8 124.624 14.8ZM133.083 16H134.743V5.54H133.083V16ZM133.883 3.36C134.483 3.36 134.983 2.86 134.983 2.26C134.983 1.66 134.483 1.16 133.883 1.16C133.283 1.16 132.783 1.66 132.783 2.26C132.783 2.86 133.283 3.36 133.883 3.36ZM141.321 16.14C142.001 16.14 142.401 16.04 142.741 15.92V14.52C142.381 14.66 141.981 14.74 141.461 14.74C140.621 14.74 140.161 14.24 140.161 13.22V6.94H142.601V5.54H140.161V3.16H138.501V5.54H137.001V6.94H138.501V13.38C138.501 15.02 139.421 16.14 141.321 16.14ZM145.29 16H146.95V5.54H145.29V16ZM146.09 3.36C146.69 3.36 147.19 2.86 147.19 2.26C147.19 1.66 146.69 1.16 146.09 1.16C145.49 1.16 144.99 1.66 144.99 2.26C144.99 2.86 145.49 3.36 146.09 3.36ZM154.708 14.8C152.588 14.8 151.288 13.24 151.288 10.86V10.7C151.288 8.3 152.608 6.74 154.708 6.74C156.788 6.74 158.128 8.3 158.128 10.72V10.86C158.128 13.22 156.808 14.8 154.708 14.8ZM154.688 16.18C157.668 16.18 159.848 14 159.848 10.84V10.68C159.848 7.54 157.668 5.36 154.708 5.36C151.748 5.36 149.568 7.56 149.568 10.7V10.86C149.568 13.92 151.708 16.18 154.688 16.18ZM162.418 16H164.078V9.66C164.078 7.78 165.458 6.8 166.998 6.8C168.678 6.8 169.458 7.62 169.458 9.46V16H171.118V9.58C171.118 6.54 169.598 5.36 167.438 5.36C165.718 5.36 164.558 6.22 164.078 7.2V5.54H162.418V16ZM180.764 7.82L182.164 5.42L183.644 7.82L184.764 7L183.104 4.78L185.584 4.2L185.144 2.86L182.804 3.82L182.944 1.14H181.484L181.624 3.82L179.264 2.86L178.824 4.2L181.284 4.78L179.624 7L180.764 7.82Z" fill="black"/>
</svg>
