<svg width="88" height="17" viewBox="0 0 88 17" fill="none" xmlns="http://www.w3.org/2000/svg">
<path d="M0.8 16H2.54V10.18H4.86C7.58 10.18 9.86 9 9.86 5.96V5.88C9.86 2.9 7.6 1.7 4.86 1.7H0.8V16ZM2.54 8.8V3.1H4.98C6.92 3.1 8.12 3.86 8.12 5.88V5.96C8.12 7.8 7.02 8.8 4.98 8.8H2.54ZM12.3411 16H14.0011V5.54H12.3411V16ZM13.1411 3.36C13.7411 3.36 14.2411 2.86 14.2411 2.26C14.2411 1.66 13.7411 1.16 13.1411 1.16C12.5411 1.16 12.0411 1.66 12.0411 2.26C12.0411 2.86 12.5411 3.36 13.1411 3.36ZM17.3988 16H19.0588V9.66C19.0588 7.78 20.4388 6.8 21.9788 6.8C23.6588 6.8 24.4388 7.62 24.4388 9.46V16H26.0988V9.58C26.0988 6.54 24.5788 5.36 22.4188 5.36C20.6988 5.36 19.5388 6.22 19.0588 7.2V5.54H17.3988V16ZM33.6919 16.18C36.2119 16.18 38.0319 14.5 38.2519 12.24H36.7119C36.5319 13.94 35.1919 14.8 33.7119 14.8C31.6919 14.8 30.2919 13.44 30.2919 10.88V10.72C30.2919 8.26 31.7519 6.74 33.6519 6.74C35.0919 6.74 36.2919 7.36 36.5519 9.02H38.1919C37.8719 6.36 35.8319 5.36 33.6519 5.36C30.8519 5.36 28.5719 7.52 28.5719 10.72V10.88C28.5719 14.12 30.7719 16.18 33.6919 16.18ZM45.1181 14.8C42.9981 14.8 41.6981 13.24 41.6981 10.86V10.7C41.6981 8.3 43.0181 6.74 45.1181 6.74C47.1981 6.74 48.5381 8.3 48.5381 10.72V10.86C48.5381 13.22 47.2181 14.8 45.1181 14.8ZM45.0981 16.18C48.0781 16.18 50.2581 14 50.2581 10.84V10.68C50.2581 7.54 48.0781 5.36 45.1181 5.36C42.1581 5.36 39.9781 7.56 39.9781 10.7V10.86C39.9781 13.92 42.1181 16.18 45.0981 16.18ZM56.7684 16.18C58.2884 16.18 59.7484 15.22 60.3484 14.2V16H62.0084V0.539999H60.3484V7.22C59.7484 6.2 58.6684 5.36 56.9284 5.36C54.0484 5.36 52.0484 7.62 52.0484 10.82V10.98C52.0484 14.24 54.0284 16.18 56.7684 16.18ZM56.9484 14.8C55.1884 14.8 53.7684 13.54 53.7684 10.9V10.74C53.7684 8.2 55.0084 6.74 57.0884 6.74C59.1284 6.74 60.4084 8 60.4084 10.68V10.84C60.4084 13.52 58.8884 14.8 56.9484 14.8ZM69.6475 16.18C72.0075 16.18 73.7475 15.08 74.1075 12.98H72.4475C72.2275 14.2 71.2875 14.8 69.6675 14.8C67.5275 14.8 66.3875 13.48 66.3075 11.1H74.1875V10.56C74.1875 6.82 71.9075 5.36 69.4875 5.36C66.6075 5.36 64.5875 7.56 64.5875 10.72V10.88C64.5875 14.1 66.6875 16.18 69.6475 16.18ZM66.3675 9.76C66.6475 7.9 67.7875 6.74 69.4875 6.74C71.2075 6.74 72.3275 7.6 72.4875 9.76H66.3675ZM83.1277 7.82L84.5277 5.42L86.0077 7.82L87.1277 7L85.4677 4.78L87.9477 4.2L87.5077 2.86L85.1677 3.82L85.3077 1.14H83.8477L83.9877 3.82L81.6277 2.86L81.1877 4.2L83.6477 4.78L81.9877 7L83.1277 7.82Z" fill="black"/>
</svg>
