<svg width="88" height="20" viewBox="0 0 88 20" fill="none" xmlns="http://www.w3.org/2000/svg">
<path d="M0.968 19H4.16V12.472H6.56C10.232 12.472 12.848 10.864 12.848 7.24V7.144C12.848 3.544 10.328 1.84 6.488 1.84H0.968V19ZM4.16 10.168V4.312H6.488C8.528 4.312 9.728 5.104 9.728 7.144V7.24C9.728 9.136 8.6 10.168 6.488 10.168H4.16ZM21.0974 16.984C18.8894 16.984 17.6174 15.376 17.6174 12.808V12.616C17.6174 10.024 18.9374 8.464 21.0974 8.464C23.2574 8.464 24.5534 10.048 24.5534 12.64V12.808C24.5534 15.376 23.2574 16.984 21.0974 16.984ZM21.0734 19.24C24.7694 19.24 27.5294 16.696 27.5294 12.784V12.592C27.5294 8.752 24.7694 6.184 21.0974 6.184C17.4014 6.184 14.6414 8.776 14.6414 12.664V12.856C14.6414 16.672 17.3774 19.24 21.0734 19.24ZM34.9293 19.24C38.1453 19.24 39.9453 17.776 39.9453 15.232C39.9453 12.568 38.1933 11.848 35.2413 11.392C33.2493 11.056 32.6493 10.696 32.6493 9.784C32.6493 8.896 33.3933 8.296 34.6413 8.296C35.9853 8.296 36.6333 8.824 36.8733 9.976H39.5613C39.2493 7.144 37.2093 6.184 34.6413 6.184C32.2893 6.184 29.9373 7.432 29.9373 9.952C29.9373 12.304 31.1613 13.24 34.4733 13.768C36.3213 14.08 37.1613 14.464 37.1613 15.496C37.1613 16.552 36.4653 17.104 34.9053 17.104C33.2013 17.104 32.5533 16.36 32.4093 15.088H29.6733C29.7933 17.752 31.6893 19.24 34.9293 19.24ZM47.2447 19.216C48.1327 19.216 48.7567 19.072 49.2127 18.904V16.6C48.8047 16.768 48.3727 16.84 47.7967 16.84C46.8847 16.84 46.3567 16.336 46.3567 15.232V8.632H49.1167V6.448H46.3567V3.688H43.4527V6.448H41.7727V8.632H43.4527V15.496C43.4527 17.872 44.7487 19.216 47.2447 19.216ZM57.4308 19H60.4308L61.7748 14.752H68.3268L69.6948 19H73.0068L67.3428 1.84H63.1668L57.4308 19ZM65.0628 4.456L67.5828 12.424H62.5188L65.0628 4.456ZM80.3354 19.24C82.1834 19.24 83.7914 18.136 84.4634 16.888V19H87.3674V0.639999H84.4634V8.368C83.7674 7.12 82.4954 6.184 80.4554 6.184C77.1914 6.184 74.8154 8.728 74.8154 12.736V12.928C74.8154 17.008 77.1914 19.24 80.3354 19.24ZM81.0554 16.936C79.1834 16.936 77.7914 15.616 77.7914 12.856V12.664C77.7914 9.952 79.0394 8.464 81.1754 8.464C83.2874 8.464 84.5594 9.832 84.5594 12.592V12.784C84.5594 15.592 83.0714 16.936 81.0554 16.936Z" fill="#002F34" fill-opacity="0.8"/>
</svg>
