<svg width="59" height="16" viewBox="0 0 59 16" fill="none" xmlns="http://www.w3.org/2000/svg">
<path d="M0.8 15H2.54V9.18H4.86C7.58 9.18 9.86 8 9.86 4.96V4.88C9.86 1.9 7.6 0.699999 4.86 0.699999H0.8V15ZM2.54 7.8V2.1H4.98C6.92 2.1 8.12 2.86 8.12 4.88V4.96C8.12 6.8 7.02 7.8 4.98 7.8H2.54ZM12.3011 15H13.9611V9.26C13.9611 6.68 15.3011 6.02 17.4011 5.92V4.36C15.5211 4.42 14.6211 5.24 13.9611 6.42V4.54H12.3011V15ZM19.8606 15H21.5206V4.54H19.8606V15ZM20.6606 2.36C21.2606 2.36 21.7606 1.86 21.7606 1.26C21.7606 0.66 21.2606 0.159999 20.6606 0.159999C20.0606 0.159999 19.5606 0.66 19.5606 1.26C19.5606 1.86 20.0606 2.36 20.6606 2.36ZM29.2583 15.18C31.7783 15.18 33.5983 13.5 33.8183 11.24H32.2783C32.0983 12.94 30.7583 13.8 29.2783 13.8C27.2583 13.8 25.8583 12.44 25.8583 9.88V9.72C25.8583 7.26 27.3183 5.74 29.2183 5.74C30.6583 5.74 31.8583 6.36 32.1183 8.02H33.7583C33.4383 5.36 31.3983 4.36 29.2183 4.36C26.4183 4.36 24.1383 6.52 24.1383 9.72V9.88C24.1383 13.12 26.3383 15.18 29.2583 15.18ZM40.6045 15.18C42.9645 15.18 44.7045 14.08 45.0645 11.98H43.4045C43.1845 13.2 42.2445 13.8 40.6245 13.8C38.4845 13.8 37.3445 12.48 37.2645 10.1H45.1445V9.56C45.1445 5.82 42.8645 4.36 40.4445 4.36C37.5645 4.36 35.5445 6.56 35.5445 9.72V9.88C35.5445 13.1 37.6445 15.18 40.6045 15.18ZM37.3245 8.76C37.6045 6.9 38.7445 5.74 40.4445 5.74C42.1645 5.74 43.2845 6.6 43.4445 8.76H37.3245ZM54.0847 6.82L55.4847 4.42L56.9647 6.82L58.0847 6L56.4247 3.78L58.9047 3.2L58.4647 1.86L56.1247 2.82L56.2647 0.139999H54.8047L54.9447 2.82L52.5847 1.86L52.1447 3.2L54.6047 3.78L52.9447 6L54.0847 6.82Z" fill="black"/>
</svg>
