<svg width="312" height="72" viewBox="0 0 312 72" fill="none" xmlns="http://www.w3.org/2000/svg">
<rect width="312" height="72" rx="4" fill="#002F34"/>
<path d="M111.968 44H115.16V37.472H117.56C121.232 37.472 123.848 35.864 123.848 32.24V32.144C123.848 28.544 121.328 26.84 117.488 26.84H111.968V44ZM115.16 35.168V29.312H117.488C119.528 29.312 120.728 30.104 120.728 32.144V32.24C120.728 34.136 119.6 35.168 117.488 35.168H115.16ZM132.097 41.984C129.889 41.984 128.617 40.376 128.617 37.808V37.616C128.617 35.024 129.937 33.464 132.097 33.464C134.257 33.464 135.553 35.048 135.553 37.64V37.808C135.553 40.376 134.257 41.984 132.097 41.984ZM132.073 44.24C135.769 44.24 138.529 41.696 138.529 37.784V37.592C138.529 33.752 135.769 31.184 132.097 31.184C128.401 31.184 125.641 33.776 125.641 37.664V37.856C125.641 41.672 128.377 44.24 132.073 44.24ZM145.929 44.24C149.145 44.24 150.945 42.776 150.945 40.232C150.945 37.568 149.193 36.848 146.241 36.392C144.249 36.056 143.649 35.696 143.649 34.784C143.649 33.896 144.393 33.296 145.641 33.296C146.985 33.296 147.633 33.824 147.873 34.976H150.561C150.249 32.144 148.209 31.184 145.641 31.184C143.289 31.184 140.937 32.432 140.937 34.952C140.937 37.304 142.161 38.24 145.473 38.768C147.321 39.08 148.161 39.464 148.161 40.496C148.161 41.552 147.465 42.104 145.905 42.104C144.201 42.104 143.553 41.36 143.409 40.088H140.673C140.793 42.752 142.689 44.24 145.929 44.24ZM158.245 44.216C159.133 44.216 159.757 44.072 160.213 43.904V41.6C159.805 41.768 159.373 41.84 158.797 41.84C157.885 41.84 157.357 41.336 157.357 40.232V33.632H160.117V31.448H157.357V28.688H154.453V31.448H152.773V33.632H154.453V40.496C154.453 42.872 155.749 44.216 158.245 44.216ZM168.431 44H171.431L172.775 39.752H179.327L180.695 44H184.007L178.343 26.84H174.167L168.431 44ZM176.063 29.456L178.583 37.424H173.519L176.063 29.456ZM191.335 44.24C193.183 44.24 194.791 43.136 195.463 41.888V44H198.367V25.64H195.463V33.368C194.767 32.12 193.495 31.184 191.455 31.184C188.191 31.184 185.815 33.728 185.815 37.736V37.928C185.815 42.008 188.191 44.24 191.335 44.24ZM192.055 41.936C190.183 41.936 188.791 40.616 188.791 37.856V37.664C188.791 34.952 190.039 33.464 192.175 33.464C194.287 33.464 195.559 34.832 195.559 37.592V37.784C195.559 40.592 194.071 41.936 192.055 41.936Z" fill="white"/>
</svg>
