<svg width="84" height="17" viewBox="0 0 84 17" fill="none" xmlns="http://www.w3.org/2000/svg">
<path d="M0.72 16H2.36L3.74 11.88H9.64L11.04 16H12.76L7.92 1.7H5.64L0.72 16ZM6.7 3.14L9.18 10.5H4.22L6.7 3.14ZM18.9013 16.18C20.4213 16.18 21.8813 15.22 22.4813 14.2V16H24.1413V0.539999H22.4813V7.22C21.8813 6.2 20.8013 5.36 19.0613 5.36C16.1813 5.36 14.1813 7.62 14.1813 10.82V10.98C14.1813 14.24 16.1613 16.18 18.9013 16.18ZM19.0813 14.8C17.3213 14.8 15.9013 13.54 15.9013 10.9V10.74C15.9013 8.2 17.1413 6.74 19.2213 6.74C21.2613 6.74 22.5413 8 22.5413 10.68V10.84C22.5413 13.52 21.0213 14.8 19.0813 14.8ZM35.8533 16H37.5933V3.12H41.7533V1.7H31.6933V3.12H35.8533V16ZM43.8489 16H45.5089V5.54H43.8489V16ZM44.6489 3.36C45.2489 3.36 45.7489 2.86 45.7489 2.26C45.7489 1.66 45.2489 1.16 44.6489 1.16C44.0489 1.16 43.5489 1.66 43.5489 2.26C43.5489 2.86 44.0489 3.36 44.6489 3.36ZM52.0866 16.14C52.7666 16.14 53.1666 16.04 53.5066 15.92V14.52C53.1466 14.66 52.7466 14.74 52.2266 14.74C51.3866 14.74 50.9266 14.24 50.9266 13.22V6.94H53.3666V5.54H50.9266V3.16H49.2666V5.54H47.7666V6.94H49.2666V13.38C49.2666 15.02 50.1866 16.14 52.0866 16.14ZM56.0559 16H57.7359V0.539999H56.0559V16ZM65.4131 16.18C67.7731 16.18 69.5131 15.08 69.8731 12.98H68.2131C67.9931 14.2 67.0531 14.8 65.4331 14.8C63.2931 14.8 62.1531 13.48 62.0731 11.1H69.9531V10.56C69.9531 6.82 67.6731 5.36 65.2531 5.36C62.3731 5.36 60.3531 7.56 60.3531 10.72V10.88C60.3531 14.1 62.4531 16.18 65.4131 16.18ZM62.1331 9.76C62.4131 7.9 63.5531 6.74 65.2531 6.74C66.9731 6.74 68.0931 7.6 68.2531 9.76H62.1331ZM78.8933 7.82L80.2933 5.42L81.7733 7.82L82.8933 7L81.2333 4.78L83.7133 4.2L83.2733 2.86L80.9333 3.82L81.0733 1.14H79.6133L79.7533 3.82L77.3933 2.86L76.9533 4.2L79.4133 4.78L77.7533 7L78.8933 7.82Z" fill="#007F7C"/>
</svg>
