<svg width="187" height="28" viewBox="0 0 187 28" fill="none" xmlns="http://www.w3.org/2000/svg">
<path d="M10.7 27.36C16.388 27.36 20.168 23.868 20.168 19.404C20.168 14.256 17.036 12.528 10.988 11.7C6.524 11.052 5.66 10.008 5.66 7.92C5.66 5.94 7.172 4.536 10.088 4.536C13.04 4.536 14.588 5.688 15.056 8.388H19.448C18.944 3.456 15.632 0.935999 10.088 0.935999C4.724 0.935999 1.124 4.104 1.124 8.316C1.124 13.14 4.04 15.012 10.196 15.84C14.372 16.524 15.56 17.424 15.56 19.8C15.56 22.176 13.544 23.76 10.7 23.76C6.344 23.76 5.3 21.6 4.976 19.008H0.368C0.728 23.868 3.68 27.36 10.7 27.36ZM33.4436 27.36C38.2676 27.36 41.4716 25.2 42.0836 21.24H37.8716C37.5476 23.076 36.1796 24.12 33.5516 24.12C30.3116 24.12 28.5116 22.104 28.3676 18.54H42.1556V17.28C42.1556 10.548 37.9436 7.776 33.2636 7.776C27.8996 7.776 23.9036 11.664 23.9036 17.496V17.784C23.9036 23.724 27.8996 27.36 33.4436 27.36ZM28.4396 15.624C28.8716 12.708 30.6356 10.944 33.2636 10.944C35.9636 10.944 37.6196 12.384 37.8356 15.624H28.4396ZM53.1744 27.324C54.5064 27.324 55.4424 27.108 56.1264 26.856V23.4C55.5144 23.652 54.8664 23.76 54.0024 23.76C52.6344 23.76 51.8424 23.004 51.8424 21.348V11.448H55.9824V8.172H51.8424V4.032H47.4864V8.172H44.9664V11.448H47.4864V21.744C47.4864 25.308 49.4304 27.324 53.1744 27.324ZM75.0056 27.36C77.8856 27.36 79.5416 26.316 80.7656 24.696V27H85.0496V14.652C85.0496 9.504 81.7376 7.776 77.5256 7.776C73.3136 7.776 69.8216 9.612 69.4616 14.004H73.6736C73.8896 12.132 75.0056 11.052 77.2736 11.052C79.8296 11.052 80.6936 12.312 80.6936 14.832V15.804H78.3536C72.9536 15.804 68.7056 17.388 68.7056 21.78C68.7056 25.704 71.5496 27.36 75.0056 27.36ZM76.0496 24.228C73.8896 24.228 73.0256 23.184 73.0256 21.6C73.0256 19.296 75.1496 18.54 78.4616 18.54H80.6936V20.412C80.6936 22.824 78.7136 24.228 76.0496 24.228ZM100.42 27H105.208V17.208H108.808C114.316 17.208 118.24 14.796 118.24 9.36V9.216C118.24 3.816 114.46 1.26 108.7 1.26H100.42V27ZM105.208 13.752V4.968H108.7C111.76 4.968 113.56 6.156 113.56 9.216V9.36C113.56 12.204 111.868 13.752 108.7 13.752H105.208ZM122.718 27H127.074V17.208C127.074 13.212 129.378 11.988 133.194 11.952V7.884C130.026 7.92 128.262 9.324 127.074 11.7V8.172H122.718V27ZM137.855 27H142.211V8.172H137.855V27ZM139.979 5.076C141.419 5.076 142.571 3.996 142.571 2.592C142.571 1.152 141.419 0.0719991 139.979 0.0719991C138.539 0.0719991 137.387 1.152 137.387 2.592C137.387 3.996 138.539 5.076 139.979 5.076ZM156.484 27.36C161.596 27.36 164.872 24.3 165.196 19.98H161.2C160.948 22.644 158.968 24.012 156.664 24.012C153.46 24.012 151.444 21.852 151.444 17.748V17.46C151.444 13.572 153.568 11.268 156.556 11.268C158.86 11.268 160.516 12.312 160.876 14.832H165.088C164.584 9.648 160.66 7.776 156.484 7.776C151.228 7.776 146.98 11.556 146.98 17.532V17.82C146.98 23.832 151.084 27.36 156.484 27.36ZM177.947 27.36C182.771 27.36 185.975 25.2 186.587 21.24H182.375C182.051 23.076 180.683 24.12 178.055 24.12C174.815 24.12 173.015 22.104 172.871 18.54H186.659V17.28C186.659 10.548 182.447 7.776 177.767 7.776C172.403 7.776 168.407 11.664 168.407 17.496V17.784C168.407 23.724 172.403 27.36 177.947 27.36ZM172.943 15.624C173.375 12.708 175.139 10.944 177.767 10.944C180.467 10.944 182.123 12.384 182.339 15.624H172.943Z" fill="#002F34" fill-opacity="0.8"/>
</svg>
