<svg width="414" height="35" viewBox="0 0 414 35" fill="none" xmlns="http://www.w3.org/2000/svg">
<path d="M10.852 28.36C17.656 28.36 21.292 24.652 21.292 17.92V2.26H16.468V17.524C16.468 22.852 14.596 24.508 10.888 24.508C7.072 24.508 5.56 22.564 5.56 17.848V2.26H0.736V18.208C0.736 24.832 4.408 28.36 10.852 28.36ZM27.1518 34.444H31.5078V25.048C32.5158 26.884 34.6758 28.36 37.6638 28.36C42.5238 28.36 46.0158 24.688 46.0158 18.64V18.352C46.0158 12.268 42.3798 8.776 37.6638 8.776C34.8918 8.776 32.5518 10.396 31.5078 12.196V9.172H27.1518V34.444ZM36.5838 24.904C33.4158 24.904 31.3638 22.924 31.3638 18.712V18.424C31.3638 14.248 33.5238 12.196 36.5478 12.196C39.3918 12.196 41.5518 14.248 41.5518 18.424V18.712C41.5518 22.744 39.7878 24.904 36.5838 24.904ZM50.7611 28H55.1171V0.459998H50.7611V28ZM69.5705 24.976C66.2585 24.976 64.3505 22.564 64.3505 18.712V18.424C64.3505 14.536 66.3305 12.196 69.5705 12.196C72.8105 12.196 74.7545 14.572 74.7545 18.46V18.712C74.7545 22.564 72.8105 24.976 69.5705 24.976ZM69.5345 28.36C75.0785 28.36 79.2185 24.544 79.2185 18.676V18.388C79.2185 12.628 75.0785 8.776 69.5705 8.776C64.0265 8.776 59.8865 12.664 59.8865 18.496V18.784C59.8865 24.508 63.9905 28.36 69.5345 28.36ZM88.8063 28.36C91.6863 28.36 93.3423 27.316 94.5663 25.696V28H98.8503V15.652C98.8503 10.504 95.5383 8.776 91.3263 8.776C87.1143 8.776 83.6223 10.612 83.2623 15.004H87.4743C87.6903 13.132 88.8063 12.052 91.0743 12.052C93.6303 12.052 94.4943 13.312 94.4943 15.832V16.804H92.1543C86.7543 16.804 82.5063 18.388 82.5063 22.78C82.5063 26.704 85.3503 28.36 88.8063 28.36ZM89.8503 25.228C87.6903 25.228 86.8263 24.184 86.8263 22.6C86.8263 20.296 88.9503 19.54 92.2623 19.54H94.4943V21.412C94.4943 23.824 92.5143 25.228 89.8503 25.228ZM111.619 28.36C114.391 28.36 116.803 26.704 117.811 24.832V28H122.167V0.459998H117.811V12.052C116.767 10.18 114.859 8.776 111.799 8.776C106.903 8.776 103.339 12.592 103.339 18.604V18.892C103.339 25.012 106.903 28.36 111.619 28.36ZM112.699 24.904C109.891 24.904 107.803 22.924 107.803 18.784V18.496C107.803 14.428 109.675 12.196 112.879 12.196C116.047 12.196 117.955 14.248 117.955 18.388V18.676C117.955 22.888 115.723 24.904 112.699 24.904ZM137.722 28H142.51V18.208H146.11C151.618 18.208 155.542 15.796 155.542 10.36V10.216C155.542 4.816 151.762 2.26 146.002 2.26H137.722V28ZM142.51 14.752V5.968H146.002C149.062 5.968 150.862 7.156 150.862 10.216V10.36C150.862 13.204 149.17 14.752 146.002 14.752H142.51ZM160.02 28H164.376V18.208C164.376 14.212 166.68 12.988 170.496 12.952V8.884C167.328 8.92 165.564 10.324 164.376 12.7V9.172H160.02V28ZM183.121 24.976C179.809 24.976 177.901 22.564 177.901 18.712V18.424C177.901 14.536 179.881 12.196 183.121 12.196C186.361 12.196 188.305 14.572 188.305 18.46V18.712C188.305 22.564 186.361 24.976 183.121 24.976ZM183.085 28.36C188.629 28.36 192.769 24.544 192.769 18.676V18.388C192.769 12.628 188.629 8.776 183.121 8.776C177.577 8.776 173.437 12.664 173.437 18.496V18.784C173.437 24.508 177.541 28.36 183.085 28.36ZM204.481 28.36C207.253 28.36 209.665 26.704 210.673 24.832V28H215.029V0.459998H210.673V12.052C209.629 10.18 207.721 8.776 204.661 8.776C199.765 8.776 196.201 12.592 196.201 18.604V18.892C196.201 25.012 199.765 28.36 204.481 28.36ZM205.561 24.904C202.753 24.904 200.665 22.924 200.665 18.784V18.496C200.665 14.428 202.537 12.196 205.741 12.196C208.909 12.196 210.817 14.248 210.817 18.388V18.676C210.817 22.888 208.585 24.904 205.561 24.904ZM227.226 28.36C230.286 28.36 232.266 26.884 233.202 25.048V28H237.558V9.172H233.202V20.368C233.202 23.356 231.15 24.868 228.81 24.868C226.29 24.868 225.102 23.572 225.102 20.728V9.172H220.746V21.232C220.746 26.236 223.518 28.36 227.226 28.36ZM251.687 28.36C256.799 28.36 260.075 25.3 260.399 20.98H256.403C256.151 23.644 254.171 25.012 251.867 25.012C248.663 25.012 246.647 22.852 246.647 18.748V18.46C246.647 14.572 248.771 12.268 251.759 12.268C254.063 12.268 255.719 13.312 256.079 15.832H260.291C259.787 10.648 255.863 8.776 251.687 8.776C246.431 8.776 242.183 12.556 242.183 18.532V18.82C242.183 24.832 246.287 28.36 251.687 28.36ZM271.278 28.324C272.61 28.324 273.546 28.108 274.23 27.856V24.4C273.618 24.652 272.97 24.76 272.106 24.76C270.738 24.76 269.946 24.004 269.946 22.348V12.448H274.086V9.172H269.946V5.032H265.59V9.172H263.07V12.448H265.59V22.744C265.59 26.308 267.534 28.324 271.278 28.324ZM288.681 28H293.505V2.26H288.681V28ZM299.936 28H304.292V16.732C304.292 13.852 306.272 12.412 308.432 12.412C310.556 12.412 311.78 13.6 311.78 16.372V28H316.136V16.732C316.136 13.852 318.116 12.412 320.276 12.412C322.436 12.412 323.624 13.6 323.624 16.372V28H327.98V16.084C327.98 10.9 325.172 8.776 321.716 8.776C319.376 8.776 316.784 9.82 315.344 12.16C314.408 9.82 312.464 8.776 310.016 8.776C307.244 8.776 305.192 10.288 304.292 12.052V9.172H299.936V28ZM338.635 28.36C341.515 28.36 343.171 27.316 344.395 25.696V28H348.679V15.652C348.679 10.504 345.367 8.776 341.155 8.776C336.943 8.776 333.451 10.612 333.091 15.004H337.303C337.519 13.132 338.635 12.052 340.903 12.052C343.459 12.052 344.323 13.312 344.323 15.832V16.804H341.983C336.583 16.804 332.335 18.388 332.335 22.78C332.335 26.704 335.179 28.36 338.635 28.36ZM339.679 25.228C337.519 25.228 336.655 24.184 336.655 22.6C336.655 20.296 338.779 19.54 342.091 19.54H344.323V21.412C344.323 23.824 342.343 25.228 339.679 25.228ZM362.42 34.912C368.252 34.912 371.96 32.14 371.996 26.596V9.172H367.64V12.052C366.56 10.18 364.688 8.776 361.592 8.776C356.732 8.776 353.132 12.736 353.132 18.028V18.28C353.132 23.716 356.768 27.244 361.484 27.244C364.256 27.244 366.596 25.552 367.64 23.752V26.524C367.64 29.908 365.768 31.6 362.384 31.6C359.54 31.6 358.1 30.52 357.74 28.648H353.348C353.852 32.248 356.516 34.912 362.42 34.912ZM362.564 23.896C359.756 23.896 357.596 21.736 357.596 18.244V17.956C357.596 14.536 359.468 12.196 362.708 12.196C365.84 12.196 367.784 14.32 367.784 17.884V18.136C367.784 21.736 365.588 23.896 362.564 23.896ZM386.173 28.36C390.997 28.36 394.201 26.2 394.813 22.24H390.601C390.277 24.076 388.909 25.12 386.281 25.12C383.041 25.12 381.241 23.104 381.097 19.54H394.885V18.28C394.885 11.548 390.673 8.776 385.993 8.776C380.629 8.776 376.633 12.664 376.633 18.496V18.784C376.633 24.724 380.629 28.36 386.173 28.36ZM381.169 16.624C381.601 13.708 383.365 11.944 385.993 11.944C388.693 11.944 390.349 13.384 390.565 16.624H381.169ZM406.116 28.36C410.94 28.36 413.64 26.164 413.64 22.348C413.64 18.352 411.012 17.272 406.584 16.588C403.596 16.084 402.696 15.544 402.696 14.176C402.696 12.844 403.812 11.944 405.684 11.944C407.7 11.944 408.672 12.736 409.032 14.464H413.064C412.596 10.216 409.536 8.776 405.684 8.776C402.156 8.776 398.628 10.648 398.628 14.428C398.628 17.956 400.464 19.36 405.432 20.152C408.204 20.62 409.464 21.196 409.464 22.744C409.464 24.328 408.42 25.156 406.08 25.156C403.524 25.156 402.552 24.04 402.336 22.132H398.232C398.412 26.128 401.256 28.36 406.116 28.36Z" fill="#002F34" fill-opacity="0.8"/>
</svg>
