<svg width="169" height="17" viewBox="0 0 169 17" fill="none" xmlns="http://www.w3.org/2000/svg">
<path d="M5.24 16H6.98V9.78L11.5 1.7H9.76L6.16 8.34L2.42 1.7H0.46L5.24 9.76V16ZM16.5069 16.18C18.8669 16.18 20.6069 15.08 20.9669 12.98H19.3069C19.0869 14.2 18.1469 14.8 16.5269 14.8C14.3869 14.8 13.2469 13.48 13.1669 11.1H21.0469V10.56C21.0469 6.82 18.7669 5.36 16.3469 5.36C13.4669 5.36 11.4469 7.56 11.4469 10.72V10.88C11.4469 14.1 13.5469 16.18 16.5069 16.18ZM13.2269 9.76C13.5069 7.9 14.6469 6.74 16.3469 6.74C18.0669 6.74 19.1869 7.6 19.3469 9.76H13.2269ZM26.3117 16.18C27.8517 16.18 28.7917 15.66 29.5717 14.68V16H31.2317V9.1C31.2317 6.18 29.4117 5.36 27.4117 5.36C25.3917 5.36 23.4917 6.24 23.2717 8.62H24.9317C25.0917 7.34 25.8917 6.74 27.3317 6.74C28.9317 6.74 29.5717 7.44 29.5717 9.1V9.86H28.0717C25.3917 9.86 22.8317 10.68 22.8317 13.1C22.8317 15.24 24.3717 16.18 26.3117 16.18ZM26.4717 14.86C25.0117 14.86 24.4917 14.18 24.4917 13.1C24.4917 11.56 26.0317 11.04 28.1317 11.04H29.5717V12.34C29.5717 13.96 28.2317 14.86 26.4717 14.86ZM34.4925 16H36.1525V10.26C36.1525 7.68 37.4925 7.02 39.5925 6.92V5.36C37.7125 5.42 36.8125 6.24 36.1525 7.42V5.54H34.4925V16ZM51.665 14.8C49.545 14.8 48.245 13.24 48.245 10.86V10.7C48.245 8.3 49.565 6.74 51.665 6.74C53.745 6.74 55.085 8.3 55.085 10.72V10.86C55.085 13.22 53.765 14.8 51.665 14.8ZM51.645 16.18C54.625 16.18 56.805 14 56.805 10.84V10.68C56.805 7.54 54.625 5.36 51.665 5.36C48.705 5.36 46.525 7.56 46.525 10.7V10.86C46.525 13.92 48.665 16.18 51.645 16.18ZM59.7353 16H61.3953V6.94H63.9553V5.54H61.3953V3.66C61.3953 2.6 61.8353 1.86 62.9153 1.86C63.3753 1.86 63.7953 1.96 64.0953 2.08V0.679999C63.6753 0.539999 63.3953 0.48 62.8553 0.48C60.7753 0.48 59.7353 1.72 59.7353 3.84V5.54H58.2353V6.94H59.7353V16ZM71.7023 16H73.4423V10.18H75.7623C78.4823 10.18 80.7623 9 80.7623 5.96V5.88C80.7623 2.9 78.5023 1.7 75.7623 1.7H71.7023V16ZM73.4423 8.8V3.1H75.8823C77.8223 3.1 79.0223 3.86 79.0223 5.88V5.96C79.0223 7.8 77.9223 8.8 75.8823 8.8H73.4423ZM86.7434 16.18C88.4234 16.18 89.5834 15.32 90.0634 14.34V16H91.7234V5.54H90.0634V11.88C90.0634 13.76 88.6634 14.74 87.1834 14.74C85.5434 14.74 84.7634 13.92 84.7634 12.08V5.54H83.1034V12.16C83.1034 15.04 84.6634 16.18 86.7434 16.18ZM95.0784 16H96.7384V10.26C96.7384 7.68 98.0784 7.02 100.178 6.92V5.36C98.2984 5.42 97.3984 6.24 96.7384 7.42V5.54H95.0784V16ZM106.645 16.18C109.165 16.18 110.985 14.5 111.205 12.24H109.665C109.485 13.94 108.145 14.8 106.665 14.8C104.645 14.8 103.245 13.44 103.245 10.88V10.72C103.245 8.26 104.705 6.74 106.605 6.74C108.045 6.74 109.245 7.36 109.505 9.02H111.145C110.825 6.36 108.785 5.36 106.605 5.36C103.805 5.36 101.525 7.52 101.525 10.72V10.88C101.525 14.12 103.725 16.18 106.645 16.18ZM113.711 16H115.371V9.66C115.371 7.78 116.751 6.8 118.291 6.8C119.971 6.8 120.751 7.62 120.751 9.46V16H122.411V9.58C122.411 6.54 120.891 5.36 118.731 5.36C117.011 5.36 115.851 6.22 115.371 7.2V0.539999H113.711V16ZM128.284 16.18C129.824 16.18 130.764 15.66 131.544 14.68V16H133.204V9.1C133.204 6.18 131.384 5.36 129.384 5.36C127.364 5.36 125.464 6.24 125.244 8.62H126.904C127.064 7.34 127.864 6.74 129.304 6.74C130.904 6.74 131.544 7.44 131.544 9.1V9.86H130.044C127.364 9.86 124.804 10.68 124.804 13.1C124.804 15.24 126.344 16.18 128.284 16.18ZM128.444 14.86C126.984 14.86 126.464 14.18 126.464 13.1C126.464 11.56 128.004 11.04 130.104 11.04H131.544V12.34C131.544 13.96 130.204 14.86 128.444 14.86ZM139.705 16.18C142.245 16.18 143.545 14.9 143.545 13C143.545 10.78 142.025 10.3 139.865 9.9C137.945 9.56 137.425 9.18 137.425 8.24C137.425 7.34 138.205 6.74 139.405 6.74C140.725 6.74 141.365 7.24 141.605 8.38H143.205C142.925 6.12 141.305 5.36 139.425 5.36C137.785 5.36 135.885 6.36 135.885 8.3C135.885 10.12 136.805 10.88 139.525 11.38C141.145 11.68 141.965 12.04 141.965 13.14C141.965 14.26 141.265 14.8 139.685 14.8C138.005 14.8 137.345 14.02 137.225 12.78H135.605C135.705 14.92 137.205 16.18 139.705 16.18ZM150.355 16.18C152.715 16.18 154.455 15.08 154.815 12.98H153.155C152.935 14.2 151.995 14.8 150.375 14.8C148.235 14.8 147.095 13.48 147.015 11.1H154.895V10.56C154.895 6.82 152.615 5.36 150.195 5.36C147.315 5.36 145.295 7.56 145.295 10.72V10.88C145.295 14.1 147.395 16.18 150.355 16.18ZM147.075 9.76C147.355 7.9 148.495 6.74 150.195 6.74C151.915 6.74 153.035 7.6 153.195 9.76H147.075ZM163.835 7.82L165.235 5.42L166.715 7.82L167.835 7L166.175 4.78L168.655 4.2L168.215 2.86L165.875 3.82L166.015 1.14H164.555L164.695 3.82L162.335 2.86L161.895 4.2L164.355 4.78L162.695 7L163.835 7.82Z" fill="black"/>
</svg>
