<svg width="408" height="35" viewBox="0 0 408 35" fill="none" xmlns="http://www.w3.org/2000/svg">
<path d="M0.970703 27V1.40625H9.33789C12.1152 1.40625 14.2012 1.98047 15.5957 3.12891C17.002 4.27734 17.7051 5.97656 17.7051 8.22656C17.7051 9.42188 17.3652 10.4824 16.6855 11.4082C16.0059 12.3223 15.0801 13.0312 13.9082 13.5352C15.291 13.9219 16.3809 14.6602 17.1777 15.75C17.9863 16.8281 18.3906 18.1172 18.3906 19.6172C18.3906 21.9141 17.6465 23.7188 16.1582 25.0312C14.6699 26.3438 12.5664 27 9.84766 27H0.970703ZM4.3457 15.0293V24.2402H9.91797C11.4883 24.2402 12.7246 23.8359 13.627 23.0273C14.541 22.207 14.998 21.082 14.998 19.6523C14.998 16.5703 13.3223 15.0293 9.9707 15.0293H4.3457ZM4.3457 12.3223H9.44336C10.9199 12.3223 12.0977 11.9531 12.9766 11.2148C13.8672 10.4766 14.3125 9.47461 14.3125 8.20898C14.3125 6.80273 13.9023 5.7832 13.082 5.15039C12.2617 4.50586 11.0137 4.18359 9.33789 4.18359H4.3457V12.3223ZM34.6328 27C34.4453 26.625 34.293 25.957 34.1758 24.9961C32.6641 26.5664 30.8594 27.3516 28.7617 27.3516C26.8867 27.3516 25.3457 26.8242 24.1387 25.7695C22.9434 24.7031 22.3457 23.3555 22.3457 21.7266C22.3457 19.7461 23.0957 18.2109 24.5957 17.1211C26.1074 16.0195 28.2285 15.4688 30.959 15.4688H34.123V13.9746C34.123 12.8379 33.7832 11.9355 33.1035 11.2676C32.4238 10.5879 31.4219 10.248 30.0977 10.248C28.9375 10.248 27.9648 10.541 27.1797 11.127C26.3945 11.7129 26.002 12.4219 26.002 13.2539H22.7324C22.7324 12.3047 23.0664 11.3906 23.7344 10.5117C24.4141 9.62109 25.3281 8.91797 26.4766 8.40234C27.6367 7.88672 28.9082 7.62891 30.291 7.62891C32.4824 7.62891 34.1992 8.17969 35.4414 9.28125C36.6836 10.3711 37.3281 11.877 37.375 13.7988V22.5527C37.375 24.2988 37.5977 25.6875 38.043 26.7188V27H34.6328ZM29.2363 24.5215C30.2559 24.5215 31.2227 24.2578 32.1367 23.7305C33.0508 23.2031 33.7129 22.5176 34.123 21.6738V17.7715H31.5742C27.5898 17.7715 25.5977 18.9375 25.5977 21.2695C25.5977 22.2891 25.9375 23.0859 26.6172 23.6602C27.2969 24.2344 28.1699 24.5215 29.2363 24.5215ZM53.5469 21.9551C53.5469 21.0762 53.2129 20.3965 52.5449 19.916C51.8887 19.4238 50.7344 19.002 49.082 18.6504C47.4414 18.2988 46.1348 17.877 45.1621 17.3848C44.2012 16.8926 43.4863 16.3066 43.0176 15.627C42.5605 14.9473 42.332 14.1387 42.332 13.2012C42.332 11.6426 42.9883 10.3242 44.3008 9.24609C45.625 8.16797 47.3125 7.62891 49.3633 7.62891C51.5195 7.62891 53.2656 8.18555 54.6016 9.29883C55.9492 10.4121 56.623 11.8359 56.623 13.5703H53.3535C53.3535 12.6797 52.9727 11.9121 52.2109 11.2676C51.4609 10.623 50.5117 10.3008 49.3633 10.3008C48.1797 10.3008 47.2539 10.5586 46.5859 11.0742C45.918 11.5898 45.584 12.2637 45.584 13.0957C45.584 13.8809 45.8945 14.4727 46.5156 14.8711C47.1367 15.2695 48.2559 15.6504 49.873 16.0137C51.502 16.377 52.8203 16.8105 53.8281 17.3145C54.8359 17.8184 55.5801 18.4277 56.0605 19.1426C56.5527 19.8457 56.7988 20.707 56.7988 21.7266C56.7988 23.4258 56.1191 24.791 54.7598 25.8223C53.4004 26.8418 51.6367 27.3516 49.4688 27.3516C47.9453 27.3516 46.5977 27.082 45.4258 26.543C44.2539 26.0039 43.334 25.2539 42.666 24.293C42.0098 23.3203 41.6816 22.2715 41.6816 21.1465H44.9336C44.9922 22.2363 45.4258 23.1035 46.2344 23.748C47.0547 24.3809 48.1328 24.6973 49.4688 24.6973C50.6992 24.6973 51.6836 24.4512 52.4219 23.959C53.1719 23.4551 53.5469 22.7871 53.5469 21.9551ZM68.9277 27.3516C66.3496 27.3516 64.252 26.5078 62.6348 24.8203C61.0176 23.1211 60.209 20.8535 60.209 18.0176V17.4199C60.209 15.5332 60.5664 13.8516 61.2812 12.375C62.0078 10.8867 63.0156 9.72656 64.3047 8.89453C65.6055 8.05078 67.0117 7.62891 68.5234 7.62891C70.9961 7.62891 72.918 8.44336 74.2891 10.0723C75.6602 11.7012 76.3457 14.0332 76.3457 17.0684V18.4219H63.4609C63.5078 20.2969 64.0527 21.8145 65.0957 22.9746C66.1504 24.123 67.4863 24.6973 69.1035 24.6973C70.252 24.6973 71.2246 24.4629 72.0215 23.9941C72.8184 23.5254 73.5156 22.9043 74.1133 22.1309L76.0996 23.6777C74.5059 26.127 72.1152 27.3516 68.9277 27.3516ZM68.5234 10.3008C67.2109 10.3008 66.1094 10.7812 65.2188 11.7422C64.3281 12.6914 63.7773 14.0273 63.5664 15.75H73.0938V15.5039C73 13.8516 72.5547 12.5742 71.7578 11.6719C70.9609 10.7578 69.8828 10.3008 68.5234 10.3008ZM79.334 17.332C79.334 14.4141 80.0254 12.0703 81.4082 10.3008C82.791 8.51953 84.6016 7.62891 86.8398 7.62891C89.0664 7.62891 90.8301 8.39062 92.1309 9.91406V0H95.3828V27H92.3945L92.2363 24.9609C90.9355 26.5547 89.125 27.3516 86.8047 27.3516C84.6016 27.3516 82.8027 26.4492 81.4082 24.6445C80.0254 22.8398 79.334 20.4844 79.334 17.5781V17.332ZM82.5859 17.7012C82.5859 19.8574 83.0312 21.5449 83.9219 22.7637C84.8125 23.9824 86.043 24.5918 87.6133 24.5918C89.6758 24.5918 91.1816 23.666 92.1309 21.8145V13.0781C91.1582 11.2852 89.6641 10.3887 87.6484 10.3887C86.0547 10.3887 84.8125 11.0039 83.9219 12.2344C83.0312 13.4648 82.5859 15.2871 82.5859 17.7012ZM108.514 17.3145C108.514 15.4512 108.877 13.7754 109.604 12.2871C110.342 10.7988 111.361 9.65039 112.662 8.8418C113.975 8.0332 115.469 7.62891 117.145 7.62891C119.734 7.62891 121.826 8.52539 123.42 10.3184C125.025 12.1113 125.828 14.4961 125.828 17.4727V17.7012C125.828 19.5527 125.471 21.2168 124.756 22.6934C124.053 24.1582 123.039 25.3008 121.715 26.1211C120.402 26.9414 118.891 27.3516 117.18 27.3516C114.602 27.3516 112.51 26.4551 110.904 24.6621C109.311 22.8691 108.514 20.4961 108.514 17.543V17.3145ZM111.783 17.7012C111.783 19.8105 112.27 21.5039 113.242 22.7812C114.227 24.0586 115.539 24.6973 117.18 24.6973C118.832 24.6973 120.145 24.0527 121.117 22.7637C122.09 21.4629 122.576 19.6465 122.576 17.3145C122.576 15.2285 122.078 13.541 121.082 12.252C120.098 10.9512 118.785 10.3008 117.145 10.3008C115.539 10.3008 114.244 10.9395 113.26 12.2168C112.275 13.4941 111.783 15.3223 111.783 17.7012ZM132.982 7.98047L133.088 10.3711C134.541 8.54297 136.439 7.62891 138.783 7.62891C142.803 7.62891 144.83 9.89648 144.865 14.4316V27H141.613V14.4141C141.602 13.043 141.285 12.0293 140.664 11.373C140.055 10.7168 139.1 10.3887 137.799 10.3887C136.744 10.3887 135.818 10.6699 135.021 11.2324C134.225 11.7949 133.604 12.5332 133.158 13.4473V27H129.906V7.98047H132.982ZM164.922 22.2363L169.352 7.98047H172.832L165.186 29.9355C164.002 33.0996 162.121 34.6816 159.543 34.6816L158.928 34.6289L157.715 34.4004V31.7637L158.594 31.834C159.695 31.834 160.551 31.6113 161.16 31.166C161.781 30.7207 162.291 29.9062 162.689 28.7227L163.41 26.7891L156.625 7.98047H160.176L164.922 22.2363ZM174.607 17.3145C174.607 15.4512 174.971 13.7754 175.697 12.2871C176.436 10.7988 177.455 9.65039 178.756 8.8418C180.068 8.0332 181.562 7.62891 183.238 7.62891C185.828 7.62891 187.92 8.52539 189.514 10.3184C191.119 12.1113 191.922 14.4961 191.922 17.4727V17.7012C191.922 19.5527 191.564 21.2168 190.85 22.6934C190.146 24.1582 189.133 25.3008 187.809 26.1211C186.496 26.9414 184.984 27.3516 183.273 27.3516C180.695 27.3516 178.604 26.4551 176.998 24.6621C175.404 22.8691 174.607 20.4961 174.607 17.543V17.3145ZM177.877 17.7012C177.877 19.8105 178.363 21.5039 179.336 22.7812C180.32 24.0586 181.633 24.6973 183.273 24.6973C184.926 24.6973 186.238 24.0527 187.211 22.7637C188.184 21.4629 188.67 19.6465 188.67 17.3145C188.67 15.2285 188.172 13.541 187.176 12.252C186.191 10.9512 184.879 10.3008 183.238 10.3008C181.633 10.3008 180.338 10.9395 179.354 12.2168C178.369 13.4941 177.877 15.3223 177.877 17.7012ZM207.742 25.1191C206.477 26.6074 204.619 27.3516 202.17 27.3516C200.143 27.3516 198.596 26.7656 197.529 25.5938C196.475 24.4102 195.941 22.6641 195.93 20.3555V7.98047H199.182V20.2676C199.182 23.1504 200.354 24.5918 202.697 24.5918C205.182 24.5918 206.834 23.666 207.654 21.8145V7.98047H210.906V27H207.812L207.742 25.1191ZM225.057 10.8984C224.564 10.8164 224.031 10.7754 223.457 10.7754C221.324 10.7754 219.877 11.6836 219.115 13.5V27H215.863V7.98047H219.027L219.08 10.1777C220.146 8.47852 221.658 7.62891 223.615 7.62891C224.248 7.62891 224.729 7.71094 225.057 7.875V10.8984ZM240.525 27H237.273V0H240.525V27ZM257.488 27C257.301 26.625 257.148 25.957 257.031 24.9961C255.52 26.5664 253.715 27.3516 251.617 27.3516C249.742 27.3516 248.201 26.8242 246.994 25.7695C245.799 24.7031 245.201 23.3555 245.201 21.7266C245.201 19.7461 245.951 18.2109 247.451 17.1211C248.963 16.0195 251.084 15.4688 253.814 15.4688H256.979V13.9746C256.979 12.8379 256.639 11.9355 255.959 11.2676C255.279 10.5879 254.277 10.248 252.953 10.248C251.793 10.248 250.82 10.541 250.035 11.127C249.25 11.7129 248.857 12.4219 248.857 13.2539H245.588C245.588 12.3047 245.922 11.3906 246.59 10.5117C247.27 9.62109 248.184 8.91797 249.332 8.40234C250.492 7.88672 251.764 7.62891 253.146 7.62891C255.338 7.62891 257.055 8.17969 258.297 9.28125C259.539 10.3711 260.184 11.877 260.23 13.7988V22.5527C260.23 24.2988 260.453 25.6875 260.898 26.7188V27H257.488ZM252.092 24.5215C253.111 24.5215 254.078 24.2578 254.992 23.7305C255.906 23.2031 256.568 22.5176 256.979 21.6738V17.7715H254.43C250.445 17.7715 248.453 18.9375 248.453 21.2695C248.453 22.2891 248.793 23.0859 249.473 23.6602C250.152 24.2344 251.025 24.5215 252.092 24.5215ZM276.402 21.9551C276.402 21.0762 276.068 20.3965 275.4 19.916C274.744 19.4238 273.59 19.002 271.938 18.6504C270.297 18.2988 268.99 17.877 268.018 17.3848C267.057 16.8926 266.342 16.3066 265.873 15.627C265.416 14.9473 265.188 14.1387 265.188 13.2012C265.188 11.6426 265.844 10.3242 267.156 9.24609C268.48 8.16797 270.168 7.62891 272.219 7.62891C274.375 7.62891 276.121 8.18555 277.457 9.29883C278.805 10.4121 279.479 11.8359 279.479 13.5703H276.209C276.209 12.6797 275.828 11.9121 275.066 11.2676C274.316 10.623 273.367 10.3008 272.219 10.3008C271.035 10.3008 270.109 10.5586 269.441 11.0742C268.773 11.5898 268.439 12.2637 268.439 13.0957C268.439 13.8809 268.75 14.4727 269.371 14.8711C269.992 15.2695 271.111 15.6504 272.729 16.0137C274.357 16.377 275.676 16.8105 276.684 17.3145C277.691 17.8184 278.436 18.4277 278.916 19.1426C279.408 19.8457 279.654 20.707 279.654 21.7266C279.654 23.4258 278.975 24.791 277.615 25.8223C276.256 26.8418 274.492 27.3516 272.324 27.3516C270.801 27.3516 269.453 27.082 268.281 26.543C267.109 26.0039 266.189 25.2539 265.521 24.293C264.865 23.3203 264.537 22.2715 264.537 21.1465H267.789C267.848 22.2363 268.281 23.1035 269.09 23.748C269.91 24.3809 270.988 24.6973 272.324 24.6973C273.555 24.6973 274.539 24.4512 275.277 23.959C276.027 23.4551 276.402 22.7871 276.402 21.9551ZM288.303 3.375V7.98047H291.854V10.4941H288.303V22.2891C288.303 23.0508 288.461 23.625 288.777 24.0117C289.094 24.3867 289.633 24.5742 290.395 24.5742C290.77 24.5742 291.285 24.5039 291.941 24.3633V27C291.086 27.2344 290.254 27.3516 289.445 27.3516C287.992 27.3516 286.896 26.9121 286.158 26.0332C285.42 25.1543 285.051 23.9062 285.051 22.2891V10.4941H281.588V7.98047H285.051V3.375H288.303ZM315.672 21.9551C315.672 21.0762 315.338 20.3965 314.67 19.916C314.014 19.4238 312.859 19.002 311.207 18.6504C309.566 18.2988 308.26 17.877 307.287 17.3848C306.326 16.8926 305.611 16.3066 305.143 15.627C304.686 14.9473 304.457 14.1387 304.457 13.2012C304.457 11.6426 305.113 10.3242 306.426 9.24609C307.75 8.16797 309.438 7.62891 311.488 7.62891C313.645 7.62891 315.391 8.18555 316.727 9.29883C318.074 10.4121 318.748 11.8359 318.748 13.5703H315.479C315.479 12.6797 315.098 11.9121 314.336 11.2676C313.586 10.623 312.637 10.3008 311.488 10.3008C310.305 10.3008 309.379 10.5586 308.711 11.0742C308.043 11.5898 307.709 12.2637 307.709 13.0957C307.709 13.8809 308.02 14.4727 308.641 14.8711C309.262 15.2695 310.381 15.6504 311.998 16.0137C313.627 16.377 314.945 16.8105 315.953 17.3145C316.961 17.8184 317.705 18.4277 318.186 19.1426C318.678 19.8457 318.924 20.707 318.924 21.7266C318.924 23.4258 318.244 24.791 316.885 25.8223C315.525 26.8418 313.762 27.3516 311.594 27.3516C310.07 27.3516 308.723 27.082 307.551 26.543C306.379 26.0039 305.459 25.2539 304.791 24.293C304.135 23.3203 303.807 22.2715 303.807 21.1465H307.059C307.117 22.2363 307.551 23.1035 308.359 23.748C309.18 24.3809 310.258 24.6973 311.594 24.6973C312.824 24.6973 313.809 24.4512 314.547 23.959C315.297 23.4551 315.672 22.7871 315.672 21.9551ZM331.053 27.3516C328.475 27.3516 326.377 26.5078 324.76 24.8203C323.143 23.1211 322.334 20.8535 322.334 18.0176V17.4199C322.334 15.5332 322.691 13.8516 323.406 12.375C324.133 10.8867 325.141 9.72656 326.43 8.89453C327.73 8.05078 329.137 7.62891 330.648 7.62891C333.121 7.62891 335.043 8.44336 336.414 10.0723C337.785 11.7012 338.471 14.0332 338.471 17.0684V18.4219H325.586C325.633 20.2969 326.178 21.8145 327.221 22.9746C328.275 24.123 329.611 24.6973 331.229 24.6973C332.377 24.6973 333.35 24.4629 334.146 23.9941C334.943 23.5254 335.641 22.9043 336.238 22.1309L338.225 23.6777C336.631 26.127 334.24 27.3516 331.053 27.3516ZM330.648 10.3008C329.336 10.3008 328.234 10.7812 327.344 11.7422C326.453 12.6914 325.902 14.0273 325.691 15.75H335.219V15.5039C335.125 13.8516 334.68 12.5742 333.883 11.6719C333.086 10.7578 332.008 10.3008 330.648 10.3008ZM353.992 27C353.805 26.625 353.652 25.957 353.535 24.9961C352.023 26.5664 350.219 27.3516 348.121 27.3516C346.246 27.3516 344.705 26.8242 343.498 25.7695C342.303 24.7031 341.705 23.3555 341.705 21.7266C341.705 19.7461 342.455 18.2109 343.955 17.1211C345.467 16.0195 347.588 15.4688 350.318 15.4688H353.482V13.9746C353.482 12.8379 353.143 11.9355 352.463 11.2676C351.783 10.5879 350.781 10.248 349.457 10.248C348.297 10.248 347.324 10.541 346.539 11.127C345.754 11.7129 345.361 12.4219 345.361 13.2539H342.092C342.092 12.3047 342.426 11.3906 343.094 10.5117C343.773 9.62109 344.688 8.91797 345.836 8.40234C346.996 7.88672 348.268 7.62891 349.65 7.62891C351.842 7.62891 353.559 8.17969 354.801 9.28125C356.043 10.3711 356.688 11.877 356.734 13.7988V22.5527C356.734 24.2988 356.957 25.6875 357.402 26.7188V27H353.992ZM348.596 24.5215C349.615 24.5215 350.582 24.2578 351.496 23.7305C352.41 23.2031 353.072 22.5176 353.482 21.6738V17.7715H350.934C346.949 17.7715 344.957 18.9375 344.957 21.2695C344.957 22.2891 345.297 23.0859 345.977 23.6602C346.656 24.2344 347.529 24.5215 348.596 24.5215ZM371.025 10.8984C370.533 10.8164 370 10.7754 369.426 10.7754C367.293 10.7754 365.846 11.6836 365.084 13.5V27H361.832V7.98047H364.996L365.049 10.1777C366.115 8.47852 367.627 7.62891 369.584 7.62891C370.217 7.62891 370.697 7.71094 371.025 7.875V10.8984ZM381.309 24.6973C382.469 24.6973 383.482 24.3457 384.35 23.6426C385.217 22.9395 385.697 22.0605 385.791 21.0059H388.867C388.809 22.0957 388.434 23.1328 387.742 24.1172C387.051 25.1016 386.125 25.8867 384.965 26.4727C383.816 27.0586 382.598 27.3516 381.309 27.3516C378.719 27.3516 376.656 26.4902 375.121 24.7676C373.598 23.0332 372.836 20.666 372.836 17.666V17.1211C372.836 15.2695 373.176 13.623 373.855 12.1816C374.535 10.7402 375.508 9.62109 376.773 8.82422C378.051 8.02734 379.557 7.62891 381.291 7.62891C383.424 7.62891 385.193 8.26758 386.6 9.54492C388.018 10.8223 388.773 12.4805 388.867 14.5195H385.791C385.697 13.2891 385.229 12.2812 384.385 11.4961C383.553 10.6992 382.521 10.3008 381.291 10.3008C379.639 10.3008 378.355 10.8984 377.441 12.0938C376.539 13.2773 376.088 14.9941 376.088 17.2441V17.8594C376.088 20.0508 376.539 21.7383 377.441 22.9219C378.344 24.1055 379.633 24.6973 381.309 24.6973ZM395.775 10.2832C397.217 8.51367 399.092 7.62891 401.4 7.62891C405.42 7.62891 407.447 9.89648 407.482 14.4316V27H404.23V14.4141C404.219 13.043 403.902 12.0293 403.281 11.373C402.672 10.7168 401.717 10.3887 400.416 10.3887C399.361 10.3887 398.436 10.6699 397.639 11.2324C396.842 11.7949 396.221 12.5332 395.775 13.4473V27H392.523V0H395.775V10.2832Z" fill="#002F34"/>
</svg>
