<svg width="79" height="42" viewBox="0 0 79 42" fill="none" xmlns="http://www.w3.org/2000/svg">
<path d="M11.3884 25.6719C11.4302 25.5179 11.3377 25.3038 11.2495 25.1495C11.222 25.1034 11.1922 25.0588 11.1602 25.0159C10.4034 23.8681 9.99999 22.5235 10 21.1487C9.98773 17.2024 13.2601 14 17.3066 14C20.8355 14 23.7813 16.4448 24.4696 19.69C24.5728 20.1712 24.6249 20.6619 24.625 21.1539C24.625 25.1059 21.4789 28.3585 17.4324 28.3585C16.7891 28.3585 15.9207 28.1968 15.4471 28.0643C14.9736 27.9317 14.5007 27.7559 14.3787 27.7088C14.254 27.6609 14.1215 27.6362 13.9878 27.6361C13.8418 27.6355 13.6972 27.6646 13.5628 27.7215L11.1781 28.5821C11.1259 28.6046 11.0705 28.6191 11.0139 28.625C10.9693 28.6249 10.9251 28.6159 10.884 28.5985C10.8428 28.5812 10.8055 28.5559 10.7742 28.524C10.7429 28.4922 10.7183 28.4544 10.7017 28.413C10.6851 28.3716 10.6768 28.3272 10.6775 28.2826C10.6804 28.2434 10.6875 28.2046 10.6986 28.1669L11.3884 25.6719Z" stroke="black" stroke-width="1.125" stroke-miterlimit="10" stroke-linecap="round"/>
<path d="M40.32 26.16C43.04 26.16 44.992 24.768 45.328 22.016H43.248C43.024 23.632 41.904 24.432 40.32 24.432C38.208 24.432 36.976 22.912 36.976 20.336V20.208C36.976 17.648 38.288 16.08 40.304 16.08C41.952 16.08 42.8 16.864 43.04 18.384H45.2C44.944 15.696 42.912 14.384 40.288 14.384C37.104 14.384 34.736 16.784 34.736 20.224V20.352C34.736 23.872 36.736 26.16 40.32 26.16ZM47.0114 26H48.9474V21.072C48.9474 19.744 49.8274 19.072 50.9154 19.072C52.0674 19.072 52.5794 19.648 52.5794 20.912V26H54.5154V20.736C54.5154 18.432 53.3314 17.456 51.6514 17.456C50.2754 17.456 49.3474 18.144 48.9474 18.96V13.76H47.0114V26ZM58.9378 26.16C60.2178 26.16 60.9538 25.696 61.4978 24.976V26H63.4018V20.512C63.4018 18.224 61.9298 17.456 60.0578 17.456C58.1858 17.456 56.6338 18.272 56.4738 20.224H58.3458C58.4418 19.392 58.9378 18.912 59.9458 18.912C61.0818 18.912 61.4658 19.472 61.4658 20.592V21.024H60.4258C58.0258 21.024 56.1378 21.728 56.1378 23.68C56.1378 25.424 57.4018 26.16 58.9378 26.16ZM59.4018 24.768C58.4418 24.768 58.0578 24.304 58.0578 23.6C58.0578 22.576 59.0018 22.24 60.4738 22.24H61.4658V23.072C61.4658 24.144 60.5858 24.768 59.4018 24.768ZM68.4688 26.144C69.0608 26.144 69.4768 26.048 69.7808 25.936V24.4C69.5088 24.512 69.2208 24.56 68.8368 24.56C68.2288 24.56 67.8768 24.224 67.8768 23.488V19.088H69.7168V17.632H67.8768V15.792H65.9408V17.632H64.8208V19.088H65.9408V23.664C65.9408 25.248 66.8048 26.144 68.4688 26.144Z" fill="#002F34"/>
</svg>
