<svg width="18" height="18" viewBox="0 0 18 18" fill="none" xmlns="http://www.w3.org/2000/svg">
<path d="M9 9.25C10.2426 9.25 11.25 8.24264 11.25 7C11.25 5.75736 10.2426 4.75 9 4.75C7.75736 4.75 6.75 5.75736 6.75 7C6.75 8.24264 7.75736 9.25 9 9.25Z" stroke="#002F34" stroke-width="1.5" stroke-linecap="round" stroke-linejoin="round"/>
<path d="M9 1C7.4087 1 5.88258 1.63214 4.75736 2.75736C3.63214 3.88258 3 5.4087 3 7C3 8.419 3.3015 9.3475 4.125 10.375L9 16L13.875 10.375C14.6985 9.3475 15 8.419 15 7C15 5.4087 14.3679 3.88258 13.2426 2.75736C12.1174 1.63214 10.5913 1 9 1V1Z" stroke="#002F34" stroke-width="1.5" stroke-linecap="round" stroke-linejoin="round"/>
</svg>
