<svg width="132" height="42" viewBox="0 0 132 42" fill="none" xmlns="http://www.w3.org/2000/svg">
<path d="M24.1477 22.8523L22.625 21.3296V19.3125C22.6233 17.9185 22.1047 16.5747 21.1696 15.5409C20.2345 14.5071 18.9493 13.8568 17.5625 13.7156V12.5625H16.4375V13.7156C15.0507 13.8568 13.7655 14.5071 12.8304 15.5409C11.8953 16.5747 11.3767 17.9185 11.375 19.3125V21.3296L9.85231 22.8523C9.74682 22.9578 9.68753 23.1008 9.6875 23.25V24.9375C9.6875 25.0867 9.74676 25.2298 9.85225 25.3352C9.95774 25.4407 10.1008 25.5 10.25 25.5H14.1875V25.9371C14.1753 26.6507 14.4268 27.3437 14.8939 27.8833C15.361 28.423 16.0108 28.7713 16.7188 28.8615C17.1098 28.9003 17.5046 28.8568 17.8778 28.7338C18.251 28.6108 18.5944 28.4111 18.8858 28.1475C19.1772 27.8838 19.4102 27.5621 19.5698 27.2031C19.7294 26.844 19.8121 26.4555 19.8125 26.0625V25.5H23.75C23.8992 25.5 24.0423 25.4407 24.1477 25.3352C24.2532 25.2298 24.3125 25.0867 24.3125 24.9375V23.25C24.3125 23.1008 24.2532 22.9578 24.1477 22.8523ZM18.6875 26.0625C18.6875 26.5101 18.5097 26.9393 18.1932 27.2557C17.8768 27.5722 17.4476 27.75 17 27.75C16.5524 27.75 16.1232 27.5722 15.8068 27.2557C15.4903 26.9393 15.3125 26.5101 15.3125 26.0625V25.5H18.6875V26.0625ZM23.1875 24.375H10.8125V23.4829L12.3352 21.9602C12.4407 21.8547 12.5 21.7117 12.5 21.5625V19.3125C12.5 18.119 12.9741 16.9744 13.818 16.1305C14.6619 15.2866 15.8065 14.8125 17 14.8125C18.1935 14.8125 19.3381 15.2866 20.182 16.1305C21.0259 16.9744 21.5 18.119 21.5 19.3125V21.5625C21.5 21.7117 21.5593 21.8547 21.6648 21.9602L23.1875 23.4829V24.375Z" fill="#002F34"/>
<path d="M35.312 26H37.248V17.232L42.4 26H44.608V14.56H42.672V22.832L37.856 14.56H35.312V26ZM50.7398 24.656C49.2678 24.656 48.4198 23.584 48.4198 21.872V21.744C48.4198 20.016 49.2998 18.976 50.7398 18.976C52.1798 18.976 53.0438 20.032 53.0438 21.76V21.872C53.0438 23.584 52.1798 24.656 50.7398 24.656ZM50.7238 26.16C53.1878 26.16 55.0278 24.464 55.0278 21.856V21.728C55.0278 19.168 53.1878 17.456 50.7398 17.456C48.2758 17.456 46.4358 19.184 46.4358 21.776V21.904C46.4358 24.448 48.2598 26.16 50.7238 26.16ZM59.625 26.144C60.217 26.144 60.633 26.048 60.937 25.936V24.4C60.665 24.512 60.377 24.56 59.993 24.56C59.385 24.56 59.033 24.224 59.033 23.488V19.088H60.873V17.632H59.033V15.792H57.097V17.632H55.977V19.088H57.097V23.664C57.097 25.248 57.961 26.144 59.625 26.144ZM62.7313 26H64.6673V17.632H62.7313V26ZM63.6753 16.256C64.3153 16.256 64.8273 15.776 64.8273 15.152C64.8273 14.512 64.3153 14.032 63.6753 14.032C63.0353 14.032 62.5233 14.512 62.5233 15.152C62.5233 15.776 63.0353 16.256 63.6753 16.256ZM67.363 26H69.299V19.088H71.203V17.632H69.299V16.432C69.299 15.712 69.619 15.2 70.387 15.2C70.739 15.2 70.979 15.232 71.203 15.328V13.824C70.899 13.728 70.627 13.68 70.147 13.68C68.371 13.68 67.363 14.672 67.363 16.512V17.632H66.227V19.088H67.363V26ZM72.6531 26H74.5891V17.632H72.6531V26ZM73.5971 16.256C74.2371 16.256 74.7491 15.776 74.7491 15.152C74.7491 14.512 74.2371 14.032 73.5971 14.032C72.9571 14.032 72.4451 14.512 72.4451 15.152C72.4451 15.776 72.9571 16.256 73.5971 16.256ZM80.6129 26.16C82.8849 26.16 84.3409 24.8 84.4849 22.88H82.7089C82.5969 24.064 81.7169 24.672 80.6929 24.672C79.2689 24.672 78.3729 23.712 78.3729 21.888V21.76C78.3729 20.032 79.3169 19.008 80.6449 19.008C81.6689 19.008 82.4049 19.472 82.5649 20.592H84.4369C84.2129 18.288 82.4689 17.456 80.6129 17.456C78.2769 17.456 76.3889 19.136 76.3889 21.792V21.92C76.3889 24.592 78.2129 26.16 80.6129 26.16ZM88.344 26.16C89.624 26.16 90.36 25.696 90.904 24.976V26H92.808V20.512C92.808 18.224 91.336 17.456 89.464 17.456C87.592 17.456 86.04 18.272 85.88 20.224H87.752C87.848 19.392 88.344 18.912 89.352 18.912C90.488 18.912 90.872 19.472 90.872 20.592V21.024H89.832C87.432 21.024 85.544 21.728 85.544 23.68C85.544 25.424 86.808 26.16 88.344 26.16ZM88.808 24.768C87.848 24.768 87.464 24.304 87.464 23.6C87.464 22.576 88.408 22.24 89.88 22.24H90.872V23.072C90.872 24.144 89.992 24.768 88.808 24.768ZM97.875 26.144C98.467 26.144 98.883 26.048 99.187 25.936V24.4C98.915 24.512 98.627 24.56 98.243 24.56C97.635 24.56 97.283 24.224 97.283 23.488V19.088H99.123V17.632H97.283V15.792H95.347V17.632H94.227V19.088H95.347V23.664C95.347 25.248 96.211 26.144 97.875 26.144ZM100.981 26H102.917V17.632H100.981V26ZM101.925 16.256C102.565 16.256 103.077 15.776 103.077 15.152C103.077 14.512 102.565 14.032 101.925 14.032C101.285 14.032 100.773 14.512 100.773 15.152C100.773 15.776 101.285 16.256 101.925 16.256ZM109.021 24.656C107.549 24.656 106.701 23.584 106.701 21.872V21.744C106.701 20.016 107.581 18.976 109.021 18.976C110.461 18.976 111.325 20.032 111.325 21.76V21.872C111.325 23.584 110.461 24.656 109.021 24.656ZM109.005 26.16C111.469 26.16 113.309 24.464 113.309 21.856V21.728C113.309 19.168 111.469 17.456 109.021 17.456C106.557 17.456 104.717 19.184 104.717 21.776V21.904C104.717 24.448 106.541 26.16 109.005 26.16ZM115.058 26H116.994V21.072C116.994 19.744 117.874 19.072 118.962 19.072C120.114 19.072 120.626 19.648 120.626 20.912V26H122.562V20.736C122.562 18.432 121.378 17.456 119.698 17.456C118.322 17.456 117.394 18.144 116.994 18.96V17.632H115.058V26Z" fill="#002F34"/>
</svg>
