<svg width="72" height="42" viewBox="0 0 72 42" fill="none" xmlns="http://www.w3.org/2000/svg">
<path d="M48 0V42H37.716V0H48ZM17.148 3.49081C26.616 3.49081 34.296 11.3298 34.296 20.9939C34.296 30.6579 26.616 38.4969 17.148 38.4969C7.68 38.4969 0 30.6579 0 20.9939C0 11.3298 7.68 3.49081 17.148 3.49081ZM58.704 10.4969L61.716 13.5713L64.728 10.4969H72V17.9195L68.988 20.9939L72 24.0682V31.4908H64.728L61.716 28.4164L58.704 31.4908H51.432V24.0682L54.444 20.9939L51.432 17.9195V10.4969H58.704ZM17.148 14C13.368 14 10.296 17.1356 10.296 20.9939C10.296 24.8521 13.368 27.9877 17.148 27.9877C20.928 27.9877 24 24.8521 24 20.9939C24 17.1356 20.928 14 17.148 14Z" fill="#003034"/>
</svg>
