<svg width="42" height="42" viewBox="0 0 42 42" fill="none" xmlns="http://www.w3.org/2000/svg">
<path d="M0 0H38C40.2091 0 42 1.79086 42 4V38C42 40.2091 40.2091 42 38 42H0V0Z" fill="#002F34"/>
<path d="M28.9766 27.3594L24.6144 22.9965C25.3174 22.0304 25.6955 20.8662 25.6944 19.6714C25.6944 16.5443 23.1501 14 20.023 14C16.8958 14 14.3516 16.5443 14.3516 19.6714C14.3516 22.7986 16.8958 25.3428 20.023 25.3428C21.2177 25.344 22.382 24.9658 23.348 24.2628L27.7109 28.625L28.9766 27.3594ZM20.023 23.5516C19.2554 23.5517 18.5051 23.3241 17.8669 22.8978C17.2287 22.4714 16.7313 21.8653 16.4375 21.1562C16.1438 20.4471 16.0669 19.6669 16.2166 18.9141C16.3663 18.1613 16.7359 17.4698 17.2787 16.9271C17.8214 16.3844 18.5129 16.0148 19.2656 15.8651C20.0184 15.7153 20.7987 15.7922 21.5078 16.086C22.2169 16.3797 22.8229 16.8772 23.2493 17.5154C23.6757 18.1536 23.9032 18.9039 23.9032 19.6714C23.902 20.7001 23.4928 21.6864 22.7653 22.4138C22.0379 23.1412 21.0517 23.5504 20.023 23.5516Z" fill="white"/>
</svg>
