<svg width="19" height="18" viewBox="0 0 19 18" fill="none" xmlns="http://www.w3.org/2000/svg">
<path d="M16.9766 15.3594L12.6144 10.9965C13.3174 10.0304 13.6955 8.86616 13.6944 7.67141C13.6944 4.54426 11.1501 2 8.02297 2C4.89582 2 2.35156 4.54426 2.35156 7.67141C2.35156 10.7986 4.89582 13.3428 8.02297 13.3428C9.21772 13.344 10.382 12.9658 11.348 12.2628L15.7109 16.625L16.9766 15.3594ZM8.02297 11.5516C7.25544 11.5517 6.50513 11.3241 5.86692 10.8978C5.22871 10.4714 4.73128 9.86533 4.43753 9.15624C4.14377 8.44715 4.0669 7.66687 4.21662 6.91408C4.36634 6.1613 4.73593 5.46982 5.27866 4.92709C5.82138 4.38437 6.51286 4.01477 7.26565 3.86505C8.01843 3.71533 8.79871 3.79221 9.5078 4.08596C10.2169 4.37972 10.8229 4.87715 11.2493 5.51536C11.6757 6.15356 11.9032 6.90388 11.9032 7.67141C11.902 8.70013 11.4928 9.68637 10.7653 10.4138C10.0379 11.1412 9.05169 11.5504 8.02297 11.5516Z" fill="white"/>
</svg>
