<svg width="16" height="16" viewBox="0 0 16 16" fill="none" xmlns="http://www.w3.org/2000/svg">
<path d="M5.17599 1.92447C5.16279 0.9185 6.47613 0.524975 7.01828 1.37245L8.35857 3.46755C8.6494 3.92216 9.24848 4.064 9.71227 3.78805L11.8497 2.51632C12.7143 2.0019 13.7117 2.94253 13.2489 3.83578L12.1046 6.04406C11.8563 6.52322 12.033 7.11296 12.5039 7.37664L14.674 8.59183C15.5518 9.08338 15.2359 10.4175 14.2309 10.4633L11.7463 10.5765C11.2072 10.601 10.7848 11.0489 10.7919 11.5886L10.8246 14.0755C10.8378 15.0814 9.52441 15.475 8.98226 14.6275L7.64198 12.5324C7.35115 12.0778 6.75207 11.936 6.28828 12.2119L4.15087 13.4836C3.28628 13.998 2.2888 13.0574 2.75166 12.1642L3.89593 9.95589C4.14422 9.47673 3.96751 8.88699 3.49664 8.6233L1.32659 7.40812C0.448796 6.91657 0.764664 5.58242 1.76967 5.53664L4.25423 5.42347C4.79334 5.39891 5.21572 4.95101 5.20864 4.41138L5.17599 1.92447Z" fill="#23E5DB"/>
</svg>
