<svg width="397" height="28" viewBox="0 0 397 28" fill="none" xmlns="http://www.w3.org/2000/svg">
<path d="M15.0859 15.6973H4.3457V27H0.970703V1.40625H16.8262V4.18359H4.3457V12.9375H15.0859V15.6973ZM29.0957 10.8984C28.6035 10.8164 28.0703 10.7754 27.4961 10.7754C25.3633 10.7754 23.916 11.6836 23.1543 13.5V27H19.9023V7.98047H23.0664L23.1191 10.1777C24.1855 8.47852 25.6973 7.62891 27.6543 7.62891C28.2871 7.62891 28.7676 7.71094 29.0957 7.875V10.8984ZM39.6426 27.3516C37.0645 27.3516 34.9668 26.5078 33.3496 24.8203C31.7324 23.1211 30.9238 20.8535 30.9238 18.0176V17.4199C30.9238 15.5332 31.2812 13.8516 31.9961 12.375C32.7227 10.8867 33.7305 9.72656 35.0195 8.89453C36.3203 8.05078 37.7266 7.62891 39.2383 7.62891C41.7109 7.62891 43.6328 8.44336 45.0039 10.0723C46.375 11.7012 47.0605 14.0332 47.0605 17.0684V18.4219H34.1758C34.2227 20.2969 34.7676 21.8145 35.8105 22.9746C36.8652 24.123 38.2012 24.6973 39.8184 24.6973C40.9668 24.6973 41.9395 24.4629 42.7363 23.9941C43.5332 23.5254 44.2305 22.9043 44.8281 22.1309L46.8145 23.6777C45.2207 26.127 42.8301 27.3516 39.6426 27.3516ZM39.2383 10.3008C37.9258 10.3008 36.8242 10.7812 35.9336 11.7422C35.043 12.6914 34.4922 14.0273 34.2812 15.75H43.8086V15.5039C43.7148 13.8516 43.2695 12.5742 42.4727 11.6719C41.6758 10.7578 40.5977 10.3008 39.2383 10.3008ZM61.9141 21.9551C61.9141 21.0762 61.5801 20.3965 60.9121 19.916C60.2559 19.4238 59.1016 19.002 57.4492 18.6504C55.8086 18.2988 54.502 17.877 53.5293 17.3848C52.5684 16.8926 51.8535 16.3066 51.3848 15.627C50.9277 14.9473 50.6992 14.1387 50.6992 13.2012C50.6992 11.6426 51.3555 10.3242 52.668 9.24609C53.9922 8.16797 55.6797 7.62891 57.7305 7.62891C59.8867 7.62891 61.6328 8.18555 62.9688 9.29883C64.3164 10.4121 64.9902 11.8359 64.9902 13.5703H61.7207C61.7207 12.6797 61.3398 11.9121 60.5781 11.2676C59.8281 10.623 58.8789 10.3008 57.7305 10.3008C56.5469 10.3008 55.6211 10.5586 54.9531 11.0742C54.2852 11.5898 53.9512 12.2637 53.9512 13.0957C53.9512 13.8809 54.2617 14.4727 54.8828 14.8711C55.5039 15.2695 56.623 15.6504 58.2402 16.0137C59.8691 16.377 61.1875 16.8105 62.1953 17.3145C63.2031 17.8184 63.9473 18.4277 64.4277 19.1426C64.9199 19.8457 65.166 20.707 65.166 21.7266C65.166 23.4258 64.4863 24.791 63.127 25.8223C61.7676 26.8418 60.0039 27.3516 57.8359 27.3516C56.3125 27.3516 54.9648 27.082 53.793 26.543C52.6211 26.0039 51.7012 25.2539 51.0332 24.293C50.377 23.3203 50.0488 22.2715 50.0488 21.1465H53.3008C53.3594 22.2363 53.793 23.1035 54.6016 23.748C55.4219 24.3809 56.5 24.6973 57.8359 24.6973C59.0664 24.6973 60.0508 24.4512 60.7891 23.959C61.5391 23.4551 61.9141 22.7871 61.9141 21.9551ZM72.6543 10.2832C74.0957 8.51367 75.9707 7.62891 78.2793 7.62891C82.2988 7.62891 84.3262 9.89648 84.3613 14.4316V27H81.1094V14.4141C81.0977 13.043 80.7812 12.0293 80.1602 11.373C79.5508 10.7168 78.5957 10.3887 77.2949 10.3887C76.2402 10.3887 75.3145 10.6699 74.5176 11.2324C73.7207 11.7949 73.0996 12.5332 72.6543 13.4473V27H69.4023V0H72.6543V10.2832ZM108.057 16.6465H102.045V27H98.6523V1.40625H107.125C110.008 1.40625 112.223 2.0625 113.77 3.375C115.328 4.6875 116.107 6.59766 116.107 9.10547C116.107 10.6992 115.674 12.0879 114.807 13.2715C113.951 14.4551 112.756 15.3398 111.221 15.9258L117.232 26.7891V27H113.611L108.057 16.6465ZM102.045 13.8867H107.23C108.906 13.8867 110.236 13.4531 111.221 12.5859C112.217 11.7188 112.715 10.5586 112.715 9.10547C112.715 7.52344 112.24 6.31055 111.291 5.4668C110.354 4.62305 108.994 4.19531 107.213 4.18359H102.045V13.8867ZM128.236 27.3516C125.658 27.3516 123.561 26.5078 121.943 24.8203C120.326 23.1211 119.518 20.8535 119.518 18.0176V17.4199C119.518 15.5332 119.875 13.8516 120.59 12.375C121.316 10.8867 122.324 9.72656 123.613 8.89453C124.914 8.05078 126.32 7.62891 127.832 7.62891C130.305 7.62891 132.227 8.44336 133.598 10.0723C134.969 11.7012 135.654 14.0332 135.654 17.0684V18.4219H122.77C122.816 20.2969 123.361 21.8145 124.404 22.9746C125.459 24.123 126.795 24.6973 128.412 24.6973C129.561 24.6973 130.533 24.4629 131.33 23.9941C132.127 23.5254 132.824 22.9043 133.422 22.1309L135.408 23.6777C133.814 26.127 131.424 27.3516 128.236 27.3516ZM127.832 10.3008C126.52 10.3008 125.418 10.7812 124.527 11.7422C123.637 12.6914 123.086 14.0273 122.875 15.75H132.402V15.5039C132.309 13.8516 131.863 12.5742 131.066 11.6719C130.27 10.7578 129.191 10.3008 127.832 10.3008ZM147.062 24.6973C148.223 24.6973 149.236 24.3457 150.104 23.6426C150.971 22.9395 151.451 22.0605 151.545 21.0059H154.621C154.562 22.0957 154.188 23.1328 153.496 24.1172C152.805 25.1016 151.879 25.8867 150.719 26.4727C149.57 27.0586 148.352 27.3516 147.062 27.3516C144.473 27.3516 142.41 26.4902 140.875 24.7676C139.352 23.0332 138.59 20.666 138.59 17.666V17.1211C138.59 15.2695 138.93 13.623 139.609 12.1816C140.289 10.7402 141.262 9.62109 142.527 8.82422C143.805 8.02734 145.311 7.62891 147.045 7.62891C149.178 7.62891 150.947 8.26758 152.354 9.54492C153.771 10.8223 154.527 12.4805 154.621 14.5195H151.545C151.451 13.2891 150.982 12.2812 150.139 11.4961C149.307 10.6992 148.275 10.3008 147.045 10.3008C145.393 10.3008 144.109 10.8984 143.195 12.0938C142.293 13.2773 141.842 14.9941 141.842 17.2441V17.8594C141.842 20.0508 142.293 21.7383 143.195 22.9219C144.098 24.1055 145.387 24.6973 147.062 24.6973ZM157.416 17.3145C157.416 15.4512 157.779 13.7754 158.506 12.2871C159.244 10.7988 160.264 9.65039 161.564 8.8418C162.877 8.0332 164.371 7.62891 166.047 7.62891C168.637 7.62891 170.729 8.52539 172.322 10.3184C173.928 12.1113 174.73 14.4961 174.73 17.4727V17.7012C174.73 19.5527 174.373 21.2168 173.658 22.6934C172.955 24.1582 171.941 25.3008 170.617 26.1211C169.305 26.9414 167.793 27.3516 166.082 27.3516C163.504 27.3516 161.412 26.4551 159.807 24.6621C158.213 22.8691 157.416 20.4961 157.416 17.543V17.3145ZM160.686 17.7012C160.686 19.8105 161.172 21.5039 162.145 22.7812C163.129 24.0586 164.441 24.6973 166.082 24.6973C167.734 24.6973 169.047 24.0527 170.02 22.7637C170.992 21.4629 171.479 19.6465 171.479 17.3145C171.479 15.2285 170.98 13.541 169.984 12.252C169 10.9512 167.688 10.3008 166.047 10.3008C164.441 10.3008 163.146 10.9395 162.162 12.2168C161.178 13.4941 160.686 15.3223 160.686 17.7012ZM181.867 7.98047L181.955 10.0898C183.35 8.44922 185.23 7.62891 187.598 7.62891C190.258 7.62891 192.068 8.64844 193.029 10.6875C193.662 9.77344 194.482 9.03516 195.49 8.47266C196.51 7.91016 197.711 7.62891 199.094 7.62891C203.266 7.62891 205.387 9.83789 205.457 14.2559V27H202.205V14.4492C202.205 13.0898 201.895 12.0762 201.273 11.4082C200.652 10.7285 199.609 10.3887 198.145 10.3887C196.938 10.3887 195.936 10.752 195.139 11.4785C194.342 12.1934 193.879 13.1602 193.75 14.3789V27H190.48V14.5371C190.48 11.7715 189.127 10.3887 186.42 10.3887C184.287 10.3887 182.828 11.2969 182.043 13.1133V27H178.791V7.98047H181.867ZM213.438 7.98047L213.525 10.0898C214.92 8.44922 216.801 7.62891 219.168 7.62891C221.828 7.62891 223.639 8.64844 224.6 10.6875C225.232 9.77344 226.053 9.03516 227.061 8.47266C228.08 7.91016 229.281 7.62891 230.664 7.62891C234.836 7.62891 236.957 9.83789 237.027 14.2559V27H233.775V14.4492C233.775 13.0898 233.465 12.0762 232.844 11.4082C232.223 10.7285 231.18 10.3887 229.715 10.3887C228.508 10.3887 227.506 10.752 226.709 11.4785C225.912 12.1934 225.449 13.1602 225.32 14.3789V27H222.051V14.5371C222.051 11.7715 220.697 10.3887 217.99 10.3887C215.857 10.3887 214.398 11.2969 213.613 13.1133V27H210.361V7.98047H213.438ZM249.842 27.3516C247.264 27.3516 245.166 26.5078 243.549 24.8203C241.932 23.1211 241.123 20.8535 241.123 18.0176V17.4199C241.123 15.5332 241.48 13.8516 242.195 12.375C242.922 10.8867 243.93 9.72656 245.219 8.89453C246.52 8.05078 247.926 7.62891 249.438 7.62891C251.91 7.62891 253.832 8.44336 255.203 10.0723C256.574 11.7012 257.26 14.0332 257.26 17.0684V18.4219H244.375C244.422 20.2969 244.967 21.8145 246.01 22.9746C247.064 24.123 248.4 24.6973 250.018 24.6973C251.166 24.6973 252.139 24.4629 252.936 23.9941C253.732 23.5254 254.43 22.9043 255.027 22.1309L257.014 23.6777C255.42 26.127 253.029 27.3516 249.842 27.3516ZM249.438 10.3008C248.125 10.3008 247.023 10.7812 246.133 11.7422C245.242 12.6914 244.691 14.0273 244.48 15.75H254.008V15.5039C253.914 13.8516 253.469 12.5742 252.672 11.6719C251.875 10.7578 250.797 10.3008 249.438 10.3008ZM264.115 7.98047L264.221 10.3711C265.674 8.54297 267.572 7.62891 269.916 7.62891C273.936 7.62891 275.963 9.89648 275.998 14.4316V27H272.746V14.4141C272.734 13.043 272.418 12.0293 271.797 11.373C271.188 10.7168 270.232 10.3887 268.932 10.3887C267.877 10.3887 266.951 10.6699 266.154 11.2324C265.357 11.7949 264.736 12.5332 264.291 13.4473V27H261.039V7.98047H264.115ZM280.111 17.332C280.111 14.4141 280.803 12.0703 282.186 10.3008C283.568 8.51953 285.379 7.62891 287.617 7.62891C289.844 7.62891 291.607 8.39062 292.908 9.91406V0H296.16V27H293.172L293.014 24.9609C291.713 26.5547 289.902 27.3516 287.582 27.3516C285.379 27.3516 283.58 26.4492 282.186 24.6445C280.803 22.8398 280.111 20.4844 280.111 17.5781V17.332ZM283.363 17.7012C283.363 19.8574 283.809 21.5449 284.699 22.7637C285.59 23.9824 286.82 24.5918 288.391 24.5918C290.453 24.5918 291.959 23.666 292.908 21.8145V13.0781C291.936 11.2852 290.441 10.3887 288.426 10.3887C286.832 10.3887 285.59 11.0039 284.699 12.2344C283.809 13.4648 283.363 15.2871 283.363 17.7012ZM312.965 27C312.777 26.625 312.625 25.957 312.508 24.9961C310.996 26.5664 309.191 27.3516 307.094 27.3516C305.219 27.3516 303.678 26.8242 302.471 25.7695C301.275 24.7031 300.678 23.3555 300.678 21.7266C300.678 19.7461 301.428 18.2109 302.928 17.1211C304.439 16.0195 306.561 15.4688 309.291 15.4688H312.455V13.9746C312.455 12.8379 312.115 11.9355 311.436 11.2676C310.756 10.5879 309.754 10.248 308.43 10.248C307.27 10.248 306.297 10.541 305.512 11.127C304.727 11.7129 304.334 12.4219 304.334 13.2539H301.064C301.064 12.3047 301.398 11.3906 302.066 10.5117C302.746 9.62109 303.66 8.91797 304.809 8.40234C305.969 7.88672 307.24 7.62891 308.623 7.62891C310.814 7.62891 312.531 8.17969 313.773 9.28125C315.016 10.3711 315.66 11.877 315.707 13.7988V22.5527C315.707 24.2988 315.93 25.6875 316.375 26.7188V27H312.965ZM307.568 24.5215C308.588 24.5215 309.555 24.2578 310.469 23.7305C311.383 23.2031 312.045 22.5176 312.455 21.6738V17.7715H309.906C305.922 17.7715 303.93 18.9375 303.93 21.2695C303.93 22.2891 304.27 23.0859 304.949 23.6602C305.629 24.2344 306.502 24.5215 307.568 24.5215ZM325.217 3.375V7.98047H328.768V10.4941H325.217V22.2891C325.217 23.0508 325.375 23.625 325.691 24.0117C326.008 24.3867 326.547 24.5742 327.309 24.5742C327.684 24.5742 328.199 24.5039 328.855 24.3633V27C328 27.2344 327.168 27.3516 326.359 27.3516C324.906 27.3516 323.811 26.9121 323.072 26.0332C322.334 25.1543 321.965 23.9062 321.965 22.2891V10.4941H318.502V7.98047H321.965V3.375H325.217ZM336.115 27H332.863V7.98047H336.115V27ZM332.6 2.93555C332.6 2.4082 332.758 1.96289 333.074 1.59961C333.402 1.23633 333.883 1.05469 334.516 1.05469C335.148 1.05469 335.629 1.23633 335.957 1.59961C336.285 1.96289 336.449 2.4082 336.449 2.93555C336.449 3.46289 336.285 3.90234 335.957 4.25391C335.629 4.60547 335.148 4.78125 334.516 4.78125C333.883 4.78125 333.402 4.60547 333.074 4.25391C332.758 3.90234 332.6 3.46289 332.6 2.93555ZM340.475 17.3145C340.475 15.4512 340.838 13.7754 341.564 12.2871C342.303 10.7988 343.322 9.65039 344.623 8.8418C345.936 8.0332 347.43 7.62891 349.105 7.62891C351.695 7.62891 353.787 8.52539 355.381 10.3184C356.986 12.1113 357.789 14.4961 357.789 17.4727V17.7012C357.789 19.5527 357.432 21.2168 356.717 22.6934C356.014 24.1582 355 25.3008 353.676 26.1211C352.363 26.9414 350.852 27.3516 349.141 27.3516C346.562 27.3516 344.471 26.4551 342.865 24.6621C341.271 22.8691 340.475 20.4961 340.475 17.543V17.3145ZM343.744 17.7012C343.744 19.8105 344.23 21.5039 345.203 22.7812C346.188 24.0586 347.5 24.6973 349.141 24.6973C350.793 24.6973 352.105 24.0527 353.078 22.7637C354.051 21.4629 354.537 19.6465 354.537 17.3145C354.537 15.2285 354.039 13.541 353.043 12.252C352.059 10.9512 350.746 10.3008 349.105 10.3008C347.5 10.3008 346.205 10.9395 345.221 12.2168C344.236 13.4941 343.744 15.3223 343.744 17.7012ZM364.943 7.98047L365.049 10.3711C366.502 8.54297 368.4 7.62891 370.744 7.62891C374.764 7.62891 376.791 9.89648 376.826 14.4316V27H373.574V14.4141C373.562 13.043 373.246 12.0293 372.625 11.373C372.016 10.7168 371.061 10.3887 369.76 10.3887C368.705 10.3887 367.779 10.6699 366.982 11.2324C366.186 11.7949 365.564 12.5332 365.119 13.4473V27H361.867V7.98047H364.943ZM392.805 21.9551C392.805 21.0762 392.471 20.3965 391.803 19.916C391.146 19.4238 389.992 19.002 388.34 18.6504C386.699 18.2988 385.393 17.877 384.42 17.3848C383.459 16.8926 382.744 16.3066 382.275 15.627C381.818 14.9473 381.59 14.1387 381.59 13.2012C381.59 11.6426 382.246 10.3242 383.559 9.24609C384.883 8.16797 386.57 7.62891 388.621 7.62891C390.777 7.62891 392.523 8.18555 393.859 9.29883C395.207 10.4121 395.881 11.8359 395.881 13.5703H392.611C392.611 12.6797 392.23 11.9121 391.469 11.2676C390.719 10.623 389.77 10.3008 388.621 10.3008C387.438 10.3008 386.512 10.5586 385.844 11.0742C385.176 11.5898 384.842 12.2637 384.842 13.0957C384.842 13.8809 385.152 14.4727 385.773 14.8711C386.395 15.2695 387.514 15.6504 389.131 16.0137C390.76 16.377 392.078 16.8105 393.086 17.3145C394.094 17.8184 394.838 18.4277 395.318 19.1426C395.811 19.8457 396.057 20.707 396.057 21.7266C396.057 23.4258 395.377 24.791 394.018 25.8223C392.658 26.8418 390.895 27.3516 388.727 27.3516C387.203 27.3516 385.855 27.082 384.684 26.543C383.512 26.0039 382.592 25.2539 381.924 24.293C381.268 23.3203 380.939 22.2715 380.939 21.1465H384.191C384.25 22.2363 384.684 23.1035 385.492 23.748C386.312 24.3809 387.391 24.6973 388.727 24.6973C389.957 24.6973 390.941 24.4512 391.68 23.959C392.43 23.4551 392.805 22.7871 392.805 21.9551Z" fill="#002F34"/>
</svg>
