<svg width="126" height="42" viewBox="0 0 126 42" fill="none" xmlns="http://www.w3.org/2000/svg">
<path d="M1 5C1 2.79086 2.79086 1 5 1H121C123.209 1 125 2.79086 125 5V37C125 39.2091 123.209 41 121 41H5C2.79086 41 1 39.2091 1 37V5Z" fill="white"/>
<path d="M18.476 27H26.36V25.092H20.87V14.13H18.476V27ZM32.2463 25.488C30.5903 25.488 29.6363 24.282 29.6363 22.356V22.212C29.6363 20.268 30.6263 19.098 32.2463 19.098C33.8663 19.098 34.8383 20.286 34.8383 22.23V22.356C34.8383 24.282 33.8663 25.488 32.2463 25.488ZM32.2283 27.18C35.0003 27.18 37.0703 25.272 37.0703 22.338V22.194C37.0703 19.314 35.0003 17.388 32.2463 17.388C29.4743 17.388 27.4043 19.332 27.4043 22.248V22.392C27.4043 25.254 29.4563 27.18 32.2283 27.18ZM41.5042 27.18C42.9442 27.18 43.7722 26.658 44.3842 25.848V27H46.5262V20.826C46.5262 18.252 44.8702 17.388 42.7642 17.388C40.6582 17.388 38.9122 18.306 38.7322 20.502H40.8382C40.9462 19.566 41.5042 19.026 42.6382 19.026C43.9162 19.026 44.3482 19.656 44.3482 20.916V21.402H43.1782C40.4782 21.402 38.3542 22.194 38.3542 24.39C38.3542 26.352 39.7762 27.18 41.5042 27.18ZM42.0262 25.614C40.9462 25.614 40.5142 25.092 40.5142 24.3C40.5142 23.148 41.5762 22.77 43.2322 22.77H44.3482V23.706C44.3482 24.912 43.3582 25.614 42.0262 25.614ZM52.5506 27.18C53.9366 27.18 55.1426 26.352 55.6466 25.416V27H57.8246V13.23H55.6466V19.026C55.1246 18.09 54.1706 17.388 52.6406 17.388C50.1926 17.388 48.4106 19.296 48.4106 22.302V22.446C48.4106 25.506 50.1926 27.18 52.5506 27.18ZM53.0906 25.452C51.6866 25.452 50.6426 24.462 50.6426 22.392V22.248C50.6426 20.214 51.5786 19.098 53.1806 19.098C54.7646 19.098 55.7186 20.124 55.7186 22.194V22.338C55.7186 24.444 54.6026 25.452 53.0906 25.452ZM64.7023 27H66.8803V21.366C66.8803 19.926 67.8703 19.206 68.9503 19.206C70.0123 19.206 70.6243 19.8 70.6243 21.186V27H72.8023V21.366C72.8023 19.926 73.7923 19.206 74.8723 19.206C75.9523 19.206 76.5463 19.8 76.5463 21.186V27H78.7243V21.042C78.7243 18.45 77.3203 17.388 75.5923 17.388C74.4223 17.388 73.1263 17.91 72.4062 19.08C71.9383 17.91 70.9663 17.388 69.7423 17.388C68.3563 17.388 67.3303 18.144 66.8803 19.026V17.586H64.7023V27ZM85.4377 25.488C83.7817 25.488 82.8277 24.282 82.8277 22.356V22.212C82.8277 20.268 83.8177 19.098 85.4377 19.098C87.0577 19.098 88.0297 20.286 88.0297 22.23V22.356C88.0297 24.282 87.0577 25.488 85.4377 25.488ZM85.4197 27.18C88.1917 27.18 90.2617 25.272 90.2617 22.338V22.194C90.2617 19.314 88.1917 17.388 85.4377 17.388C82.6657 17.388 80.5957 19.332 80.5957 22.248V22.392C80.5957 25.254 82.6477 27.18 85.4197 27.18ZM92.2296 27H94.4076V22.104C94.4076 20.106 95.5596 19.494 97.4676 19.476V17.442C95.8836 17.46 95.0016 18.162 94.4076 19.35V17.586H92.2296V27ZM103.348 27.18C105.76 27.18 107.362 26.1 107.668 24.12H105.562C105.4 25.038 104.716 25.56 103.402 25.56C101.782 25.56 100.882 24.552 100.81 22.77H107.704V22.14C107.704 18.774 105.598 17.388 103.258 17.388C100.576 17.388 98.5781 19.332 98.5781 22.248V22.392C98.5781 25.362 100.576 27.18 103.348 27.18ZM100.846 21.312C101.062 19.854 101.944 18.972 103.258 18.972C104.608 18.972 105.436 19.692 105.544 21.312H100.846Z" fill="#002F34"/>
<path d="M5 2H121V0H5V2ZM124 5V37H126V5H124ZM121 40H5V42H121V40ZM2 37V5H0V37H2ZM5 40C3.34315 40 2 38.6569 2 37H0C0 39.7614 2.23858 42 5 42V40ZM124 37C124 38.6569 122.657 40 121 40V42C123.761 42 126 39.7614 126 37H124ZM121 2C122.657 2 124 3.34315 124 5H126C126 2.23858 123.761 0 121 0V2ZM5 0C2.23858 0 0 2.23858 0 5H2C2 3.34315 3.34315 2 5 2V0Z" fill="#002F34"/>
</svg>
