<svg width="74" height="21" viewBox="0 0 74 21" fill="none" xmlns="http://www.w3.org/2000/svg">
<rect width="74" height="21" fill="#FFCE32"/>
<path d="M13.08 14H14.124V10.16H17.22V9.308H14.124V6.272H18.096V5.42H13.08V14ZM21.7635 14.108C23.1795 14.108 24.2235 13.448 24.4395 12.188H23.4435C23.3115 12.92 22.7475 13.28 21.7755 13.28C20.4915 13.28 19.8075 12.488 19.7595 11.06H24.4875V10.736C24.4875 8.492 23.1195 7.616 21.6675 7.616C19.9395 7.616 18.7275 8.936 18.7275 10.832V10.928C18.7275 12.86 19.9875 14.108 21.7635 14.108ZM19.7955 10.256C19.9635 9.14 20.6475 8.444 21.6675 8.444C22.6995 8.444 23.3715 8.96 23.4675 10.256H19.7955ZM27.6464 14.108C28.5704 14.108 29.1344 13.796 29.6024 13.208V14H30.5984V9.86C30.5984 8.108 29.5064 7.616 28.3064 7.616C27.0944 7.616 25.9544 8.144 25.8224 9.572H26.8184C26.9144 8.804 27.3944 8.444 28.2584 8.444C29.2184 8.444 29.6024 8.864 29.6024 9.86V10.316H28.7024C27.0944 10.316 25.5584 10.808 25.5584 12.26C25.5584 13.544 26.4824 14.108 27.6464 14.108ZM27.7424 13.316C26.8664 13.316 26.5544 12.908 26.5544 12.26C26.5544 11.336 27.4784 11.024 28.7384 11.024H29.6024V11.804C29.6024 12.776 28.7984 13.316 27.7424 13.316ZM34.4629 14.084C34.8709 14.084 35.1109 14.024 35.3149 13.952V13.112C35.0989 13.196 34.8589 13.244 34.5469 13.244C34.0429 13.244 33.7669 12.944 33.7669 12.332V8.564H35.2309V7.724H33.7669V6.296H32.7709V7.724H31.8709V8.564H32.7709V12.428C32.7709 13.412 33.3229 14.084 34.4629 14.084ZM38.9445 14.108C39.9525 14.108 40.6485 13.592 40.9365 13.004V14H41.9325V7.724H40.9365V11.528C40.9365 12.656 40.0965 13.244 39.2085 13.244C38.2245 13.244 37.7565 12.752 37.7565 11.648V7.724H36.7605V11.696C36.7605 13.424 37.6965 14.108 38.9445 14.108ZM43.9455 14H44.9415V10.556C44.9415 9.008 45.7455 8.612 47.0055 8.552V7.616C45.8775 7.652 45.3375 8.144 44.9415 8.852V7.724H43.9455V14ZM50.8494 14.108C52.2654 14.108 53.3094 13.448 53.5254 12.188H52.5294C52.3974 12.92 51.8334 13.28 50.8614 13.28C49.5774 13.28 48.8934 12.488 48.8454 11.06H53.5734V10.736C53.5734 8.492 52.2054 7.616 50.7534 7.616C49.0254 7.616 47.8134 8.936 47.8134 10.832V10.928C47.8134 12.86 49.0734 14.108 50.8494 14.108ZM48.8814 10.256C49.0494 9.14 49.7334 8.444 50.7534 8.444C51.7854 8.444 52.4574 8.96 52.5534 10.256H48.8814ZM57.4658 14.108C58.3778 14.108 59.2538 13.532 59.6138 12.92V14H60.6098V4.724H59.6138V8.732C59.2538 8.12 58.6058 7.616 57.5618 7.616C55.8338 7.616 54.6338 8.972 54.6338 10.892V10.988C54.6338 12.944 55.8218 14.108 57.4658 14.108ZM57.5738 13.28C56.5178 13.28 55.6658 12.524 55.6658 10.94V10.844C55.6658 9.32 56.4098 8.444 57.6578 8.444C58.8818 8.444 59.6498 9.2 59.6498 10.808V10.904C59.6498 12.512 58.7378 13.28 57.5738 13.28Z" fill="black"/>
</svg>
