<svg width="212" height="27" viewBox="0 0 212 27" fill="none" xmlns="http://www.w3.org/2000/svg">
<path d="M5.33008 0.40625L13.6973 21.2891L22.0645 0.40625H26.4414V26H23.0664V16.0332L23.3828 5.27539L14.9805 26H12.3965L4.01172 5.32812L4.3457 16.0332V26H0.970703V0.40625H5.33008ZM31.0833 16.3145C31.0833 14.4512 31.4466 12.7754 32.1731 11.2871C32.9114 9.79883 33.931 8.65039 35.2317 7.8418C36.5442 7.0332 38.0384 6.62891 39.7142 6.62891C42.304 6.62891 44.3958 7.52539 45.9895 9.31836C47.595 11.1113 48.3978 13.4961 48.3978 16.4727V16.7012C48.3978 18.5527 48.0403 20.2168 47.3255 21.6934C46.6224 23.1582 45.6087 24.3008 44.2845 25.1211C42.972 25.9414 41.4603 26.3516 39.7493 26.3516C37.1712 26.3516 35.0794 25.4551 33.4739 23.6621C31.8802 21.8691 31.0833 19.4961 31.0833 16.543V16.3145ZM34.3528 16.7012C34.3528 18.8105 34.8392 20.5039 35.8118 21.7812C36.7962 23.0586 38.1087 23.6973 39.7493 23.6973C41.4017 23.6973 42.7142 23.0527 43.6868 21.7637C44.6595 20.4629 45.1458 18.6465 45.1458 16.3145C45.1458 14.2285 44.6478 12.541 43.6517 11.252C42.6673 9.95117 41.3548 9.30078 39.7142 9.30078C38.1087 9.30078 36.8138 9.93945 35.8294 11.2168C34.845 12.4941 34.3528 14.3223 34.3528 16.7012ZM61.7232 9.89844C61.231 9.81641 60.6978 9.77539 60.1236 9.77539C57.9908 9.77539 56.5435 10.6836 55.7818 12.5V26H52.5299V6.98047H55.6939L55.7467 9.17773C56.8131 7.47852 58.3248 6.62891 60.2818 6.62891C60.9146 6.62891 61.3951 6.71094 61.7232 6.875V9.89844ZM72.3241 26.3516C69.746 26.3516 67.6483 25.5078 66.0311 23.8203C64.414 22.1211 63.6054 19.8535 63.6054 17.0176V16.4199C63.6054 14.5332 63.9628 12.8516 64.6776 11.375C65.4042 9.88672 66.412 8.72656 67.7011 7.89453C69.0018 7.05078 70.4081 6.62891 71.9198 6.62891C74.3925 6.62891 76.3143 7.44336 77.6854 9.07227C79.0565 10.7012 79.7421 13.0332 79.7421 16.0684V17.4219H66.8573C66.9042 19.2969 67.4491 20.8145 68.4921 21.9746C69.5468 23.123 70.8827 23.6973 72.4999 23.6973C73.6483 23.6973 74.621 23.4629 75.4179 22.9941C76.2147 22.5254 76.912 21.9043 77.5097 21.1309L79.496 22.6777C77.9022 25.127 75.5116 26.3516 72.3241 26.3516ZM71.9198 9.30078C70.6073 9.30078 69.5057 9.78125 68.6151 10.7422C67.7245 11.6914 67.1737 13.0273 66.9628 14.75H76.4901V14.5039C76.3964 12.8516 75.9511 11.5742 75.1542 10.6719C74.3573 9.75781 73.2792 9.30078 71.9198 9.30078ZM91.6977 16.3145C91.6977 14.4512 92.061 12.7754 92.7876 11.2871C93.5259 9.79883 94.5454 8.65039 95.8462 7.8418C97.1587 7.0332 98.6528 6.62891 100.329 6.62891C102.918 6.62891 105.01 7.52539 106.604 9.31836C108.209 11.1113 109.012 13.4961 109.012 16.4727V16.7012C109.012 18.5527 108.655 20.2168 107.94 21.6934C107.237 23.1582 106.223 24.3008 104.899 25.1211C103.586 25.9414 102.075 26.3516 100.364 26.3516C97.7856 26.3516 95.6938 25.4551 94.0884 23.6621C92.4946 21.8691 91.6977 19.4961 91.6977 16.543V16.3145ZM94.9673 16.7012C94.9673 18.8105 95.4536 20.5039 96.4262 21.7812C97.4106 23.0586 98.7231 23.6973 100.364 23.6973C102.016 23.6973 103.329 23.0527 104.301 21.7637C105.274 20.4629 105.76 18.6465 105.76 16.3145C105.76 14.2285 105.262 12.541 104.266 11.252C103.282 9.95117 101.969 9.30078 100.329 9.30078C98.7231 9.30078 97.4282 9.93945 96.4438 11.2168C95.4594 12.4941 94.9673 14.3223 94.9673 16.7012ZM116.22 6.98047L116.326 9.37109C117.779 7.54297 119.678 6.62891 122.021 6.62891C126.041 6.62891 128.068 8.89648 128.103 13.4316V26H124.851V13.4141C124.84 12.043 124.523 11.0293 123.902 10.373C123.293 9.7168 122.338 9.38867 121.037 9.38867C119.982 9.38867 119.056 9.66992 118.26 10.2324C117.463 10.7949 116.842 11.5332 116.396 12.4473V26H113.144V6.98047H116.22ZM161.381 17.8789C161.065 20.5859 160.063 22.6777 158.375 24.1543C156.7 25.6191 154.467 26.3516 151.678 26.3516C148.655 26.3516 146.229 25.2676 144.401 23.0996C142.584 20.9316 141.676 18.0312 141.676 14.3984V11.9375C141.676 9.55859 142.098 7.4668 142.942 5.66211C143.797 3.85742 145.004 2.47461 146.563 1.51367C148.121 0.541016 149.926 0.0546875 151.977 0.0546875C154.696 0.0546875 156.875 0.816406 158.516 2.33984C160.157 3.85156 161.112 5.94922 161.381 8.63281H157.989C157.696 6.59375 157.057 5.11719 156.073 4.20312C155.1 3.28906 153.735 2.83203 151.977 2.83203C149.821 2.83203 148.127 3.62891 146.897 5.22266C145.678 6.81641 145.069 9.08398 145.069 12.0254V14.5039C145.069 17.2812 145.649 19.4902 146.809 21.1309C147.969 22.7715 149.592 23.5918 151.678 23.5918C153.553 23.5918 154.989 23.1699 155.985 22.3262C156.993 21.4707 157.661 19.9883 157.989 17.8789H161.381ZM177.291 26C177.103 25.625 176.951 24.957 176.834 23.9961C175.322 25.5664 173.517 26.3516 171.42 26.3516C169.545 26.3516 168.004 25.8242 166.797 24.7695C165.601 23.7031 165.004 22.3555 165.004 20.7266C165.004 18.7461 165.754 17.2109 167.254 16.1211C168.765 15.0195 170.886 14.4688 173.617 14.4688H176.781V12.9746C176.781 11.8379 176.441 10.9355 175.761 10.2676C175.082 9.58789 174.08 9.24805 172.756 9.24805C171.595 9.24805 170.623 9.54102 169.838 10.127C169.052 10.7129 168.66 11.4219 168.66 12.2539H165.39C165.39 11.3047 165.724 10.3906 166.392 9.51172C167.072 8.62109 167.986 7.91797 169.134 7.40234C170.295 6.88672 171.566 6.62891 172.949 6.62891C175.14 6.62891 176.857 7.17969 178.099 8.28125C179.341 9.37109 179.986 10.877 180.033 12.7988V21.5527C180.033 23.2988 180.256 24.6875 180.701 25.7188V26H177.291ZM171.894 23.5215C172.914 23.5215 173.881 23.2578 174.795 22.7305C175.709 22.2031 176.371 21.5176 176.781 20.6738V16.7715H174.232C170.248 16.7715 168.256 17.9375 168.256 20.2695C168.256 21.2891 168.595 22.0859 169.275 22.6602C169.955 23.2344 170.828 23.5215 171.894 23.5215ZM194.378 9.89844C193.886 9.81641 193.352 9.77539 192.778 9.77539C190.645 9.77539 189.198 10.6836 188.436 12.5V26H185.185V6.98047H188.349L188.401 9.17773C189.468 7.47852 190.979 6.62891 192.936 6.62891C193.569 6.62891 194.05 6.71094 194.378 6.875V9.89844ZM208.512 20.9551C208.512 20.0762 208.178 19.3965 207.51 18.916C206.854 18.4238 205.699 18.002 204.047 17.6504C202.406 17.2988 201.1 16.877 200.127 16.3848C199.166 15.8926 198.451 15.3066 197.983 14.627C197.526 13.9473 197.297 13.1387 197.297 12.2012C197.297 10.6426 197.953 9.32422 199.266 8.24609C200.59 7.16797 202.278 6.62891 204.328 6.62891C206.485 6.62891 208.231 7.18555 209.567 8.29883C210.914 9.41211 211.588 10.8359 211.588 12.5703H208.319C208.319 11.6797 207.938 10.9121 207.176 10.2676C206.426 9.62305 205.477 9.30078 204.328 9.30078C203.145 9.30078 202.219 9.55859 201.551 10.0742C200.883 10.5898 200.549 11.2637 200.549 12.0957C200.549 12.8809 200.86 13.4727 201.481 13.8711C202.102 14.2695 203.221 14.6504 204.838 15.0137C206.467 15.377 207.785 15.8105 208.793 16.3145C209.801 16.8184 210.545 17.4277 211.026 18.1426C211.518 18.8457 211.764 19.707 211.764 20.7266C211.764 22.4258 211.084 23.791 209.725 24.8223C208.365 25.8418 206.602 26.3516 204.434 26.3516C202.91 26.3516 201.563 26.082 200.391 25.543C199.219 25.0039 198.299 24.2539 197.631 23.293C196.975 22.3203 196.647 21.2715 196.647 20.1465H199.899C199.957 21.2363 200.391 22.1035 201.199 22.748C202.02 23.3809 203.098 23.6973 204.434 23.6973C205.664 23.6973 206.649 23.4512 207.387 22.959C208.137 22.4551 208.512 21.7871 208.512 20.9551Z" fill="#002F34"/>
</svg>
