<svg width="32" height="32" viewBox="0 0 32 32" fill="none" xmlns="http://www.w3.org/2000/svg">
<rect width="32" height="32" rx="16" fill="white" fill-opacity="0.6"/>
<g clip-path="url(#clip0)">
<path d="M15.9999 11.0916L15.1933 10.2624C13.2999 8.31618 9.82813 8.9878 8.57488 11.4347C7.98651 12.5856 7.85376 14.2472 8.92813 16.3678C9.96313 18.4097 12.1164 20.8554 15.9999 23.5194C19.8834 20.8554 22.0355 18.4097 23.0716 16.3678C24.146 14.2461 24.0144 12.5856 23.4249 11.4347C22.1716 8.9878 18.6999 8.31505 16.8065 10.2613L15.9999 11.0916ZM15.9999 24.8751C-1.24974 13.4766 10.6888 4.58005 15.8019 9.28593C15.8694 9.3478 15.9358 9.41193 15.9999 9.4783C16.0634 9.41199 16.1294 9.34819 16.1979 9.28705C21.3099 4.5778 33.2495 13.4754 15.9999 24.8751Z" fill="#002F34"/>
</g>
<defs>
<clipPath id="clip0">
<rect width="18" height="18" fill="white" transform="translate(7 8)"/>
</clipPath>
</defs>
</svg>
